<svg xmlns="http://www.w3.org/2000/svg" viewBox="0 0 1024 1024" version="1.1">
<g id="Parent-Group"><g id="Group-rgba(0,0,0,0)" fill="rgba(0,0,0,0)">
<path fill="rgba(0,0,0,0)" opacity="1.00" d=" M 0.00 0.00 L 1024.00 0.00 L 1024.00 637.21 C 950.67 637.17 877.34 637.24 804.00 637.22 C 798.19 637.10 792.35 637.41 786.56 636.80 C 790.28 635.69 794.73 635.51 797.67 632.72 C 798.45 630.22 798.20 627.55 798.31 624.97 C 798.52 603.30 800.50 581.70 800.78 560.03 C 800.90 543.22 802.11 526.31 800.24 509.56 C 799.57 505.75 798.29 501.37 794.61 499.46 C 790.37 497.27 785.42 497.98 780.83 497.46 C 780.42 496.38 780.01 495.30 779.60 494.23 C 758.80 492.55 737.90 492.04 717.03 492.08 C 713.20 492.13 709.17 491.87 705.63 493.60 C 701.13 496.15 695.75 493.27 691.10 495.35 C 687.86 496.57 686.13 499.89 685.40 503.09 C 683.49 510.90 683.53 519.00 682.94 526.98 C 681.60 559.55 683.04 592.14 683.07 624.70 C 667.13 628.35 651.03 631.28 634.94 634.19 C 628.58 635.09 622.45 637.59 615.96 637.34 C 600.42 637.19 584.88 637.28 569.35 637.28 C 572.73 621.45 572.48 605.07 570.43 589.08 C 569.67 583.82 570.46 578.32 568.77 573.23 C 567.00 568.32 561.57 566.50 557.01 565.17 C 547.22 562.72 537.07 562.10 527.02 561.88 C 527.28 558.31 527.64 554.75 528.45 551.27 C 531.22 550.38 534.11 549.99 537.01 549.95 C 553.02 549.63 569.03 549.36 585.05 549.60 C 588.99 549.55 593.40 549.97 596.65 547.25 C 596.08 544.00 593.05 542.51 589.98 543.09 C 578.08 544.74 566.03 544.45 554.04 544.71 C 545.98 544.89 537.84 544.00 529.85 545.37 C 526.87 545.85 523.59 547.31 522.64 550.44 C 521.53 554.09 521.93 557.97 521.80 561.74 C 511.06 562.27 499.52 563.78 490.90 570.79 C 488.00 572.96 485.83 576.24 485.92 579.98 C 485.34 599.08 485.29 618.30 488.10 637.26 C 474.75 637.29 461.39 637.19 448.04 637.28 C 448.65 621.18 448.61 605.07 448.76 588.97 C 448.68 578.47 449.42 567.85 447.40 557.48 C 446.65 553.19 444.18 548.50 439.51 547.64 C 429.79 545.84 419.84 546.27 410.00 545.92 C 403.81 545.84 397.59 545.75 391.44 546.60 C 391.58 548.23 391.03 550.21 392.41 551.46 C 397.12 552.97 402.18 552.28 407.05 552.50 C 416.98 552.74 426.96 552.23 436.84 553.37 C 440.87 553.73 441.59 558.34 442.17 561.54 C 443.58 572.65 442.99 583.89 442.91 595.05 C 442.88 609.02 442.89 622.98 442.58 636.95 C 419.38 637.51 396.16 637.04 372.95 637.18 C 348.58 637.16 324.20 637.30 299.83 637.14 C 302.85 632.33 302.87 626.50 303.40 621.04 C 303.97 608.76 304.57 596.41 303.33 584.15 C 302.74 580.35 301.86 575.72 298.08 573.81 C 294.31 572.06 290.09 571.70 286.01 571.29 C 274.74 570.36 263.38 569.96 252.10 570.81 C 247.00 571.17 241.29 572.85 238.62 577.61 C 236.79 581.48 237.13 585.91 236.58 590.07 C 235.46 599.66 235.65 609.33 235.27 618.97 C 235.19 625.07 234.59 631.42 236.92 637.23 C 224.90 637.16 212.87 637.38 200.84 637.17 C 200.15 631.69 201.16 624.51 196.02 620.89 C 190.73 618.41 184.63 619.73 179.00 619.03 C 165.18 617.73 151.25 618.12 137.47 619.67 C 135.09 619.98 132.15 620.61 131.28 623.20 C 129.62 627.63 130.27 632.47 129.93 637.10 C 86.62 637.26 43.31 637.19 0.00 637.22 L 0.00 0.00 M 503.50 212.62 C 500.58 213.11 496.90 213.93 495.82 217.11 C 494.28 221.19 494.90 225.69 494.34 229.95 C 493.10 241.89 492.64 253.97 494.11 265.91 C 494.63 269.37 495.45 273.34 498.47 275.52 C 502.49 278.02 507.36 278.48 511.99 278.75 C 520.32 278.97 528.66 279.29 537.00 279.33 C 542.37 279.25 547.88 278.87 552.94 276.91 C 555.35 276.02 556.63 273.50 556.78 271.06 C 558.59 254.28 557.95 237.28 555.35 220.62 C 555.05 217.66 552.95 215.03 550.06 214.25 C 544.79 212.98 539.31 213.34 533.94 213.09 C 523.81 212.61 513.62 211.55 503.50 212.62 M 563.55 241.61 C 562.20 241.93 560.87 242.53 560.42 243.96 C 561.01 246.41 563.85 246.82 565.98 246.82 C 584.64 246.18 603.36 244.65 622.02 246.18 C 624.92 246.61 628.92 246.62 630.24 249.83 C 633.18 256.83 631.51 264.63 632.66 271.94 C 632.90 273.13 633.53 274.79 635.15 274.36 C 637.19 274.06 637.21 271.54 637.35 269.97 C 637.46 263.94 636.99 257.89 636.00 251.95 C 635.44 248.33 633.59 244.40 629.81 243.29 C 623.45 241.20 616.62 241.60 610.02 241.34 C 595.67 241.29 581.32 241.82 566.97 241.28 C 565.81 241.23 564.67 241.34 563.55 241.61 M 326.16 242.20 C 315.76 242.47 305.36 242.62 294.97 243.24 C 289.45 243.73 283.49 244.44 278.97 247.95 C 275.07 251.05 274.58 256.38 274.05 260.96 C 271.69 295.93 273.29 330.97 272.88 365.97 C 272.79 376.67 272.77 387.37 272.78 398.07 C 272.86 400.05 272.61 402.89 275.09 403.51 C 277.58 403.04 277.46 400.06 277.64 398.10 C 277.89 379.38 278.72 360.67 278.78 341.95 C 278.80 316.33 278.03 290.70 279.30 265.10 C 279.71 261.22 279.55 256.99 281.62 253.54 C 285.26 249.67 291.02 249.51 295.96 249.02 C 329.62 247.82 363.31 247.13 397.00 247.73 C 415.69 247.85 434.36 249.73 453.05 248.90 C 462.73 248.71 472.42 248.84 482.09 248.44 C 484.09 248.26 486.86 248.32 487.53 245.92 C 486.22 244.17 483.92 244.34 481.99 244.20 C 470.97 244.05 459.96 244.28 448.94 244.45 C 433.25 244.72 417.62 243.05 401.95 242.54 C 376.70 241.70 351.42 241.59 326.16 242.20 M 606.49 281.73 C 602.77 281.89 600.70 285.53 600.55 288.89 C 599.24 305.24 600.42 321.65 600.68 338.02 C 600.84 342.01 601.10 346.80 604.73 349.30 C 609.21 352.31 614.89 351.68 620.02 352.20 C 632.68 352.34 645.51 353.31 658.02 350.86 C 661.37 350.09 665.31 349.32 667.21 346.12 C 669.17 342.42 668.79 338.05 668.86 334.00 C 668.44 322.34 667.97 310.68 667.83 299.01 C 667.65 294.80 668.08 290.35 666.34 286.40 C 664.72 282.90 660.56 281.96 657.10 281.56 C 646.75 280.72 636.36 281.42 626.01 280.93 C 619.50 281.32 612.96 281.00 606.49 281.73 M 527.04 283.15 C 524.18 284.87 525.51 289.25 524.96 292.09 C 525.16 301.26 522.76 312.01 529.45 319.55 C 535.26 326.92 545.31 327.95 554.03 327.98 C 566.55 328.00 579.10 327.50 591.57 326.39 C 593.44 326.50 595.59 323.66 593.09 322.73 C 577.73 321.61 562.22 325.17 546.95 322.41 C 540.86 321.34 534.70 317.35 533.13 311.07 C 531.68 302.74 533.42 294.20 532.08 285.86 C 531.83 283.52 529.13 282.09 527.04 283.15 M 554.72 335.10 C 554.16 355.72 555.58 376.32 555.83 396.93 C 555.90 405.21 554.61 415.14 547.00 420.01 C 538.27 425.39 527.60 423.27 517.94 423.10 C 517.63 424.44 517.58 425.79 517.79 427.13 C 521.10 429.20 525.20 429.10 528.98 429.24 C 537.07 429.32 545.87 428.76 552.58 423.70 C 559.30 418.29 561.50 409.29 561.83 401.04 C 562.09 389.71 561.52 378.38 561.07 367.06 C 560.52 357.03 560.97 346.97 560.10 336.96 C 559.87 334.65 558.99 330.90 555.85 331.72 C 555.04 332.68 554.66 333.81 554.72 335.10 M 396.59 337.87 C 393.32 338.23 389.45 338.52 387.24 341.32 C 385.18 344.08 385.18 347.74 385.31 351.03 C 387.71 374.26 386.52 397.64 386.12 420.93 C 385.65 435.77 382.12 450.79 385.63 465.51 C 386.26 468.59 388.42 471.99 391.90 472.09 C 414.58 471.55 437.30 470.02 460.00 471.11 C 474.70 471.87 489.45 471.70 504.11 470.41 C 507.75 470.17 511.85 468.95 513.49 465.36 C 515.46 460.86 515.47 455.82 515.80 451.00 C 517.94 422.68 513.83 394.39 514.35 366.06 C 514.10 359.21 514.98 352.25 513.62 345.48 C 513.05 342.26 510.49 339.50 507.14 339.29 C 499.71 338.51 492.34 340.35 484.92 340.45 C 472.57 340.61 460.18 340.85 447.90 339.32 C 430.87 337.43 413.70 336.76 396.59 337.87 M 630.83 356.70 C 630.45 359.10 630.19 361.53 630.22 363.98 C 630.27 383.99 631.00 404.00 632.07 423.98 C 633.08 447.63 631.39 471.33 632.89 494.96 C 633.32 496.69 632.99 499.51 634.98 500.28 C 637.73 500.30 637.69 496.97 637.76 494.99 C 637.48 475.31 638.27 455.63 638.43 435.95 C 638.36 415.27 637.16 394.60 637.13 373.92 C 636.99 368.58 637.41 363.16 636.37 357.89 C 635.17 355.89 632.73 356.25 630.83 356.70 M 255.56 411.68 C 251.60 412.33 247.31 413.59 244.77 416.95 C 241.98 420.64 241.85 425.46 241.36 429.88 C 240.38 444.22 239.94 458.79 242.52 472.99 C 243.28 477.08 247.09 479.54 251.01 479.96 C 262.94 481.61 274.99 481.99 287.00 482.64 C 292.32 482.80 297.68 483.53 302.97 482.71 C 305.65 482.30 307.59 480.03 308.47 477.59 C 310.76 471.33 311.51 464.63 311.62 458.00 C 311.87 444.93 311.83 431.78 309.82 418.84 C 309.36 416.30 308.52 413.28 305.85 412.28 C 301.70 410.99 297.27 411.15 292.98 411.07 C 280.51 411.18 267.98 410.19 255.56 411.68 M 321.02 451.92 C 319.30 451.95 317.84 452.88 316.40 453.70 C 316.60 455.14 316.53 457.09 318.20 457.70 C 321.38 458.87 324.82 458.09 328.10 457.87 C 335.39 457.32 342.69 456.83 350.00 456.65 C 352.50 456.67 355.50 456.54 357.31 458.61 C 359.97 461.73 359.89 466.13 359.81 470.01 C 359.37 482.30 358.37 494.60 358.77 506.91 C 358.91 508.55 358.93 511.06 360.95 511.53 C 363.75 511.33 363.79 508.08 364.12 506.01 C 365.03 495.34 364.59 484.62 365.08 473.94 C 365.42 467.96 365.45 461.43 361.77 456.37 C 358.57 451.58 352.28 450.73 346.98 450.87 C 338.33 451.30 329.65 451.13 321.02 451.92 M 448.11 476.31 C 446.92 477.72 447.12 479.81 446.80 481.55 C 446.11 491.01 445.47 500.52 446.09 510.00 C 446.47 516.53 449.26 523.51 455.39 526.62 C 462.06 529.88 469.70 529.99 476.98 530.45 C 490.60 530.96 504.24 532.02 517.88 531.66 C 520.42 532.44 521.98 528.51 519.07 528.25 C 506.37 527.46 493.59 527.48 480.90 526.25 C 473.43 525.47 465.61 525.44 458.63 522.35 C 454.22 520.45 452.02 515.71 451.49 511.18 C 450.44 501.46 451.46 491.67 452.35 481.98 C 452.39 480.34 452.73 478.62 452.12 477.05 C 451.55 475.52 449.13 475.13 448.11 476.31 M 271.25 489.18 C 270.41 490.25 270.51 491.70 270.30 492.98 C 268.19 515.93 269.24 539.02 270.32 561.99 C 270.51 563.52 271.25 565.23 273.04 565.37 C 275.07 564.95 275.24 562.64 275.35 560.97 C 275.74 543.82 276.00 526.66 275.72 509.51 C 275.50 503.29 275.60 497.00 274.21 490.91 C 274.33 489.52 272.22 487.23 271.25 489.18 M 612.52 505.74 C 609.39 506.04 605.93 506.29 603.49 508.50 C 601.86 510.26 601.25 512.70 600.92 515.02 C 598.85 531.60 599.58 548.34 599.30 565.01 C 599.43 568.44 598.82 572.77 601.89 575.18 C 605.65 577.94 610.53 578.07 615.00 578.50 C 627.97 579.25 640.98 579.53 653.96 578.93 C 658.25 578.62 663.53 577.81 665.81 573.65 C 667.71 569.40 667.83 564.64 668.13 560.07 C 668.43 547.06 668.97 534.05 668.57 521.04 C 668.33 516.91 668.50 512.41 666.26 508.75 C 663.68 505.28 658.86 505.56 655.02 505.28 C 640.85 505.00 626.66 504.96 612.52 505.74 M 341.57 515.77 C 336.92 516.29 331.95 516.34 327.75 518.67 C 323.97 521.00 323.37 525.88 323.22 529.92 C 323.08 539.60 323.62 549.27 323.64 558.95 C 323.75 562.63 323.43 566.34 323.99 569.99 C 324.68 573.30 327.89 575.31 330.96 576.10 C 338.48 578.05 346.33 577.46 354.01 578.10 C 361.38 578.30 368.74 579.12 376.12 578.75 C 380.01 578.50 384.35 576.78 385.91 572.91 C 387.69 568.17 387.52 563.00 387.73 558.01 C 387.77 549.00 388.30 540.01 388.43 531.00 C 388.36 526.75 388.36 521.93 385.39 518.54 C 382.39 515.69 377.95 515.49 374.05 515.11 C 363.23 514.47 352.37 514.91 341.57 515.77 M 353.32 582.52 C 351.31 585.56 352.57 589.59 351.98 593.03 C 351.94 597.79 349.60 603.81 344.04 603.98 C 332.29 604.56 320.62 601.71 308.87 601.97 C 305.09 601.99 305.21 608.39 309.04 608.20 C 316.67 608.86 324.36 607.85 332.01 608.53 C 338.24 608.52 344.84 610.27 350.80 607.75 C 355.32 605.75 356.97 600.60 357.77 596.12 C 358.42 591.78 359.15 587.27 358.05 582.95 C 356.94 581.65 354.48 581.11 353.32 582.52 M 626.78 586.01 C 626.35 596.74 627.07 607.50 628.42 618.15 C 626.36 618.11 623.53 617.04 622.21 619.26 C 621.92 622.54 624.29 625.39 625.98 628.01 C 627.16 629.54 629.29 632.16 631.33 630.36 C 634.24 627.44 637.23 624.01 638.19 619.93 C 637.59 616.73 633.75 617.75 631.50 617.94 C 632.24 608.63 632.76 599.29 633.32 589.97 C 633.33 587.57 633.80 584.82 632.13 582.84 C 629.89 581.08 626.58 583.37 626.78 586.01 Z" />
<path fill="rgba(0,0,0,0)" opacity="1.00" d=" M 711.08 496.76 C 731.90 496.04 752.71 497.62 773.52 497.89 C 769.22 504.01 767.83 511.63 767.59 518.97 C 767.16 531.70 767.60 544.45 767.33 557.18 C 744.84 556.52 722.35 556.12 699.88 555.11 C 699.76 545.05 699.92 534.99 700.06 524.93 C 700.33 516.85 700.30 508.30 704.21 500.98 C 705.35 498.28 708.17 496.67 711.08 496.76 Z" />
<path fill="rgba(0,0,0,0)" opacity="1.00" d=" M 690.90 501.02 C 692.37 497.37 697.19 499.16 700.22 498.73 C 696.56 506.60 696.06 515.45 695.91 524.00 C 695.74 534.99 695.67 545.98 695.50 556.96 C 695.66 559.66 699.00 559.39 700.95 559.66 C 722.29 560.62 743.66 560.90 765.02 561.64 C 767.17 561.53 769.77 562.18 771.56 560.59 C 772.08 550.76 771.63 540.88 771.78 531.03 C 771.95 521.18 771.01 510.56 776.21 501.71 C 780.70 500.95 785.46 501.46 790.00 502.01 C 794.86 503.07 794.64 509.16 795.15 513.04 C 796.37 537.99 794.43 562.97 794.19 587.93 C 794.18 601.63 793.73 615.33 793.74 629.03 C 780.16 629.17 766.60 627.87 753.03 627.58 C 731.19 626.76 709.35 625.87 687.53 624.70 C 687.58 588.79 686.30 552.83 688.28 516.94 C 688.68 511.59 688.65 506.00 690.90 501.02 Z" />
<path fill="rgba(0,0,0,0)" opacity="1.00" d=" M 518.94 593.30 C 534.62 593.40 551.76 594.02 565.41 585.02 C 566.44 594.99 568.06 604.93 567.83 614.99 C 567.89 625.34 565.98 635.58 563.41 645.57 C 561.87 651.29 556.37 654.59 551.51 657.28 C 537.76 663.85 521.39 662.60 507.43 657.33 C 502.01 654.90 495.10 652.31 493.58 645.85 C 488.97 626.13 490.54 605.74 490.11 585.68 C 498.75 590.95 508.94 592.96 518.94 593.30 Z" />
<path fill="rgba(0,0,0,0)" opacity="1.00" d=" M 568.77 641.91 C 577.99 642.11 587.21 642.05 596.42 641.64 C 591.63 643.29 586.20 643.89 582.22 647.25 C 580.56 648.33 579.89 651.10 581.96 652.15 C 585.66 654.04 590.00 653.64 594.03 654.10 C 617.01 655.22 640.03 655.23 663.04 655.81 C 685.63 655.99 708.49 656.64 730.68 651.62 C 730.63 656.25 730.66 660.89 730.55 665.52 C 728.75 665.68 726.92 665.69 725.19 666.19 C 723.59 667.17 722.87 670.28 724.90 671.18 C 729.27 671.71 733.72 671.54 738.10 671.19 C 740.58 671.05 740.68 667.83 740.37 665.99 C 739.00 664.51 736.56 665.16 734.76 664.73 C 734.45 660.10 734.45 655.47 734.61 650.84 C 746.43 648.33 758.13 645.32 769.86 642.41 C 777.75 641.79 785.71 642.16 793.63 642.11 C 793.30 650.18 793.03 658.25 793.05 666.33 C 791.01 666.43 788.90 666.24 786.95 666.88 C 784.70 667.56 784.17 671.81 786.95 672.06 C 791.63 672.38 796.37 672.22 801.07 672.02 C 802.78 672.12 804.62 670.86 804.29 668.95 C 804.60 665.10 799.67 666.30 797.28 665.79 C 797.15 657.89 797.30 649.98 797.58 642.08 C 815.72 641.98 833.86 642.13 852.01 642.08 C 909.34 642.21 966.67 641.72 1024.00 642.05 L 1024.00 703.57 C 1000.34 704.09 976.67 703.90 953.01 703.22 C 923.34 703.07 893.66 702.82 863.99 702.38 C 833.35 701.66 802.70 703.29 772.06 702.41 C 758.38 702.20 744.70 701.80 731.03 701.36 C 726.22 701.29 721.23 700.37 716.64 702.26 C 716.66 703.45 716.69 704.64 716.72 705.84 C 719.09 706.45 721.52 707.08 724.00 706.93 C 745.02 706.45 766.03 707.91 787.05 707.90 C 798.35 708.32 809.65 708.00 820.96 707.90 C 854.63 707.67 888.29 708.87 921.97 708.73 C 955.98 708.36 989.99 709.67 1024.00 709.08 L 1024.00 736.19 C 946.66 736.20 869.31 736.16 791.97 736.20 C 708.56 736.07 625.15 736.43 541.75 735.96 C 541.05 726.24 539.93 716.56 539.54 706.83 C 539.44 703.13 537.26 699.67 534.00 697.94 C 527.53 694.31 519.98 693.67 512.87 692.13 C 511.78 688.90 511.49 684.59 507.82 683.13 C 502.14 681.05 495.93 682.06 490.02 681.86 C 477.65 682.19 464.70 680.52 454.02 673.86 C 450.26 671.58 448.38 667.22 448.03 662.98 C 447.33 656.03 447.56 649.02 447.70 642.04 C 461.20 641.94 474.70 642.07 488.20 642.05 C 489.15 645.72 489.69 649.73 492.23 652.74 C 495.42 656.46 499.91 658.75 504.33 660.69 C 516.75 665.72 530.68 667.29 543.83 664.48 C 551.74 662.76 559.38 658.94 564.81 652.83 C 567.47 649.82 567.97 645.68 568.77 641.91 M 628.03 657.15 C 626.41 660.70 626.34 664.70 625.84 668.51 C 625.17 676.45 624.64 684.59 626.40 692.44 C 627.71 698.32 632.42 703.11 638.19 704.73 C 646.88 707.25 656.04 707.25 665.01 707.73 C 675.30 707.81 685.71 708.98 695.93 707.38 C 692.41 710.07 688.75 713.33 688.02 717.95 C 687.76 719.50 687.50 721.90 689.36 722.60 C 691.42 723.56 693.26 721.69 695.02 720.86 C 702.19 716.23 709.23 711.34 715.72 705.79 C 715.77 703.40 717.55 700.48 715.47 698.55 C 711.75 694.81 707.06 692.26 702.97 688.97 C 698.37 685.76 693.94 682.12 688.66 680.12 C 687.81 681.20 687.07 682.41 687.21 683.86 C 687.01 690.22 687.06 696.59 687.32 702.95 C 679.22 703.44 671.12 702.80 663.02 702.73 C 655.11 702.27 647.03 701.97 639.48 699.35 C 635.21 697.94 632.29 693.91 631.71 689.53 C 630.40 679.39 631.88 669.10 630.51 658.97 C 630.48 657.48 629.48 656.70 628.03 657.15 Z" />
<path fill="rgba(0,0,0,0)" opacity="1.00" d=" M 0.00 642.07 C 43.25 642.29 86.50 641.60 129.75 642.16 C 129.79 644.06 129.82 645.96 129.84 647.88 C 120.23 648.35 110.59 648.85 101.09 650.43 C 97.17 651.03 96.74 655.64 96.30 658.81 C 95.02 674.15 92.41 689.93 96.53 705.08 C 97.45 708.39 98.56 712.51 102.25 713.70 C 107.93 715.60 114.05 715.26 119.95 715.68 C 131.29 715.70 142.61 716.79 153.94 716.49 C 157.50 716.27 161.30 716.23 164.47 714.38 C 166.95 712.84 167.09 709.59 167.40 707.00 C 167.78 701.36 168.14 695.72 168.32 690.07 C 176.93 690.25 185.70 690.32 194.14 688.42 C 198.45 687.44 199.39 682.57 199.85 678.86 C 201.12 666.66 202.07 654.38 201.39 642.12 C 281.66 642.21 361.95 641.89 442.21 642.13 C 442.11 651.37 440.80 660.88 443.35 669.93 C 445.61 677.21 453.06 680.74 459.54 683.51 C 474.06 689.24 489.95 687.26 505.16 687.33 C 507.75 687.14 507.57 690.01 508.01 691.78 C 498.97 691.70 489.23 691.25 481.28 696.33 C 477.51 698.75 472.60 701.87 472.85 706.97 C 473.11 716.73 473.29 726.49 473.89 736.25 C 315.93 736.07 157.96 736.27 0.00 736.18 L 0.00 642.07 M 274.12 645.22 C 272.12 646.03 272.39 648.79 271.78 650.55 C 270.74 654.61 270.60 659.89 266.58 662.29 C 261.11 664.75 254.90 664.19 249.06 663.95 C 235.98 662.99 222.92 661.75 209.89 660.26 C 208.31 660.21 206.54 659.85 205.15 660.79 C 203.38 661.64 202.58 664.44 204.23 665.81 C 207.28 667.23 210.73 667.14 214.01 667.51 C 228.66 668.39 243.31 669.47 257.99 669.37 C 263.99 669.18 271.34 668.52 274.86 662.90 C 277.56 658.17 279.22 652.50 278.46 647.03 C 278.31 644.96 275.66 644.78 274.12 645.22 Z" />
<path fill="rgba(0,0,0,0)" opacity="1.00" d=" M 477.45 713.50 C 495.93 719.94 516.85 720.22 535.23 713.36 C 536.40 723.20 537.62 733.06 537.75 742.98 C 537.90 751.53 538.18 760.32 535.39 768.54 C 534.87 770.14 533.68 771.39 532.28 772.27 C 524.85 777.20 516.08 780.74 507.03 780.22 C 499.20 779.95 491.68 777.10 485.01 773.13 C 483.18 772.03 481.62 770.33 481.32 768.16 C 479.78 760.30 479.71 752.26 478.95 744.32 C 478.12 734.06 477.65 723.78 477.45 713.50 Z" />
<path fill="rgba(0,0,0,0)" opacity="1.00" d=" M 0.00 740.97 C 34.68 741.31 69.36 741.00 104.04 741.11 C 227.40 741.20 350.76 740.94 474.10 741.14 C 474.90 748.11 475.38 755.12 476.30 762.09 C 439.20 762.35 402.09 762.72 364.99 761.81 C 362.77 757.31 361.56 752.36 359.05 748.01 C 358.30 746.37 356.52 745.95 354.97 745.48 C 351.40 750.79 348.38 756.48 344.72 761.73 C 339.15 762.14 333.55 761.74 327.97 761.90 C 218.65 761.88 109.32 761.93 0.00 761.88 L 0.00 740.97 Z" />
<path fill="rgba(0,0,0,0)" opacity="1.00" d=" M 541.81 740.86 C 582.52 741.21 623.24 741.09 663.95 741.09 C 732.29 741.12 800.62 741.09 868.95 741.11 C 920.63 741.00 972.32 741.29 1024.00 740.93 L 1024.00 761.86 C 883.02 761.99 742.03 761.87 601.05 761.91 C 581.11 761.83 561.16 762.11 541.23 761.56 C 541.88 754.68 541.94 747.76 541.81 740.86 Z" />
<path fill="rgba(0,0,0,0)" opacity="1.00" d=" M 0.00 766.68 C 59.33 766.38 118.67 766.63 178.00 766.55 C 232.59 766.61 287.18 766.38 341.76 766.68 C 341.81 767.94 341.24 770.30 343.05 770.65 C 346.58 771.58 350.27 771.49 353.89 771.75 C 353.38 780.85 352.88 790.04 353.85 799.13 C 355.31 799.14 356.77 799.14 358.23 799.13 C 359.67 790.38 358.60 781.42 358.68 772.59 C 361.05 772.84 363.50 773.47 365.86 772.83 C 367.72 771.32 366.74 768.84 366.71 766.84 C 385.14 766.38 403.58 766.79 422.01 766.67 C 440.16 766.78 458.32 766.23 476.46 766.94 C 477.29 770.18 478.32 773.71 481.27 775.70 C 494.37 784.99 512.52 787.27 527.11 780.12 C 532.80 777.21 540.11 773.87 540.59 766.55 C 701.73 766.66 862.86 766.34 1024.00 766.63 L 1024.00 1024.00 L 0.00 1024.00 L 0.00 766.68 M 321.31 798.25 C 318.65 799.49 315.79 802.60 317.44 805.68 C 319.12 808.69 322.88 809.38 325.96 810.10 C 339.17 812.44 352.64 811.42 365.97 811.19 C 373.64 810.75 381.45 810.89 388.92 808.87 C 392.76 807.76 397.17 804.53 396.04 799.96 C 395.54 796.10 391.14 795.19 387.98 794.59 C 382.69 794.10 377.32 793.64 372.02 794.08 C 369.86 794.25 368.71 797.81 370.98 798.68 C 377.04 799.86 383.34 798.31 389.40 799.69 C 390.33 800.09 392.20 800.11 391.66 801.61 C 388.70 805.35 383.38 805.60 379.01 806.04 C 363.71 806.59 348.35 807.43 333.08 806.02 C 329.56 805.60 325.77 805.29 322.86 803.06 C 326.41 801.57 330.11 800.42 333.92 799.85 C 336.55 799.37 339.49 799.30 341.37 797.13 C 340.68 795.89 339.97 794.68 339.24 793.49 C 333.11 794.31 326.97 795.70 321.31 798.25 M 388.09 818.12 C 388.05 818.63 387.95 819.66 387.90 820.18 C 392.15 823.32 398.30 822.20 402.65 825.45 C 403.40 827.39 400.75 827.97 399.50 828.74 C 392.65 831.38 385.23 831.96 377.96 832.46 C 359.27 833.08 340.49 833.23 321.86 831.35 C 316.92 830.72 311.58 830.43 307.38 827.45 C 310.68 825.39 314.54 824.63 318.07 823.09 C 320.21 822.44 320.61 818.85 318.10 818.43 C 314.23 818.76 310.77 820.73 307.23 822.17 C 304.78 823.17 301.98 825.08 302.21 828.08 C 302.99 831.43 306.68 832.69 309.57 833.63 C 314.95 834.94 320.50 835.42 326.00 835.90 C 340.68 836.85 355.39 837.02 370.10 836.68 C 379.86 836.55 389.81 836.21 399.20 833.28 C 401.87 832.26 404.89 831.16 406.51 828.66 C 408.48 825.34 405.52 821.59 402.34 820.55 C 397.83 818.89 392.95 817.10 388.09 818.12 M 331.62 818.88 C 331.59 820.45 331.66 822.03 331.83 823.61 C 335.49 823.71 339.16 823.88 342.83 823.83 C 342.93 822.25 343.02 820.68 343.09 819.12 C 339.28 818.65 335.44 818.58 331.62 818.88 M 368.15 819.37 C 366.36 820.31 367.30 822.77 368.20 824.05 C 371.04 825.20 374.30 824.80 377.24 824.24 C 380.05 824.14 380.06 819.07 377.20 819.17 C 374.19 818.96 371.13 818.91 368.15 819.37 M 351.22 820.20 C 350.22 821.51 351.08 823.25 351.14 824.74 C 353.74 825.19 356.43 825.51 359.05 825.01 C 360.69 823.97 359.83 821.69 359.78 820.12 C 356.98 819.54 353.94 819.09 351.22 820.20 Z" />
</g>
<g id="Group-000000" fill="#000000">
<path fill="#000000" opacity="1.00" d=" M 503.50 212.62 C 513.62 211.55 523.81 212.61 533.94 213.09 C 539.31 213.34 544.79 212.98 550.06 214.25 C 552.95 215.03 555.05 217.66 555.35 220.62 C 557.95 237.28 558.59 254.28 556.78 271.06 C 556.63 273.50 555.35 276.02 552.94 276.91 C 547.88 278.87 542.37 279.25 537.00 279.33 C 528.66 279.29 520.32 278.97 511.99 278.75 C 507.36 278.48 502.49 278.02 498.47 275.52 C 495.45 273.34 494.63 269.37 494.11 265.91 C 492.64 253.97 493.10 241.89 494.34 229.95 C 494.90 225.69 494.28 221.19 495.82 217.11 C 496.90 213.93 500.58 213.11 503.50 212.62 M 515.66 217.75 C 521.44 217.83 527.19 218.56 532.98 218.64 C 537.97 218.88 543.04 218.28 547.97 219.25 C 551.02 220.08 550.45 223.93 551.24 226.31 C 552.78 224.92 552.00 222.59 551.84 220.83 C 551.14 217.85 547.61 217.17 545.01 217.20 C 536.68 217.18 528.34 217.29 520.06 216.20 C 518.44 216.29 515.73 215.29 515.66 217.75 M 499.40 220.42 C 498.40 223.58 498.42 226.96 498.30 230.24 C 500.99 228.12 498.89 223.72 500.76 220.99 C 501.54 219.14 504.33 219.26 504.89 217.29 C 502.72 216.47 500.19 218.39 499.40 220.42 M 518.98 252.29 C 516.58 250.64 514.77 248.32 512.61 246.40 C 510.10 244.98 507.36 248.71 509.09 250.90 C 512.04 255.11 515.27 259.22 519.01 262.78 C 522.88 260.91 525.39 257.29 528.42 254.38 C 534.39 247.88 540.97 241.71 545.27 233.90 C 544.40 231.43 543.40 228.99 541.73 226.95 C 534.02 235.28 526.67 243.94 518.98 252.29 M 551.00 231.29 C 551.31 235.70 550.90 240.15 551.35 244.55 C 551.71 244.78 552.43 245.23 552.79 245.46 C 553.00 240.96 553.08 236.44 552.74 231.95 C 552.31 231.78 551.43 231.45 551.00 231.29 M 497.42 238.04 C 496.73 239.10 497.34 241.40 498.89 241.07 C 500.76 240.21 499.19 236.25 497.42 238.04 M 498.07 256.14 C 496.90 262.88 499.14 272.54 507.08 273.79 C 515.06 274.73 523.15 274.52 531.18 274.36 L 530.66 272.77 C 523.07 272.36 515.40 273.38 507.86 272.14 C 504.84 271.68 502.43 269.41 501.11 266.76 C 499.33 263.57 499.42 259.82 498.76 256.33 L 498.07 256.14 M 548.77 271.02 C 546.49 272.80 542.12 270.91 541.34 274.19 C 544.31 274.02 547.65 274.11 550.16 272.24 C 551.80 270.33 551.34 267.53 551.49 265.19 C 549.36 266.26 549.70 269.12 548.77 271.02 Z" />
<path fill="#000000" opacity="1.00" d=" M 563.55 241.61 C 564.67 241.34 565.81 241.23 566.97 241.28 C 581.32 241.82 595.67 241.29 610.02 241.34 C 616.62 241.60 623.45 241.20 629.81 243.29 C 633.59 244.40 635.44 248.33 636.00 251.95 C 636.99 257.89 637.46 263.94 637.35 269.97 C 637.21 271.54 637.19 274.06 635.15 274.36 C 633.53 274.79 632.90 273.13 632.66 271.94 C 631.51 264.63 633.18 256.83 630.24 249.83 C 628.92 246.62 624.92 246.61 622.02 246.18 C 603.36 244.65 584.64 246.18 565.98 246.82 C 563.85 246.82 561.01 246.41 560.42 243.96 C 560.87 242.53 562.20 241.93 563.55 241.61 Z" />
<path fill="#000000" opacity="1.00" d=" M 326.16 242.20 C 351.42 241.59 376.70 241.70 401.95 242.54 C 417.62 243.05 433.25 244.72 448.94 244.45 C 459.96 244.28 470.97 244.05 481.99 244.20 C 483.92 244.34 486.22 244.17 487.53 245.92 C 486.86 248.32 484.09 248.26 482.09 248.44 C 472.42 248.84 462.73 248.71 453.05 248.90 C 434.36 249.73 415.69 247.85 397.00 247.73 C 363.31 247.13 329.62 247.82 295.96 249.02 C 291.02 249.51 285.26 249.67 281.62 253.54 C 279.55 256.99 279.71 261.22 279.30 265.10 C 278.03 290.70 278.80 316.33 278.78 341.95 C 278.72 360.67 277.89 379.38 277.64 398.10 C 277.46 400.06 277.58 403.04 275.09 403.51 C 272.61 402.89 272.86 400.05 272.78 398.07 C 272.77 387.37 272.79 376.67 272.88 365.97 C 273.29 330.97 271.69 295.93 274.05 260.96 C 274.58 256.38 275.07 251.05 278.97 247.95 C 283.49 244.44 289.45 243.73 294.97 243.24 C 305.36 242.62 315.76 242.47 326.16 242.20 Z" />
<path fill="#000000" opacity="1.00" d=" M 606.49 281.73 C 612.96 281.00 619.50 281.32 626.01 280.93 C 636.36 281.42 646.75 280.72 657.10 281.56 C 660.56 281.96 664.72 282.90 666.34 286.40 C 668.08 290.35 667.65 294.80 667.83 299.01 C 667.97 310.68 668.44 322.34 668.86 334.00 C 668.79 338.05 669.17 342.42 667.21 346.12 C 665.31 349.32 661.37 350.09 658.02 350.86 C 645.51 353.31 632.68 352.34 620.02 352.20 C 614.89 351.68 609.21 352.31 604.73 349.30 C 601.10 346.80 600.84 342.01 600.68 338.02 C 600.42 321.65 599.24 305.24 600.55 288.89 C 600.70 285.53 602.77 281.89 606.49 281.73 M 607.95 285.82 C 605.50 285.79 602.95 290.07 605.67 291.37 C 606.25 290.32 606.82 289.27 607.38 288.21 C 610.02 287.69 612.68 287.21 615.30 286.54 C 613.48 284.56 610.30 285.71 607.95 285.82 M 617.93 286.92 C 619.38 286.76 620.82 286.57 622.26 286.34 C 620.74 285.62 617.81 283.97 617.93 286.92 M 640.09 285.24 C 640.09 285.64 640.10 286.43 640.10 286.83 C 644.22 286.88 648.34 287.05 652.47 287.10 C 652.28 286.71 651.89 285.94 651.70 285.55 C 647.83 285.36 643.95 285.36 640.09 285.24 M 656.01 285.58 C 656.63 287.62 659.24 287.36 660.85 288.17 C 661.58 290.54 660.46 294.06 663.05 295.45 C 663.15 292.96 663.63 290.13 662.02 288.00 C 660.65 286.07 658.16 285.86 656.01 285.58 M 619.24 293.30 C 615.95 294.76 614.35 299.40 616.64 302.35 C 618.86 305.50 624.48 304.30 625.53 300.69 C 627.15 297.00 623.56 291.10 619.24 293.30 M 662.01 302.44 C 661.49 304.06 662.05 304.62 663.69 304.12 C 664.18 302.51 663.61 301.96 662.01 302.44 M 633.39 307.53 C 630.78 309.18 628.29 311.08 626.30 313.45 C 622.00 318.10 622.66 325.79 626.42 330.56 C 631.30 336.07 640.10 335.81 646.00 332.15 C 651.67 328.61 653.40 320.58 650.33 314.78 C 647.60 308.64 639.76 304.01 633.39 307.53 M 662.14 310.45 C 661.95 313.16 661.60 315.93 662.21 318.62 C 662.56 318.70 663.25 318.85 663.60 318.93 C 663.68 316.34 663.64 313.75 663.60 311.17 C 663.23 310.99 662.50 310.63 662.14 310.45 M 605.84 333.45 C 606.36 332.00 606.53 330.48 605.59 329.17 C 604.80 330.55 604.30 332.33 605.84 333.45 M 661.11 342.02 C 657.95 344.17 653.96 344.17 650.45 345.37 C 650.28 345.74 649.95 346.50 649.78 346.87 C 654.09 346.31 658.81 346.10 662.47 343.48 C 664.88 340.06 663.93 335.51 663.77 331.61 C 660.73 334.04 663.75 339.14 661.11 342.02 M 605.08 340.16 C 604.98 342.73 606.15 345.43 608.79 346.21 C 612.59 347.43 616.80 347.96 620.75 347.11 C 618.66 344.56 614.83 346.23 612.03 345.32 C 608.69 345.35 606.93 342.42 605.08 340.16 M 627.05 346.16 C 625.82 347.66 628.50 348.77 629.37 347.46 C 630.41 346.08 627.86 345.05 627.05 346.16 M 633.55 346.14 C 633.76 346.49 634.16 347.20 634.37 347.56 C 636.39 347.57 639.75 348.92 640.40 346.12 C 638.12 345.88 635.82 345.91 633.55 346.14 Z" />
<path fill="#000000" opacity="1.00" d=" M 527.04 283.15 C 529.13 282.09 531.83 283.52 532.08 285.86 C 533.42 294.20 531.68 302.74 533.13 311.07 C 534.70 317.35 540.86 321.34 546.95 322.41 C 562.22 325.17 577.73 321.61 593.09 322.73 C 595.59 323.66 593.44 326.50 591.57 326.39 C 579.10 327.50 566.55 328.00 554.03 327.98 C 545.31 327.95 535.26 326.92 529.45 319.55 C 522.76 312.01 525.16 301.26 524.96 292.09 C 525.51 289.25 524.18 284.87 527.04 283.15 Z" />
<path fill="#000000" opacity="1.00" d=" M 634.39 311.68 C 637.09 310.52 640.36 312.70 642.46 314.48 C 646.04 317.94 646.48 324.39 643.04 328.09 C 638.78 331.84 630.75 330.88 628.75 325.11 C 626.15 319.77 630.93 315.12 634.39 311.68 Z" />
<path fill="#000000" opacity="1.00" d=" M 396.59 337.87 C 413.70 336.76 430.87 337.43 447.90 339.32 C 460.18 340.85 472.57 340.61 484.92 340.45 C 492.34 340.35 499.71 338.51 507.14 339.29 C 510.49 339.50 513.05 342.26 513.62 345.48 C 514.98 352.25 514.10 359.21 514.35 366.06 C 513.83 394.39 517.94 422.68 515.80 451.00 C 515.47 455.82 515.46 460.86 513.49 465.36 C 511.85 468.95 507.75 470.17 504.11 470.41 C 489.45 471.70 474.70 471.87 460.00 471.11 C 437.30 470.02 414.58 471.55 391.90 472.09 C 388.42 471.99 386.26 468.59 385.63 465.51 C 382.12 450.79 385.65 435.77 386.12 420.93 C 386.52 397.64 387.71 374.26 385.31 351.03 C 385.18 347.74 385.18 344.08 387.24 341.32 C 389.45 338.52 393.32 338.23 396.59 337.87 M 503.48 344.41 C 504.80 345.06 506.37 345.34 507.51 346.33 C 508.38 348.27 507.71 351.15 509.85 352.34 C 509.97 349.69 510.02 346.81 508.42 344.55 C 507.14 343.44 504.64 342.83 503.48 344.41 M 508.19 359.92 C 507.68 361.47 508.26 362.01 509.93 361.55 C 510.46 359.98 509.89 359.43 508.19 359.92 M 508.81 373.10 C 509.24 373.18 510.09 373.34 510.51 373.42 C 510.58 371.32 510.60 369.23 510.63 367.14 C 507.60 367.12 508.98 371.11 508.81 373.10 M 423.35 381.55 C 416.95 385.67 412.46 393.52 414.51 401.25 C 416.71 412.23 432.68 415.78 440.26 408.17 C 445.28 402.65 445.22 393.79 441.26 387.69 C 437.74 381.76 429.79 378.47 423.35 381.55 M 468.96 381.14 C 460.36 385.06 456.86 396.82 460.72 405.21 C 464.28 411.75 473.04 414.29 479.84 411.72 C 486.44 409.92 490.13 402.58 489.18 396.07 C 488.56 386.48 478.60 377.98 468.96 381.14 M 390.52 428.56 C 390.89 428.45 391.64 428.22 392.02 428.10 C 392.26 425.45 392.48 422.78 392.29 420.12 C 389.60 422.00 390.93 425.78 390.52 428.56 M 389.27 440.13 C 388.16 441.08 389.05 444.10 390.69 442.84 C 391.87 441.90 390.87 438.87 389.27 440.13 M 388.47 451.31 C 388.63 455.86 388.97 460.50 390.38 464.86 C 390.70 466.24 391.66 467.21 393.14 467.33 C 390.81 461.83 389.87 455.95 389.69 450.00 C 389.38 450.33 388.77 450.98 388.47 451.31 Z" />
<path fill="#000000" opacity="1.00" d=" M 630.83 356.70 C 632.73 356.25 635.17 355.89 636.37 357.89 C 637.41 363.16 636.99 368.58 637.13 373.92 C 637.16 394.60 638.36 415.27 638.43 435.95 C 638.27 455.63 637.48 475.31 637.76 494.99 C 637.69 496.97 637.73 500.30 634.98 500.28 C 632.99 499.51 633.32 496.69 632.89 494.96 C 631.39 471.33 633.08 447.63 632.07 423.98 C 631.00 404.00 630.27 383.99 630.22 363.98 C 630.19 361.53 630.45 359.10 630.83 356.70 Z" />
<path fill="#000000" opacity="1.00" d=" M 424.43 386.62 C 429.57 385.23 434.92 389.23 436.59 394.04 C 438.09 398.23 437.64 404.00 433.47 406.51 C 427.11 409.51 417.20 404.51 418.20 396.84 C 419.52 393.12 421.56 389.33 424.43 386.62 Z" />
<path fill="#000000" opacity="1.00" d=" M 468.36 387.40 C 471.70 385.16 476.40 387.35 478.99 389.96 C 483.11 394.20 483.56 402.09 479.10 406.24 C 473.02 410.43 462.60 405.65 463.12 397.86 C 463.76 393.94 466.23 390.63 468.36 387.40 Z" />
<path fill="#000000" opacity="1.00" d=" M 255.56 411.68 C 267.98 410.19 280.51 411.18 292.98 411.07 C 297.27 411.15 301.70 410.99 305.85 412.28 C 308.52 413.28 309.36 416.30 309.82 418.84 C 311.83 431.78 311.87 444.93 311.62 458.00 C 311.51 464.63 310.76 471.33 308.47 477.59 C 307.59 480.03 305.65 482.30 302.97 482.71 C 297.68 483.53 292.32 482.80 287.00 482.64 C 274.99 481.99 262.94 481.61 251.01 479.96 C 247.09 479.54 243.28 477.08 242.52 472.99 C 239.94 458.79 240.38 444.22 241.36 429.88 C 241.85 425.46 241.98 420.64 244.77 416.95 C 247.31 413.59 251.60 412.33 255.56 411.68 M 297.11 415.54 C 298.76 417.36 301.58 417.09 303.52 418.49 C 305.92 429.91 305.58 441.68 306.08 453.29 C 307.24 452.97 307.70 452.23 307.47 451.07 C 307.48 440.37 306.96 429.67 305.66 419.05 C 304.91 415.17 300.13 415.41 297.11 415.54 M 264.19 424.19 C 258.33 428.89 257.33 437.00 257.17 444.02 C 256.99 448.11 259.15 452.38 263.08 453.95 C 269.96 456.85 277.52 458.72 285.04 458.05 C 288.56 457.84 292.20 456.02 293.54 452.58 C 296.55 446.06 297.61 438.39 295.82 431.40 C 292.47 427.24 286.39 427.99 282.23 425.42 C 286.80 425.90 291.41 425.99 295.93 426.96 C 293.01 422.93 287.33 423.30 282.93 422.51 C 276.73 422.13 269.55 419.96 264.19 424.19 M 301.97 476.19 C 305.25 475.78 306.35 471.80 305.76 469.01 C 303.82 470.97 303.25 473.81 301.97 476.19 Z" />
<path fill="#000000" opacity="1.00" d=" M 266.49 428.45 C 270.53 425.28 276.01 427.44 280.48 428.43 C 284.64 429.88 289.61 430.06 293.06 433.00 C 294.08 439.10 292.64 445.50 289.95 451.02 C 289.06 453.07 287.12 454.37 284.97 454.82 C 288.94 448.59 291.02 441.08 290.85 433.71 C 290.48 433.82 289.75 434.04 289.38 434.15 C 287.88 440.70 287.87 448.13 283.59 453.64 C 280.48 455.95 276.44 453.67 273.01 453.38 C 268.67 452.17 262.20 451.57 261.24 446.14 C 260.48 439.94 261.96 432.98 266.49 428.45 Z" />
<path fill="#000000" opacity="1.00" d=" M 321.02 451.92 C 329.65 451.13 338.33 451.30 346.98 450.87 C 352.28 450.73 358.57 451.58 361.77 456.37 C 365.45 461.43 365.42 467.96 365.08 473.94 C 364.59 484.62 365.03 495.34 364.12 506.01 C 363.79 508.08 363.75 511.33 360.95 511.53 C 358.93 511.06 358.91 508.55 358.77 506.91 C 358.37 494.60 359.37 482.30 359.81 470.01 C 359.89 466.13 359.97 461.73 357.31 458.61 C 355.50 456.54 352.50 456.67 350.00 456.65 C 342.69 456.83 335.39 457.32 328.10 457.87 C 324.82 458.09 321.38 458.87 318.20 457.70 C 316.53 457.09 316.60 455.14 316.40 453.70 C 317.84 452.88 319.30 451.95 321.02 451.92 Z" />
<path fill="#000000" opacity="1.00" d=" M 271.25 489.18 C 272.22 487.23 274.33 489.52 274.21 490.91 C 275.60 497.00 275.50 503.29 275.72 509.51 C 276.00 526.66 275.74 543.82 275.35 560.97 C 275.24 562.64 275.07 564.95 273.04 565.37 C 271.25 565.23 270.51 563.52 270.32 561.99 C 269.24 539.02 268.19 515.93 270.30 492.98 C 270.51 491.70 270.41 490.25 271.25 489.18 Z" />
<path fill="#000000" opacity="1.00" d=" M 705.63 493.60 C 709.17 491.87 713.20 492.13 717.03 492.08 C 737.90 492.04 758.80 492.55 779.60 494.23 C 780.01 495.30 780.42 496.38 780.83 497.46 C 785.42 497.98 790.37 497.27 794.61 499.46 C 798.29 501.37 799.57 505.75 800.24 509.56 C 802.11 526.31 800.90 543.22 800.78 560.03 C 800.50 581.70 798.52 603.30 798.31 624.97 C 798.20 627.55 798.45 630.22 797.67 632.72 C 794.73 635.51 790.28 635.69 786.56 636.80 C 792.35 637.41 798.19 637.10 804.00 637.22 C 877.34 637.24 950.67 637.17 1024.00 637.21 L 1024.00 642.05 C 966.67 641.72 909.34 642.21 852.01 642.08 C 833.86 642.13 815.72 641.98 797.58 642.08 C 797.30 649.98 797.15 657.89 797.28 665.79 C 799.67 666.30 804.60 665.10 804.29 668.95 C 804.62 670.86 802.78 672.12 801.07 672.02 C 796.37 672.22 791.63 672.38 786.95 672.06 C 784.17 671.81 784.70 667.56 786.95 666.88 C 788.90 666.24 791.01 666.43 793.05 666.33 C 793.03 658.25 793.30 650.18 793.63 642.11 C 785.71 642.16 777.75 641.79 769.86 642.41 C 758.13 645.32 746.43 648.33 734.61 650.84 C 734.45 655.47 734.45 660.10 734.76 664.73 C 736.56 665.16 739.00 664.51 740.37 665.99 C 740.68 667.83 740.58 671.05 738.10 671.19 C 733.72 671.54 729.27 671.71 724.90 671.18 C 722.87 670.28 723.59 667.17 725.19 666.19 C 726.92 665.69 728.75 665.68 730.55 665.52 C 730.66 660.89 730.63 656.25 730.68 651.62 C 708.49 656.64 685.63 655.99 663.04 655.81 C 640.03 655.23 617.01 655.22 594.03 654.10 C 590.00 653.64 585.66 654.04 581.96 652.15 C 579.89 651.10 580.56 648.33 582.22 647.25 C 586.20 643.89 591.63 643.29 596.42 641.64 C 587.21 642.05 577.99 642.11 568.77 641.91 C 567.97 645.68 567.47 649.82 564.81 652.83 C 559.38 658.94 551.74 662.76 543.83 664.48 C 530.68 667.29 516.75 665.72 504.33 660.69 C 499.91 658.75 495.42 656.46 492.23 652.74 C 489.69 649.73 489.15 645.72 488.20 642.05 C 474.70 642.07 461.20 641.94 447.70 642.04 C 447.56 649.02 447.33 656.03 448.03 662.98 C 448.38 667.22 450.26 671.58 454.02 673.86 C 464.70 680.52 477.65 682.19 490.02 681.86 C 495.93 682.06 502.14 681.05 507.82 683.13 C 511.49 684.59 511.78 688.90 512.87 692.13 C 519.98 693.67 527.53 694.31 534.00 697.94 C 537.26 699.67 539.44 703.13 539.54 706.83 C 539.93 716.56 541.05 726.24 541.75 735.96 C 625.15 736.43 708.56 736.07 791.97 736.20 C 869.31 736.16 946.66 736.20 1024.00 736.19 L 1024.00 740.93 C 972.32 741.29 920.63 741.00 868.95 741.11 C 800.62 741.09 732.29 741.12 663.95 741.09 C 623.24 741.09 582.52 741.21 541.81 740.86 C 541.94 747.76 541.88 754.68 541.23 761.56 C 561.16 762.11 581.11 761.83 601.05 761.91 C 742.03 761.87 883.02 761.99 1024.00 761.86 L 1024.00 766.63 C 862.86 766.34 701.73 766.66 540.59 766.55 C 540.11 773.87 532.80 777.21 527.11 780.12 C 512.52 787.27 494.37 784.99 481.27 775.70 C 478.32 773.71 477.29 770.18 476.46 766.94 C 458.32 766.23 440.16 766.78 422.01 766.67 C 403.58 766.79 385.14 766.38 366.71 766.84 C 366.74 768.84 367.72 771.32 365.86 772.83 C 363.50 773.47 361.05 772.84 358.68 772.59 C 358.60 781.42 359.67 790.38 358.23 799.13 C 356.77 799.14 355.31 799.14 353.85 799.13 C 352.88 790.04 353.38 780.85 353.89 771.75 C 350.27 771.49 346.58 771.58 343.05 770.65 C 341.24 770.30 341.81 767.94 341.76 766.68 C 287.18 766.38 232.59 766.61 178.00 766.55 C 118.67 766.63 59.33 766.38 0.00 766.68 L 0.00 761.88 C 109.32 761.93 218.65 761.88 327.97 761.90 C 333.55 761.74 339.15 762.14 344.72 761.73 C 348.38 756.48 351.40 750.79 354.97 745.48 C 356.52 745.95 358.30 746.37 359.05 748.01 C 361.56 752.36 362.77 757.31 364.99 761.81 C 402.09 762.72 439.20 762.35 476.30 762.09 C 475.38 755.12 474.90 748.11 474.10 741.14 C 350.76 740.94 227.40 741.20 104.04 741.11 C 69.36 741.00 34.68 741.31 0.00 740.97 L 0.00 736.18 C 157.96 736.27 315.93 736.07 473.89 736.25 C 473.29 726.49 473.11 716.73 472.85 706.97 C 472.60 701.87 477.51 698.75 481.28 696.33 C 489.23 691.25 498.97 691.70 508.01 691.78 C 507.57 690.01 507.75 687.14 505.16 687.33 C 489.95 687.26 474.06 689.24 459.54 683.51 C 453.06 680.74 445.61 677.21 443.35 669.93 C 440.80 660.88 442.11 651.37 442.21 642.13 C 361.95 641.89 281.66 642.21 201.39 642.12 C 202.07 654.38 201.12 666.66 199.85 678.86 C 199.39 682.57 198.45 687.44 194.14 688.42 C 185.70 690.32 176.93 690.25 168.32 690.07 C 168.14 695.72 167.78 701.36 167.40 707.00 C 167.09 709.59 166.95 712.84 164.47 714.38 C 161.30 716.23 157.50 716.27 153.94 716.49 C 142.61 716.79 131.29 715.70 119.95 715.68 C 114.05 715.26 107.93 715.60 102.25 713.70 C 98.56 712.51 97.45 708.39 96.53 705.08 C 92.41 689.93 95.02 674.15 96.30 658.81 C 96.74 655.64 97.17 651.03 101.09 650.43 C 110.59 648.85 120.23 648.35 129.84 647.88 C 129.82 645.96 129.79 644.06 129.75 642.16 C 86.50 641.60 43.25 642.29 0.00 642.07 L 0.00 637.22 C 43.31 637.19 86.62 637.26 129.93 637.10 C 130.27 632.47 129.62 627.63 131.28 623.20 C 132.15 620.61 135.09 619.98 137.47 619.67 C 151.25 618.12 165.18 617.73 179.00 619.03 C 184.63 619.73 190.73 618.41 196.02 620.89 C 201.16 624.51 200.15 631.69 200.84 637.17 C 212.87 637.38 224.90 637.16 236.92 637.23 C 234.59 631.42 235.19 625.07 235.27 618.97 C 235.65 609.33 235.46 599.66 236.58 590.07 C 237.13 585.91 236.79 581.48 238.62 577.61 C 241.29 572.85 247.00 571.17 252.10 570.81 C 263.38 569.96 274.74 570.36 286.01 571.29 C 290.09 571.70 294.31 572.06 298.08 573.81 C 301.86 575.72 302.74 580.35 303.33 584.15 C 304.57 596.41 303.97 608.76 303.40 621.04 C 302.87 626.50 302.85 632.33 299.83 637.14 C 324.20 637.30 348.58 637.16 372.95 637.18 C 396.16 637.04 419.38 637.51 442.58 636.95 C 442.89 622.98 442.88 609.02 442.91 595.05 C 442.99 583.89 443.58 572.65 442.17 561.54 C 441.59 558.34 440.87 553.73 436.84 553.37 C 426.96 552.23 416.98 552.74 407.05 552.50 C 402.18 552.28 397.12 552.97 392.41 551.46 C 391.03 550.21 391.58 548.23 391.44 546.60 C 397.59 545.75 403.81 545.84 410.00 545.92 C 419.84 546.27 429.79 545.84 439.51 547.64 C 444.18 548.50 446.65 553.19 447.40 557.48 C 449.42 567.85 448.68 578.47 448.76 588.97 C 448.61 605.07 448.65 621.18 448.04 637.28 C 461.39 637.19 474.75 637.29 488.10 637.26 C 485.29 618.30 485.34 599.08 485.92 579.98 C 485.83 576.24 488.00 572.96 490.90 570.79 C 499.52 563.78 511.06 562.27 521.80 561.74 C 521.93 557.97 521.53 554.09 522.64 550.44 C 523.59 547.31 526.87 545.85 529.85 545.37 C 537.84 544.00 545.98 544.89 554.04 544.71 C 566.03 544.45 578.08 544.74 589.98 543.09 C 593.05 542.51 596.08 544.00 596.65 547.25 C 593.40 549.97 588.99 549.55 585.05 549.60 C 569.03 549.36 553.02 549.63 537.01 549.95 C 534.11 549.99 531.22 550.38 528.45 551.27 C 527.64 554.75 527.28 558.31 527.02 561.88 C 537.07 562.10 547.22 562.72 557.01 565.17 C 561.57 566.50 567.00 568.32 568.77 573.23 C 570.46 578.32 569.67 583.82 570.43 589.08 C 572.48 605.07 572.73 621.45 569.35 637.28 C 584.88 637.28 600.42 637.19 615.96 637.34 C 622.45 637.59 628.58 635.09 634.94 634.19 C 651.03 631.28 667.13 628.35 683.07 624.70 C 683.04 592.14 681.60 559.55 682.94 526.98 C 683.53 519.00 683.49 510.90 685.40 503.09 C 686.13 499.89 687.86 496.57 691.10 495.35 C 695.75 493.27 701.13 496.15 705.63 493.60 M 711.08 496.76 C 708.17 496.67 705.35 498.28 704.21 500.98 C 700.30 508.30 700.33 516.85 700.06 524.93 C 699.92 534.99 699.76 545.05 699.88 555.11 C 722.35 556.12 744.84 556.52 767.33 557.18 C 767.60 544.45 767.16 531.70 767.59 518.97 C 767.83 511.63 769.22 504.01 773.52 497.89 C 752.71 497.62 731.90 496.04 711.08 496.76 M 690.90 501.02 C 688.65 506.00 688.68 511.59 688.28 516.94 C 686.30 552.83 687.58 588.79 687.53 624.70 C 709.35 625.87 731.19 626.76 753.03 627.58 C 766.60 627.87 780.16 629.17 793.74 629.03 C 793.73 615.33 794.18 601.63 794.19 587.93 C 794.43 562.97 796.37 537.99 795.15 513.04 C 794.64 509.16 794.86 503.07 790.00 502.01 C 785.46 501.46 780.70 500.95 776.21 501.71 C 771.01 510.56 771.95 521.18 771.78 531.03 C 771.63 540.88 772.08 550.76 771.56 560.59 C 769.77 562.18 767.17 561.53 765.02 561.64 C 743.66 560.90 722.29 560.62 700.95 559.66 C 699.00 559.39 695.66 559.66 695.50 556.96 C 695.67 545.98 695.74 534.99 695.91 524.00 C 696.06 515.45 696.56 506.60 700.22 498.73 C 697.19 499.16 692.37 497.37 690.90 501.02 M 491.58 575.69 C 488.68 577.76 491.91 580.81 494.03 581.90 C 505.22 588.07 518.42 588.92 530.95 588.77 C 541.03 588.45 551.61 587.60 560.60 582.61 C 563.22 580.95 566.32 577.69 564.61 574.38 C 562.66 571.53 559.15 570.43 556.01 569.47 C 546.51 566.98 536.62 566.57 526.84 566.45 C 526.50 567.72 526.17 569.00 525.85 570.28 C 524.63 570.24 523.42 570.18 522.22 570.12 C 521.91 568.84 521.61 567.57 521.33 566.31 C 510.94 566.99 499.63 568.45 491.58 575.69 M 257.23 575.30 C 257.50 575.61 258.05 576.23 258.33 576.54 C 259.40 576.30 260.48 576.07 261.56 575.83 C 260.77 573.64 258.73 575.07 257.23 575.30 M 268.34 574.33 C 266.48 574.62 267.43 577.56 269.08 577.26 C 271.20 576.93 270.36 573.61 268.34 574.33 M 274.66 576.77 C 276.24 576.77 279.17 578.72 279.31 575.91 C 277.82 575.23 275.38 574.85 274.66 576.77 M 286.67 576.07 C 289.34 577.84 292.99 577.33 295.44 579.47 C 297.64 581.62 295.24 586.40 298.46 587.43 C 298.14 584.40 299.01 580.63 296.67 578.24 C 293.85 576.12 290.09 575.70 286.67 576.07 M 267.34 584.23 C 263.18 594.99 252.08 601.17 247.98 611.98 C 247.18 613.99 246.93 617.58 249.85 617.81 C 260.51 618.96 271.27 618.90 281.97 619.38 C 284.36 619.48 286.82 619.63 289.13 618.84 C 290.53 617.01 288.62 614.82 287.86 613.09 C 281.31 602.93 274.99 592.60 269.15 582.02 C 268.70 582.58 267.79 583.68 267.34 584.23 M 518.94 593.30 C 508.94 592.96 498.75 590.95 490.11 585.68 C 490.54 605.74 488.97 626.13 493.58 645.85 C 495.10 652.31 502.01 654.90 507.43 657.33 C 521.39 662.60 537.76 663.85 551.51 657.28 C 556.37 654.59 561.87 651.29 563.41 645.57 C 565.98 635.58 567.89 625.34 567.83 614.99 C 568.06 604.93 566.44 594.99 565.41 585.02 C 551.76 594.02 534.62 593.40 518.94 593.30 M 240.43 591.66 C 240.57 592.67 240.72 593.69 240.90 594.72 C 241.98 594.03 242.64 593.11 242.39 591.83 C 241.90 591.79 240.92 591.70 240.43 591.66 M 297.48 599.71 C 297.61 604.04 297.27 608.42 298.02 612.72 C 298.25 612.42 298.72 611.83 298.96 611.53 C 299.37 607.67 299.07 603.76 299.23 599.89 C 298.79 599.84 297.91 599.76 297.48 599.71 M 240.29 607.97 C 240.29 614.67 239.69 621.36 239.90 628.06 C 239.89 631.12 241.98 634.04 244.94 634.91 C 249.01 636.17 253.40 636.07 257.60 635.67 C 257.80 635.28 258.21 634.50 258.42 634.11 C 254.23 633.92 249.92 634.37 245.84 633.18 C 243.52 632.52 241.57 630.40 241.65 627.91 C 240.98 619.90 241.78 611.87 241.73 603.85 C 239.89 604.44 240.49 606.51 240.29 607.97 M 296.81 619.62 C 296.98 620.48 297.33 622.18 297.51 623.03 C 298.06 622.13 299.60 621.28 298.79 620.03 C 298.14 619.86 297.47 619.72 296.81 619.62 M 292.87 632.85 C 289.08 634.84 284.63 633.95 280.56 634.57 C 280.34 634.88 279.91 635.50 279.69 635.82 C 284.54 636.07 289.74 636.38 294.25 634.23 C 296.92 632.97 297.26 629.68 297.51 627.10 C 295.42 628.56 295.25 631.70 292.87 632.85 M 594.76 647.66 C 612.38 649.74 630.19 649.33 647.90 650.08 C 673.91 650.16 700.35 652.67 725.96 646.80 C 744.45 642.59 762.89 638.18 781.22 633.32 C 770.14 632.78 759.04 632.77 747.97 632.11 C 729.97 631.05 711.99 629.80 693.98 628.82 C 690.30 628.72 686.53 627.93 682.93 629.05 C 653.93 637.00 624.07 641.09 594.76 647.66 M 147.06 634.24 C 146.16 638.80 146.60 643.48 146.66 648.11 C 147.63 648.14 149.56 648.20 150.52 648.23 C 150.29 644.44 150.22 640.64 150.06 636.85 C 159.70 636.24 169.38 636.87 179.03 636.97 C 180.60 637.25 183.69 636.59 183.66 639.01 C 183.90 644.69 183.77 650.38 183.71 656.06 C 183.49 657.29 183.89 659.70 182.01 659.69 C 176.98 660.06 171.93 659.75 166.91 660.21 C 166.88 660.87 166.82 662.21 166.79 662.88 C 172.20 663.33 177.64 663.07 183.06 663.07 C 185.72 663.27 187.01 660.30 186.81 658.07 C 186.72 651.07 186.86 644.05 186.33 637.08 C 185.98 633.55 181.49 634.14 178.93 633.88 C 168.32 633.94 157.63 633.00 147.06 634.24 M 268.05 634.36 C 266.91 635.78 269.61 636.91 270.51 635.80 C 271.43 634.41 268.96 633.34 268.05 634.36 M 264.24 635.28 C 262.90 635.29 262.86 637.67 264.21 637.70 C 265.72 637.76 265.77 635.20 264.24 635.28 M 154.48 640.91 C 154.70 643.44 154.92 645.97 155.19 648.51 C 159.83 648.70 165.39 650.40 166.20 655.71 C 170.69 655.76 175.19 655.65 179.69 655.72 C 179.58 651.05 179.58 646.39 179.56 641.73 C 171.20 641.43 162.85 641.01 154.48 640.91 M 102.21 655.29 C 102.03 655.71 101.66 656.55 101.48 656.97 C 104.80 655.44 109.48 657.09 111.98 654.21 C 108.68 653.96 105.40 654.47 102.21 655.29 M 115.43 667.58 C 112.59 669.23 111.30 672.72 111.17 675.90 C 110.78 681.60 110.65 687.34 110.94 693.05 C 110.98 695.86 112.46 698.92 115.48 699.46 C 121.86 700.89 128.44 701.23 134.96 701.36 C 139.27 701.55 143.81 699.86 146.60 696.52 C 148.37 692.28 147.50 687.50 147.84 683.04 C 147.64 678.63 148.48 673.34 145.14 669.86 C 142.30 667.67 138.45 668.08 135.07 667.70 C 128.54 667.49 121.90 666.55 115.43 667.58 M 476.42 706.12 C 479.51 709.35 483.96 710.50 488.10 711.75 C 501.80 715.01 516.41 714.48 529.87 710.31 C 531.72 709.58 534.27 709.06 534.90 706.87 C 535.86 704.67 533.92 702.73 532.13 701.82 C 526.03 698.56 519.12 697.09 512.27 696.72 C 511.48 698.03 511.64 701.03 509.45 700.77 C 508.72 699.27 508.23 697.69 507.75 696.13 C 496.69 694.87 483.31 696.21 476.42 706.12 M 477.45 713.50 C 477.65 723.78 478.12 734.06 478.95 744.32 C 479.71 752.26 479.78 760.30 481.32 768.16 C 481.62 770.33 483.18 772.03 485.01 773.13 C 491.68 777.10 499.20 779.95 507.03 780.22 C 516.08 780.74 524.85 777.20 532.28 772.27 C 533.68 771.39 534.87 770.14 535.39 768.54 C 538.18 760.32 537.90 751.53 537.75 742.98 C 537.62 733.06 536.40 723.20 535.23 713.36 C 516.85 720.22 495.93 719.94 477.45 713.50 M 347.03 766.63 C 352.32 767.66 357.76 767.44 363.09 768.28 C 360.14 763.05 358.72 757.16 355.95 751.85 C 353.30 756.95 350.53 762.05 347.03 766.63 Z" />
<path fill="#000000" opacity="1.00" d=" M 612.52 505.74 C 626.66 504.96 640.85 505.00 655.02 505.28 C 658.86 505.56 663.68 505.28 666.26 508.75 C 668.50 512.41 668.33 516.91 668.57 521.04 C 668.97 534.05 668.43 547.06 668.13 560.07 C 667.83 564.64 667.71 569.40 665.81 573.65 C 663.53 577.81 658.25 578.62 653.96 578.93 C 640.98 579.53 627.97 579.25 615.00 578.50 C 610.53 578.07 605.65 577.94 601.89 575.18 C 598.82 572.77 599.43 568.44 599.30 565.01 C 599.58 548.34 598.85 531.60 600.92 515.02 C 601.25 512.70 601.86 510.26 603.49 508.50 C 605.93 506.29 609.39 506.04 612.52 505.74 M 605.54 513.39 C 603.91 516.40 604.26 519.97 604.37 523.27 C 606.90 520.93 605.02 516.76 607.08 514.09 C 608.83 511.43 612.31 511.72 615.10 511.41 C 614.86 511.02 614.38 510.22 614.14 509.83 C 610.96 509.55 607.31 510.55 605.54 513.39 M 621.31 510.77 C 624.81 510.98 628.33 510.93 631.84 510.78 C 631.83 510.43 631.82 509.72 631.82 509.37 C 628.51 509.27 625.20 509.19 621.90 509.15 C 621.75 509.55 621.46 510.36 621.31 510.77 M 636.10 509.33 C 634.55 512.37 639.38 509.51 636.10 509.33 M 641.26 509.55 C 641.21 509.92 641.11 510.67 641.07 511.04 C 646.51 511.26 651.99 510.79 657.43 511.34 C 660.29 511.62 661.61 514.38 662.74 516.65 C 663.88 514.82 662.78 512.86 661.87 511.22 C 655.33 508.60 648.11 509.91 641.26 509.55 M 662.05 520.56 C 661.55 522.15 662.13 522.68 663.79 522.16 C 664.27 520.57 663.69 520.04 662.05 520.56 M 619.39 526.15 C 618.78 528.02 618.41 529.95 618.34 531.93 C 617.87 540.04 617.26 548.21 618.13 556.32 C 624.15 555.90 629.10 551.96 634.43 549.53 C 638.49 547.04 643.43 545.77 646.70 542.17 C 641.85 537.53 635.72 534.55 630.00 531.12 C 626.54 529.32 623.40 526.60 619.39 526.15 M 662.25 530.23 C 661.44 542.40 662.22 554.71 660.46 566.82 C 660.50 570.09 656.71 570.53 655.69 573.11 C 660.39 573.89 662.57 568.93 662.72 565.05 C 663.48 553.67 663.33 542.25 663.73 530.86 C 663.36 530.71 662.62 530.39 662.25 530.23 M 603.16 537.98 C 602.37 538.97 602.28 541.34 603.82 541.66 C 605.66 541.25 605.20 536.93 603.16 537.98 M 603.40 548.42 C 603.67 554.72 603.30 561.04 603.85 567.32 C 604.51 571.94 609.61 573.63 613.68 573.44 C 611.85 570.85 607.14 571.48 605.90 567.92 C 603.83 561.87 605.26 555.23 604.68 548.94 C 604.36 548.81 603.72 548.55 603.40 548.42 M 615.11 571.14 C 613.66 574.19 618.40 571.23 615.11 571.14 M 620.77 572.45 C 621.56 574.11 623.39 574.05 625.00 573.94 C 626.71 574.22 627.38 573.54 627.01 571.90 C 624.92 571.68 622.83 572.21 620.77 572.45 Z" />
<path fill="#000000" opacity="1.00" d=" M 341.57 515.77 C 352.37 514.91 363.23 514.47 374.05 515.11 C 377.95 515.49 382.39 515.69 385.39 518.54 C 388.36 521.93 388.36 526.75 388.43 531.00 C 388.30 540.01 387.77 549.00 387.73 558.01 C 387.52 563.00 387.69 568.17 385.91 572.91 C 384.35 576.78 380.01 578.50 376.12 578.75 C 368.74 579.12 361.38 578.30 354.01 578.10 C 346.33 577.46 338.48 578.05 330.96 576.10 C 327.89 575.31 324.68 573.30 323.99 569.99 C 323.43 566.34 323.75 562.63 323.64 558.95 C 323.62 549.27 323.08 539.60 323.22 529.92 C 323.37 525.88 323.97 521.00 327.75 518.67 C 331.95 516.34 336.92 516.29 341.57 515.77 M 342.26 519.50 C 342.07 519.91 341.69 520.74 341.50 521.16 C 352.68 520.50 363.93 519.98 375.10 521.11 C 378.15 521.25 380.80 523.48 381.46 526.47 C 382.92 532.97 380.93 539.58 381.18 546.13 C 381.18 547.18 381.73 547.87 382.82 548.19 C 383.41 542.81 382.99 537.39 383.52 532.01 C 383.79 528.29 383.72 523.86 380.63 521.24 C 377.37 518.89 373.10 519.15 369.28 518.92 C 360.28 518.86 351.24 518.76 342.26 519.50 M 328.47 535.01 C 328.86 536.99 327.47 540.01 329.70 541.16 C 330.30 536.49 329.47 531.76 330.22 527.12 C 330.47 524.88 333.30 524.00 333.22 521.70 C 327.59 523.58 328.58 530.36 328.47 535.01 M 372.45 531.50 C 365.15 539.28 358.69 547.87 350.86 555.15 C 345.89 552.39 343.89 546.62 339.60 543.07 C 337.84 544.00 336.38 545.35 335.17 546.92 C 337.77 551.79 341.18 556.16 344.49 560.55 C 346.06 562.28 347.52 564.50 349.88 565.17 C 353.85 563.75 356.76 560.51 359.65 557.59 C 365.06 551.65 369.88 545.22 374.92 538.98 C 375.93 537.15 378.30 535.28 377.21 533.01 C 376.25 531.53 374.03 529.68 372.45 531.50 M 329.07 550.19 C 328.56 555.76 328.60 561.37 328.45 566.96 C 328.03 570.68 331.94 572.62 335.03 573.08 C 342.95 574.45 351.03 573.66 359.02 574.12 C 360.46 573.90 362.64 574.88 363.31 572.97 C 354.06 571.80 344.64 573.01 335.42 571.49 C 332.81 570.97 329.54 569.17 329.98 566.06 C 329.35 560.82 331.29 555.04 329.07 550.19 M 381.15 560.36 C 380.47 563.58 380.88 567.18 379.06 570.06 C 377.94 572.21 374.48 571.36 373.78 573.82 C 375.82 574.05 377.97 573.92 379.55 572.43 C 382.69 569.73 382.16 565.17 382.34 561.44 C 382.05 561.17 381.45 560.63 381.15 560.36 Z" />
<path fill="#000000" opacity="1.00" d=" M 510.51 574.80 C 523.44 573.56 536.57 573.30 549.51 574.69 C 551.98 575.30 555.68 575.11 556.52 578.15 C 553.58 580.43 549.44 579.85 545.94 580.21 C 532.29 580.13 518.61 580.84 504.97 580.04 C 503.29 579.94 499.64 579.36 500.59 576.90 C 500.97 574.33 503.44 576.01 505.05 575.98 C 506.91 575.85 508.68 575.15 510.51 574.80 Z" />
<path fill="#000000" opacity="1.00" d=" M 353.32 582.52 C 354.48 581.11 356.94 581.65 358.05 582.95 C 359.15 587.27 358.42 591.78 357.77 596.12 C 356.97 600.60 355.32 605.75 350.80 607.75 C 344.84 610.27 338.24 608.52 332.01 608.53 C 324.36 607.85 316.67 608.86 309.04 608.20 C 305.21 608.39 305.09 601.99 308.87 601.97 C 320.62 601.71 332.29 604.56 344.04 603.98 C 349.60 603.81 351.94 597.79 351.98 593.03 C 352.57 589.59 351.31 585.56 353.32 582.52 Z" />
<path fill="#000000" opacity="1.00" d=" M 626.78 586.01 C 626.58 583.37 629.89 581.08 632.13 582.84 C 633.80 584.82 633.33 587.57 633.32 589.97 C 632.76 599.29 632.24 608.63 631.50 617.94 C 633.75 617.75 637.59 616.73 638.19 619.93 C 637.23 624.01 634.24 627.44 631.33 630.36 C 629.29 632.16 627.16 629.54 625.98 628.01 C 624.29 625.39 621.92 622.54 622.21 619.26 C 623.53 617.04 626.36 618.11 628.42 618.15 C 627.07 607.50 626.35 596.74 626.78 586.01 Z" />
<path fill="#000000" opacity="1.00" d=" M 274.12 645.22 C 275.66 644.78 278.31 644.96 278.46 647.03 C 279.22 652.50 277.56 658.17 274.86 662.90 C 271.34 668.52 263.99 669.18 257.99 669.37 C 243.31 669.47 228.66 668.39 214.01 667.51 C 210.73 667.14 207.28 667.23 204.23 665.81 C 202.58 664.44 203.38 661.64 205.15 660.79 C 206.54 659.85 208.31 660.21 209.89 660.26 C 222.92 661.75 235.98 662.99 249.06 663.95 C 254.90 664.19 261.11 664.75 266.58 662.29 C 270.60 659.89 270.74 654.61 271.78 650.55 C 272.39 648.79 272.12 646.03 274.12 645.22 Z" />
<path fill="#000000" opacity="1.00" d=" M 628.03 657.15 C 629.48 656.70 630.48 657.48 630.51 658.97 C 631.88 669.10 630.40 679.39 631.71 689.53 C 632.29 693.91 635.21 697.94 639.48 699.35 C 647.03 701.97 655.11 702.27 663.02 702.73 C 671.12 702.80 679.22 703.44 687.32 702.95 C 687.06 696.59 687.01 690.22 687.21 683.86 C 687.07 682.41 687.81 681.20 688.66 680.12 C 693.94 682.12 698.37 685.76 702.97 688.97 C 707.06 692.26 711.75 694.81 715.47 698.55 C 717.55 700.48 715.77 703.40 715.72 705.79 C 709.23 711.34 702.19 716.23 695.02 720.86 C 693.26 721.69 691.42 723.56 689.36 722.60 C 687.50 721.90 687.76 719.50 688.02 717.95 C 688.75 713.33 692.41 710.07 695.93 707.38 C 685.71 708.98 675.30 707.81 665.01 707.73 C 656.04 707.25 646.88 707.25 638.19 704.73 C 632.42 703.11 627.71 698.32 626.40 692.44 C 624.64 684.59 625.17 676.45 625.84 668.51 C 626.34 664.70 626.41 660.70 628.03 657.15 M 692.04 687.18 C 691.62 688.81 692.22 689.40 693.84 688.96 C 694.22 687.34 693.62 686.74 692.04 687.18 Z" />
<path fill="#000000" opacity="1.00" d=" M 115.21 671.16 C 118.37 670.34 121.69 670.74 124.92 670.72 C 130.47 670.93 136.07 670.58 141.57 671.50 C 144.65 671.88 144.62 675.55 144.61 677.94 C 144.25 683.40 144.67 688.96 143.42 694.33 C 142.23 688.58 142.57 682.67 141.81 676.87 C 141.70 675.45 140.45 674.13 139.01 674.09 C 131.72 673.37 124.37 673.64 117.05 673.23 C 116.08 673.29 113.24 672.34 115.21 671.16 Z" />
<path fill="#000000" opacity="1.00" d=" M 114.92 675.89 C 122.98 675.99 131.14 675.57 139.11 676.84 C 139.93 683.01 139.81 689.31 139.39 695.51 C 139.35 698.23 135.99 698.24 134.02 698.06 C 128.35 697.47 122.60 697.48 116.99 696.43 C 114.93 696.11 114.58 693.78 114.44 692.08 C 114.12 686.68 114.37 681.26 114.92 675.89 Z" />
<path fill="#000000" opacity="1.00" d=" M 716.64 702.26 C 721.23 700.37 726.22 701.29 731.03 701.36 C 744.70 701.80 758.38 702.20 772.06 702.41 C 802.70 703.29 833.35 701.66 863.99 702.38 C 893.66 702.82 923.34 703.07 953.01 703.22 C 976.67 703.90 1000.34 704.09 1024.00 703.57 L 1024.00 709.08 C 989.99 709.67 955.98 708.36 921.97 708.73 C 888.29 708.87 854.63 707.67 820.96 707.90 C 809.65 708.00 798.35 708.32 787.05 707.90 C 766.03 707.91 745.02 706.45 724.00 706.93 C 721.52 707.08 719.09 706.45 716.72 705.84 C 716.69 704.64 716.66 703.45 716.64 702.26 Z" />
<path fill="#000000" opacity="1.00" d=" M 321.31 798.25 C 326.97 795.70 333.11 794.31 339.24 793.49 C 339.97 794.68 340.68 795.89 341.37 797.13 C 339.49 799.30 336.55 799.37 333.92 799.85 C 330.11 800.42 326.41 801.57 322.86 803.06 C 325.77 805.29 329.56 805.60 333.08 806.02 C 348.35 807.43 363.71 806.59 379.01 806.04 C 383.38 805.60 388.70 805.35 391.66 801.61 C 392.20 800.11 390.33 800.09 389.40 799.69 C 383.34 798.31 377.04 799.86 370.98 798.68 C 368.71 797.81 369.86 794.25 372.02 794.08 C 377.32 793.64 382.69 794.10 387.98 794.59 C 391.14 795.19 395.54 796.10 396.04 799.96 C 397.17 804.53 392.76 807.76 388.92 808.87 C 381.45 810.89 373.64 810.75 365.97 811.19 C 352.64 811.42 339.17 812.44 325.96 810.10 C 322.88 809.38 319.12 808.69 317.44 805.68 C 315.79 802.60 318.65 799.49 321.31 798.25 Z" />
<path fill="#000000" opacity="1.00" d=" M 388.09 818.12 C 392.95 817.10 397.83 818.89 402.34 820.55 C 405.52 821.59 408.48 825.34 406.51 828.66 C 404.89 831.16 401.87 832.26 399.20 833.28 C 389.81 836.21 379.86 836.55 370.10 836.68 C 355.39 837.02 340.68 836.85 326.00 835.90 C 320.50 835.42 314.95 834.94 309.57 833.63 C 306.68 832.69 302.99 831.43 302.21 828.08 C 301.98 825.08 304.78 823.17 307.23 822.17 C 310.77 820.73 314.23 818.76 318.10 818.43 C 320.61 818.85 320.21 822.44 318.07 823.09 C 314.54 824.63 310.68 825.39 307.38 827.45 C 311.58 830.43 316.92 830.72 321.86 831.35 C 340.49 833.23 359.27 833.08 377.96 832.46 C 385.23 831.96 392.65 831.38 399.50 828.74 C 400.75 827.97 403.40 827.39 402.65 825.45 C 398.30 822.20 392.15 823.32 387.90 820.18 C 387.95 819.66 388.05 818.63 388.09 818.12 Z" />
<path fill="#000000" opacity="1.00" d=" M 331.62 818.88 C 335.44 818.58 339.28 818.65 343.09 819.12 C 343.02 820.68 342.93 822.25 342.83 823.83 C 339.16 823.88 335.49 823.71 331.83 823.61 C 331.66 822.03 331.59 820.45 331.62 818.88 Z" />
<path fill="#000000" opacity="1.00" d=" M 368.15 819.37 C 371.13 818.91 374.19 818.96 377.20 819.17 C 380.06 819.07 380.05 824.14 377.24 824.24 C 374.30 824.80 371.04 825.20 368.20 824.05 C 367.30 822.77 366.36 820.31 368.15 819.37 Z" />
<path fill="#000000" opacity="1.00" d=" M 351.22 820.20 C 353.94 819.09 356.98 819.54 359.78 820.12 C 359.83 821.69 360.69 823.97 359.05 825.01 C 356.43 825.51 353.74 825.19 351.14 824.74 C 351.08 823.25 350.22 821.51 351.22 820.20 Z" />
</g>
<g id="Group-000000" fill="#000000">
<path fill="rgba(0,0,0,0)" opacity="1.00" d=" M 515.66 217.75 C 515.73 215.29 518.44 216.29 520.06 216.20 C 528.34 217.29 536.68 217.18 545.01 217.20 C 547.61 217.17 551.14 217.85 551.84 220.83 C 552.00 222.59 552.78 224.92 551.24 226.31 C 550.45 223.93 551.02 220.08 547.97 219.25 C 543.04 218.28 537.97 218.88 532.98 218.64 C 527.19 218.56 521.44 217.83 515.66 217.75 Z" />
<path fill="rgba(0,0,0,0)" opacity="1.00" d=" M 551.00 231.29 C 551.43 231.45 552.31 231.78 552.74 231.95 C 553.08 236.44 553.00 240.96 552.79 245.46 C 552.43 245.23 551.71 244.78 551.35 244.55 C 550.90 240.15 551.31 235.70 551.00 231.29 Z" />
<path fill="rgba(0,0,0,0)" opacity="1.00" d=" M 503.48 344.41 C 504.64 342.83 507.14 343.44 508.42 344.55 C 510.02 346.81 509.97 349.69 509.85 352.34 C 507.71 351.15 508.38 348.27 507.51 346.33 C 506.37 345.34 504.80 345.06 503.48 344.41 Z" />
<path fill="rgba(0,0,0,0)" opacity="1.00" d=" M 603.16 537.98 C 605.20 536.93 605.66 541.25 603.82 541.66 C 602.28 541.34 602.37 538.97 603.16 537.98 Z" />
</g>
<g id="Group-000000" fill="#000000">
<path fill="rgba(0,0,0,0)" opacity="1.00" d=" M 499.40 220.42 C 500.19 218.39 502.72 216.47 504.89 217.29 C 504.33 219.26 501.54 219.14 500.76 220.99 C 498.89 223.72 500.99 228.12 498.30 230.24 C 498.42 226.96 498.40 223.58 499.40 220.42 Z" />
<path fill="rgba(0,0,0,0)" opacity="1.00" d=" M 617.93 286.92 C 617.81 283.97 620.74 285.62 622.26 286.34 C 620.82 286.57 619.38 286.76 617.93 286.92 Z" />
<path fill="rgba(0,0,0,0)" opacity="1.00" d=" M 621.31 510.77 C 621.46 510.36 621.75 509.55 621.90 509.15 C 625.20 509.19 628.51 509.27 631.82 509.37 C 631.82 509.72 631.83 510.43 631.84 510.78 C 628.33 510.93 624.81 510.98 621.31 510.77 Z" />
<path fill="rgba(0,0,0,0)" opacity="1.00" d=" M 342.26 519.50 C 351.24 518.76 360.28 518.86 369.28 518.92 C 373.10 519.15 377.37 518.89 380.63 521.24 C 383.72 523.86 383.79 528.29 383.52 532.01 C 382.99 537.39 383.41 542.81 382.82 548.19 C 381.73 547.87 381.18 547.18 381.18 546.13 C 380.93 539.58 382.92 532.97 381.46 526.47 C 380.80 523.48 378.15 521.25 375.10 521.11 C 363.93 519.98 352.68 520.50 341.50 521.16 C 341.69 520.74 342.07 519.91 342.26 519.50 Z" />
<path fill="rgba(0,0,0,0)" opacity="1.00" d=" M 662.05 520.56 C 663.69 520.04 664.27 520.57 663.79 522.16 C 662.13 522.68 661.55 522.15 662.05 520.56 Z" />
<path fill="rgba(0,0,0,0)" opacity="1.00" d=" M 620.77 572.45 C 622.83 572.21 624.92 571.68 627.01 571.90 C 627.38 573.54 626.71 574.22 625.00 573.94 C 623.39 574.05 621.56 574.11 620.77 572.45 Z" />
<path fill="rgba(0,0,0,0)" opacity="1.00" d=" M 264.24 635.28 C 265.77 635.20 265.72 637.76 264.21 637.70 C 262.86 637.67 262.90 635.29 264.24 635.28 Z" />
<path fill="rgba(0,0,0,0)" opacity="1.00" d=" M 102.21 655.29 C 105.40 654.47 108.68 653.96 111.98 654.21 C 109.48 657.09 104.80 655.44 101.48 656.97 C 101.66 656.55 102.03 655.71 102.21 655.29 Z" />
</g>
<g id="Group-000000" fill="#000000">
<path fill="rgba(0,0,0,0)" opacity="1.00" d=" M 518.98 252.29 C 526.67 243.94 534.02 235.28 541.73 226.95 C 543.40 228.99 544.40 231.43 545.27 233.90 C 540.97 241.71 534.39 247.88 528.42 254.38 C 525.39 257.29 522.88 260.91 519.01 262.78 C 515.27 259.22 512.04 255.11 509.09 250.90 C 507.36 248.71 510.10 244.98 512.61 246.40 C 514.77 248.32 516.58 250.64 518.98 252.29 Z" />
</g>
<g id="Group-000000" fill="#000000">
<path fill="rgba(0,0,0,0)" opacity="1.00" d=" M 497.42 238.04 C 499.19 236.25 500.76 240.21 498.89 241.07 C 497.34 241.40 496.73 239.10 497.42 238.04 Z" />
<path fill="rgba(0,0,0,0)" opacity="1.00" d=" M 661.11 342.02 C 663.75 339.14 660.73 334.04 663.77 331.61 C 663.93 335.51 664.88 340.06 662.47 343.48 C 658.81 346.10 654.09 346.31 649.78 346.87 C 649.95 346.50 650.28 345.74 650.45 345.37 C 653.96 344.17 657.95 344.17 661.11 342.02 Z" />
<path fill="rgba(0,0,0,0)" opacity="1.00" d=" M 301.97 476.19 C 303.25 473.81 303.82 470.97 305.76 469.01 C 306.35 471.80 305.25 475.78 301.97 476.19 Z" />
<path fill="rgba(0,0,0,0)" opacity="1.00" d=" M 605.54 513.39 C 607.31 510.55 610.96 509.55 614.14 509.83 C 614.38 510.22 614.86 511.02 615.10 511.41 C 612.31 511.72 608.83 511.43 607.08 514.09 C 605.02 516.76 606.90 520.93 604.37 523.27 C 604.26 519.97 603.91 516.40 605.54 513.39 Z" />
<path fill="rgba(0,0,0,0)" opacity="1.00" d=" M 292.87 632.85 C 295.25 631.70 295.42 628.56 297.51 627.10 C 297.26 629.68 296.92 632.97 294.25 634.23 C 289.74 636.38 284.54 636.07 279.69 635.82 C 279.91 635.50 280.34 634.88 280.56 634.57 C 284.63 633.95 289.08 634.84 292.87 632.85 Z" />
<path fill="rgba(0,0,0,0)" opacity="1.00" d=" M 594.76 647.66 C 624.07 641.09 653.93 637.00 682.93 629.05 C 686.53 627.93 690.30 628.72 693.98 628.82 C 711.99 629.80 729.97 631.05 747.97 632.11 C 759.04 632.77 770.14 632.78 781.22 633.32 C 762.89 638.18 744.45 642.59 725.96 646.80 C 700.35 652.67 673.91 650.16 647.90 650.08 C 630.19 649.33 612.38 649.74 594.76 647.66 Z" />
<path fill="rgba(0,0,0,0)" opacity="1.00" d=" M 268.05 634.36 C 268.96 633.34 271.43 634.41 270.51 635.80 C 269.61 636.91 266.91 635.78 268.05 634.36 Z" />
</g>
<g id="Group-000000" fill="#000000">
<path fill="rgba(0,0,0,0)" opacity="1.00" d=" M 498.07 256.14 L 498.76 256.33 C 499.42 259.82 499.33 263.57 501.11 266.76 C 502.43 269.41 504.84 271.68 507.86 272.14 C 515.40 273.38 523.07 272.36 530.66 272.77 L 531.18 274.36 C 523.15 274.52 515.06 274.73 507.08 273.79 C 499.14 272.54 496.90 262.88 498.07 256.14 Z" />
<path fill="rgba(0,0,0,0)" opacity="1.00" d=" M 548.77 271.02 C 549.70 269.12 549.36 266.26 551.49 265.19 C 551.34 267.53 551.80 270.33 550.16 272.24 C 547.65 274.11 544.31 274.02 541.34 274.19 C 542.12 270.91 546.49 272.80 548.77 271.02 Z" />
<path fill="rgba(0,0,0,0)" opacity="1.00" d=" M 656.01 285.58 C 658.16 285.86 660.65 286.07 662.02 288.00 C 663.63 290.13 663.15 292.96 663.05 295.45 C 660.46 294.06 661.58 290.54 660.85 288.17 C 659.24 287.36 656.63 287.62 656.01 285.58 Z" />
<path fill="rgba(0,0,0,0)" opacity="1.00" d=" M 662.01 302.44 C 663.61 301.96 664.18 302.51 663.69 304.12 C 662.05 304.62 661.49 304.06 662.01 302.44 Z" />
<path fill="rgba(0,0,0,0)" opacity="1.00" d=" M 662.14 310.45 C 662.50 310.63 663.23 310.99 663.60 311.17 C 663.64 313.75 663.68 316.34 663.60 318.93 C 663.25 318.85 662.56 318.70 662.21 318.62 C 661.60 315.93 661.95 313.16 662.14 310.45 Z" />
<path fill="rgba(0,0,0,0)" opacity="1.00" d=" M 627.05 346.16 C 627.86 345.05 630.41 346.08 629.37 347.46 C 628.50 348.77 625.82 347.66 627.05 346.16 Z" />
<path fill="rgba(0,0,0,0)" opacity="1.00" d=" M 633.55 346.14 C 635.82 345.91 638.12 345.88 640.40 346.12 C 639.75 348.92 636.39 347.57 634.37 347.56 C 634.16 347.20 633.76 346.49 633.55 346.14 Z" />
<path fill="rgba(0,0,0,0)" opacity="1.00" d=" M 508.19 359.92 C 509.89 359.43 510.46 359.98 509.93 361.55 C 508.26 362.01 507.68 361.47 508.19 359.92 Z" />
<path fill="rgba(0,0,0,0)" opacity="1.00" d=" M 468.96 381.14 C 478.60 377.98 488.56 386.48 489.18 396.07 C 490.13 402.58 486.44 409.92 479.84 411.72 C 473.04 414.29 464.28 411.75 460.72 405.21 C 456.86 396.82 460.36 385.06 468.96 381.14 M 468.36 387.40 C 466.23 390.63 463.76 393.94 463.12 397.86 C 462.60 405.65 473.02 410.43 479.10 406.24 C 483.56 402.09 483.11 394.20 478.99 389.96 C 476.40 387.35 471.70 385.16 468.36 387.40 Z" />
<path fill="rgba(0,0,0,0)" opacity="1.00" d=" M 641.26 509.55 C 648.11 509.91 655.33 508.60 661.87 511.22 C 662.78 512.86 663.88 514.82 662.74 516.65 C 661.61 514.38 660.29 511.62 657.43 511.34 C 651.99 510.79 646.51 511.26 641.07 511.04 C 641.11 510.67 641.21 509.92 641.26 509.55 Z" />
<path fill="rgba(0,0,0,0)" opacity="1.00" d=" M 381.15 560.36 C 381.45 560.63 382.05 561.17 382.34 561.44 C 382.16 565.17 382.69 569.73 379.55 572.43 C 377.97 573.92 375.82 574.05 373.78 573.82 C 374.48 571.36 377.94 572.21 379.06 570.06 C 380.88 567.18 380.47 563.58 381.15 560.36 Z" />
<path fill="rgba(0,0,0,0)" opacity="1.00" d=" M 257.23 575.30 C 258.73 575.07 260.77 573.64 261.56 575.83 C 260.48 576.07 259.40 576.30 258.33 576.54 C 258.05 576.23 257.50 575.61 257.23 575.30 Z" />
<path fill="rgba(0,0,0,0)" opacity="1.00" d=" M 268.34 574.33 C 270.36 573.61 271.20 576.93 269.08 577.26 C 267.43 577.56 266.48 574.62 268.34 574.33 Z" />
<path fill="rgba(0,0,0,0)" opacity="1.00" d=" M 274.66 576.77 C 275.38 574.85 277.82 575.23 279.31 575.91 C 279.17 578.72 276.24 576.77 274.66 576.77 Z" />
<path fill="rgba(0,0,0,0)" opacity="1.00" d=" M 286.67 576.07 C 290.09 575.70 293.85 576.12 296.67 578.24 C 299.01 580.63 298.14 584.40 298.46 587.43 C 295.24 586.40 297.64 581.62 295.44 579.47 C 292.99 577.33 289.34 577.84 286.67 576.07 Z" />
<path fill="rgba(0,0,0,0)" opacity="1.00" d=" M 296.81 619.62 C 297.47 619.72 298.14 619.86 298.79 620.03 C 299.60 621.28 298.06 622.13 297.51 623.03 C 297.33 622.18 296.98 620.48 296.81 619.62 Z" />
<path fill="rgba(0,0,0,0)" opacity="1.00" d=" M 476.42 706.12 C 483.31 696.21 496.69 694.87 507.75 696.13 C 508.23 697.69 508.72 699.27 509.45 700.77 C 511.64 701.03 511.48 698.03 512.27 696.72 C 519.12 697.09 526.03 698.56 532.13 701.82 C 533.92 702.73 535.86 704.67 534.90 706.87 C 534.27 709.06 531.72 709.58 529.87 710.31 C 516.41 714.48 501.80 715.01 488.10 711.75 C 483.96 710.50 479.51 709.35 476.42 706.12 M 486.00 706.20 C 486.97 708.65 489.43 710.00 491.99 710.20 C 504.19 711.49 516.31 708.89 528.42 707.80 C 527.94 706.06 526.77 704.65 524.98 704.21 C 517.79 702.23 510.32 703.90 503.01 703.80 C 497.32 704.14 491.28 703.74 486.00 706.20 Z" />
</g>
<g id="Group-000000" fill="#000000">
<path fill="rgba(0,0,0,0)" opacity="1.00" d=" M 607.95 285.82 C 610.30 285.71 613.48 284.56 615.30 286.54 C 612.68 287.21 610.02 287.69 607.38 288.21 C 606.82 289.27 606.25 290.32 605.67 291.37 C 602.95 290.07 605.50 285.79 607.95 285.82 Z" />
<path fill="rgba(0,0,0,0)" opacity="1.00" d=" M 605.08 340.16 C 606.93 342.42 608.69 345.35 612.03 345.32 C 614.83 346.23 618.66 344.56 620.75 347.11 C 616.80 347.96 612.59 347.43 608.79 346.21 C 606.15 345.43 604.98 342.73 605.08 340.16 Z" />
<path fill="rgba(0,0,0,0)" opacity="1.00" d=" M 508.81 373.10 C 508.98 371.11 507.60 367.12 510.63 367.14 C 510.60 369.23 510.58 371.32 510.51 373.42 C 510.09 373.34 509.24 373.18 508.81 373.10 Z" />
<path fill="rgba(0,0,0,0)" opacity="1.00" d=" M 297.11 415.54 C 300.13 415.41 304.91 415.17 305.66 419.05 C 306.96 429.67 307.48 440.37 307.47 451.07 C 307.70 452.23 307.24 452.97 306.08 453.29 C 305.58 441.68 305.92 429.91 303.52 418.49 C 301.58 417.09 298.76 417.36 297.11 415.54 Z" />
<path fill="rgba(0,0,0,0)" opacity="1.00" d=" M 390.52 428.56 C 390.93 425.78 389.60 422.00 392.29 420.12 C 392.48 422.78 392.26 425.45 392.02 428.10 C 391.64 428.22 390.89 428.45 390.52 428.56 Z" />
<path fill="rgba(0,0,0,0)" opacity="1.00" d=" M 297.48 599.71 C 297.91 599.76 298.79 599.84 299.23 599.89 C 299.07 603.76 299.37 607.67 298.96 611.53 C 298.72 611.83 298.25 612.42 298.02 612.72 C 297.27 608.42 297.61 604.04 297.48 599.71 Z" />
<path fill="rgba(0,0,0,0)" opacity="1.00" d=" M 154.48 640.91 C 162.85 641.01 171.20 641.43 179.56 641.73 C 179.58 646.39 179.58 651.05 179.69 655.72 C 175.19 655.65 170.69 655.76 166.20 655.71 C 165.39 650.40 159.83 648.70 155.19 648.51 C 154.92 645.97 154.70 643.44 154.48 640.91 Z" />
</g>
<g id="Group-000000" fill="#000000">
<path fill="rgba(0,0,0,0)" opacity="1.00" d=" M 640.09 285.24 C 643.95 285.36 647.83 285.36 651.70 285.55 C 651.89 285.94 652.28 286.71 652.47 287.10 C 648.34 287.05 644.22 286.88 640.10 286.83 C 640.10 286.43 640.09 285.64 640.09 285.24 Z" />
<path fill="rgba(0,0,0,0)" opacity="1.00" d=" M 388.47 451.31 C 388.77 450.98 389.38 450.33 389.69 450.00 C 389.87 455.95 390.81 461.83 393.14 467.33 C 391.66 467.21 390.70 466.24 390.38 464.86 C 388.97 460.50 388.63 455.86 388.47 451.31 Z" />
<path fill="rgba(0,0,0,0)" opacity="1.00" d=" M 328.47 535.01 C 328.58 530.36 327.59 523.58 333.22 521.70 C 333.30 524.00 330.47 524.88 330.22 527.12 C 329.47 531.76 330.30 536.49 329.70 541.16 C 327.47 540.01 328.86 536.99 328.47 535.01 Z" />
<path fill="rgba(0,0,0,0)" opacity="1.00" d=" M 662.25 530.23 C 662.62 530.39 663.36 530.71 663.73 530.86 C 663.33 542.25 663.48 553.67 662.72 565.05 C 662.57 568.93 660.39 573.89 655.69 573.11 C 656.71 570.53 660.50 570.09 660.46 566.82 C 662.22 554.71 661.44 542.40 662.25 530.23 Z" />
<path fill="rgba(0,0,0,0)" opacity="1.00" d=" M 240.29 607.97 C 240.49 606.51 239.89 604.44 241.73 603.85 C 241.78 611.87 240.98 619.90 241.65 627.91 C 241.57 630.40 243.52 632.52 245.84 633.18 C 249.92 634.37 254.23 633.92 258.42 634.11 C 258.21 634.50 257.80 635.28 257.60 635.67 C 253.40 636.07 249.01 636.17 244.94 634.91 C 241.98 634.04 239.89 631.12 239.90 628.06 C 239.69 621.36 240.29 614.67 240.29 607.97 Z" />
</g>
<g id="Group-000000" fill="#000000">
<path fill="rgba(0,0,0,0)" opacity="1.00" d=" M 619.24 293.30 C 623.56 291.10 627.15 297.00 625.53 300.69 C 624.48 304.30 618.86 305.50 616.64 302.35 C 614.35 299.40 615.95 294.76 619.24 293.30 Z" />
<path fill="rgba(0,0,0,0)" opacity="1.00" d=" M 603.40 548.42 C 603.72 548.55 604.36 548.81 604.68 548.94 C 605.26 555.23 603.83 561.87 605.90 567.92 C 607.14 571.48 611.85 570.85 613.68 573.44 C 609.61 573.63 604.51 571.94 603.85 567.32 C 603.30 561.04 603.67 554.72 603.40 548.42 Z" />
</g>
<g id="Group-000000" fill="#000000">
<path fill="rgba(0,0,0,0)" opacity="1.00" d=" M 633.39 307.53 C 639.76 304.01 647.60 308.64 650.33 314.78 C 653.40 320.58 651.67 328.61 646.00 332.15 C 640.10 335.81 631.30 336.07 626.42 330.56 C 622.66 325.79 622.00 318.10 626.30 313.45 C 628.29 311.08 630.78 309.18 633.39 307.53 M 634.39 311.68 C 630.93 315.12 626.15 319.77 628.75 325.11 C 630.75 330.88 638.78 331.84 643.04 328.09 C 646.48 324.39 646.04 317.94 642.46 314.48 C 640.36 312.70 637.09 310.52 634.39 311.68 Z" />
<path fill="rgba(0,0,0,0)" opacity="1.00" d=" M 423.35 381.55 C 429.79 378.47 437.74 381.76 441.26 387.69 C 445.22 393.79 445.28 402.65 440.26 408.17 C 432.68 415.78 416.71 412.23 414.51 401.25 C 412.46 393.52 416.95 385.67 423.35 381.55 M 424.43 386.62 C 421.56 389.33 419.52 393.12 418.20 396.84 C 417.20 404.51 427.11 409.51 433.47 406.51 C 437.64 404.00 438.09 398.23 436.59 394.04 C 434.92 389.23 429.57 385.23 424.43 386.62 Z" />
<path fill="rgba(0,0,0,0)" opacity="1.00" d=" M 264.19 424.19 C 269.55 419.96 276.73 422.13 282.93 422.51 C 287.33 423.30 293.01 422.93 295.93 426.96 C 291.41 425.99 286.80 425.90 282.23 425.42 C 286.39 427.99 292.47 427.24 295.82 431.40 C 297.61 438.39 296.55 446.06 293.54 452.58 C 292.20 456.02 288.56 457.84 285.04 458.05 C 277.52 458.72 269.96 456.85 263.08 453.95 C 259.15 452.38 256.99 448.11 257.17 444.02 C 257.33 437.00 258.33 428.89 264.19 424.19 M 266.49 428.45 C 261.96 432.98 260.48 439.94 261.24 446.14 C 262.20 451.57 268.67 452.17 273.01 453.38 C 276.44 453.67 280.48 455.95 283.59 453.64 C 287.87 448.13 287.88 440.70 289.38 434.15 C 289.75 434.04 290.48 433.82 290.85 433.71 C 291.02 441.08 288.94 448.59 284.97 454.82 C 287.12 454.37 289.06 453.07 289.95 451.02 C 292.64 445.50 294.08 439.10 293.06 433.00 C 289.61 430.06 284.64 429.88 280.48 428.43 C 276.01 427.44 270.53 425.28 266.49 428.45 Z" />
<path fill="rgba(0,0,0,0)" opacity="1.00" d=" M 491.58 575.69 C 499.63 568.45 510.94 566.99 521.33 566.31 C 521.61 567.57 521.91 568.84 522.22 570.12 C 523.42 570.18 524.63 570.24 525.85 570.28 C 526.17 569.00 526.50 567.72 526.84 566.45 C 536.62 566.57 546.51 566.98 556.01 569.47 C 559.15 570.43 562.66 571.53 564.61 574.38 C 566.32 577.69 563.22 580.95 560.60 582.61 C 551.61 587.60 541.03 588.45 530.95 588.77 C 518.42 588.92 505.22 588.07 494.03 581.90 C 491.91 580.81 488.68 577.76 491.58 575.69 M 510.51 574.80 C 508.68 575.15 506.91 575.85 505.05 575.98 C 503.44 576.01 500.97 574.33 500.59 576.90 C 499.64 579.36 503.29 579.94 504.97 580.04 C 518.61 580.84 532.29 580.13 545.94 580.21 C 549.44 579.85 553.58 580.43 556.52 578.15 C 555.68 575.11 551.98 575.30 549.51 574.69 C 536.57 573.30 523.44 573.56 510.51 574.80 Z" />
</g>
<g id="Group-000000" fill="#000000">
<path fill="rgba(0,0,0,0)" opacity="1.00" d=" M 605.84 333.45 C 604.30 332.33 604.80 330.55 605.59 329.17 C 606.53 330.48 606.36 332.00 605.84 333.45 Z" />
<path fill="rgba(0,0,0,0)" opacity="1.00" d=" M 347.03 766.63 C 350.53 762.05 353.30 756.95 355.95 751.85 C 358.72 757.16 360.14 763.05 363.09 768.28 C 357.76 767.44 352.32 767.66 347.03 766.63 Z" />
</g>
<g id="Group-000000" fill="#000000">
<path fill="#000000" opacity="1.00" d=" M 554.72 335.10 C 554.66 333.81 555.04 332.68 555.85 331.72 C 558.99 330.90 559.87 334.65 560.10 336.96 C 560.97 346.97 560.52 357.03 561.07 367.06 C 561.52 378.38 562.09 389.71 561.83 401.04 C 561.50 409.29 559.30 418.29 552.58 423.70 C 545.87 428.76 537.07 429.32 528.98 429.24 C 525.20 429.10 521.10 429.20 517.79 427.13 C 517.58 425.79 517.63 424.44 517.94 423.10 C 527.60 423.27 538.27 425.39 547.00 420.01 C 554.61 415.14 555.90 405.21 555.83 396.93 C 555.58 376.32 554.16 355.72 554.72 335.10 Z" />
</g>
<g id="Group-000000" fill="#000000">
<path fill="rgba(0,0,0,0)" opacity="1.00" d=" M 389.27 440.13 C 390.87 438.87 391.87 441.90 390.69 442.84 C 389.05 444.10 388.16 441.08 389.27 440.13 Z" />
</g>
<g id="Group-000000" fill="#000000">
<path fill="#000000" opacity="1.00" d=" M 448.11 476.31 C 449.13 475.13 451.55 475.52 452.12 477.05 C 452.73 478.62 452.39 480.34 452.35 481.98 C 451.46 491.67 450.44 501.46 451.49 511.18 C 452.02 515.71 454.22 520.45 458.63 522.35 C 465.61 525.44 473.43 525.47 480.90 526.25 C 493.59 527.48 506.37 527.46 519.07 528.25 C 521.98 528.51 520.42 532.44 517.88 531.66 C 504.24 532.02 490.60 530.96 476.98 530.45 C 469.70 529.99 462.06 529.88 455.39 526.62 C 449.26 523.51 446.47 516.53 446.09 510.00 C 445.47 500.52 446.11 491.01 446.80 481.55 C 447.12 479.81 446.92 477.72 448.11 476.31 Z" />
</g>
<g id="Group-000000" fill="#000000">
<path fill="rgba(0,0,0,0)" opacity="1.00" d=" M 636.10 509.33 C 639.38 509.51 634.55 512.37 636.10 509.33 Z" />
</g>
<g id="Group-000000" fill="#000000">
<path fill="rgba(0,0,0,0)" opacity="1.00" d=" M 619.39 526.15 C 623.40 526.60 626.54 529.32 630.00 531.12 C 635.72 534.55 641.85 537.53 646.70 542.17 C 643.43 545.77 638.49 547.04 634.43 549.53 C 629.10 551.96 624.15 555.90 618.13 556.32 C 617.26 548.21 617.87 540.04 618.34 531.93 C 618.41 529.95 618.78 528.02 619.39 526.15 Z" />
</g>
<g id="Group-000000" fill="#000000">
<path fill="rgba(0,0,0,0)" opacity="1.00" d=" M 372.45 531.50 C 374.03 529.68 376.25 531.53 377.21 533.01 C 378.30 535.28 375.93 537.15 374.92 538.98 C 369.88 545.22 365.06 551.65 359.65 557.59 C 356.76 560.51 353.85 563.75 349.88 565.17 C 347.52 564.50 346.06 562.28 344.49 560.55 C 341.18 556.16 337.77 551.79 335.17 546.92 C 336.38 545.35 337.84 544.00 339.60 543.07 C 343.89 546.62 345.89 552.39 350.86 555.15 C 358.69 547.87 365.15 539.28 372.45 531.50 Z" />
</g>
<g id="Group-000000" fill="#000000">
<path fill="rgba(0,0,0,0)" opacity="1.00" d=" M 329.07 550.19 C 331.29 555.04 329.35 560.82 329.98 566.06 C 329.54 569.17 332.81 570.97 335.42 571.49 C 344.64 573.01 354.06 571.80 363.31 572.97 C 362.64 574.88 360.46 573.90 359.02 574.12 C 351.03 573.66 342.95 574.45 335.03 573.08 C 331.94 572.62 328.03 570.68 328.45 566.96 C 328.60 561.37 328.56 555.76 329.07 550.19 Z" />
</g>
<g id="Group-000000" fill="#000000">
<path fill="rgba(0,0,0,0)" opacity="1.00" d=" M 615.11 571.14 C 618.40 571.23 613.66 574.19 615.11 571.14 Z" />
</g>
<g id="Group-000000" fill="#000000">
<path fill="rgba(0,0,0,0)" opacity="1.00" d=" M 267.34 584.23 C 267.79 583.68 268.70 582.58 269.15 582.02 C 274.99 592.60 281.31 602.93 287.86 613.09 C 288.62 614.82 290.53 617.01 289.13 618.84 C 286.82 619.63 284.36 619.48 281.97 619.38 C 271.27 618.90 260.51 618.96 249.85 617.81 C 246.93 617.58 247.18 613.99 247.98 611.98 C 252.08 601.17 263.18 594.99 267.34 584.23 M 269.07 586.88 C 268.64 590.23 270.30 593.27 271.79 596.14 C 275.24 602.19 278.87 608.15 282.77 613.92 C 272.95 613.60 262.90 613.60 253.23 613.01 C 257.73 605.42 264.88 598.63 267.89 589.92 C 261.42 597.78 254.44 605.34 249.51 614.33 C 250.39 615.33 251.55 615.94 252.91 615.88 C 264.16 616.57 275.43 616.82 286.69 617.02 C 285.97 613.42 283.47 610.54 281.79 607.35 C 277.36 600.64 273.48 593.60 269.07 586.88 Z" />
<path fill="rgba(0,0,0,0)" opacity="1.00" d=" M 240.43 591.66 C 240.92 591.70 241.90 591.79 242.39 591.83 C 242.64 593.11 241.98 594.03 240.90 594.72 C 240.72 593.69 240.57 592.67 240.43 591.66 Z" />
</g>
<g id="Group-000000" fill="#000000">
<path fill="#000000" opacity="1.00" d=" M 269.07 586.88 C 273.48 593.60 277.36 600.64 281.79 607.35 C 283.47 610.54 285.97 613.42 286.69 617.02 C 275.43 616.82 264.16 616.57 252.91 615.88 C 251.55 615.94 250.39 615.33 249.51 614.33 C 254.44 605.34 261.42 597.78 267.89 589.92 C 264.88 598.63 257.73 605.42 253.23 613.01 C 262.90 613.60 272.95 613.60 282.77 613.92 C 278.87 608.15 275.24 602.19 271.79 596.14 C 270.30 593.27 268.64 590.23 269.07 586.88 Z" />
</g>
<g id="Group-000000" fill="#000000">
<path fill="rgba(0,0,0,0)" opacity="1.00" d=" M 147.06 634.24 C 157.63 633.00 168.32 633.94 178.93 633.88 C 181.49 634.14 185.98 633.55 186.33 637.08 C 186.86 644.05 186.72 651.07 186.81 658.07 C 187.01 660.30 185.72 663.27 183.06 663.07 C 177.64 663.07 172.20 663.33 166.79 662.88 C 166.82 662.21 166.88 660.87 166.91 660.21 C 171.93 659.75 176.98 660.06 182.01 659.69 C 183.89 659.70 183.49 657.29 183.71 656.06 C 183.77 650.38 183.90 644.69 183.66 639.01 C 183.69 636.59 180.60 637.25 179.03 636.97 C 169.38 636.87 159.70 636.24 150.06 636.85 C 150.22 640.64 150.29 644.44 150.52 648.23 C 149.56 648.20 147.63 648.14 146.66 648.11 C 146.60 643.48 146.16 638.80 147.06 634.24 Z" />
</g>
<g id="Group-000000" fill="#000000">
<path fill="rgba(0,0,0,0)" opacity="1.00" d=" M 115.43 667.58 C 121.90 666.55 128.54 667.49 135.07 667.70 C 138.45 668.08 142.30 667.67 145.14 669.86 C 148.48 673.34 147.64 678.63 147.84 683.04 C 147.50 687.50 148.37 692.28 146.60 696.52 C 143.81 699.86 139.27 701.55 134.96 701.36 C 128.44 701.23 121.86 700.89 115.48 699.46 C 112.46 698.92 110.98 695.86 110.94 693.05 C 110.65 687.34 110.78 681.60 111.17 675.90 C 111.30 672.72 112.59 669.23 115.43 667.58 M 115.21 671.16 C 113.24 672.34 116.08 673.29 117.05 673.23 C 124.37 673.64 131.72 673.37 139.01 674.09 C 140.45 674.13 141.70 675.45 141.81 676.87 C 142.57 682.67 142.23 688.58 143.42 694.33 C 144.67 688.96 144.25 683.40 144.61 677.94 C 144.62 675.55 144.65 671.88 141.57 671.50 C 136.07 670.58 130.47 670.93 124.92 670.72 C 121.69 670.74 118.37 670.34 115.21 671.16 M 114.92 675.89 C 114.37 681.26 114.12 686.68 114.44 692.08 C 114.58 693.78 114.93 696.11 116.99 696.43 C 122.60 697.48 128.35 697.47 134.02 698.06 C 135.99 698.24 139.35 698.23 139.39 695.51 C 139.81 689.31 139.93 683.01 139.11 676.84 C 131.14 675.57 122.98 675.99 114.92 675.89 Z" />
</g>
<g id="Group-000000" fill="#000000">
<path fill="rgba(0,0,0,0)" opacity="1.00" d=" M 692.04 687.18 C 693.62 686.74 694.22 687.34 693.84 688.96 C 692.22 689.40 691.62 688.81 692.04 687.18 Z" />
</g>
<g id="Group-000000" fill="#000000">
<path fill="#000000" opacity="1.00" d=" M 486.00 706.20 C 491.28 703.74 497.32 704.14 503.01 703.80 C 510.32 703.90 517.79 702.23 524.98 704.21 C 526.77 704.65 527.94 706.06 528.42 707.80 C 516.31 708.89 504.19 711.49 491.99 710.20 C 489.43 710.00 486.97 708.65 486.00 706.20 Z" />
</g>
</g></svg>