<svg xmlns="http://www.w3.org/2000/svg" viewBox="0 0 1024 1024" version="1.1">
<g id="Parent-Group"><g id="Group-rgba(0,0,0,0)" fill="rgba(0,0,0,0)">
<path fill="rgba(0,0,0,0)" opacity="1.00" d=" M 0.00 0.00 L 1024.00 0.00 L 1024.00 1024.00 L 697.09 1024.00 C 694.99 1012.64 692.65 1001.33 690.16 990.05 C 696.81 989.60 703.40 988.52 710.06 988.09 C 712.12 988.11 713.94 986.51 714.61 984.64 C 716.51 977.62 717.19 970.38 717.87 963.17 C 736.82 964.49 755.33 956.71 769.99 945.10 C 780.27 937.11 788.48 926.44 793.40 914.37 C 800.62 895.90 801.08 875.71 803.08 856.28 C 803.78 828.66 800.88 801.00 795.43 773.91 C 794.38 768.02 792.95 762.21 791.91 756.32 C 791.47 756.23 790.60 756.07 790.17 755.98 C 790.54 755.91 791.27 755.77 791.63 755.69 C 780.39 706.54 764.87 657.68 738.63 614.31 C 730.64 601.61 722.95 588.38 711.74 578.18 C 697.22 564.37 678.66 555.50 659.41 550.46 C 640.70 545.60 621.50 542.94 602.32 540.73 C 600.67 518.86 601.29 496.89 600.01 475.00 C 614.87 464.04 628.31 451.02 639.18 436.07 C 641.56 434.48 644.39 433.62 646.71 431.89 C 658.12 423.71 668.37 413.95 677.14 402.99 C 689.20 388.69 697.52 371.80 706.52 355.52 C 716.17 337.68 724.38 318.85 728.57 298.92 C 732.89 278.70 731.70 257.54 726.71 237.56 C 723.04 222.68 715.65 208.89 706.06 197.00 C 698.35 187.25 688.64 178.95 677.41 173.55 C 663.12 166.91 647.71 162.59 632.00 161.19 C 629.23 160.94 626.48 161.47 623.76 161.84 C 622.57 144.52 614.31 127.18 599.79 117.20 C 588.88 109.86 576.11 105.16 562.96 104.22 C 547.88 103.18 532.66 105.86 518.59 111.31 C 511.80 113.75 504.25 117.46 497.09 114.13 C 485.96 109.19 475.84 102.21 464.58 97.51 C 445.45 88.78 423.95 83.61 402.94 87.32 C 377.96 91.35 354.44 104.77 339.06 124.97 C 325.70 142.14 318.42 164.15 319.90 185.94 C 320.93 200.11 325.28 214.12 332.92 226.14 C 340.21 237.24 350.52 247.08 363.53 250.87 C 361.95 257.33 362.38 264.43 365.76 270.26 C 367.23 272.99 369.78 274.85 371.82 277.11 C 371.33 285.67 369.89 294.20 369.79 302.81 C 362.02 306.51 354.77 312.04 350.75 319.82 C 345.28 330.01 344.53 342.55 348.59 353.36 C 351.58 361.24 357.24 367.85 363.95 372.85 C 363.52 378.56 363.74 384.30 364.01 390.02 C 363.98 410.15 371.03 429.69 380.84 447.05 C 389.28 461.99 400.92 474.98 414.18 485.81 C 433.59 501.36 457.06 512.36 481.94 514.97 C 482.86 525.50 483.66 536.05 484.64 546.58 C 468.92 549.98 453.58 555.13 439.02 561.97 C 424.51 568.88 411.25 578.52 400.53 590.52 C 389.37 602.53 381.18 616.98 374.63 631.93 C 372.49 632.27 370.27 632.34 368.24 633.14 C 367.10 634.31 366.41 635.81 365.59 637.21 C 341.18 633.98 316.56 632.46 292.12 629.35 C 283.67 628.31 275.37 626.39 266.98 624.93 C 264.32 623.98 261.78 626.44 261.66 629.03 C 261.64 631.60 262.33 634.11 262.85 636.62 C 258.13 638.32 258.33 644.01 259.87 647.91 C 254.78 648.07 254.96 653.82 255.82 657.50 C 254.61 658.30 252.68 658.65 252.43 660.36 C 251.97 663.66 253.83 666.72 254.42 669.91 C 253.08 671.66 251.42 673.60 252.18 675.99 C 255.64 691.56 259.27 707.15 261.25 723.00 C 261.28 725.70 262.51 729.01 260.10 731.05 C 256.27 735.33 253.31 740.44 252.10 746.09 C 249.47 756.56 252.65 768.16 260.09 775.96 C 271.93 788.52 285.32 799.93 300.90 807.59 C 291.70 828.07 284.10 849.30 278.54 871.07 C 274.41 887.87 271.18 905.80 276.13 922.80 C 278.14 931.35 282.20 939.45 288.14 945.95 C 297.50 956.53 311.91 962.13 325.95 961.32 C 340.27 960.68 353.72 953.83 364.28 944.41 C 365.38 959.44 368.00 974.34 371.77 988.93 C 372.18 990.32 372.61 992.00 374.05 992.71 C 378.21 993.05 382.40 992.78 386.58 992.87 C 385.86 1003.23 386.44 1013.62 386.05 1024.00 L 0.00 1024.00 L 0.00 0.00 Z" />
<path fill="rgba(0,0,0,0)" opacity="1.00" d=" M 562.95 226.93 C 571.46 223.19 579.52 218.42 588.31 215.32 C 585.52 241.12 586.67 267.25 590.66 292.86 C 593.91 311.28 599.47 330.00 611.14 344.94 C 615.43 350.70 621.77 354.89 628.96 355.87 C 632.07 354.44 634.27 351.71 635.57 348.59 C 639.57 339.69 642.19 330.25 644.98 320.93 C 645.91 318.16 645.88 314.99 647.43 312.48 C 654.38 307.50 663.68 305.22 671.96 307.99 C 678.74 310.46 684.82 314.97 688.88 320.97 C 696.38 331.43 697.85 344.99 696.38 357.47 C 694.27 370.45 687.92 383.49 676.59 390.76 C 669.00 395.34 660.18 397.45 651.49 398.58 C 649.60 399.19 648.61 401.08 648.24 402.91 C 645.87 412.74 642.64 422.55 636.84 430.94 C 626.91 445.67 613.93 458.14 599.87 468.91 C 597.81 469.30 595.56 469.40 594.07 471.08 C 588.42 476.33 581.85 480.38 575.21 484.23 C 552.13 497.25 526.57 506.71 500.01 508.81 C 493.33 509.65 486.39 506.87 480.05 509.82 C 469.32 508.70 458.85 505.50 448.95 501.24 C 414.95 486.39 386.75 457.56 374.78 422.21 C 370.87 410.92 368.73 398.99 368.82 387.04 C 367.69 358.50 370.94 330.02 374.78 301.79 C 376.99 285.88 380.87 270.27 383.57 254.44 C 384.62 250.30 387.93 244.36 393.03 245.93 C 408.11 251.07 424.07 253.57 439.99 253.52 C 462.85 253.11 485.72 250.86 508.06 245.90 C 527.14 242.20 545.39 235.13 562.95 226.93 M 392.23 266.26 C 388.75 267.69 386.42 272.06 388.41 275.57 C 390.12 278.58 393.95 278.91 397.05 279.14 C 401.35 279.37 405.72 280.80 409.99 279.45 C 414.40 278.19 415.22 271.77 412.38 268.63 C 410.03 266.65 406.73 266.86 403.87 266.34 C 400.02 266.08 396.00 265.05 392.23 266.26 M 527.38 268.51 C 523.53 270.97 522.92 276.83 525.73 280.28 C 527.97 282.25 531.16 282.43 533.98 282.88 C 538.70 283.13 543.49 284.44 548.18 283.26 C 552.56 282.09 554.13 275.92 551.37 272.52 C 548.52 269.57 544.26 268.95 540.35 268.87 C 536.06 268.78 531.56 267.30 527.38 268.51 M 452.01 293.94 C 456.72 305.08 455.25 317.79 451.54 328.99 C 448.43 338.13 444.13 347.33 436.71 353.76 C 431.84 357.88 425.60 361.44 418.99 360.20 C 416.15 359.67 414.16 363.19 415.57 365.56 C 419.74 376.29 432.34 380.79 443.08 380.15 C 444.87 380.00 447.12 378.08 445.86 376.17 C 444.75 373.99 441.92 374.67 439.95 374.45 C 433.04 374.60 425.60 371.77 421.96 365.60 C 427.88 364.95 433.73 363.01 438.44 359.28 C 448.14 352.29 453.32 340.97 457.00 329.95 C 460.07 320.22 461.61 309.82 460.22 299.66 C 459.62 296.29 458.71 292.57 456.00 290.25 C 453.85 288.48 450.23 291.55 452.01 293.94 M 667.01 314.88 C 665.09 317.41 664.55 320.66 663.52 323.60 C 660.43 333.82 656.18 343.64 651.30 353.13 C 651.89 354.25 653.52 356.42 654.87 355.00 C 658.75 350.93 659.50 344.89 662.93 340.56 C 668.24 339.60 674.84 342.71 675.35 348.60 C 676.93 354.90 672.13 360.09 669.01 365.00 C 669.52 366.88 672.03 368.17 673.43 366.35 C 677.96 361.59 681.61 354.89 680.32 348.15 C 679.18 340.73 672.12 334.85 664.56 335.51 C 666.54 329.74 668.69 323.99 669.93 318.00 C 670.65 316.19 668.62 314.75 667.01 314.88 M 402.24 321.33 C 396.83 323.84 393.79 329.18 390.97 334.14 C 391.81 335.53 393.13 336.40 394.60 337.03 C 397.22 334.11 398.58 330.20 401.73 327.73 C 410.53 320.02 426.82 323.60 430.64 334.95 C 431.32 336.27 431.90 339.23 433.99 338.45 C 436.74 337.98 435.86 334.88 435.19 333.07 C 433.08 325.73 425.97 321.06 418.88 319.34 C 413.30 317.84 407.43 319.13 402.24 321.33 M 497.97 326.04 C 495.12 328.94 492.86 332.46 490.97 336.05 C 490.43 338.28 493.00 339.09 494.70 339.30 C 497.52 334.51 500.73 329.26 506.21 327.23 C 513.75 323.74 523.32 326.23 528.68 332.43 C 530.73 334.64 531.34 337.67 532.65 340.29 C 534.18 342.10 537.46 340.24 536.84 337.97 C 535.36 329.29 527.50 322.95 519.16 321.29 C 511.83 319.44 504.08 321.94 497.97 326.04 M 512.35 391.52 C 509.35 394.79 506.95 398.61 503.68 401.66 C 488.99 416.35 467.88 424.76 447.07 423.22 C 430.13 422.29 413.12 413.60 404.04 398.99 C 403.15 397.15 400.57 396.52 399.28 398.32 C 398.14 400.65 400.22 402.73 401.32 404.63 C 410.30 417.03 424.67 424.90 439.59 427.59 C 468.68 432.30 499.97 419.00 516.55 394.57 C 517.81 392.22 514.29 389.70 512.35 391.52 Z" />
<path fill="rgba(0,0,0,0)" opacity="1.00" d=" M 351.59 334.00 C 352.89 323.47 359.52 313.20 369.44 309.00 C 366.71 328.08 364.55 347.26 363.71 366.53 C 354.55 358.68 349.52 345.98 351.59 334.00 Z" />
<path fill="rgba(0,0,0,0)" opacity="1.00" d=" M 584.43 507.32 C 588.35 504.50 592.25 501.60 595.62 498.13 C 595.55 512.71 596.80 527.31 596.30 541.87 C 588.11 553.31 574.79 559.65 562.20 565.11 C 551.08 568.63 539.24 572.22 527.50 570.20 C 521.96 570.52 516.71 568.24 511.59 566.43 C 502.49 562.07 495.27 554.35 490.42 545.60 C 488.44 542.31 488.96 538.37 488.63 534.73 C 505.43 534.03 522.28 532.22 538.53 527.75 C 554.77 523.40 570.34 516.51 584.43 507.32 Z" />
<path fill="rgba(0,0,0,0)" opacity="1.00" d=" M 565.81 568.91 C 578.49 563.67 591.12 556.97 599.99 546.21 C 617.41 547.82 634.80 550.41 651.88 554.26 C 668.05 557.89 683.93 563.89 697.47 573.61 C 709.50 581.77 718.89 593.20 726.55 605.44 C 744.71 632.50 758.35 662.36 768.74 693.19 C 778.27 722.19 785.99 751.80 791.51 781.84 C 795.64 805.10 798.28 828.75 797.58 852.40 C 796.86 868.73 795.53 885.12 791.73 901.06 C 789.82 909.41 786.50 917.50 781.62 924.57 C 774.22 935.81 763.32 944.31 751.56 950.60 C 741.74 955.34 730.93 958.62 719.93 958.09 C 717.40 958.19 715.23 956.74 712.93 955.97 C 691.55 947.97 672.08 935.74 653.51 922.62 C 636.46 910.29 619.90 897.30 602.99 884.78 C 588.14 873.68 573.58 862.18 559.64 849.97 C 566.32 845.68 571.44 839.34 575.72 832.73 C 583.92 820.41 588.70 805.83 589.19 791.03 C 589.31 786.07 589.12 781.05 587.76 776.25 C 600.45 782.68 611.65 791.62 623.32 799.69 C 641.95 813.95 660.27 828.60 678.11 843.84 C 695.01 858.61 711.49 874.24 724.02 893.01 C 725.62 895.41 726.89 898.04 728.76 900.27 C 729.76 901.92 732.61 901.15 732.55 899.17 C 731.05 892.92 726.83 887.83 723.27 882.64 C 728.25 882.50 733.06 884.11 738.01 884.08 C 740.54 884.18 740.99 880.09 738.49 879.64 C 732.50 877.74 726.07 877.33 719.84 878.01 C 697.48 850.79 669.30 829.29 642.17 807.13 C 639.71 804.02 639.57 799.78 638.87 796.03 C 633.18 763.06 627.47 730.09 622.99 696.93 C 622.61 694.55 622.88 691.68 620.98 689.89 C 620.25 689.95 618.80 690.08 618.07 690.15 C 616.53 693.35 617.72 696.78 617.98 700.11 C 620.24 718.82 623.45 737.40 626.36 756.02 C 629.22 771.59 631.54 787.34 636.22 802.51 C 619.56 790.00 602.90 777.07 583.92 768.22 C 575.82 764.51 566.23 763.91 559.13 758.25 C 564.35 751.35 569.30 743.10 568.15 734.08 C 567.64 725.96 562.82 718.39 555.97 714.12 C 555.08 713.23 552.73 712.70 553.77 711.04 C 557.42 697.64 556.17 683.62 555.63 669.93 C 554.96 662.35 554.69 654.71 553.37 647.21 C 552.81 644.56 551.99 640.99 548.93 640.29 C 541.71 641.92 534.71 644.44 527.57 646.40 C 516.28 649.36 504.61 651.22 492.91 650.69 C 478.24 649.43 463.73 646.41 448.96 646.23 C 446.71 646.24 444.47 646.11 442.24 645.90 C 439.42 642.61 436.33 639.43 432.42 637.46 C 428.33 635.01 423.42 635.39 418.87 634.72 C 406.31 633.64 393.69 633.18 381.07 633.18 C 387.68 615.68 398.32 599.69 411.99 586.91 C 423.74 575.94 437.95 567.90 452.82 561.97 C 464.00 557.80 475.34 553.80 487.13 551.75 C 493.95 562.30 504.52 570.95 516.91 573.86 C 533.14 578.26 550.44 574.91 565.81 568.91 M 622.11 556.93 C 619.23 560.78 616.74 564.93 613.48 568.49 C 600.22 584.78 581.89 596.61 561.91 602.84 C 542.02 610.57 518.62 612.69 499.01 603.00 C 484.26 596.24 473.06 583.42 466.04 569.01 C 465.14 567.69 464.18 564.70 462.09 565.80 C 460.10 566.11 460.81 568.49 461.30 569.74 C 469.22 588.33 484.76 603.85 504.12 610.21 C 517.02 614.95 531.09 614.69 544.49 612.66 C 555.68 610.42 566.55 606.73 576.98 602.12 C 591.85 595.77 605.07 585.90 615.76 573.81 C 620.02 568.88 624.35 563.78 627.04 557.80 C 625.71 556.86 623.50 555.20 622.11 556.93 Z" />
<path fill="rgba(0,0,0,0)" opacity="1.00" d=" M 267.76 631.38 C 272.22 631.76 276.51 633.08 280.92 633.76 C 309.08 637.77 337.53 639.39 365.72 643.17 C 365.33 645.05 365.01 646.94 364.72 648.85 C 342.16 645.69 319.39 644.29 296.86 640.87 C 288.31 639.34 279.54 639.06 271.08 637.04 C 268.36 636.56 267.83 633.67 267.76 631.38 Z" />
<path fill="rgba(0,0,0,0)" opacity="1.00" d=" M 368.49 676.10 C 368.75 663.57 369.71 651.04 371.85 638.69 C 389.85 639.29 408.01 638.81 425.87 641.50 C 423.89 653.66 422.58 665.95 422.05 678.25 C 404.21 677.17 386.35 676.49 368.49 676.10 Z" />
<path fill="rgba(0,0,0,0)" opacity="1.00" d=" M 264.35 641.39 C 286.57 644.27 308.69 648.12 331.02 650.10 C 342.12 651.38 353.26 652.34 364.32 654.00 C 363.81 655.85 364.83 659.08 363.10 660.07 C 340.43 657.53 317.61 656.00 295.10 652.16 C 285.05 650.78 274.99 649.53 264.98 647.89 C 264.83 645.71 264.61 643.54 264.35 641.39 Z" />
<path fill="rgba(0,0,0,0)" opacity="1.00" d=" M 430.54 645.60 C 430.58 644.54 430.67 643.50 430.82 642.47 C 432.52 643.61 434.34 644.79 435.26 646.72 C 433.73 646.36 431.40 647.34 430.54 645.60 Z" />
<path fill="rgba(0,0,0,0)" opacity="1.00" d=" M 539.09 647.86 C 541.98 646.91 544.91 646.06 547.93 645.59 C 549.46 652.94 549.85 660.47 550.53 667.94 C 551.43 681.94 552.62 696.32 548.71 710.00 C 546.83 709.45 544.98 708.83 543.16 708.14 C 544.12 696.79 543.88 685.38 543.03 674.04 C 542.69 668.36 542.87 662.49 540.96 657.07 C 540.13 654.33 537.03 655.11 535.05 655.89 C 516.76 662.12 497.09 663.02 477.98 661.14 C 464.98 660.14 452.03 658.32 438.98 658.03 C 435.83 657.87 432.66 657.95 429.53 657.47 C 429.30 655.34 429.81 653.23 430.01 651.13 C 439.32 650.06 448.71 650.38 458.02 651.37 C 471.37 652.27 484.51 655.73 497.96 655.42 C 512.00 655.36 525.73 651.87 539.09 647.86 Z" />
<path fill="rgba(0,0,0,0)" opacity="1.00" d=" M 259.97 652.71 C 269.72 653.26 279.32 655.18 288.98 656.50 C 313.61 660.47 338.45 662.75 363.25 665.29 C 363.42 667.51 363.33 669.74 363.17 671.98 C 347.23 671.43 331.23 670.50 315.57 667.26 C 302.11 664.50 288.60 662.06 275.06 659.76 C 270.34 658.93 265.55 658.46 260.94 657.12 C 260.63 655.64 260.29 654.16 259.97 652.71 Z" />
<path fill="rgba(0,0,0,0)" opacity="1.00" d=" M 499.99 666.52 C 512.31 666.18 524.63 664.29 536.35 660.45 C 537.91 675.99 539.20 691.72 537.73 707.32 C 536.05 707.30 534.38 707.27 532.71 707.25 C 532.83 700.82 532.72 694.40 532.61 687.97 C 532.51 683.38 533.80 678.71 532.72 674.18 C 532.01 671.55 528.83 671.92 526.79 672.38 C 515.69 674.69 504.31 674.75 493.03 674.79 C 476.61 674.54 460.23 673.32 443.92 671.48 C 438.61 670.72 433.22 670.34 428.04 668.89 C 428.22 666.56 428.46 664.23 428.82 661.93 C 452.62 662.24 476.14 667.22 499.99 666.52 Z" />
<path fill="rgba(0,0,0,0)" opacity="1.00" d=" M 258.59 662.76 C 274.26 664.21 289.74 667.41 305.19 670.39 C 324.20 674.81 343.72 676.53 363.21 676.72 C 363.16 678.78 363.12 680.85 363.08 682.92 C 345.27 684.35 327.53 681.05 310.15 677.50 C 293.69 673.39 276.94 670.48 260.09 668.48 C 259.42 666.62 258.97 664.68 258.59 662.76 Z" />
<path fill="rgba(0,0,0,0)" opacity="1.00" d=" M 259.20 674.15 C 263.14 673.43 267.13 674.44 271.06 674.82 C 301.78 679.06 331.80 689.98 363.18 688.09 C 363.44 690.00 363.71 691.95 363.22 693.86 C 352.08 694.67 340.89 693.74 329.97 691.45 C 314.62 689.02 299.66 684.34 284.10 683.28 C 279.05 683.06 273.72 681.86 268.87 683.90 C 270.31 695.26 272.45 706.55 273.46 717.98 C 271.96 720.64 268.78 721.97 266.61 724.11 C 265.54 710.63 264.50 697.04 261.27 683.87 C 260.64 680.64 258.47 677.43 259.20 674.15 Z" />
<path fill="rgba(0,0,0,0)" opacity="1.00" d=" M 427.29 680.95 C 427.42 678.58 427.47 676.21 427.64 673.84 C 442.66 676.02 457.74 678.02 472.93 678.66 C 490.93 679.48 509.09 680.01 526.94 677.18 C 526.89 680.83 526.95 684.47 526.83 688.12 C 495.13 690.52 463.40 686.62 432.04 682.19 C 430.40 681.99 428.79 681.64 427.29 680.95 Z" />
<path fill="rgba(0,0,0,0)" opacity="1.00" d=" M 368.39 680.99 C 386.20 681.52 404.04 681.64 421.79 683.37 C 421.74 689.76 421.66 696.15 422.03 702.54 C 404.58 702.91 387.16 701.14 369.72 701.15 C 368.81 694.46 368.64 687.72 368.39 680.99 Z" />
<path fill="rgba(0,0,0,0)" opacity="1.00" d=" M 427.11 686.03 C 445.00 688.66 462.89 691.62 481.00 692.30 C 496.01 693.45 511.08 693.53 526.10 692.64 C 525.83 708.46 527.36 724.25 526.96 740.07 C 524.25 738.96 521.53 737.90 518.79 736.87 C 519.24 726.44 518.86 715.99 517.65 705.63 C 517.32 703.95 516.71 702.36 516.12 700.78 C 509.44 700.04 502.71 700.42 496.00 700.20 C 473.52 699.28 451.11 696.83 428.95 693.01 C 425.37 692.96 427.53 688.25 427.11 686.03 Z" />
<path fill="rgba(0,0,0,0)" opacity="1.00" d=" M 274.64 687.80 C 277.85 687.75 281.07 687.80 284.27 688.19 C 283.00 691.82 279.69 693.88 276.44 695.52 C 274.69 693.34 274.95 690.40 274.64 687.80 Z" />
<path fill="rgba(0,0,0,0)" opacity="1.00" d=" M 284.83 694.75 C 286.73 693.11 287.39 690.60 288.81 688.64 C 302.83 689.64 316.35 693.86 330.18 696.12 C 340.94 698.70 352.13 698.90 363.10 698.00 C 364.27 699.98 363.69 702.89 364.01 705.22 C 362.22 703.15 361.13 698.80 357.56 700.02 C 357.49 700.47 357.34 701.37 357.26 701.82 C 358.89 704.03 360.28 706.42 361.95 708.61 C 362.72 708.68 364.25 708.83 365.01 708.90 C 365.26 713.98 366.06 719.02 366.97 724.02 C 369.95 746.92 372.99 769.81 376.11 792.69 C 368.71 792.35 361.31 792.10 353.97 791.06 C 355.23 793.33 351.90 795.49 354.40 797.48 L 352.30 797.70 C 352.38 796.64 352.54 794.54 352.62 793.48 C 352.26 794.24 351.55 795.75 351.20 796.50 C 350.26 796.87 349.33 797.27 348.42 797.70 C 347.35 797.08 346.28 796.50 345.22 795.91 C 344.79 796.36 343.94 797.25 343.51 797.70 C 342.34 797.73 341.18 797.77 340.02 797.82 C 341.12 796.27 342.46 794.87 343.26 793.13 C 343.66 791.45 343.47 789.59 344.59 788.18 C 344.27 788.35 343.61 788.68 343.28 788.85 C 342.12 785.10 338.25 784.62 334.96 784.38 C 335.64 784.41 337.00 784.47 337.68 784.50 C 337.98 782.56 339.97 782.17 341.51 781.71 C 342.72 783.27 344.00 784.86 345.95 785.56 C 345.64 784.07 345.30 782.60 344.93 781.15 C 344.00 780.68 343.07 780.21 342.14 779.75 C 345.51 772.92 353.49 770.72 357.65 764.56 C 362.33 758.71 361.66 749.23 355.35 744.78 C 358.43 742.05 360.78 738.16 360.65 733.95 C 360.05 728.80 356.06 724.27 351.05 722.96 C 347.71 721.90 344.36 723.47 341.13 724.22 C 340.89 721.83 341.78 718.91 339.86 717.03 C 338.44 715.46 336.32 714.86 334.50 713.95 C 335.48 711.07 333.40 708.38 331.01 707.05 C 331.31 709.58 332.97 711.63 333.98 713.91 C 331.80 714.15 330.51 713.44 330.12 711.78 C 329.69 710.95 329.11 710.26 328.39 709.70 C 327.72 709.57 326.38 709.31 325.71 709.18 C 325.66 709.45 325.56 709.99 325.51 710.26 C 323.31 711.28 324.21 714.96 321.35 715.44 C 320.02 710.61 316.16 706.03 310.87 705.70 C 299.22 704.78 288.37 710.13 278.28 715.28 C 278.06 710.07 276.73 704.98 276.62 699.77 C 279.50 698.35 282.63 697.21 284.83 694.75 M 336.88 699.85 C 336.46 703.27 337.52 706.59 338.21 709.89 C 339.14 709.72 340.99 709.38 341.91 709.21 C 341.37 708.23 340.84 707.28 340.29 706.34 C 340.97 706.96 341.63 707.59 342.30 708.25 C 346.23 710.36 350.59 709.55 354.67 708.38 C 354.25 706.25 353.74 704.15 353.51 701.99 C 353.94 702.44 354.82 703.33 355.25 703.78 C 356.12 702.48 356.40 700.96 356.58 699.46 C 352.81 699.55 349.05 699.67 345.29 699.78 C 345.41 702.26 345.48 704.74 345.51 707.23 C 344.72 705.44 343.95 703.63 342.88 702.00 C 343.62 698.29 338.97 700.17 336.88 699.85 M 355.55 709.00 C 356.60 709.03 358.71 709.09 359.76 709.12 C 358.99 707.36 359.00 704.58 356.99 703.80 C 355.56 704.71 355.02 707.43 355.55 709.00 M 347.04 778.87 C 347.65 781.04 347.45 783.51 348.69 785.49 C 349.65 782.26 350.32 778.96 350.73 775.64 C 349.29 776.45 347.99 777.50 347.04 778.87 M 351.80 776.37 C 351.27 779.08 350.76 781.80 350.57 784.57 C 352.57 784.92 354.62 785.45 356.66 785.01 C 356.81 784.39 357.12 783.15 357.28 782.53 C 355.40 781.47 355.86 778.91 354.18 777.64 C 352.40 779.69 353.91 781.75 354.80 783.67 C 354.29 783.59 353.25 783.41 352.73 783.33 C 352.03 781.08 353.29 779.05 354.08 777.03 C 353.51 776.87 352.37 776.54 351.80 776.37 M 361.71 783.05 C 362.54 784.66 364.29 784.75 365.87 785.01 C 366.79 783.60 367.63 782.03 366.73 780.41 C 364.93 781.05 363.21 781.87 361.71 783.05 M 344.23 793.40 C 345.68 793.97 346.52 794.94 346.77 796.33 C 347.46 795.91 348.16 795.50 348.86 795.11 L 348.22 793.98 C 349.13 793.92 350.94 793.81 351.85 793.76 C 351.85 793.07 351.84 791.70 351.84 791.01 C 349.16 791.36 345.13 789.68 344.23 793.40 M 352.22 791.82 L 352.22 792.70 C 354.06 794.52 354.03 789.84 352.22 791.82 Z" />
<path fill="rgba(0,0,0,0)" opacity="1.00" d=" M 427.29 696.89 C 442.38 699.75 457.70 701.31 472.89 703.50 C 481.03 703.55 489.12 704.71 497.26 704.91 C 498.91 708.62 500.79 712.37 503.81 715.19 C 506.67 718.05 510.65 719.38 513.70 722.00 C 514.10 726.20 513.72 730.43 513.67 734.65 C 497.22 728.60 480.78 722.51 463.97 717.50 C 453.80 714.90 443.41 713.24 433.01 711.94 C 431.28 711.77 429.56 711.86 427.85 711.97 C 428.03 706.93 427.44 701.92 427.29 696.89 M 430.06 699.75 C 430.12 700.97 430.20 702.21 430.29 703.45 C 431.25 703.83 432.21 704.22 433.18 704.64 C 432.30 704.61 430.54 704.54 429.66 704.51 C 429.63 705.44 429.57 707.30 429.54 708.22 C 431.26 708.34 432.99 708.46 434.73 708.57 C 432.89 706.18 439.36 703.71 434.86 703.57 C 435.38 703.53 436.42 703.45 436.93 703.41 C 437.45 702.68 438.48 701.21 438.99 700.47 C 436.03 700.04 433.06 699.47 430.06 699.75 M 439.41 700.34 C 440.01 703.27 438.89 706.15 439.22 709.09 C 440.13 709.28 441.96 709.68 442.88 709.88 C 442.80 709.08 442.64 707.48 442.56 706.68 L 444.60 707.10 C 444.22 707.65 443.47 708.76 443.09 709.32 C 444.65 710.11 448.19 710.79 447.44 707.97 C 446.18 707.00 444.97 705.97 443.74 704.99 C 443.71 704.54 443.67 703.64 443.64 703.19 C 443.95 703.49 444.58 704.10 444.90 704.40 C 446.20 704.33 447.81 703.05 448.99 703.95 C 449.73 706.08 449.30 708.34 448.72 710.45 C 449.39 710.53 450.74 710.69 451.41 710.77 C 451.78 709.58 452.15 708.40 452.53 707.23 C 453.21 707.69 453.90 708.15 454.60 708.63 C 454.55 709.94 455.40 710.72 456.52 711.27 C 456.45 709.88 456.36 708.50 456.28 707.13 C 454.33 706.18 452.60 704.86 451.14 703.27 C 451.70 702.85 452.27 702.44 452.85 702.04 C 448.34 701.62 443.97 700.17 439.41 700.34 M 453.36 702.70 C 452.48 705.11 455.54 705.99 457.28 706.48 C 457.30 705.61 457.34 703.89 457.36 703.02 C 456.20 702.89 453.86 700.72 453.36 702.70 M 457.50 702.79 C 457.72 704.58 457.96 706.37 458.09 708.19 C 460.87 710.54 462.55 706.20 465.12 705.69 L 466.22 704.77 C 467.66 706.20 467.87 708.93 466.23 710.28 C 465.92 709.11 465.43 708.04 464.76 707.07 C 463.45 707.07 462.91 708.54 462.47 709.54 C 460.62 709.63 458.76 709.65 456.94 709.95 C 459.68 711.85 463.18 711.36 466.32 711.67 C 468.74 712.09 471.14 712.82 473.62 712.81 C 475.28 712.03 475.11 710.10 475.50 708.61 C 474.35 708.22 473.20 707.85 472.06 707.51 C 472.99 707.03 473.92 706.55 474.86 706.07 C 473.04 703.16 469.12 704.45 466.28 704.17 C 463.50 703.02 460.44 703.09 457.50 702.79 M 435.44 708.55 C 437.13 709.22 437.64 708.72 436.98 707.05 C 435.37 706.30 434.86 706.80 435.44 708.55 Z" />
<path fill="rgba(0,0,0,0)" opacity="1.00" d=" M 348.54 707.74 C 347.32 706.05 346.23 702.39 348.96 701.74 C 350.98 703.53 351.40 706.56 348.54 707.74 Z" />
<path fill="rgba(0,0,0,0)" opacity="1.00" d=" M 513.31 716.97 C 508.05 714.73 502.70 710.64 501.44 704.79 C 505.01 704.80 508.58 704.89 512.15 704.95 C 512.77 708.92 513.10 712.94 513.31 716.97 Z" />
<path fill="rgba(0,0,0,0)" opacity="1.00" d=" M 369.97 705.79 C 382.68 705.77 395.35 707.03 408.06 707.32 C 412.80 707.40 417.53 707.62 422.27 707.94 C 422.29 709.56 422.32 711.19 422.34 712.83 C 417.60 713.97 413.86 718.14 413.71 723.10 C 408.60 721.50 403.27 721.96 398.04 722.47 C 397.98 720.70 397.93 718.96 397.85 717.22 C 396.02 717.11 394.19 717.04 392.37 716.99 C 392.57 718.59 392.82 720.19 393.05 721.81 C 390.26 721.11 387.16 721.23 384.65 722.71 C 381.62 724.65 381.12 728.84 382.12 732.04 C 384.10 736.36 388.45 738.74 392.25 741.26 C 392.14 743.04 391.28 744.53 390.00 745.75 C 388.84 744.49 387.74 743.19 386.69 741.87 C 383.80 741.76 382.34 744.52 380.27 746.03 C 383.79 749.53 388.90 751.07 391.80 755.21 C 397.47 762.26 405.92 765.98 413.57 770.40 C 417.82 772.87 422.36 774.80 426.57 777.35 C 426.61 786.26 428.37 795.07 428.55 803.99 C 413.23 802.98 397.89 802.25 382.58 801.06 C 381.28 795.50 381.02 789.77 380.24 784.13 C 377.51 761.02 374.40 737.95 371.04 714.93 C 370.48 711.90 370.20 708.84 369.97 705.79 Z" />
<path fill="rgba(0,0,0,0)" opacity="1.00" d=" M 296.43 712.59 C 300.19 711.34 304.07 710.36 308.04 710.14 C 311.75 710.04 315.58 713.18 315.32 717.10 C 314.67 718.77 312.90 719.60 311.57 720.67 C 301.55 727.09 291.63 733.88 283.35 742.49 C 278.06 747.28 274.27 753.39 269.32 758.48 C 267.38 759.75 268.84 762.84 271.10 761.93 C 276.16 759.25 279.37 754.25 283.34 750.30 C 294.42 738.41 307.65 728.75 321.58 720.50 C 325.12 718.62 329.98 716.73 333.54 719.54 C 334.88 720.64 336.52 722.12 336.07 724.08 C 335.68 726.31 333.57 727.58 331.93 728.87 C 317.45 739.45 303.09 750.53 291.62 764.42 C 289.35 767.57 286.93 770.68 285.36 774.25 C 286.08 776.58 288.21 776.04 289.42 774.50 C 295.06 768.13 300.50 761.52 307.00 755.99 C 310.93 752.67 314.25 748.68 318.40 745.61 C 326.87 738.85 335.45 731.62 345.89 728.15 C 350.33 726.79 355.55 731.06 354.51 735.75 C 353.19 741.75 347.23 744.56 342.58 747.66 C 328.26 757.23 313.86 767.61 304.15 782.12 C 303.30 783.14 303.05 784.44 302.82 785.72 C 303.39 786.04 304.53 786.68 305.10 787.01 C 309.02 783.60 312.03 779.31 315.78 775.74 C 325.73 765.51 337.35 757.15 349.29 749.44 C 351.24 747.83 353.60 749.90 354.22 751.81 C 356.05 756.58 353.61 761.80 350.18 765.17 C 345.83 769.16 341.14 772.82 337.32 777.35 C 334.55 780.98 330.83 784.09 329.56 788.65 C 326.15 796.95 330.01 806.80 337.15 811.80 C 346.88 819.34 359.62 820.03 371.35 821.50 C 370.23 822.68 368.56 822.70 367.06 822.91 C 362.11 823.35 357.08 823.63 352.21 822.46 C 333.44 819.83 316.31 811.04 300.01 801.84 C 287.36 794.66 276.46 784.91 266.27 774.65 C 260.36 768.71 256.14 760.53 256.84 751.97 C 256.87 742.28 263.27 734.26 269.86 727.81 C 277.31 720.66 286.84 716.12 296.43 712.59 M 279.48 728.48 C 277.13 729.09 275.91 732.41 277.99 734.04 C 279.80 736.38 283.86 734.66 284.22 732.00 C 284.85 729.41 281.61 727.60 279.48 728.48 M 300.38 739.38 C 298.56 740.12 296.75 742.66 298.67 744.28 C 299.78 746.45 303.19 746.86 304.50 744.67 C 306.67 742.12 303.40 737.63 300.38 739.38 M 316.20 752.23 C 315.88 752.98 315.56 753.73 315.23 754.50 C 316.01 757.07 319.51 761.17 321.81 757.71 C 324.34 755.13 321.12 752.16 318.83 750.91 C 317.95 751.34 317.08 751.79 316.20 752.23 M 330.19 770.31 C 327.65 773.25 332.66 775.90 334.92 773.82 C 334.96 773.06 335.03 771.55 335.06 770.80 C 333.61 769.49 331.60 768.12 330.19 770.31 Z" />
<path fill="rgba(0,0,0,0)" opacity="1.00" d=" M 327.18 710.25 C 328.13 710.76 328.51 712.05 329.64 712.46 C 329.41 713.44 327.25 713.47 326.43 712.99 C 326.20 711.95 326.45 711.04 327.18 710.25 Z" />
<path fill="rgba(0,0,0,0)" opacity="1.00" d=" M 533.54 712.50 C 536.75 711.57 540.06 712.90 543.15 713.75 C 550.90 716.41 558.94 721.27 561.50 729.55 C 564.15 735.95 562.53 743.31 559.01 749.04 C 557.18 752.03 554.43 754.58 553.61 758.10 C 553.39 760.93 556.24 762.35 558.08 763.93 C 559.20 770.60 557.72 777.28 557.50 783.96 C 554.04 798.27 546.09 811.32 535.78 821.75 C 533.98 824.64 530.22 823.36 527.44 824.21 C 517.74 826.38 507.56 826.51 497.85 824.35 C 486.31 820.76 475.14 815.79 465.01 809.18 C 456.80 804.39 449.48 797.02 447.31 787.49 C 452.25 789.64 456.88 792.47 460.99 795.95 C 462.11 797.09 463.74 797.14 465.25 797.19 C 465.21 795.45 464.99 793.63 463.59 792.44 C 453.75 783.68 441.01 779.60 429.68 773.25 C 424.23 770.37 418.46 768.10 413.24 764.79 C 406.32 760.81 398.28 757.14 394.49 749.68 C 395.13 747.63 396.47 745.90 397.68 744.18 C 407.42 748.28 417.15 752.40 426.91 756.46 C 436.63 760.06 446.22 764.03 455.62 768.41 C 459.57 770.17 463.22 772.57 467.29 774.07 C 467.52 773.61 467.98 772.69 468.20 772.23 C 455.19 761.41 438.78 756.04 423.39 749.57 C 415.59 746.36 407.69 743.38 400.02 739.88 C 397.62 738.83 395.91 736.80 394.20 734.91 C 395.29 731.62 397.23 728.05 400.96 727.34 C 409.54 725.79 417.92 729.16 426.02 731.55 C 444.09 737.00 461.48 744.45 479.25 750.74 C 481.40 752.03 481.87 748.39 479.98 747.93 C 472.12 742.96 463.40 739.60 454.74 736.30 C 444.70 732.03 434.18 729.08 423.90 725.46 C 422.11 724.86 420.47 723.90 418.92 722.85 C 420.73 718.98 424.83 717.20 428.93 717.27 C 449.37 717.34 468.96 724.09 488.05 730.74 C 500.83 735.12 513.28 740.44 526.01 744.96 C 531.29 745.84 536.92 743.30 540.15 739.08 C 542.36 736.42 543.54 732.44 541.83 729.23 C 539.80 725.42 536.23 722.80 533.33 719.71 C 533.16 717.31 532.86 714.84 533.54 712.50 M 453.87 732.20 C 455.30 734.32 457.57 735.31 460.12 735.12 C 461.26 733.52 463.02 731.98 462.83 729.83 C 462.57 728.05 460.53 727.36 459.01 727.11 C 456.17 727.09 454.95 730.06 453.87 732.20 M 489.81 742.78 C 487.80 743.07 488.06 745.20 488.10 746.71 C 489.63 747.18 491.25 747.52 492.81 746.96 C 493.39 745.00 492.17 742.11 489.81 742.78 M 439.13 744.95 C 437.82 746.43 436.79 748.12 436.06 749.95 C 437.03 752.00 438.90 753.21 440.97 753.99 C 443.74 752.63 446.35 749.55 444.94 746.32 C 443.72 744.19 441.12 744.96 439.13 744.95 M 434.47 765.51 C 431.97 766.16 429.60 769.14 431.14 771.67 C 433.34 774.61 439.69 773.18 439.14 769.10 C 439.55 766.69 436.73 764.18 434.47 765.51 M 479.60 765.74 C 476.69 767.08 479.24 771.56 482.07 769.89 C 484.55 768.29 482.05 764.54 479.60 765.74 M 470.08 792.07 C 471.44 792.16 472.81 792.17 474.18 792.08 C 474.27 790.45 474.25 787.97 472.00 787.98 C 469.86 788.09 469.12 790.39 470.08 792.07 Z" />
<path fill="rgba(0,0,0,0)" opacity="1.00" d=" M 387.57 730.01 C 388.28 728.10 389.99 727.37 391.86 727.06 C 392.26 728.91 391.56 730.68 390.91 732.39 C 389.58 731.91 388.56 730.96 387.57 730.01 Z" />
<path fill="rgba(0,0,0,0)" opacity="1.00" d=" M 532.89 726.55 C 534.77 728.62 538.06 730.84 536.80 734.07 C 536.19 736.16 534.56 737.70 532.90 739.00 C 532.78 734.85 532.88 730.70 532.89 726.55 Z" />
<path fill="rgba(0,0,0,0)" opacity="1.00" d=" M 301.20 742.30 C 301.92 742.67 301.92 742.67 301.20 742.30 Z" />
<path fill="rgba(0,0,0,0)" opacity="1.00" d=" M 440.81 750.91 C 438.70 751.28 438.97 747.57 440.96 747.80 C 442.46 748.17 441.88 750.37 440.81 750.91 Z" />
<path fill="rgba(0,0,0,0)" opacity="1.00" d=" M 319.86 756.43 C 316.55 757.72 317.98 751.01 320.28 753.85 C 320.18 754.50 319.96 755.78 319.86 756.43 Z" />
<path fill="rgba(0,0,0,0)" opacity="1.00" d=" M 433.64 769.02 C 433.73 767.31 436.69 767.26 436.78 768.98 C 436.64 770.64 433.76 770.73 433.64 769.02 Z" />
<path fill="rgba(0,0,0,0)" opacity="1.00" d=" M 432.00 779.97 C 435.51 781.59 439.08 783.13 442.76 784.36 C 442.56 788.29 443.90 791.96 445.26 795.57 C 446.66 798.23 450.54 802.61 446.34 804.72 C 444.31 800.14 438.84 797.84 434.09 798.61 C 433.82 796.75 433.52 794.88 433.14 793.06 C 435.07 795.12 438.04 795.29 440.49 794.15 C 439.49 790.93 435.45 792.12 432.98 792.42 C 432.92 788.25 432.74 784.08 432.00 779.97 Z" />
<path fill="rgba(0,0,0,0)" opacity="1.00" d=" M 335.25 787.66 C 336.68 788.29 337.92 789.24 339.11 790.26 C 339.70 793.60 337.55 796.83 333.89 796.32 C 331.90 793.48 334.16 790.37 335.25 787.66 Z" />
<path fill="rgba(0,0,0,0)" opacity="1.00" d=" M 355.73 797.25 C 356.35 796.02 355.75 792.86 357.96 793.36 C 360.03 793.19 359.61 795.39 359.65 796.72 C 361.20 795.34 360.89 791.39 364.35 793.50 C 363.32 795.08 362.56 796.92 361.08 798.18 C 359.22 798.66 357.45 797.80 355.73 797.25 Z" />
<path fill="rgba(0,0,0,0)" opacity="1.00" d=" M 366.10 793.76 C 366.90 793.78 368.48 793.82 369.27 793.84 C 369.35 794.69 369.51 796.39 369.59 797.25 C 370.46 795.82 371.55 794.59 372.85 793.56 C 373.18 795.22 372.02 796.45 371.11 797.61 L 372.03 798.31 C 367.41 801.34 368.38 795.58 366.10 793.76 Z" />
<path fill="rgba(0,0,0,0)" opacity="1.00" d=" M 373.24 795.36 C 373.93 796.00 373.93 796.00 373.24 795.36 Z" />
<path fill="rgba(0,0,0,0)" opacity="1.00" d=" M 374.90 795.45 C 377.31 794.92 375.17 798.94 374.56 796.23 L 374.90 795.45 Z" />
<path fill="rgba(0,0,0,0)" opacity="1.00" d=" M 364.46 797.10 C 365.66 796.40 366.44 796.61 366.79 797.75 C 365.58 798.75 364.81 798.54 364.46 797.10 Z" />
<path fill="rgba(0,0,0,0)" opacity="1.00" d=" M 372.85 799.20 C 371.26 798.67 372.68 796.96 373.76 797.08 C 375.58 797.38 374.29 799.84 372.85 799.20 Z" />
<path fill="rgba(0,0,0,0)" opacity="1.00" d=" M 337.79 799.77 C 338.96 797.97 341.32 798.98 343.07 798.81 C 354.32 799.49 365.60 799.98 376.84 800.80 C 376.80 801.36 376.74 802.47 376.71 803.03 C 363.68 802.66 350.70 801.47 337.79 799.77 Z" />
<path fill="rgba(0,0,0,0)" opacity="1.00" d=" M 434.89 801.67 C 437.32 801.88 440.64 802.66 440.18 805.82 C 438.41 805.96 436.65 805.78 434.96 805.30 C 434.94 804.39 434.91 802.57 434.89 801.67 Z" />
<path fill="rgba(0,0,0,0)" opacity="1.00" d=" M 334.71 802.94 C 349.01 804.21 363.34 805.07 377.65 806.24 C 378.03 809.93 378.54 813.61 379.15 817.28 C 366.95 815.92 354.03 816.00 342.99 809.91 C 339.79 808.16 337.12 805.63 334.71 802.94 Z" />
<path fill="rgba(0,0,0,0)" opacity="1.00" d=" M 442.56 810.21 C 443.41 808.24 444.57 806.44 445.98 804.84 C 447.09 806.61 446.51 808.58 446.12 810.49 C 445.23 810.42 443.45 810.28 442.56 810.21 Z" />
<path fill="rgba(0,0,0,0)" opacity="1.00" d=" M 382.86 805.84 C 398.31 806.92 413.76 807.95 429.23 808.78 C 429.23 812.75 429.96 816.64 430.64 820.54 C 415.33 820.93 400.03 819.27 384.75 818.36 C 384.10 814.19 383.75 809.97 382.86 805.84 Z" />
<path fill="rgba(0,0,0,0)" opacity="1.00" d=" M 451.06 806.06 C 453.18 805.81 453.67 808.23 454.74 809.55 C 453.77 809.89 452.81 810.22 451.84 810.56 C 451.27 809.12 450.36 807.61 451.06 806.06 Z" />
<path fill="rgba(0,0,0,0)" opacity="1.00" d=" M 435.51 811.02 C 433.74 809.18 437.15 808.87 438.10 809.92 C 438.59 811.25 436.27 811.96 435.51 811.02 Z" />
<path fill="rgba(0,0,0,0)" opacity="1.00" d=" M 299.16 827.08 C 301.56 821.49 303.42 815.65 306.51 810.38 C 307.74 811.36 310.07 811.82 309.83 813.87 C 310.28 822.35 314.48 830.54 321.01 835.94 C 330.70 844.81 344.21 847.95 357.00 848.44 C 362.11 848.03 367.27 847.10 371.95 844.93 C 377.92 841.98 382.86 837.29 386.88 832.04 C 388.16 841.62 388.76 851.32 388.92 860.99 C 389.56 876.46 388.63 892.30 383.44 907.02 C 378.54 921.08 369.36 933.53 357.55 942.57 C 347.59 950.63 335.06 956.33 322.03 955.78 C 312.92 955.42 303.59 952.51 296.69 946.36 C 286.35 938.02 281.47 924.74 279.95 911.89 C 278.26 898.09 281.54 884.38 284.55 871.00 C 288.60 856.10 293.26 841.35 299.16 827.08 Z" />
<path fill="rgba(0,0,0,0)" opacity="1.00" d=" M 437.82 811.94 C 442.98 808.84 448.73 812.07 454.15 812.33 C 457.23 812.82 460.51 812.08 463.46 813.31 C 463.57 813.67 463.79 814.37 463.89 814.72 C 455.15 814.35 446.57 812.27 437.82 811.94 Z" />
<path fill="rgba(0,0,0,0)" opacity="1.00" d=" M 435.09 814.01 C 445.74 815.16 456.32 817.26 467.08 817.54 C 470.21 817.45 472.81 819.38 475.55 820.60 C 482.22 823.91 489.05 826.98 496.31 828.78 C 485.78 830.64 475.13 828.99 464.59 828.15 C 455.02 826.75 445.13 825.90 436.12 822.19 C 435.47 819.50 435.19 816.75 435.09 814.01 Z" />
<path fill="rgba(0,0,0,0)" opacity="1.00" d=" M 391.45 823.50 C 404.32 824.09 417.14 825.74 430.05 825.47 C 432.18 825.40 434.24 826.07 436.27 826.70 C 454.93 832.26 474.51 834.46 493.95 833.89 C 506.51 833.88 518.85 831.37 531.10 828.85 C 534.51 835.21 540.26 839.73 545.30 844.72 C 554.31 853.50 564.45 860.96 573.94 869.17 C 589.92 881.86 606.33 893.99 622.67 906.22 C 646.15 924.31 670.19 942.09 697.01 954.99 C 702.04 957.48 707.47 959.08 712.42 961.75 C 711.59 969.02 711.21 976.49 708.99 983.49 C 683.14 986.38 657.13 987.36 631.14 987.78 C 601.14 988.67 571.13 987.86 541.12 988.13 C 511.76 987.97 482.41 987.82 453.05 988.19 C 427.73 988.02 402.38 988.94 377.07 987.95 C 373.30 973.55 370.57 958.83 369.56 943.96 C 369.52 942.16 369.26 940.05 370.77 938.76 C 378.67 930.09 385.30 920.04 388.96 908.84 C 393.05 898.08 394.21 886.49 394.84 875.09 C 394.94 857.84 393.81 840.59 391.45 823.50 Z" />
</g>
<g id="Group-000000" fill="#000000">
<path fill="#000000" opacity="1.00" d=" M 402.94 87.32 C 423.95 83.61 445.45 88.78 464.58 97.51 C 475.84 102.21 485.96 109.19 497.09 114.13 C 504.25 117.46 511.80 113.75 518.59 111.31 C 532.66 105.86 547.88 103.18 562.96 104.22 C 576.11 105.16 588.88 109.86 599.79 117.20 C 614.31 127.18 622.57 144.52 623.76 161.84 C 626.48 161.47 629.23 160.94 632.00 161.19 C 647.71 162.59 663.12 166.91 677.41 173.55 C 688.64 178.95 698.35 187.25 706.06 197.00 C 715.65 208.89 723.04 222.68 726.71 237.56 C 731.70 257.54 732.89 278.70 728.57 298.92 C 724.38 318.85 716.17 337.68 706.52 355.52 C 697.52 371.80 689.20 388.69 677.14 402.99 C 668.37 413.95 658.12 423.71 646.71 431.89 C 644.39 433.62 641.56 434.48 639.18 436.07 C 628.31 451.02 614.87 464.04 600.01 475.00 C 601.29 496.89 600.67 518.86 602.32 540.73 C 621.50 542.94 640.70 545.60 659.41 550.46 C 678.66 555.50 697.22 564.37 711.74 578.18 C 722.95 588.38 730.64 601.61 738.63 614.31 C 764.87 657.68 780.39 706.54 791.63 755.69 C 791.27 755.77 790.54 755.91 790.17 755.98 C 790.60 756.07 791.47 756.23 791.91 756.32 C 792.95 762.21 794.38 768.02 795.43 773.91 C 800.88 801.00 803.78 828.66 803.08 856.28 C 801.08 875.71 800.62 895.90 793.40 914.37 C 788.48 926.44 780.27 937.11 769.99 945.10 C 755.33 956.71 736.82 964.49 717.87 963.17 C 717.19 970.38 716.51 977.62 714.61 984.64 C 713.94 986.51 712.12 988.11 710.06 988.09 C 703.40 988.52 696.81 989.60 690.16 990.05 C 692.65 1001.33 694.99 1012.64 697.09 1024.00 L 386.05 1024.00 C 386.44 1013.62 385.86 1003.23 386.58 992.87 C 382.40 992.78 378.21 993.05 374.05 992.71 C 372.61 992.00 372.18 990.32 371.77 988.93 C 368.00 974.34 365.38 959.44 364.28 944.41 C 353.72 953.83 340.27 960.68 325.95 961.32 C 311.91 962.13 297.50 956.53 288.14 945.95 C 282.20 939.45 278.14 931.35 276.13 922.80 C 271.18 905.80 274.41 887.87 278.54 871.07 C 284.10 849.30 291.70 828.07 300.90 807.59 C 285.32 799.93 271.93 788.52 260.09 775.96 C 252.65 768.16 249.47 756.56 252.10 746.09 C 253.31 740.44 256.27 735.33 260.10 731.05 C 262.51 729.01 261.28 725.70 261.25 723.00 C 259.27 707.15 255.64 691.56 252.18 675.99 C 251.42 673.60 253.08 671.66 254.42 669.91 C 253.83 666.72 251.97 663.66 252.43 660.36 C 252.68 658.65 254.61 658.30 255.82 657.50 C 254.96 653.82 254.78 648.07 259.87 647.91 C 258.33 644.01 258.13 638.32 262.85 636.62 C 262.33 634.11 261.64 631.60 261.66 629.03 C 261.78 626.44 264.32 623.98 266.98 624.93 C 275.37 626.39 283.67 628.31 292.12 629.35 C 316.56 632.46 341.18 633.98 365.59 637.21 C 366.41 635.81 367.10 634.31 368.24 633.14 C 370.27 632.34 372.49 632.27 374.63 631.93 C 381.18 616.98 389.37 602.53 400.53 590.52 C 411.25 578.52 424.51 568.88 439.02 561.97 C 453.58 555.13 468.92 549.98 484.64 546.58 C 483.66 536.05 482.86 525.50 481.94 514.97 C 457.06 512.36 433.59 501.36 414.18 485.81 C 400.92 474.98 389.28 461.99 380.84 447.05 C 371.03 429.69 363.98 410.15 364.01 390.02 C 363.74 384.30 363.52 378.56 363.95 372.85 C 357.24 367.85 351.58 361.24 348.59 353.36 C 344.53 342.55 345.28 330.01 350.75 319.82 C 354.77 312.04 362.02 306.51 369.79 302.81 C 369.89 294.20 371.33 285.67 371.82 277.11 C 369.78 274.85 367.23 272.99 365.76 270.26 C 362.38 264.43 361.95 257.33 363.53 250.87 C 350.52 247.08 340.21 237.24 332.92 226.14 C 325.28 214.12 320.93 200.11 319.90 185.94 C 318.42 164.15 325.70 142.14 339.06 124.97 C 354.44 104.77 377.96 91.35 402.94 87.32 M 562.95 226.93 C 545.39 235.13 527.14 242.20 508.06 245.90 C 485.72 250.86 462.85 253.11 439.99 253.52 C 424.07 253.57 408.11 251.07 393.03 245.93 C 387.93 244.36 384.62 250.30 383.57 254.44 C 380.87 270.27 376.99 285.88 374.78 301.79 C 370.94 330.02 367.69 358.50 368.82 387.04 C 368.73 398.99 370.87 410.92 374.78 422.21 C 386.75 457.56 414.95 486.39 448.95 501.24 C 458.85 505.50 469.32 508.70 480.05 509.82 C 486.39 506.87 493.33 509.65 500.01 508.81 C 526.57 506.71 552.13 497.25 575.21 484.23 C 581.85 480.38 588.42 476.33 594.07 471.08 C 595.56 469.40 597.81 469.30 599.87 468.91 C 613.93 458.14 626.91 445.67 636.84 430.94 C 642.64 422.55 645.87 412.74 648.24 402.91 C 648.61 401.08 649.60 399.19 651.49 398.58 C 660.18 397.45 669.00 395.34 676.59 390.76 C 687.92 383.49 694.27 370.45 696.38 357.47 C 697.85 344.99 696.38 331.43 688.88 320.97 C 684.82 314.97 678.74 310.46 671.96 307.99 C 663.68 305.22 654.38 307.50 647.43 312.48 C 645.88 314.99 645.91 318.16 644.98 320.93 C 642.19 330.25 639.57 339.69 635.57 348.59 C 634.27 351.71 632.07 354.44 628.96 355.87 C 621.77 354.89 615.43 350.70 611.14 344.94 C 599.47 330.00 593.91 311.28 590.66 292.86 C 586.67 267.25 585.52 241.12 588.31 215.32 C 579.52 218.42 571.46 223.19 562.95 226.93 M 351.59 334.00 C 349.52 345.98 354.55 358.68 363.71 366.53 C 364.55 347.26 366.71 328.08 369.44 309.00 C 359.52 313.20 352.89 323.47 351.59 334.00 M 584.43 507.32 C 570.34 516.51 554.77 523.40 538.53 527.75 C 522.28 532.22 505.43 534.03 488.63 534.73 C 488.96 538.37 488.44 542.31 490.42 545.60 C 495.27 554.35 502.49 562.07 511.59 566.43 C 516.71 568.24 521.96 570.52 527.50 570.20 C 539.24 572.22 551.08 568.63 562.20 565.11 C 574.79 559.65 588.11 553.31 596.30 541.87 C 596.80 527.31 595.55 512.71 595.62 498.13 C 592.25 501.60 588.35 504.50 584.43 507.32 M 565.81 568.91 C 550.44 574.91 533.14 578.26 516.91 573.86 C 504.52 570.95 493.95 562.30 487.13 551.75 C 475.34 553.80 464.00 557.80 452.82 561.97 C 437.95 567.90 423.74 575.94 411.99 586.91 C 398.32 599.69 387.68 615.68 381.07 633.18 C 393.69 633.18 406.31 633.64 418.87 634.72 C 423.42 635.39 428.33 635.01 432.42 637.46 C 436.33 639.43 439.42 642.61 442.24 645.90 C 444.47 646.11 446.71 646.24 448.96 646.23 C 463.73 646.41 478.24 649.43 492.91 650.69 C 504.61 651.22 516.28 649.36 527.57 646.40 C 534.71 644.44 541.71 641.92 548.93 640.29 C 551.99 640.99 552.81 644.56 553.37 647.21 C 554.69 654.71 554.96 662.35 555.63 669.93 C 556.17 683.62 557.42 697.64 553.77 711.04 C 552.73 712.70 555.08 713.23 555.97 714.12 C 562.82 718.39 567.64 725.96 568.15 734.08 C 569.30 743.10 564.35 751.35 559.13 758.25 C 566.23 763.91 575.82 764.51 583.92 768.22 C 602.90 777.07 619.56 790.00 636.22 802.51 C 631.54 787.34 629.22 771.59 626.36 756.02 C 623.45 737.40 620.24 718.82 617.98 700.11 C 617.72 696.78 616.53 693.35 618.07 690.15 C 618.80 690.08 620.25 689.95 620.98 689.89 C 622.88 691.68 622.61 694.55 622.99 696.93 C 627.47 730.09 633.18 763.06 638.87 796.03 C 639.57 799.78 639.71 804.02 642.17 807.13 C 669.30 829.29 697.48 850.79 719.84 878.01 C 726.07 877.33 732.50 877.74 738.49 879.64 C 740.99 880.09 740.54 884.18 738.01 884.08 C 733.06 884.11 728.25 882.50 723.27 882.64 C 726.83 887.83 731.05 892.92 732.55 899.17 C 732.61 901.15 729.76 901.92 728.76 900.27 C 726.89 898.04 725.62 895.41 724.02 893.01 C 711.49 874.24 695.01 858.61 678.11 843.84 C 660.27 828.60 641.95 813.95 623.32 799.69 C 611.65 791.62 600.45 782.68 587.76 776.25 C 589.12 781.05 589.31 786.07 589.19 791.03 C 588.70 805.83 583.92 820.41 575.72 832.73 C 571.44 839.34 566.32 845.68 559.64 849.97 C 573.58 862.18 588.14 873.68 602.99 884.78 C 619.90 897.30 636.46 910.29 653.51 922.62 C 672.08 935.74 691.55 947.97 712.93 955.97 C 715.23 956.74 717.40 958.19 719.93 958.09 C 730.93 958.62 741.74 955.34 751.56 950.60 C 763.32 944.31 774.22 935.81 781.62 924.57 C 786.50 917.50 789.82 909.41 791.73 901.06 C 795.53 885.12 796.86 868.73 797.58 852.40 C 798.28 828.75 795.64 805.10 791.51 781.84 C 785.99 751.80 778.27 722.19 768.74 693.19 C 758.35 662.36 744.71 632.50 726.55 605.44 C 718.89 593.20 709.50 581.77 697.47 573.61 C 683.93 563.89 668.05 557.89 651.88 554.26 C 634.80 550.41 617.41 547.82 599.99 546.21 C 591.12 556.97 578.49 563.67 565.81 568.91 M 267.76 631.38 C 267.83 633.67 268.36 636.56 271.08 637.04 C 279.54 639.06 288.31 639.34 296.86 640.87 C 319.39 644.29 342.16 645.69 364.72 648.85 C 365.01 646.94 365.33 645.05 365.72 643.17 C 337.53 639.39 309.08 637.77 280.92 633.76 C 276.51 633.08 272.22 631.76 267.76 631.38 M 368.49 676.10 C 386.35 676.49 404.21 677.17 422.05 678.25 C 422.58 665.95 423.89 653.66 425.87 641.50 C 408.01 638.81 389.85 639.29 371.85 638.69 C 369.71 651.04 368.75 663.57 368.49 676.10 M 264.35 641.39 C 264.61 643.54 264.83 645.71 264.98 647.89 C 274.99 649.53 285.05 650.78 295.10 652.16 C 317.61 656.00 340.43 657.53 363.10 660.07 C 364.83 659.08 363.81 655.85 364.32 654.00 C 353.26 652.34 342.12 651.38 331.02 650.10 C 308.69 648.12 286.57 644.27 264.35 641.39 M 430.54 645.60 C 431.40 647.34 433.73 646.36 435.26 646.72 C 434.34 644.79 432.52 643.61 430.82 642.47 C 430.67 643.50 430.58 644.54 430.54 645.60 M 539.09 647.86 C 525.73 651.87 512.00 655.36 497.96 655.42 C 484.51 655.73 471.37 652.27 458.02 651.37 C 448.71 650.38 439.32 650.06 430.01 651.13 C 429.81 653.23 429.30 655.34 429.53 657.47 C 432.66 657.95 435.83 657.87 438.98 658.03 C 452.03 658.32 464.98 660.14 477.98 661.14 C 497.09 663.02 516.76 662.12 535.05 655.89 C 537.03 655.11 540.13 654.33 540.96 657.07 C 542.87 662.49 542.69 668.36 543.03 674.04 C 543.88 685.38 544.12 696.79 543.16 708.14 C 544.98 708.83 546.83 709.45 548.71 710.00 C 552.62 696.32 551.43 681.94 550.53 667.94 C 549.85 660.47 549.46 652.94 547.93 645.59 C 544.91 646.06 541.98 646.91 539.09 647.86 M 259.97 652.71 C 260.29 654.16 260.63 655.64 260.94 657.12 C 265.55 658.46 270.34 658.93 275.06 659.76 C 288.60 662.06 302.11 664.50 315.57 667.26 C 331.23 670.50 347.23 671.43 363.17 671.98 C 363.33 669.74 363.42 667.51 363.25 665.29 C 338.45 662.75 313.61 660.47 288.98 656.50 C 279.32 655.18 269.72 653.26 259.97 652.71 M 499.99 666.52 C 476.14 667.22 452.62 662.24 428.82 661.93 C 428.46 664.23 428.22 666.56 428.04 668.89 C 433.22 670.34 438.61 670.72 443.92 671.48 C 460.23 673.32 476.61 674.54 493.03 674.79 C 504.31 674.75 515.69 674.69 526.79 672.38 C 528.83 671.92 532.01 671.55 532.72 674.18 C 533.80 678.71 532.51 683.38 532.61 687.97 C 532.72 694.40 532.83 700.82 532.71 707.25 C 534.38 707.27 536.05 707.30 537.73 707.32 C 539.20 691.72 537.91 675.99 536.35 660.45 C 524.63 664.29 512.31 666.18 499.99 666.52 M 258.59 662.76 C 258.97 664.68 259.42 666.62 260.09 668.48 C 276.94 670.48 293.69 673.39 310.15 677.50 C 327.53 681.05 345.27 684.35 363.08 682.92 C 363.12 680.85 363.16 678.78 363.21 676.72 C 343.72 676.53 324.20 674.81 305.19 670.39 C 289.74 667.41 274.26 664.21 258.59 662.76 M 259.20 674.15 C 258.47 677.43 260.64 680.64 261.27 683.87 C 264.50 697.04 265.54 710.63 266.61 724.11 C 268.78 721.97 271.96 720.64 273.46 717.98 C 272.45 706.55 270.31 695.26 268.87 683.90 C 273.72 681.86 279.05 683.06 284.10 683.28 C 299.66 684.34 314.62 689.02 329.97 691.45 C 340.89 693.74 352.08 694.67 363.22 693.86 C 363.71 691.95 363.44 690.00 363.18 688.09 C 331.80 689.98 301.78 679.06 271.06 674.82 C 267.13 674.44 263.14 673.43 259.20 674.15 M 427.29 680.95 C 428.79 681.64 430.40 681.99 432.04 682.19 C 463.40 686.62 495.13 690.52 526.83 688.12 C 526.95 684.47 526.89 680.83 526.94 677.18 C 509.09 680.01 490.93 679.48 472.93 678.66 C 457.74 678.02 442.66 676.02 427.64 673.84 C 427.47 676.21 427.42 678.58 427.29 680.95 M 368.39 680.99 C 368.64 687.72 368.81 694.46 369.72 701.15 C 387.16 701.14 404.58 702.91 422.03 702.54 C 421.66 696.15 421.74 689.76 421.79 683.37 C 404.04 681.64 386.20 681.52 368.39 680.99 M 427.11 686.03 C 427.53 688.25 425.37 692.96 428.95 693.01 C 451.11 696.83 473.52 699.28 496.00 700.20 C 502.71 700.42 509.44 700.04 516.12 700.78 C 516.71 702.36 517.32 703.95 517.65 705.63 C 518.86 715.99 519.24 726.44 518.79 736.87 C 521.53 737.90 524.25 738.96 526.96 740.07 C 527.36 724.25 525.83 708.46 526.10 692.64 C 511.08 693.53 496.01 693.45 481.00 692.30 C 462.89 691.62 445.00 688.66 427.11 686.03 M 274.64 687.80 C 274.95 690.40 274.69 693.34 276.44 695.52 C 279.69 693.88 283.00 691.82 284.27 688.19 C 281.07 687.80 277.85 687.75 274.64 687.80 M 284.83 694.75 C 282.63 697.21 279.50 698.35 276.62 699.77 C 276.73 704.98 278.06 710.07 278.28 715.28 C 288.37 710.13 299.22 704.78 310.87 705.70 C 316.16 706.03 320.02 710.61 321.35 715.44 C 324.21 714.96 323.31 711.28 325.51 710.26 C 325.56 709.99 325.66 709.45 325.71 709.18 C 326.38 709.31 327.72 709.57 328.39 709.70 C 329.11 710.26 329.69 710.95 330.12 711.78 C 330.51 713.44 331.80 714.15 333.98 713.91 C 332.97 711.63 331.31 709.58 331.01 707.05 C 333.40 708.38 335.48 711.07 334.50 713.95 C 336.32 714.86 338.44 715.46 339.86 717.03 C 341.78 718.91 340.89 721.83 341.13 724.22 C 344.36 723.47 347.71 721.90 351.05 722.96 C 356.06 724.27 360.05 728.80 360.65 733.95 C 360.78 738.16 358.43 742.05 355.35 744.78 C 361.66 749.23 362.33 758.71 357.65 764.56 C 353.49 770.72 345.51 772.92 342.14 779.75 C 343.07 780.21 344.00 780.68 344.93 781.15 C 345.30 782.60 345.64 784.07 345.95 785.56 C 344.00 784.86 342.72 783.27 341.51 781.71 C 339.97 782.17 337.98 782.56 337.68 784.50 C 337.00 784.47 335.64 784.41 334.96 784.38 C 338.25 784.62 342.12 785.10 343.28 788.85 C 343.61 788.68 344.27 788.35 344.59 788.18 C 343.47 789.59 343.66 791.45 343.26 793.13 C 342.46 794.87 341.12 796.27 340.02 797.82 C 341.18 797.77 342.34 797.73 343.51 797.70 C 343.94 797.25 344.79 796.36 345.22 795.91 C 346.28 796.50 347.35 797.08 348.42 797.70 C 349.33 797.27 350.26 796.87 351.20 796.50 C 351.55 795.75 352.26 794.24 352.62 793.48 C 352.54 794.54 352.38 796.64 352.30 797.70 L 354.40 797.48 C 351.90 795.49 355.23 793.33 353.97 791.06 C 361.31 792.10 368.71 792.35 376.11 792.69 C 372.99 769.81 369.95 746.92 366.97 724.02 C 366.06 719.02 365.26 713.98 365.01 708.90 C 364.25 708.83 362.72 708.68 361.95 708.61 C 360.28 706.42 358.89 704.03 357.26 701.82 C 357.34 701.37 357.49 700.47 357.56 700.02 C 361.13 698.80 362.22 703.15 364.01 705.22 C 363.69 702.89 364.27 699.98 363.10 698.00 C 352.13 698.90 340.94 698.70 330.18 696.12 C 316.35 693.86 302.83 689.64 288.81 688.64 C 287.39 690.60 286.73 693.11 284.83 694.75 M 427.29 696.89 C 427.44 701.92 428.03 706.93 427.85 711.97 C 429.56 711.86 431.28 711.77 433.01 711.94 C 443.41 713.24 453.80 714.90 463.97 717.50 C 480.78 722.51 497.22 728.60 513.67 734.65 C 513.72 730.43 514.10 726.20 513.70 722.00 C 510.65 719.38 506.67 718.05 503.81 715.19 C 500.79 712.37 498.91 708.62 497.26 704.91 C 489.12 704.71 481.03 703.55 472.89 703.50 C 457.70 701.31 442.38 699.75 427.29 696.89 M 513.31 716.97 C 513.10 712.94 512.77 708.92 512.15 704.95 C 508.58 704.89 505.01 704.80 501.44 704.79 C 502.70 710.64 508.05 714.73 513.31 716.97 M 369.97 705.79 C 370.20 708.84 370.48 711.90 371.04 714.93 C 374.40 737.95 377.51 761.02 380.24 784.13 C 381.02 789.77 381.28 795.50 382.58 801.06 C 397.89 802.25 413.23 802.98 428.55 803.99 C 428.37 795.07 426.61 786.26 426.57 777.35 C 422.36 774.80 417.82 772.87 413.57 770.40 C 405.92 765.98 397.47 762.26 391.80 755.21 C 388.90 751.07 383.79 749.53 380.27 746.03 C 382.34 744.52 383.80 741.76 386.69 741.87 C 387.74 743.19 388.84 744.49 390.00 745.75 C 391.28 744.53 392.14 743.04 392.25 741.26 C 388.45 738.74 384.10 736.36 382.12 732.04 C 381.12 728.84 381.62 724.65 384.65 722.71 C 387.16 721.23 390.26 721.11 393.05 721.81 C 392.82 720.19 392.57 718.59 392.37 716.99 C 394.19 717.04 396.02 717.11 397.85 717.22 C 397.93 718.96 397.98 720.70 398.04 722.47 C 403.27 721.96 408.60 721.50 413.71 723.10 C 413.86 718.14 417.60 713.97 422.34 712.83 C 422.32 711.19 422.29 709.56 422.27 707.94 C 417.53 707.62 412.80 707.40 408.06 707.32 C 395.35 707.03 382.68 705.77 369.97 705.79 M 296.43 712.59 C 286.84 716.12 277.31 720.66 269.86 727.81 C 263.27 734.26 256.87 742.28 256.84 751.97 C 256.14 760.53 260.36 768.71 266.27 774.65 C 276.46 784.91 287.36 794.66 300.01 801.84 C 316.31 811.04 333.44 819.83 352.21 822.46 C 357.08 823.63 362.11 823.35 367.06 822.91 C 368.56 822.70 370.23 822.68 371.35 821.50 C 359.62 820.03 346.88 819.34 337.15 811.80 C 330.01 806.80 326.15 796.95 329.56 788.65 C 330.83 784.09 334.55 780.98 337.32 777.35 C 341.14 772.82 345.83 769.16 350.18 765.17 C 353.61 761.80 356.05 756.58 354.22 751.81 C 353.60 749.90 351.24 747.83 349.29 749.44 C 337.35 757.15 325.73 765.51 315.78 775.74 C 312.03 779.31 309.02 783.60 305.10 787.01 C 304.53 786.68 303.39 786.04 302.82 785.72 C 303.05 784.44 303.30 783.14 304.15 782.12 C 313.86 767.61 328.26 757.23 342.58 747.66 C 347.23 744.56 353.19 741.75 354.51 735.75 C 355.55 731.06 350.33 726.79 345.89 728.15 C 335.45 731.62 326.87 738.85 318.40 745.61 C 314.25 748.68 310.93 752.67 307.00 755.99 C 300.50 761.52 295.06 768.13 289.42 774.50 C 288.21 776.04 286.08 776.58 285.36 774.25 C 286.93 770.68 289.35 767.57 291.62 764.42 C 303.09 750.53 317.45 739.45 331.93 728.87 C 333.57 727.58 335.68 726.31 336.07 724.08 C 336.52 722.12 334.88 720.64 333.54 719.54 C 329.98 716.73 325.12 718.62 321.58 720.50 C 307.65 728.75 294.42 738.41 283.34 750.30 C 279.37 754.25 276.16 759.25 271.10 761.93 C 268.84 762.84 267.38 759.75 269.32 758.48 C 274.27 753.39 278.06 747.28 283.35 742.49 C 291.63 733.88 301.55 727.09 311.57 720.67 C 312.90 719.60 314.67 718.77 315.32 717.10 C 315.58 713.18 311.75 710.04 308.04 710.14 C 304.07 710.36 300.19 711.34 296.43 712.59 M 327.18 710.25 C 326.45 711.04 326.20 711.95 326.43 712.99 C 327.25 713.47 329.41 713.44 329.64 712.46 C 328.51 712.05 328.13 710.76 327.18 710.25 M 533.54 712.50 C 532.86 714.84 533.16 717.31 533.33 719.71 C 536.23 722.80 539.80 725.42 541.83 729.23 C 543.54 732.44 542.36 736.42 540.15 739.08 C 536.92 743.30 531.29 745.84 526.01 744.96 C 513.28 740.44 500.83 735.12 488.05 730.74 C 468.96 724.09 449.37 717.34 428.93 717.27 C 424.83 717.20 420.73 718.98 418.92 722.85 C 420.47 723.90 422.11 724.86 423.90 725.46 C 434.18 729.08 444.70 732.03 454.74 736.30 C 463.40 739.60 472.12 742.96 479.98 747.93 C 481.87 748.39 481.40 752.03 479.25 750.74 C 461.48 744.45 444.09 737.00 426.02 731.55 C 417.92 729.16 409.54 725.79 400.96 727.34 C 397.23 728.05 395.29 731.62 394.20 734.91 C 395.91 736.80 397.62 738.83 400.02 739.88 C 407.69 743.38 415.59 746.36 423.39 749.57 C 438.78 756.04 455.19 761.41 468.20 772.23 C 467.98 772.69 467.52 773.61 467.29 774.07 C 463.22 772.57 459.57 770.17 455.62 768.41 C 446.22 764.03 436.63 760.06 426.91 756.46 C 417.15 752.40 407.42 748.28 397.68 744.18 C 396.47 745.90 395.13 747.63 394.49 749.68 C 398.28 757.14 406.32 760.81 413.24 764.79 C 418.46 768.10 424.23 770.37 429.68 773.25 C 441.01 779.60 453.75 783.68 463.59 792.44 C 464.99 793.63 465.21 795.45 465.25 797.19 C 463.74 797.14 462.11 797.09 460.99 795.95 C 456.88 792.47 452.25 789.64 447.31 787.49 C 449.48 797.02 456.80 804.39 465.01 809.18 C 475.14 815.79 486.31 820.76 497.85 824.35 C 507.56 826.51 517.74 826.38 527.44 824.21 C 530.22 823.36 533.98 824.64 535.78 821.75 C 546.09 811.32 554.04 798.27 557.50 783.96 C 557.72 777.28 559.20 770.60 558.08 763.93 C 556.24 762.35 553.39 760.93 553.61 758.10 C 554.43 754.58 557.18 752.03 559.01 749.04 C 562.53 743.31 564.15 735.95 561.50 729.55 C 558.94 721.27 550.90 716.41 543.15 713.75 C 540.06 712.90 536.75 711.57 533.54 712.50 M 387.57 730.01 C 388.56 730.96 389.58 731.91 390.91 732.39 C 391.56 730.68 392.26 728.91 391.86 727.06 C 389.99 727.37 388.28 728.10 387.57 730.01 M 532.89 726.55 C 532.88 730.70 532.78 734.85 532.90 739.00 C 534.56 737.70 536.19 736.16 536.80 734.07 C 538.06 730.84 534.77 728.62 532.89 726.55 M 432.00 779.97 C 432.74 784.08 432.92 788.25 432.98 792.42 C 435.45 792.12 439.49 790.93 440.49 794.15 C 438.04 795.29 435.07 795.12 433.14 793.06 C 433.52 794.88 433.82 796.75 434.09 798.61 C 438.84 797.84 444.31 800.14 446.34 804.72 C 450.54 802.61 446.66 798.23 445.26 795.57 C 443.90 791.96 442.56 788.29 442.76 784.36 C 439.08 783.13 435.51 781.59 432.00 779.97 M 335.25 787.66 C 334.16 790.37 331.90 793.48 333.89 796.32 C 337.55 796.83 339.70 793.60 339.11 790.26 C 337.92 789.24 336.68 788.29 335.25 787.66 M 355.73 797.25 C 357.45 797.80 359.22 798.66 361.08 798.18 C 362.56 796.92 363.32 795.08 364.35 793.50 C 360.89 791.39 361.20 795.34 359.65 796.72 C 359.61 795.39 360.03 793.19 357.96 793.36 C 355.75 792.86 356.35 796.02 355.73 797.25 M 366.10 793.76 C 368.38 795.58 367.41 801.34 372.03 798.31 L 371.11 797.61 C 372.02 796.45 373.18 795.22 372.85 793.56 C 371.55 794.59 370.46 795.82 369.59 797.25 C 369.51 796.39 369.35 794.69 369.27 793.84 C 368.48 793.82 366.90 793.78 366.10 793.76 M 373.24 795.36 C 373.93 796.00 373.93 796.00 373.24 795.36 M 374.90 795.45 L 374.56 796.23 C 375.17 798.94 377.31 794.92 374.90 795.45 M 364.46 797.10 C 364.81 798.54 365.58 798.75 366.79 797.75 C 366.44 796.61 365.66 796.40 364.46 797.10 M 372.85 799.20 C 374.29 799.84 375.58 797.38 373.76 797.08 C 372.68 796.96 371.26 798.67 372.85 799.20 M 337.79 799.77 C 350.70 801.47 363.68 802.66 376.71 803.03 C 376.74 802.47 376.80 801.36 376.84 800.80 C 365.60 799.98 354.32 799.49 343.07 798.81 C 341.32 798.98 338.96 797.97 337.79 799.77 M 434.89 801.67 C 434.91 802.57 434.94 804.39 434.96 805.30 C 436.65 805.78 438.41 805.96 440.18 805.82 C 440.64 802.66 437.32 801.88 434.89 801.67 M 334.71 802.94 C 337.12 805.63 339.79 808.16 342.99 809.91 C 354.03 816.00 366.95 815.92 379.15 817.28 C 378.54 813.61 378.03 809.93 377.65 806.24 C 363.34 805.07 349.01 804.21 334.71 802.94 M 442.56 810.21 C 443.45 810.28 445.23 810.42 446.12 810.49 C 446.51 808.58 447.09 806.61 445.98 804.84 C 444.57 806.44 443.41 808.24 442.56 810.21 M 382.86 805.84 C 383.75 809.97 384.10 814.19 384.75 818.36 C 400.03 819.27 415.33 820.93 430.64 820.54 C 429.96 816.64 429.23 812.75 429.23 808.78 C 413.76 807.95 398.31 806.92 382.86 805.84 M 451.06 806.06 C 450.36 807.61 451.27 809.12 451.84 810.56 C 452.81 810.22 453.77 809.89 454.74 809.55 C 453.67 808.23 453.18 805.81 451.06 806.06 M 435.51 811.02 C 436.27 811.96 438.59 811.25 438.10 809.92 C 437.15 808.87 433.74 809.18 435.51 811.02 M 299.16 827.08 C 293.26 841.35 288.60 856.10 284.55 871.00 C 281.54 884.38 278.26 898.09 279.95 911.89 C 281.47 924.74 286.35 938.02 296.69 946.36 C 303.59 952.51 312.92 955.42 322.03 955.78 C 335.06 956.33 347.59 950.63 357.55 942.57 C 369.36 933.53 378.54 921.08 383.44 907.02 C 388.63 892.30 389.56 876.46 388.92 860.99 C 388.76 851.32 388.16 841.62 386.88 832.04 C 382.86 837.29 377.92 841.98 371.95 844.93 C 367.27 847.10 362.11 848.03 357.00 848.44 C 344.21 847.95 330.70 844.81 321.01 835.94 C 314.48 830.54 310.28 822.35 309.83 813.87 C 310.07 811.82 307.74 811.36 306.51 810.38 C 303.42 815.65 301.56 821.49 299.16 827.08 M 437.82 811.94 C 446.57 812.27 455.15 814.35 463.89 814.72 C 463.79 814.37 463.57 813.67 463.46 813.31 C 460.51 812.08 457.23 812.82 454.15 812.33 C 448.73 812.07 442.98 808.84 437.82 811.94 M 435.09 814.01 C 435.19 816.75 435.47 819.50 436.12 822.19 C 445.13 825.90 455.02 826.75 464.59 828.15 C 475.13 828.99 485.78 830.64 496.31 828.78 C 489.05 826.98 482.22 823.91 475.55 820.60 C 472.81 819.38 470.21 817.45 467.08 817.54 C 456.32 817.26 445.74 815.16 435.09 814.01 M 391.45 823.50 C 393.81 840.59 394.94 857.84 394.84 875.09 C 394.21 886.49 393.05 898.08 388.96 908.84 C 385.30 920.04 378.67 930.09 370.77 938.76 C 369.26 940.05 369.52 942.16 369.56 943.96 C 370.57 958.83 373.30 973.55 377.07 987.95 C 402.38 988.94 427.73 988.02 453.05 988.19 C 482.41 987.82 511.76 987.97 541.12 988.13 C 571.13 987.86 601.14 988.67 631.14 987.78 C 657.13 987.36 683.14 986.38 708.99 983.49 C 711.21 976.49 711.59 969.02 712.42 961.75 C 707.47 959.08 702.04 957.48 697.01 954.99 C 670.19 942.09 646.15 924.31 622.67 906.22 C 606.33 893.99 589.92 881.86 573.94 869.17 C 564.45 860.96 554.31 853.50 545.30 844.72 C 540.26 839.73 534.51 835.21 531.10 828.85 C 518.85 831.37 506.51 833.88 493.95 833.89 C 474.51 834.46 454.93 832.26 436.27 826.70 C 434.24 826.07 432.18 825.40 430.05 825.47 C 417.14 825.74 404.32 824.09 391.45 823.50 Z" />
<path fill="#000000" opacity="1.00" d=" M 392.23 266.26 C 396.00 265.05 400.02 266.08 403.87 266.34 C 406.73 266.86 410.03 266.65 412.38 268.63 C 415.22 271.77 414.40 278.19 409.99 279.45 C 405.72 280.80 401.35 279.37 397.05 279.14 C 393.95 278.91 390.12 278.58 388.41 275.57 C 386.42 272.06 388.75 267.69 392.23 266.26 Z" />
<path fill="#000000" opacity="1.00" d=" M 527.38 268.51 C 531.56 267.30 536.06 268.78 540.35 268.87 C 544.26 268.95 548.52 269.57 551.37 272.52 C 554.13 275.92 552.56 282.09 548.18 283.26 C 543.49 284.44 538.70 283.13 533.98 282.88 C 531.16 282.43 527.97 282.25 525.73 280.28 C 522.92 276.83 523.53 270.97 527.38 268.51 Z" />
<path fill="#000000" opacity="1.00" d=" M 452.01 293.94 C 450.23 291.55 453.85 288.48 456.00 290.25 C 458.71 292.57 459.62 296.29 460.22 299.66 C 461.61 309.82 460.07 320.22 457.00 329.95 C 453.32 340.97 448.14 352.29 438.44 359.28 C 433.73 363.01 427.88 364.95 421.96 365.60 C 425.60 371.77 433.04 374.60 439.95 374.45 C 441.92 374.67 444.75 373.99 445.86 376.17 C 447.12 378.08 444.87 380.00 443.08 380.15 C 432.34 380.79 419.74 376.29 415.57 365.56 C 414.16 363.19 416.15 359.67 418.99 360.20 C 425.60 361.44 431.84 357.88 436.71 353.76 C 444.13 347.33 448.43 338.13 451.54 328.99 C 455.25 317.79 456.72 305.08 452.01 293.94 Z" />
<path fill="#000000" opacity="1.00" d=" M 667.01 314.88 C 668.62 314.75 670.65 316.19 669.93 318.00 C 668.69 323.99 666.54 329.74 664.56 335.51 C 672.12 334.85 679.18 340.73 680.32 348.15 C 681.61 354.89 677.96 361.59 673.43 366.35 C 672.03 368.17 669.52 366.88 669.01 365.00 C 672.13 360.09 676.93 354.90 675.35 348.60 C 674.84 342.71 668.24 339.60 662.93 340.56 C 659.50 344.89 658.75 350.93 654.87 355.00 C 653.52 356.42 651.89 354.25 651.30 353.13 C 656.18 343.64 660.43 333.82 663.52 323.60 C 664.55 320.66 665.09 317.41 667.01 314.88 Z" />
<path fill="#000000" opacity="1.00" d=" M 402.24 321.33 C 407.43 319.13 413.30 317.84 418.88 319.34 C 425.97 321.06 433.08 325.73 435.19 333.07 C 435.86 334.88 436.74 337.98 433.99 338.45 C 431.90 339.23 431.32 336.27 430.64 334.95 C 426.82 323.60 410.53 320.02 401.73 327.73 C 398.58 330.20 397.22 334.11 394.60 337.03 C 393.13 336.40 391.81 335.53 390.97 334.14 C 393.79 329.18 396.83 323.84 402.24 321.33 Z" />
<path fill="#000000" opacity="1.00" d=" M 497.97 326.04 C 504.08 321.94 511.83 319.44 519.16 321.29 C 527.50 322.95 535.36 329.29 536.84 337.97 C 537.46 340.24 534.18 342.10 532.65 340.29 C 531.34 337.67 530.73 334.64 528.68 332.43 C 523.32 326.23 513.75 323.74 506.21 327.23 C 500.73 329.26 497.52 334.51 494.70 339.30 C 493.00 339.09 490.43 338.28 490.97 336.05 C 492.86 332.46 495.12 328.94 497.97 326.04 Z" />
<path fill="#000000" opacity="1.00" d=" M 512.35 391.52 C 514.29 389.70 517.81 392.22 516.55 394.57 C 499.97 419.00 468.68 432.30 439.59 427.59 C 424.67 424.90 410.30 417.03 401.32 404.63 C 400.22 402.73 398.14 400.65 399.28 398.32 C 400.57 396.52 403.15 397.15 404.04 398.99 C 413.12 413.60 430.13 422.29 447.07 423.22 C 467.88 424.76 488.99 416.35 503.68 401.66 C 506.95 398.61 509.35 394.79 512.35 391.52 Z" />
<path fill="#000000" opacity="1.00" d=" M 622.11 556.93 C 623.50 555.20 625.71 556.86 627.04 557.80 C 624.35 563.78 620.02 568.88 615.76 573.81 C 605.07 585.90 591.85 595.77 576.98 602.12 C 566.55 606.73 555.68 610.42 544.49 612.66 C 531.09 614.69 517.02 614.95 504.12 610.21 C 484.76 603.85 469.22 588.33 461.30 569.74 C 460.81 568.49 460.10 566.11 462.09 565.80 C 464.18 564.70 465.14 567.69 466.04 569.01 C 473.06 583.42 484.26 596.24 499.01 603.00 C 518.62 612.69 542.02 610.57 561.91 602.84 C 581.89 596.61 600.22 584.78 613.48 568.49 C 616.74 564.93 619.23 560.78 622.11 556.93 Z" />
<path fill="#000000" opacity="1.00" d=" M 336.88 699.85 C 338.97 700.17 343.62 698.29 342.88 702.00 C 343.95 703.63 344.72 705.44 345.51 707.23 C 345.48 704.74 345.41 702.26 345.29 699.78 C 349.05 699.67 352.81 699.55 356.58 699.46 C 356.40 700.96 356.12 702.48 355.25 703.78 C 354.82 703.33 353.94 702.44 353.51 701.99 C 353.74 704.15 354.25 706.25 354.67 708.38 C 350.59 709.55 346.23 710.36 342.30 708.25 C 341.63 707.59 340.97 706.96 340.29 706.34 C 340.84 707.28 341.37 708.23 341.91 709.21 C 340.99 709.38 339.14 709.72 338.21 709.89 C 337.52 706.59 336.46 703.27 336.88 699.85 M 348.54 707.74 C 351.40 706.56 350.98 703.53 348.96 701.74 C 346.23 702.39 347.32 706.05 348.54 707.74 Z" />
<path fill="#000000" opacity="1.00" d=" M 430.06 699.75 C 433.06 699.47 436.03 700.04 438.99 700.47 C 438.48 701.21 437.45 702.68 436.93 703.41 C 436.42 703.45 435.38 703.53 434.86 703.57 C 439.36 703.71 432.89 706.18 434.73 708.57 C 432.99 708.46 431.26 708.34 429.54 708.22 C 429.57 707.30 429.63 705.44 429.66 704.51 C 430.54 704.54 432.30 704.61 433.18 704.64 C 432.21 704.22 431.25 703.83 430.29 703.45 C 430.20 702.21 430.12 700.97 430.06 699.75 Z" />
<path fill="#000000" opacity="1.00" d=" M 439.41 700.34 C 443.97 700.17 448.34 701.62 452.85 702.04 C 452.27 702.44 451.70 702.85 451.14 703.27 C 452.60 704.86 454.33 706.18 456.28 707.13 C 456.36 708.50 456.45 709.88 456.52 711.27 C 455.40 710.72 454.55 709.94 454.60 708.63 C 453.90 708.15 453.21 707.69 452.53 707.23 C 452.15 708.40 451.78 709.58 451.41 710.77 C 450.74 710.69 449.39 710.53 448.72 710.45 C 449.30 708.34 449.73 706.08 448.99 703.95 C 447.81 703.05 446.20 704.33 444.90 704.40 C 444.58 704.10 443.95 703.49 443.64 703.19 C 443.67 703.64 443.71 704.54 443.74 704.99 C 444.97 705.97 446.18 707.00 447.44 707.97 C 448.19 710.79 444.65 710.11 443.09 709.32 C 443.47 708.76 444.22 707.65 444.60 707.10 L 442.56 706.68 C 442.64 707.48 442.80 709.08 442.88 709.88 C 441.96 709.68 440.13 709.28 439.22 709.09 C 438.89 706.15 440.01 703.27 439.41 700.34 Z" />
<path fill="#000000" opacity="1.00" d=" M 453.36 702.70 C 453.86 700.72 456.20 702.89 457.36 703.02 C 457.34 703.89 457.30 705.61 457.28 706.48 C 455.54 705.99 452.48 705.11 453.36 702.70 Z" />
<path fill="#000000" opacity="1.00" d=" M 457.50 702.79 C 460.44 703.09 463.50 703.02 466.28 704.17 C 469.12 704.45 473.04 703.16 474.86 706.07 C 473.92 706.55 472.99 707.03 472.06 707.51 C 473.20 707.85 474.35 708.22 475.50 708.61 C 475.11 710.10 475.28 712.03 473.62 712.81 C 471.14 712.82 468.74 712.09 466.32 711.67 C 463.18 711.36 459.68 711.85 456.94 709.95 C 458.76 709.65 460.62 709.63 462.47 709.54 C 462.91 708.54 463.45 707.07 464.76 707.07 C 465.43 708.04 465.92 709.11 466.23 710.28 C 467.87 708.93 467.66 706.20 466.22 704.77 L 465.12 705.69 C 462.55 706.20 460.87 710.54 458.09 708.19 C 457.96 706.37 457.72 704.58 457.50 702.79 Z" />
<path fill="#000000" opacity="1.00" d=" M 355.55 709.00 C 355.02 707.43 355.56 704.71 356.99 703.80 C 359.00 704.58 358.99 707.36 359.76 709.12 C 358.71 709.09 356.60 709.03 355.55 709.00 Z" />
<path fill="#000000" opacity="1.00" d=" M 435.44 708.55 C 434.86 706.80 435.37 706.30 436.98 707.05 C 437.64 708.72 437.13 709.22 435.44 708.55 Z" />
<path fill="#000000" opacity="1.00" d=" M 453.87 732.20 C 454.95 730.06 456.17 727.09 459.01 727.11 C 460.53 727.36 462.57 728.05 462.83 729.83 C 463.02 731.98 461.26 733.52 460.12 735.12 C 457.57 735.31 455.30 734.32 453.87 732.20 Z" />
<path fill="#000000" opacity="1.00" d=" M 279.48 728.48 C 281.61 727.60 284.85 729.41 284.22 732.00 C 283.86 734.66 279.80 736.38 277.99 734.04 C 275.91 732.41 277.13 729.09 279.48 728.48 Z" />
<path fill="#000000" opacity="1.00" d=" M 300.38 739.38 C 303.40 737.63 306.67 742.12 304.50 744.67 C 303.19 746.86 299.78 746.45 298.67 744.28 C 296.75 742.66 298.56 740.12 300.38 739.38 M 301.20 742.30 C 301.92 742.67 301.92 742.67 301.20 742.30 Z" />
<path fill="#000000" opacity="1.00" d=" M 489.81 742.78 C 492.17 742.11 493.39 745.00 492.81 746.96 C 491.25 747.52 489.63 747.18 488.10 746.71 C 488.06 745.20 487.80 743.07 489.81 742.78 Z" />
<path fill="#000000" opacity="1.00" d=" M 439.13 744.95 C 441.12 744.96 443.72 744.19 444.94 746.32 C 446.35 749.55 443.74 752.63 440.97 753.99 C 438.90 753.21 437.03 752.00 436.06 749.95 C 436.79 748.12 437.82 746.43 439.13 744.95 M 440.81 750.91 C 441.88 750.37 442.46 748.17 440.96 747.80 C 438.97 747.57 438.70 751.28 440.81 750.91 Z" />
<path fill="#000000" opacity="1.00" d=" M 316.20 752.23 C 317.08 751.79 317.95 751.34 318.83 750.91 C 321.12 752.16 324.34 755.13 321.81 757.71 C 319.51 761.17 316.01 757.07 315.23 754.50 C 315.56 753.73 315.88 752.98 316.20 752.23 M 319.86 756.43 C 319.96 755.78 320.18 754.50 320.28 753.85 C 317.98 751.01 316.55 757.72 319.86 756.43 Z" />
<path fill="#000000" opacity="1.00" d=" M 434.47 765.51 C 436.73 764.18 439.55 766.69 439.14 769.10 C 439.69 773.18 433.34 774.61 431.14 771.67 C 429.60 769.14 431.97 766.16 434.47 765.51 M 433.64 769.02 C 433.76 770.73 436.64 770.64 436.78 768.98 C 436.69 767.26 433.73 767.31 433.64 769.02 Z" />
<path fill="#000000" opacity="1.00" d=" M 479.60 765.74 C 482.05 764.54 484.55 768.29 482.07 769.89 C 479.24 771.56 476.69 767.08 479.60 765.74 Z" />
<path fill="#000000" opacity="1.00" d=" M 330.19 770.31 C 331.60 768.12 333.61 769.49 335.06 770.80 C 335.03 771.55 334.96 773.06 334.92 773.82 C 332.66 775.90 327.65 773.25 330.19 770.31 Z" />
<path fill="#000000" opacity="1.00" d=" M 347.04 778.87 C 347.99 777.50 349.29 776.45 350.73 775.64 C 350.32 778.96 349.65 782.26 348.69 785.49 C 347.45 783.51 347.65 781.04 347.04 778.87 Z" />
<path fill="#000000" opacity="1.00" d=" M 351.80 776.37 C 352.37 776.54 353.51 776.87 354.08 777.03 C 353.29 779.05 352.03 781.08 352.73 783.33 C 353.25 783.41 354.29 783.59 354.80 783.67 C 353.91 781.75 352.40 779.69 354.18 777.64 C 355.86 778.91 355.40 781.47 357.28 782.53 C 357.12 783.15 356.81 784.39 356.66 785.01 C 354.62 785.45 352.57 784.92 350.57 784.57 C 350.76 781.80 351.27 779.08 351.80 776.37 Z" />
<path fill="#000000" opacity="1.00" d=" M 361.71 783.05 C 363.21 781.87 364.93 781.05 366.73 780.41 C 367.63 782.03 366.79 783.60 365.87 785.01 C 364.29 784.75 362.54 784.66 361.71 783.05 Z" />
<path fill="#000000" opacity="1.00" d=" M 470.08 792.07 C 469.12 790.39 469.86 788.09 472.00 787.98 C 474.25 787.97 474.27 790.45 474.18 792.08 C 472.81 792.17 471.44 792.16 470.08 792.07 Z" />
<path fill="#000000" opacity="1.00" d=" M 344.23 793.40 C 345.13 789.68 349.16 791.36 351.84 791.01 C 351.84 791.70 351.85 793.07 351.85 793.76 C 350.94 793.81 349.13 793.92 348.22 793.98 L 348.86 795.11 C 348.16 795.50 347.46 795.91 346.77 796.33 C 346.52 794.94 345.68 793.97 344.23 793.40 Z" />
<path fill="#000000" opacity="1.00" d=" M 352.22 791.82 C 354.03 789.84 354.06 794.52 352.22 792.70 L 352.22 791.82 Z" />
</g>
</g></svg>