<svg xmlns="http://www.w3.org/2000/svg" version="1.1" viewBox="0.00 0.00 1028.00 1028.00">
<g id="Parent-Group"><g fill="#000000" id="Group-000000">
<rect x="-2.88" y="-15.49" transform="translate(762.05,221.25) rotate(-0.9)" width="5.76" height="30.98" rx="2.75" />
<path d="   M 362.23 540.61   C 369.57 554.99 363.65 570.08 348.31 575.05   C 339.88 577.79 330.43 574.87 324.27 568.75   Q 323.96 568.44 323.53 568.45   Q 322.10 568.49 321.02 569.27   Q 278.96 599.65 236.93 630.38   Q 234.62 632.07 231.99 631.03   Q 231.73 630.92 231.59 630.70   Q 230.23 628.50 231.94 627.25   Q 275.34 595.79 319.14 563.92   A 2.06 2.05 61.3 0 0 319.84 561.51   C 314.77 548.60 321.22 534.67 334.38 530.38   C 342.93 527.60 350.57 530.21 357.60 535.18   A 2.09 2.09 0.0 0 0 359.98 535.21   L 414.29 498.76   A 2.29 2.29 0.0 0 0 415.24 496.35   C 413.12 487.07 415.88 477.84 423.07 472.11   C 430.82 465.93 440.22 466.47 448.98 469.72   A 2.40 2.40 0.0 0 0 451.79 468.83   Q 487.24 416.87 526.89 363.14   Q 555.31 324.62 588.89 285.14   Q 594.52 278.52 600.90 271.80   A 1.18 1.18 0.0 0 0 600.76 270.05   Q 589.34 261.24 579.00 252.07   Q 578.04 251.22 577.31 250.10   A 2.29 2.28 49.2 0 1 577.51 247.32   C 579.19 245.44 581.24 244.57 583.51 243.37   Q 605.24 231.89 625.70 221.66   C 630.76 219.13 635.69 216.18 640.66 213.66   A 3.10 3.10 0.0 0 1 645.15 216.63   Q 643.44 242.32 641.71 270.94   Q 640.99 282.83 639.19 296.53   A 1.88 1.88 0.0 0 1 637.57 298.15   C 635.63 298.41 633.92 297.62 632.49 296.39   Q 620.24 285.87 606.60 275.12   A 1.17 1.15 59.8 0 0 605.75 274.89   C 604.60 275.03 604.18 276.42 603.44 277.22   Q 590.50 291.09 578.35 305.97   C 534.39 359.83 494.32 416.73 455.09 473.53   A 0.93 0.93 0.0 0 0 455.16 474.67   Q 461.05 481.36 461.09 489.80   C 461.15 504.97 448.36 515.74 433.19 512.80   C 427.98 511.79 421.29 508.60 418.71 503.50   A 0.87 0.87 0.0 0 0 417.46 503.16   Q 393.32 518.89 368.50 536.00   C 366.53 537.36 364.57 538.52 362.51 539.68   A 0.70 0.70 0.0 0 0 362.23 540.61   Z   M 628.3715 232.8088   A 0.97 0.97 0.0 0 0 628.1948 231.4485   L 628.1473 231.4119   A 0.97 0.97 0.0 0 0 626.7869 231.5886   L 605.4685 259.2712   A 0.97 0.97 0.0 0 0 605.6452 260.6315   L 605.6927 260.6681   A 0.97 0.97 0.0 0 0 607.0531 260.4914   L 628.3715 232.8088   Z   M 626.27 254.46   L 617.00 267.45   A 0.12 0.12 0.0 0 0 617.03 267.62   L 617.05 267.63   A 4.55 2.77 -54.5 0 0 621.95 265.54   L 626.07 259.76   A 4.55 2.77 -54.5 0 0 626.46 254.44   L 626.43 254.43   A 0.12 0.12 0.0 0 0 626.27 254.46   Z" />
<path d="   M 815.01 219.93   C 811.84 229.14 807.58 238.75 803.26 247.24   Q 802.07 249.57 799.42 249.10   Q 799.02 249.03 798.77 248.70   Q 797.39 246.89 798.28 244.98   Q 804.14 232.40 809.78 218.38   A 2.77 2.69 81.4 0 1 810.53 217.33   Q 813.09 215.17 814.09 216.22   Q 815.70 217.92 815.01 219.93   Z" />
<rect x="-2.92" y="-10.24" transform="translate(723.56,235.60) rotate(-25.3)" width="5.84" height="20.48" rx="2.84" />
<path d="   M 702.15 331.68   Q 703.11 331.88 703.59 331.03   C 715.82 309.55 737.11 291.25 761.85 288.45   C 783.38 286.01 802.17 290.98 816.05 308.31   Q 817.46 310.07 818.82 311.78   A 1.26 1.25 -19.7 0 0 819.85 312.26   C 832.25 311.84 845.59 312.52 856.71 317.54   C 866.38 321.90 875.82 331.20 878.51 341.59   C 880.52 349.30 880.43 359.81 876.83 367.42   C 869.60 382.74 852.55 389.74 836.83 391.78   C 795.73 397.10 753.86 396.93 709.04 396.49   C 691.71 396.32 672.27 389.60 664.87 372.68   C 662.33 366.88 662.22 360.11 664.42 354.15   C 670.09 338.78 683.82 332.86 699.31 331.52   Q 700.74 331.40 702.15 331.68   Z   M 703.67 336.27   Q 694.27 335.80 686.17 338.99   C 666.22 346.84 660.60 369.21 678.90 382.92   C 689.31 390.71 701.19 392.20 714.97 392.42   Q 780.60 393.47 833.25 387.78   C 850.00 385.98 869.53 378.65 874.47 360.96   C 879.83 341.80 866.21 322.88 847.24 318.86   Q 838.07 316.91 826.31 316.61   C 823.65 316.54 821.12 317.12 818.45 317.28   Q 816.25 317.42 815.19 315.50   C 806.04 298.78 788.05 291.60 768.83 292.31   C 745.31 293.18 726.06 306.87 712.32 325.51   C 710.36 328.18 708.83 331.10 707.28 334.04   Q 706.04 336.40 703.67 336.27   Z" />
<circle cx="797.75" cy="326.43" r="4.71" />
<circle cx="734.77" cy="331.46" r="4.60" />
<path d="   M 768.34 369.68   C 782.05 370.31 785.88 358.86 789.34 348.08   Q 790.09 345.76 792.49 346.19   L 793.41 346.35   Q 795.84 346.78 795.33 349.19   C 792.59 362.23 784.65 374.72 770.48 375.65   Q 759.17 376.39 751.18 367.44   Q 744.55 360.01 741.92 351.82   Q 741.04 349.10 743.46 347.56   Q 743.88 347.30 744.36 347.20   Q 746.27 346.80 747.03 348.61   C 751.12 358.41 756.85 369.14 768.34 369.68   Z" />
<path d="   M 862.85 819.48   Q 862.34 820.28 863.26 820.04   Q 872.93 817.43 883.09 818.51   Q 884.89 818.70 886.15 819.59   C 888.18 821.03 888.28 824.80 885.85 826.02   Q 874.95 831.47 862.63 832.61   A 0.51 0.51 0.0 0 0 862.30 833.46   Q 871.64 843.61 879.17 854.29   Q 879.89 855.31 881.22 855.31   Q 902.51 855.33 923.21 855.38   A 2.50 2.50 0.0 0 1 925.62 857.27   Q 925.66 857.44 925.60 857.59   A 2.60 2.02 -78.1 0 1 923.51 859.36   Q 896.67 859.15 872.00 860.02   Q 862.26 860.36 852.02 860.35   Q 686.71 860.17 519.83 860.40   Q 511.17 860.41 502.77 861.02   Q 492.08 861.80 481.91 860.90   C 477.96 860.55 474.24 861.62 470.42 860.79   C 467.25 860.09 464.85 862.00 461.74 861.83   Q 454.19 861.41 448.01 861.41   Q 261.44 861.26 78.73 861.36   Q 76.36 861.36 74.77 859.58   Q 74.41 859.17 74.62 858.66   Q 75.58 856.38 78.25 856.37   Q 96.95 856.30 115.89 856.42   C 117.21 856.43 119.02 856.04 120.22 855.13   Q 126.53 850.31 131.97 844.22   A 1.54 1.54 0.0 0 0 131.87 842.07   Q 124.12 834.85 123.33 824.45   C 123.05 820.71 124.26 813.67 129.92 816.82   C 136.35 820.41 140.31 826.60 143.65 833.22   A 1.16 1.16 0.0 0 0 145.49 833.53   Q 150.19 828.98 155.82 825.01   Q 156.38 824.62 156.59 823.98   A 0.43 0.43 0.0 0 0 156.18 823.42   Q 149.29 823.39 142.61 818.48   C 139.34 816.09 137.31 810.78 141.32 807.89   C 146.20 804.36 154.11 805.95 159.20 808.19   A 1.03 1.02 12.1 0 0 160.64 807.26   L 160.66 803.23   A 1.21 1.20 78.5 0 0 158.98 802.11   C 150.58 805.74 142.75 804.57 135.02 799.90   Q 121.47 791.71 113.36 777.22   C 110.39 771.91 114.72 769.46 119.25 769.10   C 130.74 768.19 142.58 768.48 152.40 775.00   Q 152.71 775.20 153.05 775.11   A 0.49 0.49 0.0 0 0 153.38 774.46   C 145.79 755.54 141.63 733.68 144.10 713.50   Q 144.90 706.98 148.08 701.67   A 1.63 1.63 0.0 0 1 150.05 700.99   C 166.28 707.10 169.96 729.94 171.26 744.58   C 172.04 753.28 171.32 762.36 171.67 771.22   Q 171.70 772.06 172.25 771.43   C 175.08 768.14 177.71 764.41 180.85 761.42   Q 193.07 749.74 207.31 742.01   Q 209.30 740.93 211.72 740.82   A 0.75 0.74 -10.6 0 1 212.45 741.31   Q 214.14 746.11 213.80 750.70   C 212.72 765.20 203.58 777.19 191.79 785.40   C 184.50 790.48 177.21 792.52 168.50 791.89   Q 167.80 791.84 167.75 792.54   L 166.19 814.12   A 0.27 0.27 0.0 0 0 166.63 814.35   Q 172.79 809.39 179.35 804.31   Q 182.40 801.95 184.96 804.73   A 0.74 0.73 52.8 0 0 185.88 804.86   C 210.15 790.18 235.35 777.27 262.13 767.89   C 283.01 760.57 303.87 754.72 325.24 750.76   Q 363.27 743.71 402.95 738.64   A 1.57 1.57 0.0 0 0 404.32 737.15   Q 404.48 733.61 404.48 730.26   Q 404.57 689.52 404.66 648.16   Q 404.66 645.02 405.66 640.90   C 406.22 638.62 407.60 637.92 409.48 636.94   C 429.76 626.32 453.47 623.83 476.51 624.37   C 486.71 624.61 497.99 625.51 506.46 630.72   Q 511.98 634.12 511.97 640.93   Q 511.93 687.87 512.03 727.92   Q 512.04 729.83 513.95 729.85   L 518.69 729.90   Q 520.80 729.92 520.81 727.81   Q 521.17 642.47 520.96 553.35   Q 520.95 549.23 524.86 546.87   C 538.62 538.57 551.71 536.62 567.63 536.06   Q 584.12 535.47 598.81 537.14   Q 608.86 538.29 617.43 543.11   C 620.39 544.77 621.14 549.77 621.17 552.74   Q 621.41 576.79 621.38 598.57   Q 621.37 604.19 621.71 609.59   Q 621.73 609.79 621.92 609.79   L 621.93 609.79   Q 622.14 609.78 622.14 609.56   C 621.79 598.81 623.37 587.44 623.47 577.43   Q 623.77 547.92 623.20 515.85   C 623.14 512.93 624.78 510.54 626.87 508.60   C 636.18 499.97 650.78 495.45 663.43 496.06   Q 679.98 496.86 696.03 500.23   C 701.54 501.39 709.23 504.12 713.36 508.07   Q 714.83 509.47 714.83 507.44   Q 714.77 475.40 714.73 442.15   Q 714.72 437.89 716.09 435.37   C 719.06 429.90 726.32 426.99 732.17 425.69   Q 756.68 420.25 783.96 424.36   Q 793.87 425.85 802.59 430.56   C 808.04 433.51 809.47 436.93 809.38 442.98   C 809.22 453.38 810.13 464.92 810.12 475.29   Q 810.11 547.48 810.14 619.75   Q 810.14 627.30 811.44 636.50   Q 811.54 637.20 812.04 637.70   C 816.14 641.83 818.51 645.73 819.50 651.95   Q 819.64 652.79 820.11 652.08   C 823.59 646.83 831.70 633.53 839.35 635.55   C 843.67 636.69 840.40 648.77 839.26 651.45   Q 831.46 669.82 818.20 682.17   A 1.54 1.54 0.0 0 1 815.84 681.87   Q 815.09 680.67 813.97 679.86   A 0.53 0.53 0.0 0 0 813.14 680.24   L 812.92 682.48   Q 812.87 682.98 812.69 683.45   C 811.00 687.88 809.37 693.41 810.29 698.08   A 1.84 1.84 0.0 0 0 812.75 699.43   C 820.90 696.28 831.77 693.07 839.60 698.49   C 843.18 700.98 842.98 705.02 840.40 708.11   C 833.59 716.28 822.34 720.03 811.89 721.01   A 1.97 1.97 0.0 0 0 810.11 722.97   Q 810.17 753.00 809.96 782.15   Q 809.93 786.71 810.20 790.51   C 810.28 791.67 810.89 792.57 811.85 793.19   Q 828.83 804.00 845.28 817.17   Q 847.13 818.65 848.33 816.61   C 852.37 809.75 857.76 803.21 864.61 799.41   C 865.67 798.82 866.68 799.13 867.58 799.81   Q 871.08 802.46 869.23 806.99   Q 866.51 813.68 862.85 819.48   Z   M 729.75 448.61   C 749.07 457.68 772.94 458.18 792.69 450.35   C 795.94 449.06 803.56 445.48 804.61 441.70   C 805.64 437.99 800.65 434.69 797.80 433.41   Q 789.01 429.45 778.22 428.32   Q 761.55 426.56 742.14 428.72   C 735.16 429.49 726.91 431.60 722.05 435.95   C 716.80 440.65 726.45 447.06 729.75 448.61   Z   M 738.00 570.02   C 738.22 571.38 737.41 572.65 735.99 572.88   Q 728.84 574.08 721.49 575.28   Q 720.96 575.36 720.92 575.90   Q 720.59 580.20 720.66 584.42   Q 721.26 618.29 720.15 649.72   Q 719.79 659.88 719.81 669.29   Q 719.86 714.91 719.67 746.13   C 719.66 747.55 720.05 749.09 721.68 749.44   Q 740.32 753.41 756.08 762.79   Q 759.43 764.79 757.06 761.69   C 750.67 753.37 742.51 738.42 744.73 727.62   C 746.09 721.01 751.96 722.56 756.31 724.41   Q 768.92 729.79 772.92 740.91   C 774.02 743.98 774.05 746.65 774.10 749.77   Q 774.12 751.35 775.02 750.05   Q 784.35 736.59 790.87 722.00   A 2.20 2.20 0.0 0 0 790.33 719.47   C 781.80 711.82 774.28 702.83 771.57 691.53   Q 770.62 687.56 771.26 685.34   C 772.02 682.66 774.95 678.56 778.24 680.03   C 786.51 683.71 796.26 690.67 799.24 699.45   Q 800.05 701.83 800.80 699.42   L 806.79 680.01   A 3.49 3.46 40.0 0 0 806.55 677.38   Q 803.97 672.42 801.66 667.77   C 798.31 660.99 789.54 638.10 797.60 632.29   C 799.56 630.89 801.65 631.57 803.62 632.45   A 1.09 1.08 -78.0 0 0 805.15 631.45   Q 805.14 563.67 805.18 497.56   C 805.19 484.94 805.91 472.14 806.23 459.70   Q 806.38 453.93 805.88 448.57   A 0.40 0.40 0.0 0 0 805.24 448.28   C 793.81 456.60 780.57 459.98 766.22 460.59   C 751.87 461.19 734.58 457.99 722.24 449.97   A 0.93 0.93 0.0 0 0 720.80 450.75   L 720.83 570.25   A 0.95 0.95 0.0 0 0 722.02 571.17   Q 729.42 569.21 737.17 569.30   A 0.85 0.85 0.0 0 1 738.00 570.02   Z   M 629.67 513.81   C 627.42 517.84 633.32 521.18 636.01 522.64   C 650.86 530.73 671.24 531.45 687.85 528.73   C 696.14 527.37 703.32 524.27 710.29 519.97   C 713.27 518.13 713.64 515.20 711.13 512.67   Q 706.80 508.33 700.63 506.47   Q 691.59 503.74 683.93 502.90   Q 673.24 501.74 663.38 500.52   C 660.33 500.15 657.27 500.30 654.31 501.01   C 647.49 502.66 633.36 507.20 629.67 513.81   Z   M 650.58 674.29   A 1.27 1.27 0.0 0 1 649.29 675.57   Q 640.76 675.45 633.28 675.87   Q 631.19 675.99 629.08 676.57   A 0.77 0.77 0.0 0 0 628.52 677.28   Q 628.10 698.75 627.40 723.22   Q 627.29 727.06 627.39 731.61   A 2.19 2.19 0.0 0 0 629.33 733.74   Q 672.31 738.76 713.16 747.50   A 0.51 0.51 0.0 0 0 713.78 747.00   L 713.87 524.54   Q 713.87 522.81 712.50 523.88   Q 705.82 529.07 696.37 531.62   Q 668.95 539.04 641.09 530.30   Q 634.53 528.24 629.04 524.47   A 0.40 0.40 0.0 0 0 628.42 524.80   L 628.44 657.46   A 1.16 1.16 0.0 0 0 629.86 658.59   Q 639.39 656.37 650.53 656.63   A 1.90 1.90 0.0 0 1 652.38 658.43   L 652.39 658.75   A 1.48 1.48 0.0 0 1 650.98 660.31   Q 639.56 660.78 628.88 662.88   A 0.62 0.62 0.0 0 0 628.38 663.45   C 628.19 666.73 626.99 668.33 628.55 671.81   Q 628.72 672.19 629.12 672.05   Q 630.37 671.61 631.70 671.60   Q 640.92 671.47 649.50 671.65   A 1.11 1.10 -89.5 0 1 650.58 672.76   L 650.58 674.29   Z   M 528.76 550.94   Q 532.51 552.17 536.25 552.22   C 547.48 552.37 558.62 551.89 569.56 551.95   Q 584.25 552.04 600.04 552.01   Q 607.91 552.00 614.76 549.13   A 0.49 0.48 61.4 0 0 614.97 548.41   Q 613.27 545.85 610.34 544.84   C 605.49 543.16 600.20 541.99 595.16 541.68   Q 576.89 540.52 557.42 541.93   C 547.81 542.62 537.06 545.32 528.69 550.20   Q 527.91 550.66 528.76 550.94   Z   M 543.86 670.51   A 1.42 1.39 -78.1 0 1 542.90 671.15   L 526.56 673.86   Q 526.02 673.95 526.02 674.49   L 526.07 684.51   A 1.23 1.23 0.0 0 0 527.59 685.70   Q 537.36 683.34 547.02 683.75   Q 548.73 683.83 549.01 685.51   Q 549.05 685.76 549.01 686.01   Q 548.75 687.36 547.37 687.41   Q 537.60 687.76 526.29 689.97   Q 526.00 690.03 526.00 690.32   Q 526.04 707.81 526.05 724.97   Q 526.05 726.63 526.35 728.28   A 1.97 1.96 -5.8 0 0 528.33 729.89   Q 572.37 728.95 616.29 736.28   Q 616.78 736.37 616.93 735.88   Q 617.47 734.10 617.47 732.12   Q 617.47 667.95 617.27 604.32   A 1.18 1.17 84.7 0 0 615.89 603.17   Q 610.13 604.20 604.62 604.26   Q 587.14 604.43 569.17 604.36   C 565.42 604.35 553.32 604.43 550.67 601.63   A 1.15 1.15 0.0 0 1 551.31 599.70   Q 553.78 599.28 556.23 599.44   Q 577.51 600.89 595.51 600.18   Q 605.58 599.78 616.53 599.28   A 0.73 0.72 89.6 0 0 617.22 598.57   Q 617.75 577.02 617.32 555.35   A 1.16 1.16 0.0 0 0 615.79 554.28   C 610.73 556.02 605.34 556.97 599.87 557.00   C 575.38 557.10 551.59 557.62 527.39 556.06   A 1.25 1.25 0.0 0 0 526.06 557.31   L 526.03 668.46   A 1.28 1.28 0.0 0 0 527.67 669.69   Q 534.66 667.67 541.77 667.64   C 543.24 667.63 544.81 668.98 543.86 670.51   Z   M 414.37 641.17   C 426.27 642.57 438.13 643.49 450.10 643.54   Q 470.06 643.63 485.58 643.23   Q 496.04 642.97 505.12 638.63   A 1.37 1.37 0.0 0 0 505.45 636.38   C 500.75 632.13 493.58 630.73 487.44 630.13   Q 471.68 628.59 450.88 630.62   Q 435.44 632.12 421.47 636.97   Q 417.64 638.30 414.20 640.38   Q 413.13 641.02 414.37 641.17   Z   M 814.56 662.31   C 819.68 650.74 813.49 636.99 800.90 634.70   A 0.84 0.84 0.0 0 0 799.96 635.21   C 799.08 637.39 798.80 639.85 799.25 642.15   C 801.19 651.93 804.32 662.32 809.98 670.30   A 0.49 0.49 0.0 0 0 810.82 670.24   Q 812.71 666.49 814.56 662.31   Z   M 833.45 642.70   C 825.27 652.43 819.81 664.51 815.35 676.59   Q 814.76 678.20 816.08 677.10   Q 818.38 675.20 820.39 672.65   C 827.81 663.26 835.22 651.59 838.18 640.00   Q 838.43 639.02 837.55 638.53   A 0.74 0.74 0.0 0 0 836.60 638.73   Q 835.11 640.72 833.45 642.70   Z   M 413.52 646.16   C 412.89 646.08 412.47 645.84 411.90 645.71   Q 410.43 645.39 410.45 646.90   Q 410.78 676.98 410.46 702.72   C 410.43 704.55 409.98 706.28 409.91 708.10   Q 409.37 723.46 409.60 736.87   A 0.73 0.73 0.0 0 0 410.45 737.58   Q 456.38 729.95 502.86 729.78   Q 503.48 729.78 504.11 729.82   Q 506.80 729.98 506.81 727.26   Q 506.84 685.32 507.00 647.50   Q 507.00 645.97 506.68 644.48   Q 506.57 643.96 506.07 644.14   Q 495.13 647.93 485.11 648.26   C 462.89 648.98 437.76 649.11 413.52 646.16   Z   M 776.35 684.16   C 772.74 690.48 787.03 708.62 791.91 712.79   A 0.97 0.97 0.0 0 0 793.19 712.77   C 796.85 709.49 796.84 705.23 794.81 701.03   Q 789.14 689.29 778.15 683.62   Q 776.99 683.03 776.35 684.16   Z   M 836.90 700.13   C 824.43 697.42 810.49 705.01 802.25 714.20   A 0.78 0.77 29.2 0 0 802.61 715.46   Q 803.81 715.82 805.11 715.87   Q 821.11 716.45 836.73 706.78   C 839.13 705.29 841.23 701.07 836.90 700.13   Z   M 806.7036 702.7498   A 1.41 1.04 112.8 0 0 808.2087 701.8530   A 1.41 1.04 112.8 0 0 807.7964 700.1502   A 1.41 1.04 112.8 0 0 806.2913 701.0470   A 1.41 1.04 112.8 0 0 806.7036 702.7498   Z   M 162.94 780.65   Q 163.23 781.14 163.40 780.59   Q 165.38 774.24 165.56 766.82   C 165.96 750.38 165.72 735.43 160.61 719.35   Q 157.98 711.10 151.59 706.16   Q 150.01 704.94 149.76 706.91   C 149.11 711.96 148.40 717.11 148.55 722.23   Q 149.30 749.19 160.18 775.15   Q 161.37 777.98 162.94 780.65   Z   M 779.02 758.50   C 785.89 754.71 796.70 751.32 804.39 753.69   Q 805.20 753.94 805.20 753.09   L 805.14 723.00   Q 805.14 722.15 804.33 721.91   L 800.93 720.89   A 2.09 2.09 0.0 0 0 798.44 721.99   C 792.61 734.26 786.33 746.77 777.93 758.06   A 0.34 0.34 0.0 0 0 778.09 758.58   Q 778.29 758.65 778.50 758.64   Q 778.79 758.62 779.02 758.50   Z   M 748.97 730.37   C 751.40 741.51 756.81 752.76 764.59 761.60   A 0.86 0.86 0.0 0 0 765.92 761.54   C 774.78 749.62 768.78 734.69 756.92 727.52   C 754.12 725.82 747.61 724.14 748.97 730.37   Z   M 507.95 742.65   L 508.04 742.30   Q 508.32 741.25 507.23 741.21   Q 491.42 740.62 476.09 742.21   A 1.07 1.07 0.0 0 0 475.17 743.53   L 475.26 743.90   Q 475.48 744.77 476.37 744.67   Q 490.92 743.15 506.61 743.66   A 1.35 1.34 -81.9 0 0 507.95 742.65   Z   M 209.13 744.78   C 193.20 754.44 176.73 769.47 169.79 786.98   A 0.86 0.86 0.0 0 0 170.60 788.16   C 188.81 787.91 213.20 764.13 210.69 745.52   A 1.03 1.03 0.0 0 0 209.13 744.78   Z   M 585.15 746.14   Q 586.04 745.70 585.06 745.55   Q 578.11 744.53 571.56 744.92   Q 559.49 745.64 549.65 745.87   C 534.70 746.22 523.04 747.51 509.74 751.19   Q 495.62 755.09 482.60 759.05   Q 480.56 759.67 482.44 760.68   C 483.48 761.23 485.40 761.17 486.51 760.85   Q 500.08 756.92 514.51 752.94   Q 525.97 749.78 538.40 749.18   Q 563.63 747.97 583.53 746.58   Q 584.40 746.52 585.15 746.14   Z   M 483.79 824.38   C 486.25 833.92 482.39 846.95 477.98 855.06   A 0.83 0.83 0.0 0 0 478.68 856.28   Q 496.78 856.76 513.75 855.91   Q 524.79 855.36 533.92 855.35   Q 597.06 855.34 663.59 855.36   Q 664.94 855.36 666.37 855.16   Q 666.87 855.09 666.42 854.86   Q 646.46 844.31 626.50 833.73   C 596.70 817.94 567.16 798.98 538.36 784.77   Q 497.62 764.69 447.98 755.13   Q 435.32 752.69 424.71 751.97   C 391.91 749.73 358.59 751.06 325.61 754.24   Q 317.27 755.04 308.67 757.07   C 268.42 766.54 230.63 781.96 196.70 803.63   C 172.38 819.16 149.71 836.63 128.00 855.61   Q 127.17 856.34 128.27 856.34   L 443.45 856.34   A 1.49 1.48 -84.9 0 0 444.91 855.11   C 445.82 849.94 446.84 820.82 454.72 819.72   C 457.25 819.37 459.15 821.91 459.49 824.16   Q 460.51 831.02 460.90 838.70   C 461.04 841.57 461.64 844.46 462.07 847.27   Q 462.35 849.09 463.07 847.39   Q 467.83 836.16 473.33 826.76   C 474.84 824.18 477.99 820.90 481.35 821.90   Q 483.30 822.48 483.79 824.38   Z   M 772.31 768.35   Q 771.80 768.77 772.63 769.39   A 1.14 1.11 66.7 0 0 773.14 769.60   Q 786.80 771.76 798.82 765.66   C 802.55 763.77 806.09 761.04 805.02 756.38   A 0.67 0.66 81.6 0 0 804.34 755.87   Q 786.40 756.76 772.31 768.35   Z   M 607.66 766.71   C 615.94 766.06 624.74 766.09 632.63 764.62   Q 646.48 762.04 660.50 760.28   Q 662.94 759.97 665.46 759.43   A 0.45 0.45 0.0 0 0 665.69 758.68   Q 665.34 758.30 664.83 758.27   C 653.61 757.48 643.18 760.30 632.20 761.92   Q 619.69 763.76 603.51 764.11   Q 598.55 764.21 593.46 765.18   Q 579.74 767.79 565.18 770.52   C 558.74 771.73 552.31 772.16 545.86 773.25   Q 544.68 773.46 545.30 774.48   L 545.48 774.78   Q 546.09 775.80 547.28 775.67   Q 564.09 773.85 574.32 771.66   Q 587.89 768.76 596.35 767.80   Q 601.78 767.18 607.66 766.71   Z   M 803.98 768.30   Q 795.57 774.32 784.01 776.10   Q 782.73 776.29 783.86 776.93   L 804.57 788.58   Q 805.09 788.87 805.11 788.27   Q 805.48 777.93 805.01 767.86   Q 804.98 767.32 804.46 767.45   Q 804.18 767.52 804.19 767.86   A 0.54 0.52 -20.5 0 1 803.98 768.30   Z   M 131.95 790.67   C 137.31 794.90 145.83 799.66 152.90 798.62   Q 156.25 798.13 159.45 797.09   A 2.07 2.06 -20.6 0 0 160.71 794.32   Q 155.82 782.82 145.05 777.08   C 137.62 773.12 126.43 771.96 118.13 773.45   Q 116.07 773.82 117.34 775.48   Q 124.34 784.66 131.95 790.67   Z   M 674.21 788.90   C 663.09 792.34 651.68 790.95 640.21 790.20   Q 634.02 789.79 627.88 791.15   C 617.85 793.36 608.42 796.78 598.32 798.33   Q 589.17 799.74 579.35 800.58   A 0.84 0.82 -80.3 0 0 578.66 801.08   Q 578.37 801.75 578.84 802.39   Q 579.21 802.88 579.82 802.93   Q 585.00 803.37 591.39 802.47   C 601.58 801.02 611.47 798.61 621.41 795.79   Q 629.46 793.51 635.17 793.19   C 643.60 792.72 651.57 794.04 659.65 793.95   C 670.63 793.83 681.38 790.04 691.69 786.05   Q 692.78 785.63 692.48 784.50   L 692.38 784.14   Q 692.13 783.17 691.17 783.48   Q 682.43 786.37 674.21 788.90   Z   M 753.56 815.75   C 769.55 816.56 788.67 812.62 804.68 808.81   A 1.09 1.07 -73.6 0 0 805.20 808.52   Q 805.97 807.71 805.66 807.26   A 2.25 2.23 -22.9 0 0 803.34 806.33   Q 783.96 810.45 772.16 812.00   Q 761.69 813.36 747.07 813.10   C 737.33 812.92 728.45 813.42 719.61 816.09   Q 709.60 819.11 699.48 822.17   C 685.32 826.45 667.09 826.62 650.76 826.65   Q 647.21 826.65 629.20 829.42   A 1.21 1.20 13.2 0 0 628.42 829.90   Q 627.77 830.81 628.51 831.66   A 1.78 1.77 -23.7 0 0 630.01 832.24   C 636.72 831.56 643.12 829.90 649.71 829.69   C 667.66 829.13 685.77 829.20 702.73 824.22   Q 708.97 822.39 716.07 820.13   C 728.19 816.26 740.54 815.08 753.56 815.75   Z   M 158.00 814.69   C 154.47 810.44 148.34 808.12 142.80 809.44   A 1.47 1.47 0.0 0 0 141.71 810.53   Q 141.38 811.85 142.34 812.55   Q 148.91 817.33 156.86 817.82   A 1.53 1.53 0.0 0 0 158.41 816.76   Q 158.78 815.62 158.00 814.69   Z   M 137.8378 838.7830   A 10.64 2.53 60.2 0 0 134.7454 828.2927   A 10.64 2.53 60.2 0 0 127.2622 820.3170   A 10.64 2.53 60.2 0 0 130.3546 830.8073   A 10.64 2.53 60.2 0 0 137.8378 838.7830   Z   M 453.52 856.37   L 455.23 856.35   Q 456.90 856.34 456.73 854.68   Q 455.67 844.58 455.75 834.35   Q 455.78 830.74 455.37 827.30   Q 455.22 826.01 454.93 827.28   Q 451.82 840.68 451.82 854.68   Q 451.82 856.38 453.52 856.37   Z   M 479.06 829.00   C 473.72 836.80 470.68 846.29 466.76 854.67   A 1.17 1.17 0.0 0 0 467.36 856.24   C 473.31 858.80 479.16 835.60 479.69 832.42   Q 479.96 830.81 479.82 829.19   Q 479.71 828.04 479.06 829.00   Z   M 811.24 844.07   C 823.66 839.62 836.12 841.58 849.23 844.02   Q 850.06 844.17 850.90 844.06   Q 852.60 843.83 852.20 842.92   Q 851.77 841.96 850.76 841.67   Q 842.28 839.20 828.71 838.51   Q 819.96 838.06 812.54 840.61   Q 802.06 844.21 792.76 847.10   Q 777.37 851.87 758.77 852.83   Q 755.42 853.00 752.03 853.99   Q 751.34 854.19 751.91 854.64   Q 752.64 855.21 753.54 855.24   Q 773.52 856.03 792.63 850.27   Q 801.02 847.74 811.24 844.07   Z" />
<path d="   M 738.51 502.44   C 753.31 503.58 768.15 504.16 783.00 504.18   Q 785.96 504.18 787.83 506.15   A 1.07 1.07 0.0 0 1 787.33 507.92   C 785.76 508.34 784.13 508.72 782.51 508.71   Q 759.93 508.68 740.80 506.81   Q 738.32 506.57 736.29 505.13   A 0.67 0.66 -55.5 0 1 736.13 504.22   Q 737.36 502.35 738.51 502.44   Z" />
<path d="   M 783.20 527.68   C 772.80 529.22 760.47 529.59 749.69 528.74   Q 748.01 528.61 747.34 527.05   Q 747.22 526.77 747.30 526.47   Q 747.67 525.06 749.13 525.07   Q 766.77 525.18 783.35 524.02   Q 785.16 523.89 785.31 525.70   Q 785.33 525.96 785.21 526.20   Q 784.56 527.48 783.20 527.68   Z" />
<path d="   M 797.93 540.43   A 0.86 0.86 0.0 0 1 797.16 541.37   L 772.73 543.76   A 4.24 2.02 -5.6 0 1 768.32 542.17   L 768.31 542.07   A 4.24 2.02 -5.6 0 1 772.33 539.64   L 796.75 537.25   A 0.86 0.86 0.0 0 1 797.69 538.02   L 797.93 540.43   Z" />
<rect x="-22.48" y="-2.03" transform="translate(682.24,574.60) rotate(-1.9)" width="44.96" height="4.06" rx="1.99" />
<path d="   M 723.32 588.12   A 0.66 0.66 0.0 0 1 722.66 587.46   L 722.66 587.35   A 3.34 3.11 0.3 0 1 726.02 584.26   L 738.66 584.32   A 3.34 3.11 0.3 0 1 741.98 587.45   L 741.98 587.56   A 0.66 0.66 0.0 0 1 741.32 588.22   L 723.32 588.12   Z" />
<rect x="-15.53" y="-2.01" transform="translate(696.10,590.86) rotate(-3.0)" width="31.06" height="4.02" rx="1.97" />
<path d="   M 709.78 604.68   Q 711.40 604.57 711.61 606.17   L 711.69 606.80   Q 711.90 608.35 710.35 608.58   Q 698.82 610.25 686.76 610.18   A 3.60 3.59 -16.8 0 1 683.80 608.60   Q 683.69 608.45 683.62 608.28   Q 682.97 606.59 684.77 606.47   L 709.78 604.68   Z" />
<path d="   M 605.03 620.28   C 589.65 620.29 574.90 620.36 559.12 621.11   Q 557.86 621.17 556.61 621.06   Q 553.07 620.76 553.06 619.41   Q 553.05 618.36 554.08 618.09   Q 560.14 616.50 565.00 616.47   Q 584.46 616.35 602.99 616.42   Q 604.45 616.42 605.99 617.90   Q 606.31 618.20 606.39 618.61   Q 606.73 620.28 605.03 620.28   Z" />
<path d="   M 588.53 631.57   Q 603.49 631.19 613.76 632.87   Q 614.32 632.96 614.30 633.53   L 614.24 635.44   Q 614.22 636.16 613.50 636.22   Q 599.60 637.26 585.64 635.08   Q 583.59 634.77 584.84 633.11   Q 584.95 632.97 585.07 632.86   Q 586.49 631.62 588.53 631.57   Z" />
<path d="   M 486.63 705.89   C 475.99 706.76 466.29 706.97 455.94 706.35   Q 448.34 705.89 438.50 707.55   Q 436.74 707.84 435.74 706.28   Q 435.30 705.59 436.32 704.53   A 1.43 1.34 -77.0 0 1 436.83 704.19   Q 442.01 702.18 448.38 701.99   Q 465.96 701.48 485.84 701.94   Q 487.78 701.99 487.88 703.93   L 487.90 704.43   A 1.39 1.39 0.0 0 1 486.63 705.89   Z" />
<path d="   M 430.95 725.18   A 0.32 0.32 0.0 0 1 430.62 724.87   L 430.60 724.04   A 3.82 3.41 -1.6 0 1 434.32 720.53   L 461.11 719.78   A 3.82 3.41 -1.6 0 1 465.02 723.08   L 465.05 723.91   A 0.32 0.32 0.0 0 1 464.74 724.24   L 430.95 725.18   Z" />
<path d="   M 266.94 801.95   A 0.88 0.88 0.0 0 1 267.39 800.79   L 268.20 800.43   A 4.65 2.47 66.2 0 1 272.34 803.69   L 274.12 807.74   A 4.65 2.47 66.2 0 1 273.74 812.99   L 272.92 813.35   A 0.88 0.88 0.0 0 1 271.76 812.90   L 266.94 801.95   Z" />
<rect x="-2.01" y="-6.06" transform="translate(254.42,809.63) rotate(-26.1)" width="4.02" height="12.12" rx="1.75" />
</g>
</g></svg>