<svg xmlns="http://www.w3.org/2000/svg" version="1.1" viewBox="0.00 0.00 1024.00 1024.00">
<g id="Parent-Group"><g fill="rgba(0,0,0,0)" id="Group-rgba(0,0,0,0)">
<path d="   M 211.69 0.00   L 211.71 160.85   A 0.66 0.66 0.0 0 1 211.05 161.51   Q 180.89 161.49 146.11 161.70   Q 143.21 161.72 140.21 161.92   Q 138.46 162.03 138.76 163.76   Q 138.79 163.93 138.81 164.09   Q 138.99 165.78 140.69 165.87   Q 144.19 166.05 147.64 166.05   Q 214.66 166.05 281.66 166.13   Q 283.91 166.13 283.22 163.99   Q 283.18 163.87 283.18 163.74   Q 283.13 161.58 280.97 161.58   L 216.28 161.52   A 0.30 0.30 0.0 0 1 215.98 161.22   L 215.95 0.00   L 1024.00 0.00   L 1024.00 1024.00   L 124.88 1024.00   L 124.89 970.99   A 0.52 0.52 0.0 0 1 125.40 970.47   Q 133.62 970.37 141.27 970.39   Q 562.74 971.56 1013.25 972.68   A 1.93 1.93 0.0 0 0 1015.16 971.12   Q 1015.71 968.42 1012.84 968.42   Q 568.97 967.49 125.19 966.09   A 0.26 0.26 0.0 0 1 124.93 965.83   L 125.03 887.56   Q 125.03 887.06 125.52 887.06   Q 209.63 886.81 300.75 886.81   Q 531.72 886.83 765.50 886.98   Q 889.69 887.05 1013.34 887.10   A 2.00 2.00 0.0 0 0 1015.32 885.35   Q 1015.34 885.15 1015.34 884.95   Q 1015.37 882.68 1013.09 882.68   L 883.71 882.70   Q 883.22 882.70 883.23 882.21   L 883.28 827.20   A 2.39 2.39 0.0 0 0 880.87 824.81   L 860.80 824.97   A 0.41 0.41 0.0 0 1 860.38 824.55   L 860.69 812.76   Q 860.70 812.15 861.26 811.93   Q 867.72 809.33 870.96 802.95   C 875.35 794.30 868.23 785.55 859.94 793.42   Q 859.48 793.86 859.41 793.22   L 857.24 772.81   Q 857.21 772.46 857.52 772.31   C 858.08 772.03 858.60 772.03 859.17 771.64   C 866.92 766.24 879.60 753.20 876.44 742.90   C 874.97 738.12 870.07 736.49 865.65 738.36   C 859.39 741.01 855.85 747.29 854.18 754.20   Q 853.88 755.44 853.52 754.22   L 849.06 739.23   Q 848.87 738.59 849.47 738.31   C 861.06 732.90 870.16 723.40 870.30 710.44   C 870.40 701.95 863.43 698.24 856.19 702.11   C 849.63 705.61 846.56 713.86 844.85 720.99   Q 844.62 721.97 844.31 721.01   C 843.99 719.99 844.02 718.89 843.74 717.87   Q 841.01 708.08 838.60 698.78   Q 838.48 698.31 838.89 698.06   C 850.52 690.87 866.04 677.95 864.56 662.76   Q 864.29 660.05 862.50 658.30   C 857.74 653.68 849.49 658.27 845.58 662.13   Q 840.76 666.88 837.40 673.56   Q 836.71 674.94 836.72 673.40   Q 836.82 659.60 840.41 646.38   C 840.69 645.36 841.13 644.34 842.08 643.75   C 854.65 636.02 864.12 626.34 865.61 611.71   C 866.20 605.95 864.01 597.81 856.15 600.70   C 849.84 603.02 846.83 609.73 844.66 615.85   Q 842.91 620.79 841.53 625.61   Q 841.18 626.83 840.65 625.67   C 838.31 620.59 832.79 616.11 826.97 619.41   C 825.01 620.52 823.67 622.63 823.58 624.91   C 823.23 634.12 826.01 645.47 834.26 651.26   Q 834.71 651.58 834.61 652.12   L 833.30 659.05   Q 833.08 660.20 832.60 659.13   Q 830.54 654.47 826.33 652.75   C 819.82 650.08 813.93 654.46 813.65 661.25   C 813.37 667.72 816.64 674.71 820.87 679.66   Q 824.96 684.43 831.75 685.98   Q 832.31 686.10 832.34 686.67   Q 832.75 695.42 835.56 704.29   C 836.19 706.29 836.59 708.43 837.01 710.47   Q 837.19 711.33 836.52 710.76   C 831.11 706.18 822.73 707.49 820.90 714.86   Q 820.58 716.14 820.26 714.86   Q 799.80 633.13 778.38 549.37   C 771.09 520.88 754.08 495.97 728.64 481.16   C 710.89 470.82 689.45 465.59 669.52 465.42   Q 637.04 465.14 601.23 465.38   C 592.65 465.44 586.88 463.46 587.03 453.01   Q 587.33 432.88 587.03 413.23   Q 587.02 412.66 587.60 412.69   C 593.77 413.02 599.08 409.48 603.09 405.09   Q 633.42 371.89 649.60 331.11   C 662.13 299.52 665.31 264.34 650.16 233.91   Q 649.86 233.29 650.54 233.29   L 741.33 233.32   A 0.37 0.37 0.0 0 1 741.70 233.69   L 741.73 266.74   Q 741.73 268.01 743.00 268.05   L 745.12 268.12   Q 746.13 268.15 746.13 267.13   L 746.00 203.04   Q 746.00 202.58 746.46 202.58   L 771.25 202.34   A 1.59 1.59 0.0 0 0 772.80 200.48   L 772.74 200.16   Q 772.37 198.09 770.26 198.10   L 743.98 198.22   A 2.31 2.30 -0.4 0 0 741.69 200.53   L 741.72 228.27   A 0.37 0.36 90.0 0 1 741.36 228.64   L 647.60 228.63   A 1.05 1.04 73.2 0 1 646.73 228.16   C 636.87 213.13 622.60 201.60 605.32 196.93   A 1.14 1.13 -0.4 0 1 604.54 196.17   C 597.97 174.74 584.43 156.49 565.06 145.87   C 539.06 131.62 504.93 133.29 481.88 152.54   C 478.93 155.00 476.24 157.86 473.62 160.71   C 465.76 169.26 455.04 173.64 443.27 172.42   C 428.57 170.89 414.97 173.24 402.98 181.49   C 387.53 192.12 379.52 208.98 380.45 228.07   A 0.46 0.45 -2.4 0 1 380.00 228.55   L 363.96 228.67   A 0.61 0.60 -13.7 0 1 363.40 228.33   Q 363.19 227.92 363.33 227.44   A 1.84 1.78 -82.1 0 0 361.63 225.11   Q 355.95 225.15 350.68 225.17   Q 350.05 225.18 350.05 224.55   L 350.01 163.97   Q 350.01 161.59 347.63 161.58   Q 332.28 161.52 317.89 161.54   Q 315.47 161.55 312.95 161.87   Q 311.41 162.06 311.37 163.62   L 311.35 164.36   Q 311.30 165.99 312.93 166.00   L 344.95 166.15   A 0.55 0.54 -0.0 0 1 345.50 166.69   L 345.52 224.71   A 0.48 0.48 0.0 0 1 345.04 225.19   L 324.04 225.10   A 1.54 1.53 -86.4 0 0 322.51 226.46   L 322.33 228.02   Q 322.26 228.60 321.68 228.61   L 307.30 228.67   Q 306.71 228.67 306.75 228.08   Q 307.00 223.82 306.49 219.12   A 2.23 2.21 90.0 0 0 304.54 217.16   L 304.10 217.10   A 1.53 1.53 0.0 0 0 302.39 218.64   L 302.48 228.26   A 0.35 0.34 -90.0 0 1 302.14 228.61   L 250.49 228.70   Q 249.78 228.70 249.77 227.99   L 249.63 216.88   Q 249.61 215.16 247.89 215.06   L 247.53 215.04   Q 245.46 214.92 245.44 216.98   L 245.34 228.04   Q 245.34 228.67 244.71 228.67   L 162.58 228.69   Q 161.98 228.69 161.96 228.08   L 161.88 225.29   Q 161.84 223.69 160.25 223.61   L 159.17 223.56   Q 157.79 223.48 157.74 224.87   L 157.63 227.79   A 0.93 0.92 0.6 0 1 156.71 228.68   L 150.45 228.72   Q 149.69 228.72 149.69 227.96   L 149.74 201.87   A 2.34 2.34 0.0 0 0 149.46 200.76   Q 147.62 197.26 145.63 200.33   A 1.70 1.70 0.0 0 0 145.36 201.25   L 145.27 228.25   A 0.33 0.33 0.0 0 1 144.94 228.58   L 123.03 228.61   A 0.59 0.59 0.0 0 1 122.44 228.03   L 122.35 205.81   A 2.08 2.08 0.0 0 0 120.28 203.73   L 101.34 203.56   Q 100.85 203.56 100.77 203.08   L 100.18 199.64   A 0.92 0.91 -4.5 0 0 99.29 198.89   L 74.37 198.79   Q 73.70 198.78 73.70 198.11   L 73.65 166.55   A 0.54 0.54 0.0 0 1 74.20 166.01   L 112.32 166.11   A 1.05 1.05 0.0 0 0 113.36 164.92   L 113.09 162.96   Q 112.90 161.59 111.52 161.59   L 71.49 161.48   Q 69.18 161.47 69.18 163.78   L 69.19 198.49   A 0.42 0.41 0.7 0 1 68.76 198.90   L 53.90 198.61   A 2.78 2.78 0.0 0 0 51.07 201.39   L 51.08 227.92   Q 51.08 228.67 50.33 228.68   L 42.34 228.70   Q 40.63 228.71 40.47 230.42   L 40.43 230.90   Q 40.21 233.32 42.65 233.32   L 68.47 233.22   Q 69.23 233.21 69.23 233.97   L 69.35 244.18   Q 69.37 245.97 71.16 245.90   L 71.61 245.88   Q 73.89 245.80 73.85 243.52   L 73.71 233.66   A 0.36 0.36 0.0 0 1 74.07 233.29   L 156.75 233.25   Q 157.50 233.25 157.50 234.00   L 157.67 315.72   A 0.38 0.37 -0.0 0 1 157.29 316.09   L 74.18 316.10   A 0.42 0.42 0.0 0 1 73.76 315.68   L 73.69 252.91   Q 73.69 250.70 71.48 250.68   L 71.04 250.67   Q 69.22 250.65 69.22 252.48   L 69.19 318.46   A 2.14 2.14 0.0 0 0 71.33 320.60   L 347.32 320.63   Q 350.02 320.63 350.02 317.93   L 350.01 255.80   Q 350.01 255.26 350.55 255.28   Q 356.57 255.55 362.08 255.16   Q 363.41 255.07 363.41 253.74   L 363.45 233.77   A 0.52 0.51 0.6 0 1 363.98 233.26   L 380.33 233.40   Q 381.04 233.40 381.14 234.11   C 384.17 254.95 399.12 271.78 417.65 281.45   Q 418.16 281.72 418.19 282.30   Q 419.89 326.32 421.62 370.03   C 422.03 380.42 422.16 386.67 426.50 394.38   C 440.56 419.34 476.45 430.40 503.38 432.48   A 0.60 0.60 0.0 0 1 503.94 433.08   Q 503.84 443.46 503.87 455.24   C 503.89 465.18 497.94 465.43 489.42 465.36   Q 480.12 465.27 470.30 465.23   Q 459.36 465.19 452.48 466.46   C 419.71 472.50 395.15 496.28 388.55 529.06   Q 378.38 579.53 367.80 631.49   Q 367.62 632.34 366.76 632.34   Q 238.08 632.36 109.81 632.33   Q 109.16 632.33 108.59 632.65   A 1.31 1.31 0.0 0 0 107.91 633.98   L 141.67 881.93   A 0.65 0.64 -3.9 0 1 141.03 882.66   L 123.17 882.56   Q 120.68 882.55 120.68 885.04   L 120.61 1024.00   L 0.00 1024.00   L 0.00 0.00   L 211.69 0.00   Z   M 132.42 161.48   Q 133.78 160.02 134.78 158.35   C 137.78 153.34 133.13 146.86 127.93 146.02   C 121.63 145.01 115.31 148.40 114.10 155.02   Q 113.07 160.68 118.51 163.98   A 1.11 1.09 24.5 0 1 118.99 165.24   Q 117.63 169.68 115.04 174.57   C 113.79 176.93 115.41 178.86 117.78 179.61   C 124.43 181.70 135.31 180.14 139.75 173.98   A 2.15 2.15 0.0 0 0 139.55 171.21   Q 135.76 167.31 132.35 162.60   Q 131.93 162.01 132.42 161.48   Z   M 302.92 165.20   C 309.19 162.41 308.29 155.65 303.12 152.52   C 297.69 149.24 289.23 151.01 286.57 156.60   C 284.63 160.67 286.48 163.52 289.67 165.91   A 0.82 0.81 -53.6 0 1 289.84 167.04   L 284.25 174.83   A 1.81 1.81 0.0 0 0 284.60 177.30   C 291.45 182.76 302.37 181.83 308.82 176.45   A 1.61 1.60 49.6 0 0 309.00 174.16   Q 305.69 170.39 302.75 165.73   A 0.37 0.37 0.0 0 1 302.92 165.20   Z   M 114.6734 187.8676   A 1.13 1.13 0.0 0 0 113.5375 186.7435   L 103.3776 186.7967   A 1.13 1.13 0.0 0 0 102.2535 187.9326   L 102.3066 198.0724   A 1.13 1.13 0.0 0 0 103.4425 199.1965   L 113.6024 199.1433   A 1.13 1.13 0.0 0 0 114.7265 198.0074   L 114.6734 187.8676   Z   M 133.6320 188.2744   A 1.48 1.48 0.0 0 0 132.1340 186.8126   L 122.6547 186.9284   A 1.48 1.48 0.0 0 0 121.1929 188.4263   L 121.3080 197.8456   A 1.48 1.48 0.0 0 0 122.8060 199.3074   L 132.2853 199.1916   A 1.48 1.48 0.0 0 0 133.7471 197.6937   L 133.6320 188.2744   Z   M 791.12 200.21   Q 790.54 199.60 791.31 199.26   C 795.89 197.22 796.18 192.38 792.32 189.44   C 787.43 185.72 777.29 186.65 774.84 193.03   Q 773.34 196.95 777.82 199.57   Q 778.93 200.21 778.23 201.28   Q 776.07 204.56 773.59 207.12   Q 772.34 208.40 773.69 209.57   C 779.33 214.45 788.92 213.30 795.03 210.03   Q 796.85 209.05 797.22 207.28   Q 797.34 206.70 796.93 206.27   L 791.12 200.21   Z   M 891.7096 199.7868   A 2.13 2.13 0.0 0 0 889.5722 197.6642   L 800.3127 197.9758   A 2.13 2.13 0.0 0 0 798.1902 200.1132   L 798.1904 200.1732   A 2.13 2.13 0.0 0 0 800.3278 202.2958   L 889.5873 201.9842   A 2.13 2.13 0.0 0 0 891.7098 199.8468   L 891.7096 199.7868   Z   M 304.68 208.40   L 310.08 212.44   Q 311.22 213.30 312.24 212.28   Q 312.51 212.00 312.71 211.68   Q 313.94 209.68 312.10 208.23   L 305.08 202.71   Q 302.85 200.96 301.42 203.41   L 295.33 213.86   A 1.60 1.59 39.7 0 0 295.51 215.72   C 296.24 216.57 297.51 216.99 298.44 216.15   C 300.66 214.13 302.22 211.19 303.65 208.62   Q 304.04 207.92 304.68 208.40   Z   M 914.25 359.56   L 773.78 359.50   A 0.32 0.24 26.6 0 0 773.67 359.52   Q 768.84 361.06 772.33 363.57   A 1.98 1.96 62.8 0 0 773.49 363.95   L 917.01 363.95   A 2.11 2.11 0.0 0 0 919.12 361.82   L 918.22 233.93   Q 918.21 233.33 918.82 233.33   L 948.60 233.33   Q 951.04 233.33 950.84 230.90   L 950.81 230.53   Q 950.66 228.66 948.78 228.66   L 918.71 228.74   Q 918.17 228.74 918.17 228.21   L 918.04 203.97   Q 918.03 202.14 916.22 201.88   Q 916.03 201.86 915.84 201.85   Q 913.58 201.79 913.60 204.05   L 914.83 358.99   Q 914.83 359.56 914.25 359.56   Z   M 785.42 264.50   Q 782.66 265.10 780.12 264.60   Q 779.87 264.56 779.89 264.81   L 780.10 267.14   Q 780.14 267.58 780.58 267.65   C 783.98 268.20 789.79 268.77 789.57 263.89   Q 789.29 257.51 789.29 251.79   Q 789.29 251.21 789.66 250.78   L 796.58 242.81   A 1.11 1.07 -70.4 0 1 797.32 242.44   L 805.06 241.96   A 1.96 1.95 -87.5 0 0 806.88 240.29   C 807.23 237.97 809.76 237.66 811.63 237.14   Q 812.26 236.96 812.36 236.31   Q 812.94 232.58 812.67 228.57   Q 812.62 227.93 812.08 227.59   Q 810.72 226.77 810.79 225.07   A 1.18 1.17 -88.6 0 0 809.63 223.84   L 796.27 223.66   Q 793.62 223.63 793.64 226.28   Q 793.68 232.53 793.77 238.61   C 793.83 242.50 789.23 246.01 786.64 248.64   Q 785.51 249.78 785.59 251.39   L 786.16 263.54   Q 786.20 264.33 785.42 264.50   Z   M 768.74 264.01   Q 768.75 263.87 768.89 263.87   Q 775.65 264.05 782.01 261.45   A 1.42 1.41 -7.3 0 0 782.88 260.33   C 783.25 257.58 783.44 254.55 782.29 251.96   Q 781.51 250.21 781.05 248.44   A 1.36 1.36 0.0 0 0 779.72 247.43   L 767.20 247.55   Q 764.34 247.58 764.36 250.43   L 764.45 264.36   Q 764.46 264.88 764.06 265.22   L 750.89 276.37   A 0.43 0.43 0.0 0 1 750.18 276.03   L 750.23 272.82   Q 750.25 271.01 748.47 271.34   Q 747.78 271.47 747.16 271.91   A 1.94 1.94 0.0 0 0 746.35 273.60   L 747.05 285.57   Q 747.17 287.62 749.21 287.35   Q 750.82 287.14 750.84 285.50   Q 750.88 283.52 750.91 281.70   Q 750.92 281.20 751.37 280.96   Q 752.48 280.37 753.38 279.62   Q 758.44 275.37 763.82 270.47   Q 765.79 268.68 768.64 268.50   Q 773.23 268.21 777.49 268.02   Q 778.41 267.98 778.37 267.06   L 778.29 264.85   Q 778.27 264.23 777.65 264.28   Q 773.14 264.60 768.81 264.37   Q 768.71 264.37 768.72 264.28   L 768.74 264.01   Z   M 143.9200 253.5099   A 2.22 2.22 0.0 0 0 141.7078 251.2821   L 88.9281 251.0979   A 2.22 2.22 0.0 0 0 86.7004 253.3101   L 86.7000 253.4301   A 2.22 2.22 0.0 0 0 88.9122 255.6579   L 141.6919 255.8421   A 2.22 2.22 0.0 0 0 143.9196 253.6299   L 143.9200 253.5099   Z   M 880.1797 264.2927   A 2.09 2.09 0.0 0 0 878.0861 262.2064   L 816.6462 262.3136   A 2.09 2.09 0.0 0 0 814.5598 264.4073   L 814.5603 264.6873   A 2.09 2.09 0.0 0 0 816.6539 266.7736   L 878.0938 266.6664   A 2.09 2.09 0.0 0 0 880.1802 264.5727   L 880.1797 264.2927   Z   M 741.93 285.85   Q 743.47 285.57 744.66 284.83   Q 745.06 284.58 745.11 284.11   C 745.64 279.16 745.61 275.77 741.49 272.22   Q 741.16 271.94 740.73 271.93   L 729.99 271.77   Q 729.21 271.76 728.68 272.33   C 727.62 273.50 725.92 275.23 726.15 276.92   Q 726.89 282.18 726.76 287.67   Q 726.72 288.99 728.04 289.01   L 736.97 289.13   Q 737.70 289.14 738.13 288.56   C 739.11 287.24 740.24 286.16 741.93 285.85   Z   M 880.22 276.55   A 2.07 2.07 0.0 0 0 878.15 274.48   L 816.37 274.48   A 2.07 2.07 0.0 0 0 814.30 276.55   L 814.30 276.91   A 2.07 2.07 0.0 0 0 816.37 278.98   L 878.15 278.98   A 2.07 2.07 0.0 0 0 880.22 276.91   L 880.22 276.55   Z   M 791.68 283.69   A 6.32 6.32 0.0 0 0 785.36 277.37   A 6.32 6.32 0.0 0 0 779.04 283.69   A 6.32 6.32 0.0 0 0 785.36 290.01   A 6.32 6.32 0.0 0 0 791.68 283.69   Z   M 880.24 288.59   A 2.20 2.20 0.0 0 0 878.04 286.39   L 816.68 286.39   A 2.20 2.20 0.0 0 0 814.48 288.59   L 814.48 288.81   A 2.20 2.20 0.0 0 0 816.68 291.01   L 878.04 291.01   A 2.20 2.20 0.0 0 0 880.24 288.81   L 880.24 288.59   Z   M 745.9876 291.7762   A 1.92 1.92 0.0 0 0 744.0643 289.8596   L 743.5243 289.8605   A 1.92 1.92 0.0 0 0 741.6076 291.7839   L 741.7124 351.8038   A 1.92 1.92 0.0 0 0 743.6357 353.7204   L 744.1757 353.7195   A 1.92 1.92 0.0 0 0 746.0924 351.7961   L 745.9876 291.7762   Z   M 880.20 300.11   A 2.01 2.01 0.0 0 0 878.19 298.10   L 816.47 298.10   A 2.01 2.01 0.0 0 0 814.46 300.11   L 814.46 300.59   A 2.01 2.01 0.0 0 0 816.47 302.60   L 878.19 302.60   A 2.01 2.01 0.0 0 0 880.20 300.59   L 880.20 300.11   Z   M 791.69 305.25   A 6.28 6.28 0.0 0 0 785.41 298.97   A 6.28 6.28 0.0 0 0 779.13 305.25   A 6.28 6.28 0.0 0 0 785.41 311.53   A 6.28 6.28 0.0 0 0 791.69 305.25   Z   M 880.12 312.58   A 2.23 2.23 0.0 0 0 877.89 310.35   L 816.57 310.35   A 2.23 2.23 0.0 0 0 814.34 312.58   L 814.34 312.64   A 2.23 2.23 0.0 0 0 816.57 314.87   L 877.89 314.87   A 2.23 2.23 0.0 0 0 880.12 312.64   L 880.12 312.58   Z   M 791.57 327.61   A 6.24 6.24 0.0 0 0 785.33 321.37   A 6.24 6.24 0.0 0 0 779.09 327.61   A 6.24 6.24 0.0 0 0 785.33 333.85   A 6.24 6.24 0.0 0 0 791.57 327.61   Z   M 74.00 355.33   L 301.58 355.32   A 2.14 2.13 -66.0 0 0 303.01 354.77   Q 304.02 353.84 303.78 352.95   Q 303.18 350.79 300.94 350.79   L 71.74 350.76   Q 69.18 350.76 69.18 353.32   Q 69.20 436.76 69.22 513.18   Q 69.22 514.17 69.60 515.10   A 1.78 1.77 54.5 0 0 72.58 515.60   Q 73.70 514.32 73.70 512.34   Q 73.64 436.30 73.66 355.67   Q 73.66 355.33 74.00 355.33   Z   M 349.98 364.59   A 2.05 2.05 0.0 0 0 347.93 362.54   L 347.53 362.54   A 2.05 2.05 0.0 0 0 345.48 364.59   L 345.48 514.15   A 2.05 2.05 0.0 0 0 347.53 516.20   L 347.93 516.20   A 2.05 2.05 0.0 0 0 349.98 514.15   L 349.98 364.59   Z   M 306.43 379.33   A 0.68 0.68 0.0 0 1 305.82 379.54   L 292.21 377.39   A 0.68 0.68 0.0 0 0 291.43 377.98   L 288.11 404.00   A 0.68 0.68 0.0 0 0 288.65 404.75   L 310.51 409.12   A 0.68 0.68 0.0 0 0 311.17 408.88   L 333.50 381.11   A 0.68 0.68 0.0 0 0 333.39 380.15   L 318.03 367.67   A 0.68 0.68 0.0 0 0 317.10 367.74   L 306.43 379.33   Z   M 258.6069 369.9258   A 0.57 0.57 0.0 0 0 258.0359 369.3568   L 231.4159 369.4033   A 0.57 0.57 0.0 0 0 230.8469 369.9742   L 230.8931 396.4342   A 0.57 0.57 0.0 0 0 231.4641 397.0032   L 258.0841 396.9567   A 0.57 0.57 0.0 0 0 258.6531 396.3858   L 258.6069 369.9258   Z   M 128.8872 370.2558   A 0.71 0.71 0.0 0 0 128.1759 369.5471   L 101.8960 369.5930   A 0.71 0.71 0.0 0 0 101.1872 370.3042   L 101.2328 396.4642   A 0.71 0.71 0.0 0 0 101.9441 397.1729   L 128.2240 397.1270   A 0.71 0.71 0.0 0 0 128.9328 396.4158   L 128.8872 370.2558   Z   M 191.8572 370.7856   A 0.60 0.60 0.0 0 0 191.2561 370.1867   L 164.5162 370.2334   A 0.60 0.60 0.0 0 0 163.9172 370.8344   L 163.9628 396.9744   A 0.60 0.60 0.0 0 0 164.5639 397.5733   L 191.3038 397.5266   A 0.60 0.60 0.0 0 0 191.9028 396.9256   L 191.8572 370.7856   Z   M 315.94 433.25   L 316.04 457.36   Q 316.05 459.12 317.80 459.13   L 318.41 459.13   Q 320.55 459.14 320.54 457.00   L 320.48 430.32   A 2.27 2.27 0.0 0 0 318.23 428.06   Q 309.87 427.99 301.08 427.95   A 2.47 2.46 10.0 0 0 298.74 429.58   Q 298.65 429.85 298.71 430.16   Q 299.11 432.12 301.11 432.17   L 315.25 432.55   Q 315.94 432.57 315.94 433.25   Z   M 124.64 433.43   A 0.46 0.45 89.3 0 1 125.09 433.88   L 125.30 455.23   Q 125.31 455.64 124.89 455.61   Q 114.81 454.69 104.41 454.55   Q 102.80 454.53 102.71 456.15   L 102.68 456.77   A 1.94 1.94 0.0 0 0 104.52 458.81   L 127.07 460.02   A 2.58 2.57 1.2 0 0 129.78 457.43   L 129.53 431.32   A 2.51 2.51 0.0 0 0 127.02 428.84   L 105.47 428.84   Q 103.75 428.84 103.33 430.51   Q 103.06 431.61 104.74 432.80   A 1.88 1.86 62.7 0 0 105.78 433.14   L 124.64 433.43   Z   M 258.5966 430.2457   A 0.57 0.57 0.0 0 0 258.0256 429.6767   L 231.2656 429.7234   A 0.57 0.57 0.0 0 0 230.6966 430.2944   L 230.7434 457.0943   A 0.57 0.57 0.0 0 0 231.3144 457.6633   L 258.0744 457.6166   A 0.57 0.57 0.0 0 0 258.6434 457.0456   L 258.5966 430.2457   Z   M 188.06 435.34   L 188.18 455.81   A 0.34 0.34 0.0 0 1 187.84 456.15   L 169.03 456.07   A 2.43 2.39 -60.6 0 0 167.75 456.44   Q 164.11 458.70 168.24 460.38   A 1.28 1.17 -30.9 0 0 168.73 460.48   L 190.03 460.62   Q 192.73 460.63 192.71 457.94   L 192.54 432.56   A 2.48 2.48 0.0 0 0 190.06 430.10   L 168.64 430.13   A 1.66 1.64 -73.5 0 0 167.25 430.90   Q 166.80 431.61 166.85 432.38   Q 167.00 434.47 169.10 434.49   L 187.34 434.62   Q 188.05 434.63 188.06 435.34   Z   M 311.0957 454.8888   A 1.84 1.84 0.0 0 0 309.2848 453.0202   L 300.3859 452.8804   A 1.84 1.84 0.0 0 0 298.5172 454.6913   L 298.5043 455.5112   A 1.84 1.84 0.0 0 0 300.3152 457.3798   L 309.2141 457.5196   A 1.84 1.84 0.0 0 0 311.0828 455.7087   L 311.0957 454.8888   Z   M 128.9137 482.5716   A 0.65 0.65 0.0 0 0 128.2615 481.9239   L 101.7816 482.0163   A 0.65 0.65 0.0 0 0 101.1339 482.6686   L 101.2263 509.1284   A 0.65 0.65 0.0 0 0 101.8785 509.7761   L 128.3584 509.6837   A 0.65 0.65 0.0 0 0 129.0061 509.0314   L 128.9137 482.5716   Z   M 274.01 520.67   A 2.29 2.29 0.0 0 0 271.72 518.38   L 80.70 518.38   A 2.29 2.29 0.0 0 0 78.41 520.67   L 78.41 520.71   A 2.29 2.29 0.0 0 0 80.70 523.00   L 271.72 523.00   A 2.29 2.29 0.0 0 0 274.01 520.71   L 274.01 520.67   Z   M 333.2614 520.6668   A 2.17 2.17 0.0 0 0 331.1104 518.4779   L 324.7306 518.4223   A 2.17 2.17 0.0 0 0 322.5418 520.5732   L 322.5386 520.9332   A 2.17 2.17 0.0 0 0 324.6896 523.1221   L 331.0694 523.1777   A 2.17 2.17 0.0 0 0 333.2582 521.0268   L 333.2614 520.6668   Z" />
<ellipse cx="0.00" cy="0.00" transform="translate(124.69,155.44) rotate(-23.5)" rx="6.94" ry="5.22" />
<ellipse cx="0.00" cy="0.00" transform="translate(296.45,159.14) rotate(-6.7)" rx="6.63" ry="4.16" />
<path d="   M 128.68 164.47   L 135.15 172.75   Q 135.60 173.34 134.93 173.66   Q 128.00 176.97 120.83 176.64   A 1.18 1.17 9.9 0 1 119.76 175.12   Q 121.03 171.00 122.40 167.11   C 123.23 164.75 125.26 163.97 127.54 163.92   Q 128.25 163.91 128.68 164.47   Z" />
<path d="   M 289.72 174.33   C 290.82 172.30 295.67 162.42 299.05 167.04   Q 301.83 170.84 303.74 174.66   A 0.71 0.70 -25.0 0 1 303.38 175.63   Q 297.24 178.27 290.67 176.54   Q 288.79 176.04 289.72 174.33   Z" />
<path d="   M 110.58 191.40   L 110.85 194.35   A 0.57 0.57 0.0 0 1 110.30 194.97   L 107.39 195.05   A 0.57 0.57 0.0 0 1 106.81 194.45   L 106.95 191.48   A 0.57 0.57 0.0 0 1 107.50 190.94   L 110.00 190.88   A 0.57 0.57 0.0 0 1 110.58 191.40   Z" />
<ellipse cx="0.00" cy="0.00" transform="translate(784.62,194.29) rotate(-4.4)" rx="6.15" ry="3.22" />
<rect x="-2.35" y="-1.75" transform="translate(127.29,193.24) rotate(0.4)" width="4.70" height="3.50" rx="0.77" />
<path d="   M 788.03 201.91   Q 789.86 204.12 791.88 206.47   A 0.87 0.87 0.0 0 1 791.54 207.84   Q 785.55 210.23 779.20 208.63   Q 777.97 208.33 778.62 207.24   Q 780.26 204.49 782.09 201.86   C 783.87 199.29 786.08 199.55 788.03 201.91   Z" />
<path d="   M 78.06 212.40   L 77.93 228.05   Q 77.93 228.53 77.45 228.53   L 55.89 228.66   A 0.51 0.51 0.0 0 1 55.38 228.15   L 55.40 203.72   Q 55.40 203.09 56.03 203.09   L 95.75 203.15   Q 96.46 203.15 96.46 203.87   L 96.39 228.26   A 0.39 0.39 0.0 0 1 96.00 228.64   L 83.03 228.54   A 0.51 0.51 0.0 0 1 82.52 228.03   L 82.55 212.79   Q 82.55 210.73 80.51 210.53   Q 80.29 210.51 80.17 210.50   Q 78.07 210.29 78.06 212.40   Z" />
<rect x="100.87" y="207.76" width="17.18" height="20.86" rx="0.40" />
<rect x="-4.93" y="-5.17" transform="translate(801.71,232.06) rotate(1.3)" width="9.86" height="10.34" rx="0.79" />
<rect x="-15.93" y="-10.24" transform="translate(342.88,240.37) rotate(0.2)" width="31.86" height="20.48" rx="0.36" />
<path d="   M 248.09 293.89   L 247.13 293.90   Q 245.32 293.93 245.32 295.74   L 245.40 315.74   A 0.39 0.38 0.0 0 1 245.01 316.12   L 162.42 316.12   A 0.31 0.31 0.0 0 1 162.11 315.81   L 162.01 233.76   Q 162.01 233.28 162.49 233.28   L 244.95 233.38   A 0.44 0.44 0.0 0 1 245.39 233.82   L 245.32 280.48   A 1.23 1.23 0.0 0 0 246.53 281.71   L 248.76 281.74   Q 249.79 281.76 249.79 280.74   L 249.67 233.95   Q 249.67 233.33 250.29 233.33   L 321.70 233.36   Q 322.29 233.36 322.29 233.95   L 322.16 250.11   Q 322.15 250.84 321.46 250.60   Q 318.41 249.53 315.16 250.15   A 1.91 1.91 0.0 0 0 313.61 252.10   Q 313.68 254.08 315.50 254.14   C 317.83 254.22 319.35 254.60 321.65 253.82   Q 322.05 253.69 322.32 254.02   Q 323.18 255.12 324.56 255.14   Q 335.53 255.30 344.88 255.15   A 0.58 0.58 0.0 0 1 345.47 255.73   L 345.47 315.56   Q 345.47 316.10 344.93 316.10   L 250.32 316.09   A 0.53 0.52 0.0 0 1 249.79 315.57   L 249.83 295.60   Q 249.84 293.86 248.09 293.89   Z   M 285.4218 245.4363   A 1.80 1.80 0.0 0 0 283.5968 243.6616   L 259.4392 243.9989   A 1.80 1.80 0.0 0 0 257.6645 245.8238   L 257.6782 246.8037   A 1.80 1.80 0.0 0 0 259.5032 248.5784   L 283.6608 248.2411   A 1.80 1.80 0.0 0 0 285.4355 246.4162   L 285.4218 245.4363   Z   M 306.0085 245.2276   A 1.39 1.39 0.0 0 0 304.6161 243.8401   L 293.2361 243.8599   A 1.39 1.39 0.0 0 0 291.8485 245.2524   L 291.8515 246.9724   A 1.39 1.39 0.0 0 0 293.2439 248.3599   L 304.6239 248.3401   A 1.39 1.39 0.0 0 0 306.0115 246.9476   L 306.0085 245.2276   Z   M 182.63 258.40   Q 188.15 253.62 193.57 248.00   Q 194.70 246.83 193.62 245.62   L 193.29 245.25   Q 191.82 243.59 190.23 245.14   Q 184.55 250.69 178.64 256.40   Q 177.96 257.07 174.08 254.70   A 1.73 1.73 0.0 0 0 171.89 255.02   L 171.48 255.48   A 1.87 1.87 0.0 0 0 171.94 258.36   L 183.66 265.10   A 1.30 1.26 -32.0 0 0 184.42 265.26   Q 186.04 265.08 186.37 264.15   Q 187.02 262.30 185.37 261.23   L 182.70 259.48   Q 181.95 258.99 182.63 258.40   Z   M 231.7693 247.1922   A 1.86 1.86 0.0 0 0 229.9061 245.3355   L 201.7861 245.3845   A 1.86 1.86 0.0 0 0 199.9294 247.2478   L 199.9307 248.0078   A 1.86 1.86 0.0 0 0 201.7939 249.8645   L 229.9139 249.8155   A 1.86 1.86 0.0 0 0 231.7706 247.9522   L 231.7693 247.1922   Z   M 193.8234 258.1402   A 1.69 1.69 0.0 0 0 192.1632 256.4209   L 191.0234 256.4010   A 1.69 1.69 0.0 0 0 189.3041 258.0613   L 189.1366 267.6598   A 1.69 1.69 0.0 0 0 190.7968 269.3791   L 191.9366 269.3990   A 1.69 1.69 0.0 0 0 193.6559 267.7387   L 193.8234 258.1402   Z   M 231.9087 259.3536   A 1.52 1.52 0.0 0 0 230.3861 257.8363   L 203.2261 257.8837   A 1.52 1.52 0.0 0 0 201.7088 259.4064   L 201.7113 260.8264   A 1.52 1.52 0.0 0 0 203.2339 262.3437   L 230.3939 262.2963   A 1.52 1.52 0.0 0 0 231.9112 260.7736   L 231.9087 259.3536   Z   M 282.40 275.67   C 287.05 278.01 282.32 284.62 278.22 280.85   C 273.83 276.82 275.37 269.35 280.26 266.26   Q 280.83 265.90 281.43 266.20   Q 282.81 266.87 284.30 266.72   Q 285.04 266.64 285.51 267.21   Q 287.14 269.16 289.53 269.18   A 1.76 1.76 0.0 0 0 291.31 267.38   Q 291.20 261.97 285.33 260.32   Q 280.46 258.95 276.05 262.09   C 271.87 265.07 270.10 270.55 270.80 276.11   Q 270.87 276.66 270.35 276.86   L 266.61 278.35   A 1.70 1.69 -16.2 0 0 265.57 280.23   Q 266.12 283.37 269.85 281.71   Q 271.10 281.15 271.84 282.30   Q 275.26 287.61 281.73 287.36   C 285.34 287.21 288.51 284.94 289.43 281.39   Q 291.46 273.62 284.24 270.58   Q 282.62 269.90 281.09 270.68   Q 279.19 271.66 278.06 273.30   C 276.04 276.22 277.46 280.54 281.51 280.08   A 1.03 1.02 74.6 0 0 282.33 278.63   Q 281.76 277.41 281.70 276.13   Q 281.65 275.30 282.40 275.67   Z   M 227.32 288.01   C 225.97 283.35 230.95 278.78 235.40 280.61   Q 237.00 281.27 238.67 281.93   A 1.23 1.22 18.1 0 0 240.30 281.11   C 241.37 277.03 237.93 274.79 234.44 274.63   Q 223.39 274.11 221.96 285.25   C 221.28 290.55 223.84 296.86 229.53 298.13   C 236.00 299.57 240.94 294.91 240.01 288.24   Q 239.58 285.14 236.24 283.04   C 232.27 280.56 228.19 283.86 227.75 287.98   Q 227.63 289.09 227.32 288.01   Z   M 253.8521 287.4563   A 1.86 1.86 0.0 0 0 252.0084 285.5801   L 245.1286 285.5201   A 1.86 1.86 0.0 0 0 243.2525 287.3638   L 243.2479 287.8837   A 1.86 1.86 0.0 0 0 245.0916 289.7599   L 251.9714 289.8199   A 1.86 1.86 0.0 0 0 253.8475 287.9762   L 253.8521 287.4563   Z" />
<path d="   M 769.13 251.90   L 778.48 251.91   A 0.34 0.34 0.0 0 1 778.82 252.29   L 777.89 259.70   A 0.34 0.34 0.0 0 1 777.55 259.99   L 769.40 260.07   A 0.34 0.34 0.0 0 1 769.06 259.74   L 768.79 252.25   A 0.34 0.34 0.0 0 1 769.13 251.90   Z" />
<path d="   M 556.72 428.09   C 557.22 425.13 554.45 422.93 551.55 423.76   C 517.90 433.41 479.88 428.20 450.22 410.77   Q 438.88 404.11 432.00 393.79   C 427.73 387.39 426.71 380.55 426.45 372.99   Q 424.80 324.59 422.91 284.99   Q 422.87 284.20 423.60 284.48   C 460.84 298.84 505.67 292.89 535.54 265.43   A 0.33 0.33 0.0 0 1 536.09 265.75   Q 534.69 272.11 535.26 278.20   C 536.98 296.82 548.68 306.58 566.51 309.11   Q 567.26 309.22 566.90 309.89   C 560.86 320.93 557.61 335.22 559.08 346.74   C 559.64 351.19 561.57 356.98 566.14 358.65   C 576.87 362.56 583.19 343.37 584.56 335.93   Q 584.67 335.34 585.24 335.16   C 592.35 332.87 601.46 330.59 608.49 333.61   C 618.90 338.07 621.65 349.15 618.97 359.48   Q 615.60 372.46 603.28 377.41   C 597.96 379.55 591.89 379.39 586.14 379.35   Q 580.82 379.32 578.74 384.35   C 575.50 392.18 574.53 403.15 581.03 409.32   C 581.86 410.11 582.64 410.61 582.64 411.91   Q 582.60 435.47 582.57 454.88   Q 582.55 464.40 590.32 468.22   Q 594.14 470.11 602.64 469.91   Q 609.75 469.74 617.22 469.89   Q 617.85 469.90 617.73 470.53   C 610.66 506.90 580.13 530.75 543.01 529.15   C 508.89 527.68 481.79 503.82 475.09 470.42   A 0.45 0.45 0.0 0 1 475.52 469.89   Q 482.51 469.72 488.91 469.85   C 498.46 470.05 506.16 469.89 508.24 459.02   Q 508.35 458.47 508.91 458.44   Q 517.53 458.03 526.40 455.89   C 539.59 452.70 548.66 445.96 554.79 433.77   Q 556.26 430.85 556.72 428.09   Z   M 524.6465 304.2888   A 4.00 4.00 0.0 0 0 521.1872 299.8129   L 497.6198 296.7939   A 4.00 4.00 0.0 0 0 493.1440 300.2532   L 493.1135 300.4912   A 4.00 4.00 0.0 0 0 496.5728 304.9671   L 520.1402 307.9861   A 4.00 4.00 0.0 0 0 524.6160 304.5268   L 524.6465 304.2888   Z   M 460.8621 301.0842   A 3.95 3.95 0.0 0 0 456.2309 297.9604   L 432.6130 302.5513   A 3.95 3.95 0.0 0 0 429.4893 307.1824   L 429.5579 307.5358   A 3.95 3.95 0.0 0 0 434.1891 310.6596   L 457.8070 306.0687   A 3.95 3.95 0.0 0 0 460.9307 301.4376   L 460.8621 301.0842   Z   M 505.3349 332.8877   A 10.27 6.30 91.2 0 0 511.8486 322.7519   A 10.27 6.30 91.2 0 0 505.7651 312.3523   A 10.27 6.30 91.2 0 0 499.2514 322.4881   A 10.27 6.30 91.2 0 0 505.3349 332.8877   Z   M 448.5866 332.9399   A 10.20 6.34 90.3 0 0 454.9799 322.7732   A 10.20 6.34 90.3 0 0 448.6934 312.5401   A 10.20 6.34 90.3 0 0 442.3001 322.7068   A 10.20 6.34 90.3 0 0 448.5866 332.9399   Z   M 466.61 348.13   Q 467.47 345.18 469.75 342.09   Q 474.61 335.52 479.83 329.89   Q 481.51 328.07 479.92 326.17   Q 479.59 325.77 479.05 325.44   A 1.89 1.88 -52.1 0 0 476.70 325.74   Q 468.38 334.38 463.96 341.64   Q 459.88 348.33 462.11 354.88   C 463.81 359.87 469.63 366.80 475.71 368.12   C 477.52 368.51 478.95 366.95 478.86 365.26   Q 478.83 364.76 478.50 364.39   Q 477.36 363.15 475.75 362.40   C 470.86 360.12 464.91 354.00 466.61 348.13   Z   M 603.92 345.10   C 595.95 348.47 588.67 355.59 584.48 362.62   Q 583.59 364.12 584.74 365.44   Q 585.03 365.77 585.40 365.99   Q 587.41 367.15 588.61 365.17   Q 594.97 354.66 606.34 349.24   A 1.91 1.91 0.0 0 0 607.25 346.71   L 607.06 346.30   Q 606.07 344.19 603.92 345.10   Z   M 463.21 388.40   C 466.09 384.79 469.91 382.94 474.61 384.42   C 477.00 385.18 478.42 386.94 480.12 388.64   Q 481.52 390.03 483.19 388.99   Q 484.04 388.47 484.30 387.33   A 2.02 2.01 -56.0 0 0 484.00 385.78   Q 479.88 379.66 472.73 379.14   C 467.40 378.75 461.62 381.08 459.06 385.96   C 458.18 387.63 459.52 389.34 461.27 389.34   A 2.52 2.49 18.8 0 0 463.21 388.40   Z   M 586.73 475.97   C 575.80 498.24 550.71 507.41 527.90 498.20   Q 512.73 492.08 504.57 476.06   Q 503.81 474.58 502.23 475.09   Q 501.97 475.18 501.75 475.36   Q 500.77 476.14 501.20 477.32   Q 502.78 481.56 506.07 485.88   C 516.86 500.04 534.24 507.52 551.83 505.15   Q 575.29 501.99 588.10 481.60   Q 589.47 479.42 590.07 477.01   A 1.48 1.47 -66.9 0 0 589.43 475.40   C 588.52 474.82 587.23 474.95 586.73 475.97   Z" />
<path d="   M 741.12 276.85   L 740.45 282.66   A 1.68 1.68 0.0 0 1 738.72 284.15   L 732.48 283.93   A 1.68 1.68 0.0 0 1 730.86 282.10   L 731.38 276.49   A 1.68 1.68 0.0 0 1 733.06 274.96   L 739.46 274.98   A 1.68 1.68 0.0 0 1 741.12 276.85   Z" />
<ellipse cx="0.00" cy="0.00" transform="translate(785.26,283.55) rotate(-0.5)" rx="2.11" ry="1.79" />
<path d="   M 232.63 290.36   L 232.66 288.84   Q 232.69 287.34 233.82 288.32   C 236.03 290.26 232.81 294.44 230.15 291.89   Q 229.62 291.38 230.35 291.39   L 231.57 291.39   Q 232.61 291.40 232.63 290.36   Z" />
<ellipse cx="0.00" cy="0.00" transform="translate(785.51,305.36) rotate(-34.1)" rx="1.99" ry="1.79" />
<path d="   M 574.87 310.40   C 571.10 320.30 567.90 329.90 567.85 340.18   Q 567.82 346.19 568.03 352.47   Q 568.06 353.30 567.24 353.15   Q 566.99 353.11 566.87 352.89   C 563.86 347.49 564.04 340.50 564.88 334.50   Q 566.62 322.02 573.29 310.11   Q 573.62 309.51 574.26 309.75   L 574.64 309.89   Q 575.01 310.03 574.87 310.40   Z" />
<ellipse cx="0.00" cy="0.00" transform="translate(785.45,327.61) rotate(112.0)" rx="2.09" ry="1.78" />
<path d="   M 627.97 858.67   Q 628.04 857.75 627.12 857.75   L 563.14 857.83   Q 562.40 857.83 562.57 857.11   Q 563.20 854.42 563.70 851.53   C 566.70 833.89 557.90 817.37 542.37 808.83   Q 539.88 807.46 537.24 805.97   Q 536.53 805.57 537.32 805.37   Q 541.06 804.40 544.91 803.65   Q 611.67 790.65 680.57 776.89   Q 693.68 774.28 705.14 779.74   C 713.83 783.89 717.94 790.28 721.37 799.02   Q 722.12 800.95 724.07 800.72   A 2.25 2.25 0.0 0 0 726.04 798.15   Q 725.61 795.36 724.36 792.73   C 716.59 776.42 699.21 768.49 681.73 771.79   A 0.30 0.30 0.0 0 1 681.39 771.39   Q 688.08 753.45 705.83 747.24   C 709.12 746.09 712.48 745.66 715.81 744.91   Q 717.46 744.55 717.81 742.77   Q 717.89 742.36 717.66 741.98   Q 716.48 740.08 714.27 740.38   Q 693.22 743.27 682.89 758.64   A 0.26 0.26 0.0 0 1 682.41 758.51   L 672.09 627.60   Q 671.95 625.76 670.10 625.82   L 669.76 625.83   Q 667.41 625.90 667.59 628.25   L 671.02 673.27   A 0.54 0.54 0.0 0 1 670.48 673.85   L 658.45 673.87   A 0.59 0.59 0.0 0 1 657.86 673.28   L 657.88 647.75   Q 657.89 645.87 656.00 645.88   L 613.09 646.09   Q 611.95 646.09 611.94 647.23   L 611.83 673.22   Q 611.83 674.01 611.03 674.00   L 597.84 673.89   Q 594.15 673.85 594.14 677.55   Q 594.02 710.98 593.96 743.34   C 593.93 761.03 602.89 776.01 618.59 783.54   Q 619.80 784.12 618.48 784.38   Q 567.87 794.23 529.90 801.59   Q 527.25 802.10 527.30 804.88   A 1.77 1.74 13.9 0 0 528.22 806.38   L 533.29 809.17   Q 534.59 809.88 533.11 809.96   Q 526.20 810.36 519.47 806.93   C 505.54 799.84 492.37 791.89 477.21 787.93   Q 476.67 787.78 476.57 787.23   Q 474.68 776.89 464.20 778.02   Q 463.61 778.08 463.12 778.41   L 462.37 778.90   Q 461.74 779.31 461.63 778.57   Q 451.78 714.24 441.89 650.94   Q 440.70 643.29 440.80 638.24   Q 441.03 626.35 440.73 613.55   Q 440.68 611.37 438.52 611.63   L 437.98 611.70   A 1.83 1.82 -3.7 0 0 436.38 613.52   L 436.55 631.98   A 0.36 0.35 90.0 0 1 436.20 632.34   L 372.74 632.37   Q 372.14 632.37 372.26 631.78   Q 382.10 584.55 391.35 537.76   Q 393.92 524.79 396.18 518.55   C 407.38 487.72 437.02 469.09 469.82 469.81   Q 470.41 469.82 470.55 470.40   C 471.70 475.35 472.78 480.48 474.65 485.22   C 485.44 512.47 510.15 530.98 539.39 533.40   C 569.40 535.88 595.76 523.30 612.07 497.95   Q 619.83 485.88 622.21 470.43   Q 622.29 469.92 622.80 469.91   Q 649.66 469.49 672.20 470.05   Q 696.35 470.65 718.48 480.98   C 742.81 492.35 761.13 513.15 770.28 538.53   Q 773.04 546.18 775.92 557.47   Q 805.01 671.66 831.86 780.52   C 835.44 795.05 835.79 811.95 831.24 826.79   C 821.69 858.00 793.90 877.07 762.71 881.75   Q 755.85 882.78 743.76 882.75   Q 688.98 882.60 626.59 882.67   A 0.39 0.38 2.0 0 1 626.20 882.26   L 627.97 858.67   Z" />
<path d="   M 861.27 607.87   C 861.70 620.88 853.63 630.84 843.42 637.78   Q 842.83 638.18 843.01 637.49   Q 845.81 626.46 848.71 617.98   C 850.10 613.94 853.81 604.57 859.11 604.75   C 860.59 604.80 861.22 606.65 861.27 607.87   Z" />
<path d="   M 835.86 645.08   A 0.65 0.64 -65.2 0 1 834.99 645.40   C 829.90 643.00 827.92 630.32 827.61 625.24   A 1.74 1.73 -15.4 0 1 828.55 623.59   C 831.76 621.94 834.45 623.33 836.13 626.31   C 839.54 632.37 838.53 639.01 835.86 645.08   Z" />
<rect x="-1.35" y="-11.71" transform="translate(651.72,662.17) rotate(0.1)" width="2.70" height="23.42" rx="1.08" />
<path d="   M 831.18 680.88   C 824.39 680.13 818.89 668.83 818.10 663.18   C 817.83 661.30 817.79 659.02 819.38 657.68   Q 822.18 655.30 825.64 657.22   C 829.20 659.20 831.37 665.33 831.82 668.96   Q 832.46 674.05 832.01 680.19   Q 831.96 680.96 831.18 680.88   Z" />
<path d="   M 838.15 693.28   Q 837.32 693.83 837.23 692.83   C 836.96 689.52 836.77 686.30 837.94 682.95   Q 841.64 672.29 848.93 665.31   C 851.44 662.91 855.85 659.63 859.34 661.40   A 1.55 1.55 0.0 0 1 860.17 662.55   C 862.14 675.20 847.53 687.07 838.15 693.28   Z" />
<path d="   M 672.50 693.40   L 598.94 693.53   A 0.30 0.30 0.0 0 1 598.64 693.23   L 598.63 678.63   A 0.30 0.30 0.0 0 1 598.93 678.33   L 671.24 678.22   A 0.30 0.30 0.0 0 1 671.54 678.49   L 672.80 693.07   A 0.30 0.30 0.0 0 1 672.50 693.40   Z" />
<rect x="-7.79" y="-1.71" transform="translate(199.80,681.50) rotate(-0.1)" width="15.58" height="3.42" rx="1.21" />
<path d="   M 599.06 697.91   L 672.69 697.86   A 0.45 0.45 0.0 0 1 673.14 698.27   Q 675.72 729.80 678.13 762.07   Q 678.57 767.90 675.85 772.51   A 1.14 1.14 0.0 0 1 675.08 773.06   Q 654.07 777.26 631.76 781.57   C 629.55 782.00 627.70 782.63 625.44 781.72   C 612.69 776.55 603.54 768.03 599.82 754.55   Q 598.16 748.51 598.31 737.94   Q 598.61 716.56 598.54 698.43   A 0.52 0.52 0.0 0 1 599.06 697.91   Z" />
<rect x="180.98" y="700.79" width="182.28" height="3.50" rx="1.48" />
<path d="   M 847.72 727.85   C 849.23 720.70 852.14 708.43 859.53 705.45   C 864.55 703.43 866.42 707.80 865.93 711.98   C 864.76 721.86 857.29 729.83 848.49 733.82   A 0.92 0.92 0.0 0 1 847.19 732.99   Q 847.15 730.50 847.72 727.85   Z" />
<path d="   M 829.82 725.87   C 827.45 722.88 821.87 714.55 828.19 712.78   C 831.80 711.77 834.86 714.28 836.94 717.08   Q 841.86 723.68 842.00 731.82   A 0.54 0.54 0.0 0 1 841.48 732.37   C 836.58 732.55 832.80 729.62 829.82 725.87   Z" />
<path d="   M 854.91 802.54   C 851.25 798.92 845.68 797.93 842.62 803.07   C 841.01 805.79 841.57 809.46 843.34 812.00   Q 847.79 818.45 855.71 818.55   Q 855.94 818.55 855.94 818.79   L 855.86 824.53   A 0.38 0.38 0.0 0 1 855.48 824.90   L 837.22 824.88   Q 836.55 824.88 836.71 824.23   C 840.71 808.21 839.20 791.20 834.78 773.50   Q 827.86 745.79 821.78 722.09   Q 821.72 721.87 821.94 721.79   L 822.18 721.71   Q 822.20 721.70 822.21 721.73   Q 825.34 729.26 831.48 733.79   Q 836.31 737.35 843.11 736.95   Q 843.70 736.91 843.85 737.48   Q 846.13 745.95 849.75 754.90   Q 850.19 756.02 849.15 755.42   C 844.46 752.74 838.99 750.05 833.81 752.98   C 831.99 754.01 830.95 755.70 831.62 757.83   C 834.66 767.56 841.80 781.80 853.04 780.86   Q 853.62 780.82 853.67 781.39   C 854.29 788.28 855.77 795.44 855.49 802.31   A 0.34 0.34 0.0 0 1 854.91 802.54   Z" />
<path d="   M 872.27 744.18   C 874.71 751.24 862.80 763.43 857.57 767.62   A 0.43 0.43 0.0 0 1 856.87 767.32   Q 855.76 754.90 864.01 744.80   Q 865.10 743.47 867.02 742.47   C 868.93 741.49 871.53 742.05 872.27 744.18   Z" />
<path d="   M 852.20 776.29   Q 848.04 776.52 844.89 773.02   Q 839.10 766.58 836.18 757.90   A 1.47 1.47 0.0 0 1 837.51 755.96   Q 841.24 755.78 844.45 757.99   Q 853.07 763.92 852.72 775.77   A 0.55 0.54 -0.6 0 1 852.20 776.29   Z" />
<path d="   M 471.75 787.13   L 464.01 786.96   A 1.59 1.59 0.0 0 1 462.71 784.50   Q 465.16 780.72 468.88 782.98   Q 470.97 784.26 472.12 786.55   A 0.40 0.40 0.0 0 1 471.75 787.13   Z" />
<path d="   M 477.46 804.40   Q 477.38 803.57 476.68 802.85   A 1.68 1.67 62.2 0 0 475.17 802.38   L 465.67 804.23   Q 464.99 804.37 464.91 803.68   L 463.61 792.35   Q 463.52 791.55 464.32 791.53   Q 477.83 791.29 491.12 797.60   Q 501.19 802.38 512.90 808.79   C 519.99 812.68 529.22 816.21 536.90 813.31   C 538.42 812.74 540.09 812.74 541.50 813.61   C 556.32 822.80 564.00 840.25 557.20 856.99   A 1.28 1.27 10.7 0 1 556.03 857.78   L 484.76 857.83   A 0.72 0.72 0.0 0 1 484.08 857.35   C 482.11 851.62 477.73 849.85 472.06 851.70   Q 471.47 851.90 471.39 851.28   L 468.97 833.50   Q 468.90 832.99 469.41 832.87   L 478.47 830.73   Q 480.38 830.27 479.77 828.41   L 479.56 827.74   Q 478.94 825.83 476.97 826.23   L 468.53 827.96   A 0.29 0.29 0.0 0 1 468.19 827.71   L 465.84 809.83   Q 465.76 809.22 466.36 809.09   L 475.46 807.12   Q 477.66 806.65 477.46 804.40   Z" />
<path d="   M 867.94 796.52   Q 867.78 803.26 860.99 807.17   A 0.40 0.39 72.3 0 1 860.40 806.86   Q 859.76 799.33 864.70 795.39   Q 865.93 794.41 867.23 795.22   A 1.50 1.48 16.6 0 1 867.94 796.52   Z" />
<path d="   M 847.66 804.48   Q 848.51 804.22 849.43 804.40   Q 856.85 805.86 855.89 813.52   Q 855.82 814.11 855.22 814.09   Q 848.49 813.87 846.04 807.92   A 2.58 2.57 70.3 0 1 847.66 804.48   Z" />
<path d="   M 237.12 820.02   L 188.64 820.15   A 0.46 0.46 0.0 0 1 188.18 819.75   L 186.90 809.41   A 0.46 0.46 0.0 0 1 187.36 808.89   L 235.84 808.77   A 0.46 0.46 0.0 0 1 236.30 809.17   L 237.58 819.50   A 0.46 0.46 0.0 0 1 237.12 820.02   Z" />
<path d="   M 780.90 881.74   C 806.19 874.39 827.64 854.15 835.24 828.91   Q 835.70 827.38 835.70 828.98   L 835.71 882.01   A 0.72 0.72 0.0 0 1 834.99 882.73   L 781.04 882.72   Q 777.55 882.72 780.90 881.74   Z" />
<rect x="840.10" y="829.34" width="38.70" height="53.38" rx="0.56" />
</g>
<g fill="#000000" id="Group-000000">
<path d="   M 215.95 0.00   L 215.98 161.22   A 0.30 0.30 0.0 0 0 216.28 161.52   L 280.97 161.58   Q 283.13 161.58 283.18 163.74   Q 283.18 163.87 283.22 163.99   Q 283.91 166.13 281.66 166.13   Q 214.66 166.05 147.64 166.05   Q 144.19 166.05 140.69 165.87   Q 138.99 165.78 138.81 164.09   Q 138.79 163.93 138.76 163.76   Q 138.46 162.03 140.21 161.92   Q 143.21 161.72 146.11 161.70   Q 180.89 161.49 211.05 161.51   A 0.66 0.66 0.0 0 0 211.71 160.85   L 211.69 0.00   L 215.95 0.00   Z" />
<path d="   M 124.88 1024.00   L 120.61 1024.00   L 120.68 885.04   Q 120.68 882.55 123.17 882.56   L 141.03 882.66   A 0.65 0.64 -3.9 0 0 141.67 881.93   L 107.91 633.98   A 1.31 1.31 0.0 0 1 108.59 632.65   Q 109.16 632.33 109.81 632.33   Q 238.08 632.36 366.76 632.34   Q 367.62 632.34 367.80 631.49   Q 378.38 579.53 388.55 529.06   C 395.15 496.28 419.71 472.50 452.48 466.46   Q 459.36 465.19 470.30 465.23   Q 480.12 465.27 489.42 465.36   C 497.94 465.43 503.89 465.18 503.87 455.24   Q 503.84 443.46 503.94 433.08   A 0.60 0.60 0.0 0 0 503.38 432.48   C 476.45 430.40 440.56 419.34 426.50 394.38   C 422.16 386.67 422.03 380.42 421.62 370.03   Q 419.89 326.32 418.19 282.30   Q 418.16 281.72 417.65 281.45   C 399.12 271.78 384.17 254.95 381.14 234.11   Q 381.04 233.40 380.33 233.40   L 363.98 233.26   A 0.52 0.51 0.6 0 0 363.45 233.77   L 363.41 253.74   Q 363.41 255.07 362.08 255.16   Q 356.57 255.55 350.55 255.28   Q 350.01 255.26 350.01 255.80   L 350.02 317.93   Q 350.02 320.63 347.32 320.63   L 71.33 320.60   A 2.14 2.14 0.0 0 1 69.19 318.46   L 69.22 252.48   Q 69.22 250.65 71.04 250.67   L 71.48 250.68   Q 73.69 250.70 73.69 252.91   L 73.76 315.68   A 0.42 0.42 0.0 0 0 74.18 316.10   L 157.29 316.09   A 0.38 0.37 0.0 0 0 157.67 315.72   L 157.50 234.00   Q 157.50 233.25 156.75 233.25   L 74.07 233.29   A 0.36 0.36 0.0 0 0 73.71 233.66   L 73.85 243.52   Q 73.89 245.80 71.61 245.88   L 71.16 245.90   Q 69.37 245.97 69.35 244.18   L 69.23 233.97   Q 69.23 233.21 68.47 233.22   L 42.65 233.32   Q 40.21 233.32 40.43 230.90   L 40.47 230.42   Q 40.63 228.71 42.34 228.70   L 50.33 228.68   Q 51.08 228.67 51.08 227.92   L 51.07 201.39   A 2.78 2.78 0.0 0 1 53.90 198.61   L 68.76 198.90   A 0.42 0.41 0.7 0 0 69.19 198.49   L 69.18 163.78   Q 69.18 161.47 71.49 161.48   L 111.52 161.59   Q 112.90 161.59 113.09 162.96   L 113.36 164.92   A 1.05 1.05 0.0 0 1 112.32 166.11   L 74.20 166.01   A 0.54 0.54 0.0 0 0 73.65 166.55   L 73.70 198.11   Q 73.70 198.78 74.37 198.79   L 99.29 198.89   A 0.92 0.91 -4.5 0 1 100.18 199.64   L 100.77 203.08   Q 100.85 203.56 101.34 203.56   L 120.28 203.73   A 2.08 2.08 0.0 0 1 122.35 205.81   L 122.44 228.03   A 0.59 0.59 0.0 0 0 123.03 228.61   L 144.94 228.58   A 0.33 0.33 0.0 0 0 145.27 228.25   L 145.36 201.25   A 1.70 1.70 0.0 0 1 145.63 200.33   Q 147.62 197.26 149.46 200.76   A 2.34 2.34 0.0 0 1 149.74 201.87   L 149.69 227.96   Q 149.69 228.72 150.45 228.72   L 156.71 228.68   A 0.93 0.92 0.6 0 0 157.63 227.79   L 157.74 224.87   Q 157.79 223.48 159.17 223.56   L 160.25 223.61   Q 161.84 223.69 161.88 225.29   L 161.96 228.08   Q 161.98 228.69 162.58 228.69   L 244.71 228.67   Q 245.34 228.67 245.34 228.04   L 245.44 216.98   Q 245.46 214.92 247.53 215.04   L 247.89 215.06   Q 249.61 215.16 249.63 216.88   L 249.77 227.99   Q 249.78 228.70 250.49 228.70   L 302.14 228.61   A 0.35 0.34 90.0 0 0 302.48 228.26   L 302.39 218.64   A 1.53 1.53 0.0 0 1 304.10 217.10   L 304.54 217.16   A 2.23 2.21 90.0 0 1 306.49 219.12   Q 307.00 223.82 306.75 228.08   Q 306.71 228.67 307.30 228.67   L 321.68 228.61   Q 322.26 228.60 322.33 228.02   L 322.51 226.46   A 1.54 1.53 -86.4 0 1 324.04 225.10   L 345.04 225.19   A 0.48 0.48 0.0 0 0 345.52 224.71   L 345.50 166.69   A 0.55 0.54 0.0 0 0 344.95 166.15   L 312.93 166.00   Q 311.30 165.99 311.35 164.36   L 311.37 163.62   Q 311.41 162.06 312.95 161.87   Q 315.47 161.55 317.89 161.54   Q 332.28 161.52 347.63 161.58   Q 350.01 161.59 350.01 163.97   L 350.05 224.55   Q 350.05 225.18 350.68 225.17   Q 355.95 225.15 361.63 225.11   A 1.84 1.78 -82.1 0 1 363.33 227.44   Q 363.19 227.92 363.40 228.33   A 0.61 0.60 -13.7 0 0 363.96 228.67   L 380.00 228.55   A 0.46 0.45 -2.4 0 0 380.45 228.07   C 379.52 208.98 387.53 192.12 402.98 181.49   C 414.97 173.24 428.57 170.89 443.27 172.42   C 455.04 173.64 465.76 169.26 473.62 160.71   C 476.24 157.86 478.93 155.00 481.88 152.54   C 504.93 133.29 539.06 131.62 565.06 145.87   C 584.43 156.49 597.97 174.74 604.54 196.17   A 1.14 1.13 -0.4 0 0 605.32 196.93   C 622.60 201.60 636.87 213.13 646.73 228.16   A 1.05 1.04 73.2 0 0 647.60 228.63   L 741.36 228.64   A 0.37 0.36 90.0 0 0 741.72 228.27   L 741.69 200.53   A 2.31 2.30 -0.4 0 1 743.98 198.22   L 770.26 198.10   Q 772.37 198.09 772.74 200.16   L 772.80 200.48   A 1.59 1.59 0.0 0 1 771.25 202.34   L 746.46 202.58   Q 746.00 202.58 746.00 203.04   L 746.13 267.13   Q 746.13 268.15 745.12 268.12   L 743.00 268.05   Q 741.73 268.01 741.73 266.74   L 741.70 233.69   A 0.37 0.37 0.0 0 0 741.33 233.32   L 650.54 233.29   Q 649.86 233.29 650.16 233.91   C 665.31 264.34 662.13 299.52 649.60 331.11   Q 633.42 371.89 603.09 405.09   C 599.08 409.48 593.77 413.02 587.60 412.69   Q 587.02 412.66 587.03 413.23   Q 587.33 432.88 587.03 453.01   C 586.88 463.46 592.65 465.44 601.23 465.38   Q 637.04 465.14 669.52 465.42   C 689.45 465.59 710.89 470.82 728.64 481.16   C 754.08 495.97 771.09 520.88 778.38 549.37   Q 799.80 633.13 820.26 714.86   Q 820.58 716.14 820.90 714.86   C 822.73 707.49 831.11 706.18 836.52 710.76   Q 837.19 711.33 837.01 710.47   C 836.59 708.43 836.19 706.29 835.56 704.29   Q 832.75 695.42 832.34 686.67   Q 832.31 686.10 831.75 685.98   Q 824.96 684.43 820.87 679.66   C 816.64 674.71 813.37 667.72 813.65 661.25   C 813.93 654.46 819.82 650.08 826.33 652.75   Q 830.54 654.47 832.60 659.13   Q 833.08 660.20 833.30 659.05   L 834.61 652.12   Q 834.71 651.58 834.26 651.26   C 826.01 645.47 823.23 634.12 823.58 624.91   C 823.67 622.63 825.01 620.52 826.97 619.41   C 832.79 616.11 838.31 620.59 840.65 625.67   Q 841.18 626.83 841.53 625.61   Q 842.91 620.79 844.66 615.85   C 846.83 609.73 849.84 603.02 856.15 600.70   C 864.01 597.81 866.20 605.95 865.61 611.71   C 864.12 626.34 854.65 636.02 842.08 643.75   C 841.13 644.34 840.69 645.36 840.41 646.38   Q 836.82 659.60 836.72 673.40   Q 836.71 674.94 837.40 673.56   Q 840.76 666.88 845.58 662.13   C 849.49 658.27 857.74 653.68 862.50 658.30   Q 864.29 660.05 864.56 662.76   C 866.04 677.95 850.52 690.87 838.89 698.06   Q 838.48 698.31 838.60 698.78   Q 841.01 708.08 843.74 717.87   C 844.02 718.89 843.99 719.99 844.31 721.01   Q 844.62 721.97 844.85 720.99   C 846.56 713.86 849.63 705.61 856.19 702.11   C 863.43 698.24 870.40 701.95 870.30 710.44   C 870.16 723.40 861.06 732.90 849.47 738.31   Q 848.87 738.59 849.06 739.23   L 853.52 754.22   Q 853.88 755.44 854.18 754.20   C 855.85 747.29 859.39 741.01 865.65 738.36   C 870.07 736.49 874.97 738.12 876.44 742.90   C 879.60 753.20 866.92 766.24 859.17 771.64   C 858.60 772.03 858.08 772.03 857.52 772.31   Q 857.21 772.46 857.24 772.81   L 859.41 793.22   Q 859.48 793.86 859.94 793.42   C 868.23 785.55 875.35 794.30 870.96 802.95   Q 867.72 809.33 861.26 811.93   Q 860.70 812.15 860.69 812.76   L 860.38 824.55   A 0.41 0.41 0.0 0 0 860.80 824.97   L 880.87 824.81   A 2.39 2.39 0.0 0 1 883.28 827.20   L 883.23 882.21   Q 883.22 882.70 883.71 882.70   L 1013.09 882.68   Q 1015.37 882.68 1015.34 884.95   Q 1015.34 885.15 1015.32 885.35   A 2.00 2.00 0.0 0 1 1013.34 887.10   Q 889.69 887.05 765.50 886.98   Q 531.72 886.83 300.75 886.81   Q 209.63 886.81 125.52 887.06   Q 125.03 887.06 125.03 887.56   L 124.93 965.83   A 0.26 0.26 0.0 0 0 125.19 966.09   Q 568.97 967.49 1012.84 968.42   Q 1015.71 968.42 1015.16 971.12   A 1.93 1.93 0.0 0 1 1013.25 972.68   Q 562.74 971.56 141.27 970.39   Q 133.62 970.37 125.40 970.47   A 0.52 0.52 0.0 0 0 124.89 970.99   L 124.88 1024.00   Z   M 80.17 210.50   Q 80.29 210.51 80.51 210.53   Q 82.55 210.73 82.55 212.79   L 82.52 228.03   A 0.51 0.51 0.0 0 0 83.03 228.54   L 96.00 228.64   A 0.39 0.39 0.0 0 0 96.39 228.26   L 96.46 203.87   Q 96.46 203.15 95.75 203.15   L 56.03 203.09   Q 55.40 203.09 55.40 203.72   L 55.38 228.15   A 0.51 0.51 0.0 0 0 55.89 228.66   L 77.45 228.53   Q 77.93 228.53 77.93 228.05   L 78.06 212.40   Q 78.07 210.29 80.17 210.50   Z   M 118.05 208.16   A 0.40 0.40 0.0 0 0 117.65 207.76   L 101.27 207.76   A 0.40 0.40 0.0 0 0 100.87 208.16   L 100.87 228.22   A 0.40 0.40 0.0 0 0 101.27 228.62   L 117.65 228.62   A 0.40 0.40 0.0 0 0 118.05 228.22   L 118.05 208.16   Z   M 358.8444 230.5457   A 0.36 0.36 0.0 0 0 358.4856 230.1844   L 327.3458 230.0757   A 0.36 0.36 0.0 0 0 326.9846 230.4345   L 326.9156 250.1943   A 0.36 0.36 0.0 0 0 327.2744 250.5556   L 358.4142 250.6643   A 0.36 0.36 0.0 0 0 358.7754 250.3055   L 358.8444 230.5457   Z   M 248.09 293.89   Q 249.84 293.86 249.83 295.60   L 249.79 315.57   A 0.53 0.52 -0.0 0 0 250.32 316.09   L 344.93 316.10   Q 345.47 316.10 345.47 315.56   L 345.47 255.73   A 0.58 0.58 0.0 0 0 344.88 255.15   Q 335.53 255.30 324.56 255.14   Q 323.18 255.12 322.32 254.02   Q 322.05 253.69 321.65 253.82   C 319.35 254.60 317.83 254.22 315.50 254.14   Q 313.68 254.08 313.61 252.10   A 1.91 1.91 0.0 0 1 315.16 250.15   Q 318.41 249.53 321.46 250.60   Q 322.15 250.84 322.16 250.11   L 322.29 233.95   Q 322.29 233.36 321.70 233.36   L 250.29 233.33   Q 249.67 233.33 249.67 233.95   L 249.79 280.74   Q 249.79 281.76 248.76 281.74   L 246.53 281.71   A 1.23 1.23 0.0 0 1 245.32 280.48   L 245.39 233.82   A 0.44 0.44 0.0 0 0 244.95 233.38   L 162.49 233.28   Q 162.01 233.28 162.01 233.76   L 162.11 315.81   A 0.31 0.31 0.0 0 0 162.42 316.12   L 245.01 316.12   A 0.39 0.38 0.0 0 0 245.40 315.74   L 245.32 295.74   Q 245.32 293.93 247.13 293.90   L 248.09 293.89   Z   M 551.55 423.76   C 554.45 422.93 557.22 425.13 556.72 428.09   Q 556.26 430.85 554.79 433.77   C 548.66 445.96 539.59 452.70 526.40 455.89   Q 517.53 458.03 508.91 458.44   Q 508.35 458.47 508.24 459.02   C 506.16 469.89 498.46 470.05 488.91 469.85   Q 482.51 469.72 475.52 469.89   A 0.45 0.45 0.0 0 0 475.09 470.42   C 481.79 503.82 508.89 527.68 543.01 529.15   C 580.13 530.75 610.66 506.90 617.73 470.53   Q 617.85 469.90 617.22 469.89   Q 609.75 469.74 602.64 469.91   Q 594.14 470.11 590.32 468.22   Q 582.55 464.40 582.57 454.88   Q 582.60 435.47 582.64 411.91   C 582.64 410.61 581.86 410.11 581.03 409.32   C 574.53 403.15 575.50 392.18 578.74 384.35   Q 580.82 379.32 586.14 379.35   C 591.89 379.39 597.96 379.55 603.28 377.41   Q 615.60 372.46 618.97 359.48   C 621.65 349.15 618.90 338.07 608.49 333.61   C 601.46 330.59 592.35 332.87 585.24 335.16   Q 584.67 335.34 584.56 335.93   C 583.19 343.37 576.87 362.56 566.14 358.65   C 561.57 356.98 559.64 351.19 559.08 346.74   C 557.61 335.22 560.86 320.93 566.90 309.89   Q 567.26 309.22 566.51 309.11   C 548.68 306.58 536.98 296.82 535.26 278.20   Q 534.69 272.11 536.09 265.75   A 0.33 0.33 0.0 0 0 535.54 265.43   C 505.67 292.89 460.84 298.84 423.60 284.48   Q 422.87 284.20 422.91 284.99   Q 424.80 324.59 426.45 372.99   C 426.71 380.55 427.73 387.39 432.00 393.79   Q 438.88 404.11 450.22 410.77   C 479.88 428.20 517.90 433.41 551.55 423.76   Z   M 567.85 340.18   C 567.90 329.90 571.10 320.30 574.87 310.40   Q 575.01 310.03 574.64 309.89   L 574.26 309.75   Q 573.62 309.51 573.29 310.11   Q 566.62 322.02 564.88 334.50   C 564.04 340.50 563.86 347.49 566.87 352.89   Q 566.99 353.11 567.24 353.15   Q 568.06 353.30 568.03 352.47   Q 567.82 346.19 567.85 340.18   Z   M 627.97 858.67   L 626.20 882.26   A 0.39 0.38 2.0 0 0 626.59 882.67   Q 688.98 882.60 743.76 882.75   Q 755.85 882.78 762.71 881.75   C 793.90 877.07 821.69 858.00 831.24 826.79   C 835.79 811.95 835.44 795.05 831.86 780.52   Q 805.01 671.66 775.92 557.47   Q 773.04 546.18 770.28 538.53   C 761.13 513.15 742.81 492.35 718.48 480.98   Q 696.35 470.65 672.20 470.05   Q 649.66 469.49 622.80 469.91   Q 622.29 469.92 622.21 470.43   Q 619.83 485.88 612.07 497.95   C 595.76 523.30 569.40 535.88 539.39 533.40   C 510.15 530.98 485.44 512.47 474.65 485.22   C 472.78 480.48 471.70 475.35 470.55 470.40   Q 470.41 469.82 469.82 469.81   C 437.02 469.09 407.38 487.72 396.18 518.55   Q 393.92 524.79 391.35 537.76   Q 382.10 584.55 372.26 631.78   Q 372.14 632.37 372.74 632.37   L 436.20 632.34   A 0.36 0.35 -90.0 0 0 436.55 631.98   L 436.38 613.52   A 1.83 1.82 -3.7 0 1 437.98 611.70   L 438.52 611.63   Q 440.68 611.37 440.73 613.55   Q 441.03 626.35 440.80 638.24   Q 440.70 643.29 441.89 650.94   Q 451.78 714.24 461.63 778.57   Q 461.74 779.31 462.37 778.90   L 463.12 778.41   Q 463.61 778.08 464.20 778.02   Q 474.68 776.89 476.57 787.23   Q 476.67 787.78 477.21 787.93   C 492.37 791.89 505.54 799.84 519.47 806.93   Q 526.20 810.36 533.11 809.96   Q 534.59 809.88 533.29 809.17   L 528.22 806.38   A 1.77 1.74 13.9 0 1 527.30 804.88   Q 527.25 802.10 529.90 801.59   Q 567.87 794.23 618.48 784.38   Q 619.80 784.12 618.59 783.54   C 602.89 776.01 593.93 761.03 593.96 743.34   Q 594.02 710.98 594.14 677.55   Q 594.15 673.85 597.84 673.89   L 611.03 674.00   Q 611.83 674.01 611.83 673.22   L 611.94 647.23   Q 611.95 646.09 613.09 646.09   L 656.00 645.88   Q 657.89 645.87 657.88 647.75   L 657.86 673.28   A 0.59 0.59 0.0 0 0 658.45 673.87   L 670.48 673.85   A 0.54 0.54 0.0 0 0 671.02 673.27   L 667.59 628.25   Q 667.41 625.90 669.76 625.83   L 670.10 625.82   Q 671.95 625.76 672.09 627.60   L 682.41 758.51   A 0.26 0.26 0.0 0 0 682.89 758.64   Q 693.22 743.27 714.27 740.38   Q 716.48 740.08 717.66 741.98   Q 717.89 742.36 717.81 742.77   Q 717.46 744.55 715.81 744.91   C 712.48 745.66 709.12 746.09 705.83 747.24   Q 688.08 753.45 681.39 771.39   A 0.30 0.30 0.0 0 0 681.73 771.79   C 699.21 768.49 716.59 776.42 724.36 792.73   Q 725.61 795.36 726.04 798.15   A 2.25 2.25 0.0 0 1 724.07 800.72   Q 722.12 800.95 721.37 799.02   C 717.94 790.28 713.83 783.89 705.14 779.74   Q 693.68 774.28 680.57 776.89   Q 611.67 790.65 544.91 803.65   Q 541.06 804.40 537.32 805.37   Q 536.53 805.57 537.24 805.97   Q 539.88 807.46 542.37 808.83   C 557.90 817.37 566.70 833.89 563.70 851.53   Q 563.20 854.42 562.57 857.11   Q 562.40 857.83 563.14 857.83   L 627.12 857.75   Q 628.04 857.75 627.97 858.67   Z   M 843.42 637.78   C 853.63 630.84 861.70 620.88 861.27 607.87   C 861.22 606.65 860.59 604.80 859.11 604.75   C 853.81 604.57 850.10 613.94 848.71 617.98   Q 845.81 626.46 843.01 637.49   Q 842.83 638.18 843.42 637.78   Z   M 835.86 645.08   C 838.53 639.01 839.54 632.37 836.13 626.31   C 834.45 623.33 831.76 621.94 828.55 623.59   A 1.74 1.73 -15.4 0 0 827.61 625.24   C 827.92 630.32 829.90 643.00 834.99 645.40   A 0.65 0.64 -65.2 0 0 835.86 645.08   Z   M 653.0886 651.5424   A 1.08 1.08 0.0 0 0 652.0104 650.4605   L 651.4704 650.4595   A 1.08 1.08 0.0 0 0 650.3886 651.5377   L 650.3514 672.7976   A 1.08 1.08 0.0 0 0 651.4296 673.8795   L 651.9696 673.8805   A 1.08 1.08 0.0 0 0 653.0514 672.8023   L 653.0886 651.5424   Z   M 818.10 663.18   C 818.89 668.83 824.39 680.13 831.18 680.88   Q 831.96 680.96 832.01 680.19   Q 832.46 674.05 831.82 668.96   C 831.37 665.33 829.20 659.20 825.64 657.22   Q 822.18 655.30 819.38 657.68   C 817.79 659.02 817.83 661.30 818.10 663.18   Z   M 838.15 693.28   C 847.53 687.07 862.14 675.20 860.17 662.55   A 1.55 1.55 0.0 0 0 859.34 661.40   C 855.85 659.63 851.44 662.91 848.93 665.31   Q 841.64 672.29 837.94 682.95   C 836.77 686.30 836.96 689.52 837.23 692.83   Q 837.32 693.83 838.15 693.28   Z   M 672.50 693.40   A 0.30 0.30 0.0 0 0 672.80 693.07   L 671.54 678.49   A 0.30 0.30 0.0 0 0 671.24 678.22   L 598.93 678.33   A 0.30 0.30 0.0 0 0 598.63 678.63   L 598.64 693.23   A 0.30 0.30 0.0 0 0 598.94 693.53   L 672.50 693.40   Z   M 207.5891 680.9864   A 1.21 1.21 0.0 0 0 206.3770 679.7785   L 193.2170 679.8015   A 1.21 1.21 0.0 0 0 192.0091 681.0136   L 192.0109 682.0136   A 1.21 1.21 0.0 0 0 193.2230 683.2215   L 206.3830 683.1985   A 1.21 1.21 0.0 0 0 207.5909 681.9864   L 207.5891 680.9864   Z   M 599.06 697.91   A 0.52 0.52 0.0 0 0 598.54 698.43   Q 598.61 716.56 598.31 737.94   Q 598.16 748.51 599.82 754.55   C 603.54 768.03 612.69 776.55 625.44 781.72   C 627.70 782.63 629.55 782.00 631.76 781.57   Q 654.07 777.26 675.08 773.06   A 1.14 1.14 0.0 0 0 675.85 772.51   Q 678.57 767.90 678.13 762.07   Q 675.72 729.80 673.14 698.27   A 0.45 0.45 0.0 0 0 672.69 697.86   L 599.06 697.91   Z   M 363.26 702.27   A 1.48 1.48 0.0 0 0 361.78 700.79   L 182.46 700.79   A 1.48 1.48 0.0 0 0 180.98 702.27   L 180.98 702.81   A 1.48 1.48 0.0 0 0 182.46 704.29   L 361.78 704.29   A 1.48 1.48 0.0 0 0 363.26 702.81   L 363.26 702.27   Z   M 847.72 727.85   Q 847.15 730.50 847.19 732.99   A 0.92 0.92 0.0 0 0 848.49 733.82   C 857.29 729.83 864.76 721.86 865.93 711.98   C 866.42 707.80 864.55 703.43 859.53 705.45   C 852.14 708.43 849.23 720.70 847.72 727.85   Z   M 829.82 725.87   C 832.80 729.62 836.58 732.55 841.48 732.37   A 0.54 0.54 0.0 0 0 842.00 731.82   Q 841.86 723.68 836.94 717.08   C 834.86 714.28 831.80 711.77 828.19 712.78   C 821.87 714.55 827.45 722.88 829.82 725.87   Z   M 854.91 802.54   A 0.34 0.34 0.0 0 0 855.49 802.31   C 855.77 795.44 854.29 788.28 853.67 781.39   Q 853.62 780.82 853.04 780.86   C 841.80 781.80 834.66 767.56 831.62 757.83   C 830.95 755.70 831.99 754.01 833.81 752.98   C 838.99 750.05 844.46 752.74 849.15 755.42   Q 850.19 756.02 849.75 754.90   Q 846.13 745.95 843.85 737.48   Q 843.70 736.91 843.11 736.95   Q 836.31 737.35 831.48 733.79   Q 825.34 729.26 822.21 721.73   Q 822.20 721.70 822.18 721.71   L 821.94 721.79   Q 821.72 721.87 821.78 722.09   Q 827.86 745.79 834.78 773.50   C 839.20 791.20 840.71 808.21 836.71 824.23   Q 836.55 824.88 837.22 824.88   L 855.48 824.90   A 0.38 0.38 0.0 0 0 855.86 824.53   L 855.94 818.79   Q 855.94 818.55 855.71 818.55   Q 847.79 818.45 843.34 812.00   C 841.57 809.46 841.01 805.79 842.62 803.07   C 845.68 797.93 851.25 798.92 854.91 802.54   Z   M 857.57 767.62   C 862.80 763.43 874.71 751.24 872.27 744.18   C 871.53 742.05 868.93 741.49 867.02 742.47   Q 865.10 743.47 864.01 744.80   Q 855.76 754.90 856.87 767.32   A 0.43 0.43 0.0 0 0 857.57 767.62   Z   M 852.20 776.29   A 0.55 0.54 -0.6 0 0 852.72 775.77   Q 853.07 763.92 844.45 757.99   Q 841.24 755.78 837.51 755.96   A 1.47 1.47 0.0 0 0 836.18 757.90   Q 839.10 766.58 844.89 773.02   Q 848.04 776.52 852.20 776.29   Z   M 464.01 786.96   L 471.75 787.13   A 0.40 0.40 0.0 0 0 472.12 786.55   Q 470.97 784.26 468.88 782.98   Q 465.16 780.72 462.71 784.50   A 1.59 1.59 0.0 0 0 464.01 786.96   Z   M 477.46 804.40   Q 477.66 806.65 475.46 807.12   L 466.36 809.09   Q 465.76 809.22 465.84 809.83   L 468.19 827.71   A 0.29 0.29 0.0 0 0 468.53 827.96   L 476.97 826.23   Q 478.94 825.83 479.56 827.74   L 479.77 828.41   Q 480.38 830.27 478.47 830.73   L 469.41 832.87   Q 468.90 832.99 468.97 833.50   L 471.39 851.28   Q 471.47 851.90 472.06 851.70   C 477.73 849.85 482.11 851.62 484.08 857.35   A 0.72 0.72 0.0 0 0 484.76 857.83   L 556.03 857.78   A 1.28 1.27 10.7 0 0 557.20 856.99   C 564.00 840.25 556.32 822.80 541.50 813.61   C 540.09 812.74 538.42 812.74 536.90 813.31   C 529.22 816.21 519.99 812.68 512.90 808.79   Q 501.19 802.38 491.12 797.60   Q 477.83 791.29 464.32 791.53   Q 463.52 791.55 463.61 792.35   L 464.91 803.68   Q 464.99 804.37 465.67 804.23   L 475.17 802.38   A 1.68 1.67 62.2 0 1 476.68 802.85   Q 477.38 803.57 477.46 804.40   Z   M 867.94 796.52   A 1.50 1.48 16.6 0 0 867.23 795.22   Q 865.93 794.41 864.70 795.39   Q 859.76 799.33 860.40 806.86   A 0.40 0.39 72.3 0 0 860.99 807.17   Q 867.78 803.26 867.94 796.52   Z   M 847.66 804.48   A 2.58 2.57 70.3 0 0 846.04 807.92   Q 848.49 813.87 855.22 814.09   Q 855.82 814.11 855.89 813.52   Q 856.85 805.86 849.43 804.40   Q 848.51 804.22 847.66 804.48   Z   M 237.12 820.02   A 0.46 0.46 0.0 0 0 237.58 819.50   L 236.30 809.17   A 0.46 0.46 0.0 0 0 235.84 808.77   L 187.36 808.89   A 0.46 0.46 0.0 0 0 186.90 809.41   L 188.18 819.75   A 0.46 0.46 0.0 0 0 188.64 820.15   L 237.12 820.02   Z   M 835.24 828.91   C 827.64 854.15 806.19 874.39 780.90 881.74   Q 777.55 882.72 781.04 882.72   L 834.99 882.73   A 0.72 0.72 0.0 0 0 835.71 882.01   L 835.70 828.98   Q 835.70 827.38 835.24 828.91   Z   M 878.80 829.90   A 0.56 0.56 0.0 0 0 878.24 829.34   L 840.66 829.34   A 0.56 0.56 0.0 0 0 840.10 829.90   L 840.10 882.16   A 0.56 0.56 0.0 0 0 840.66 882.72   L 878.24 882.72   A 0.56 0.56 0.0 0 0 878.80 882.16   L 878.80 829.90   Z" />
<path d="   M 132.35 162.60   Q 135.76 167.31 139.55 171.21   A 2.15 2.15 0.0 0 1 139.75 173.98   C 135.31 180.14 124.43 181.70 117.78 179.61   C 115.41 178.86 113.79 176.93 115.04 174.57   Q 117.63 169.68 118.99 165.24   A 1.11 1.09 24.5 0 0 118.51 163.98   Q 113.07 160.68 114.10 155.02   C 115.31 148.40 121.63 145.01 127.93 146.02   C 133.13 146.86 137.78 153.34 134.78 158.35   Q 133.78 160.02 132.42 161.48   Q 131.93 162.01 132.35 162.60   Z   M 131.0544 152.6727   A 6.94 5.22 -23.5 0 0 122.6085 150.6529   A 6.94 5.22 -23.5 0 0 118.3256 158.2073   A 6.94 5.22 -23.5 0 0 126.7715 160.2271   A 6.94 5.22 -23.5 0 0 131.0544 152.6727   Z   M 135.15 172.75   L 128.68 164.47   Q 128.25 163.91 127.54 163.92   C 125.26 163.97 123.23 164.75 122.40 167.11   Q 121.03 171.00 119.76 175.12   A 1.18 1.17 9.9 0 0 120.83 176.64   Q 128.00 176.97 134.93 173.66   Q 135.60 173.34 135.15 172.75   Z" />
<path d="   M 302.92 165.20   A 0.37 0.37 0.0 0 0 302.75 165.73   Q 305.69 170.39 309.00 174.16   A 1.61 1.60 49.6 0 1 308.82 176.45   C 302.37 181.83 291.45 182.76 284.60 177.30   A 1.81 1.81 0.0 0 1 284.25 174.83   L 289.84 167.04   A 0.82 0.81 -53.6 0 0 289.67 165.91   C 286.48 163.52 284.63 160.67 286.57 156.60   C 289.23 151.01 297.69 149.24 303.12 152.52   C 308.29 155.65 309.19 162.41 302.92 165.20   Z   M 303.0347 158.3665   A 6.63 4.16 -6.7 0 0 295.9646 155.0084   A 6.63 4.16 -6.7 0 0 289.8653 159.9135   A 6.63 4.16 -6.7 0 0 296.9354 163.2716   A 6.63 4.16 -6.7 0 0 303.0347 158.3665   Z   M 289.72 174.33   Q 288.79 176.04 290.67 176.54   Q 297.24 178.27 303.38 175.63   A 0.71 0.70 -25.0 0 0 303.74 174.66   Q 301.83 170.84 299.05 167.04   C 295.67 162.42 290.82 172.30 289.72 174.33   Z" />
<path d="   M 114.7265 198.0074   A 1.13 1.13 0.0 0 1 113.6024 199.1433   L 103.4425 199.1965   A 1.13 1.13 0.0 0 1 102.3066 198.0724   L 102.2535 187.9326   A 1.13 1.13 0.0 0 1 103.3776 186.7967   L 113.5375 186.7435   A 1.13 1.13 0.0 0 1 114.6734 187.8676   L 114.7265 198.0074   Z   M 110.58 191.40   A 0.57 0.57 0.0 0 0 110.00 190.88   L 107.50 190.94   A 0.57 0.57 0.0 0 0 106.95 191.48   L 106.81 194.45   A 0.57 0.57 0.0 0 0 107.39 195.05   L 110.30 194.97   A 0.57 0.57 0.0 0 0 110.85 194.35   L 110.58 191.40   Z" />
<path d="   M 133.7471 197.6937   A 1.48 1.48 0.0 0 1 132.2853 199.1916   L 122.8060 199.3074   A 1.48 1.48 0.0 0 1 121.3080 197.8456   L 121.1929 188.4263   A 1.48 1.48 0.0 0 1 122.6547 186.9284   L 132.1340 186.8126   A 1.48 1.48 0.0 0 1 133.6320 188.2744   L 133.7471 197.6937   Z   M 129.6468 192.2764   A 0.77 0.77 0.0 0 0 128.8822 191.5011   L 125.7223 191.4790   A 0.77 0.77 0.0 0 0 124.9469 192.2436   L 124.9332 194.2036   A 0.77 0.77 0.0 0 0 125.6978 194.9789   L 128.8577 195.0010   A 0.77 0.77 0.0 0 0 129.6331 194.2364   L 129.6468 192.2764   Z" />
<path d="   M 791.12 200.21   L 796.93 206.27   Q 797.34 206.70 797.22 207.28   Q 796.85 209.05 795.03 210.03   C 788.92 213.30 779.33 214.45 773.69 209.57   Q 772.34 208.40 773.59 207.12   Q 776.07 204.56 778.23 201.28   Q 778.93 200.21 777.82 199.57   Q 773.34 196.95 774.84 193.03   C 777.29 186.65 787.43 185.72 792.32 189.44   C 796.18 192.38 795.89 197.22 791.31 199.26   Q 790.54 199.60 791.12 200.21   Z   M 790.7519 193.8182   A 6.15 3.22 -4.4 0 0 784.3730 191.0795   A 6.15 3.22 -4.4 0 0 778.4881 194.7618   A 6.15 3.22 -4.4 0 0 784.8670 197.5005   A 6.15 3.22 -4.4 0 0 790.7519 193.8182   Z   M 788.03 201.91   C 786.08 199.55 783.87 199.29 782.09 201.86   Q 780.26 204.49 778.62 207.24   Q 777.97 208.33 779.20 208.63   Q 785.55 210.23 791.54 207.84   A 0.87 0.87 0.0 0 0 791.88 206.47   Q 789.86 204.12 788.03 201.91   Z" />
<rect x="-46.76" y="-2.16" transform="translate(844.95,199.98) rotate(-0.2)" width="93.52" height="4.32" rx="2.13" />
<path d="   M 303.65 208.62   C 302.22 211.19 300.66 214.13 298.44 216.15   C 297.51 216.99 296.24 216.57 295.51 215.72   A 1.60 1.59 39.7 0 1 295.33 213.86   L 301.42 203.41   Q 302.85 200.96 305.08 202.71   L 312.10 208.23   Q 313.94 209.68 312.71 211.68   Q 312.51 212.00 312.24 212.28   Q 311.22 213.30 310.08 212.44   L 304.68 208.40   Q 304.04 207.92 303.65 208.62   Z" />
<path d="   M 914.25 359.56   Q 914.83 359.56 914.83 358.99   L 913.60 204.05   Q 913.58 201.79 915.84 201.85   Q 916.03 201.86 916.22 201.88   Q 918.03 202.14 918.04 203.97   L 918.17 228.21   Q 918.17 228.74 918.71 228.74   L 948.78 228.66   Q 950.66 228.66 950.81 230.53   L 950.84 230.90   Q 951.04 233.33 948.60 233.33   L 918.82 233.33   Q 918.21 233.33 918.22 233.93   L 919.12 361.82   A 2.11 2.11 0.0 0 1 917.01 363.95   L 773.49 363.95   A 1.98 1.96 62.8 0 1 772.33 363.57   Q 768.84 361.06 773.67 359.52   A 0.32 0.24 26.6 0 1 773.78 359.50   L 914.25 359.56   Z" />
<path d="   M 786.16 263.54   L 785.59 251.39   Q 785.51 249.78 786.64 248.64   C 789.23 246.01 793.83 242.50 793.77 238.61   Q 793.68 232.53 793.64 226.28   Q 793.62 223.63 796.27 223.66   L 809.63 223.84   A 1.18 1.17 -88.6 0 1 810.79 225.07   Q 810.72 226.77 812.08 227.59   Q 812.62 227.93 812.67 228.57   Q 812.94 232.58 812.36 236.31   Q 812.26 236.96 811.63 237.14   C 809.76 237.66 807.23 237.97 806.88 240.29   A 1.96 1.95 -87.5 0 1 805.06 241.96   L 797.32 242.44   A 1.11 1.07 -70.4 0 0 796.58 242.81   L 789.66 250.78   Q 789.29 251.21 789.29 251.79   Q 789.29 257.51 789.57 263.89   C 789.79 268.77 783.98 268.20 780.58 267.65   Q 780.14 267.58 780.10 267.14   L 779.89 264.81   Q 779.87 264.56 780.12 264.60   Q 782.66 265.10 785.42 264.50   Q 786.20 264.33 786.16 263.54   Z   M 806.7381 227.7930   A 0.79 0.79 0.0 0 0 805.9662 226.9853   L 797.6884 226.7974   A 0.79 0.79 0.0 0 0 796.8806 227.5693   L 796.6819 236.3270   A 0.79 0.79 0.0 0 0 797.4538 237.1347   L 805.7316 237.3226   A 0.79 0.79 0.0 0 0 806.5394 236.5507   L 806.7381 227.7930   Z" />
<rect x="-13.88" y="-2.29" transform="translate(271.55,246.12) rotate(-0.8)" width="27.76" height="4.58" rx="1.80" />
<rect x="-7.08" y="-2.25" transform="translate(298.93,246.10) rotate(-0.1)" width="14.16" height="4.50" rx="1.39" />
<path d="   M 182.70 259.48   L 185.37 261.23   Q 187.02 262.30 186.37 264.15   Q 186.04 265.08 184.42 265.26   A 1.30 1.26 -32.0 0 1 183.66 265.10   L 171.94 258.36   A 1.87 1.87 0.0 0 1 171.48 255.48   L 171.89 255.02   A 1.73 1.73 0.0 0 1 174.08 254.70   Q 177.96 257.07 178.64 256.40   Q 184.55 250.69 190.23 245.14   Q 191.82 243.59 193.29 245.25   L 193.62 245.62   Q 194.70 246.83 193.57 248.00   Q 188.15 253.62 182.63 258.40   Q 181.95 258.99 182.70 259.48   Z" />
<rect x="-15.92" y="-2.24" transform="translate(215.85,247.60) rotate(-0.1)" width="31.84" height="4.48" rx="1.86" />
<path d="   M 768.81 264.37   Q 773.14 264.60 777.65 264.28   Q 778.27 264.23 778.29 264.85   L 778.37 267.06   Q 778.41 267.98 777.49 268.02   Q 773.23 268.21 768.64 268.50   Q 765.79 268.68 763.82 270.47   Q 758.44 275.37 753.38 279.62   Q 752.48 280.37 751.37 280.96   Q 750.92 281.20 750.91 281.70   Q 750.88 283.52 750.84 285.50   Q 750.82 287.14 749.21 287.35   Q 747.17 287.62 747.05 285.57   L 746.35 273.60   A 1.94 1.94 0.0 0 1 747.16 271.91   Q 747.78 271.47 748.47 271.34   Q 750.25 271.01 750.23 272.82   L 750.18 276.03   A 0.43 0.43 0.0 0 0 750.89 276.37   L 764.06 265.22   Q 764.46 264.88 764.45 264.36   L 764.36 250.43   Q 764.34 247.58 767.20 247.55   L 779.72 247.43   A 1.36 1.36 0.0 0 1 781.05 248.44   Q 781.51 250.21 782.29 251.96   C 783.44 254.55 783.25 257.58 782.88 260.33   A 1.42 1.41 -7.3 0 1 782.01 261.45   Q 775.65 264.05 768.89 263.87   Q 768.75 263.87 768.74 264.01   L 768.72 264.28   Q 768.71 264.37 768.81 264.37   Z   M 769.13 251.90   A 0.34 0.34 0.0 0 0 768.79 252.25   L 769.06 259.74   A 0.34 0.34 0.0 0 0 769.40 260.07   L 777.55 259.99   A 0.34 0.34 0.0 0 0 777.89 259.70   L 778.82 252.29   A 0.34 0.34 0.0 0 0 778.48 251.91   L 769.13 251.90   Z" />
<rect x="-28.61" y="-2.28" transform="translate(115.31,253.47) rotate(0.2)" width="57.22" height="4.56" rx="2.22" />
<rect x="-2.26" y="-6.49" transform="translate(191.48,262.90) rotate(1.0)" width="4.52" height="12.98" rx="1.69" />
<rect x="-15.10" y="-2.23" transform="translate(216.81,260.09) rotate(-0.1)" width="30.20" height="4.46" rx="1.52" />
<path d="   M 281.70 276.13   Q 281.76 277.41 282.33 278.63   A 1.03 1.02 74.6 0 1 281.51 280.08   C 277.46 280.54 276.04 276.22 278.06 273.30   Q 279.19 271.66 281.09 270.68   Q 282.62 269.90 284.24 270.58   Q 291.46 273.62 289.43 281.39   C 288.51 284.94 285.34 287.21 281.73 287.36   Q 275.26 287.61 271.84 282.30   Q 271.10 281.15 269.85 281.71   Q 266.12 283.37 265.57 280.23   A 1.70 1.69 -16.2 0 1 266.61 278.35   L 270.35 276.86   Q 270.87 276.66 270.80 276.11   C 270.10 270.55 271.87 265.07 276.05 262.09   Q 280.46 258.95 285.33 260.32   Q 291.20 261.97 291.31 267.38   A 1.76 1.76 0.0 0 1 289.53 269.18   Q 287.14 269.16 285.51 267.21   Q 285.04 266.64 284.30 266.72   Q 282.81 266.87 281.43 266.20   Q 280.83 265.90 280.26 266.26   C 275.37 269.35 273.83 276.82 278.22 280.85   C 282.32 284.62 287.05 278.01 282.40 275.67   Q 281.65 275.30 281.70 276.13   Z" />
<rect x="-32.81" y="-2.23" transform="translate(847.37,264.49) rotate(-0.1)" width="65.62" height="4.46" rx="2.09" />
<path d="   M 741.93 285.85   C 740.24 286.16 739.11 287.24 738.13 288.56   Q 737.70 289.14 736.97 289.13   L 728.04 289.01   Q 726.72 288.99 726.76 287.67   Q 726.89 282.18 726.15 276.92   C 725.92 275.23 727.62 273.50 728.68 272.33   Q 729.21 271.76 729.99 271.77   L 740.73 271.93   Q 741.16 271.94 741.49 272.22   C 745.61 275.77 745.64 279.16 745.11 284.11   Q 745.06 284.58 744.66 284.83   Q 743.47 285.57 741.93 285.85   Z   M 741.12 276.85   A 1.68 1.68 0.0 0 0 739.46 274.98   L 733.06 274.96   A 1.68 1.68 0.0 0 0 731.38 276.49   L 730.86 282.10   A 1.68 1.68 0.0 0 0 732.48 283.93   L 738.72 284.15   A 1.68 1.68 0.0 0 0 740.45 282.66   L 741.12 276.85   Z" />
<path d="   M 227.75 287.98   C 228.19 283.86 232.27 280.56 236.24 283.04   Q 239.58 285.14 240.01 288.24   C 240.94 294.91 236.00 299.57 229.53 298.13   C 223.84 296.86 221.28 290.55 221.96 285.25   Q 223.39 274.11 234.44 274.63   C 237.93 274.79 241.37 277.03 240.30 281.11   A 1.23 1.22 18.1 0 1 238.67 281.93   Q 237.00 281.27 235.40 280.61   C 230.95 278.78 225.97 283.35 227.32 288.01   Q 227.63 289.09 227.75 287.98   Z   M 231.57 291.39   L 230.35 291.39   Q 229.62 291.38 230.15 291.89   C 232.81 294.44 236.03 290.26 233.82 288.32   Q 232.69 287.34 232.66 288.84   L 232.63 290.36   Q 232.61 291.40 231.57 291.39   Z" />
<rect x="814.30" y="274.48" width="65.92" height="4.50" rx="2.07" />
<path d="   M 791.68 283.69   A 6.32 6.32 0.0 0 1 785.36 290.01   A 6.32 6.32 0.0 0 1 779.04 283.69   A 6.32 6.32 0.0 0 1 785.36 277.37   A 6.32 6.32 0.0 0 1 791.68 283.69   Z   M 787.3699 283.5316   A 2.11 1.79 -0.5 0 0 785.2444 281.7601   A 2.11 1.79 -0.5 0 0 783.1501 283.5684   A 2.11 1.79 -0.5 0 0 785.2756 285.3399   A 2.11 1.79 -0.5 0 0 787.3699 283.5316   Z" />
<rect x="-5.30" y="-2.12" transform="translate(248.55,287.67) rotate(0.5)" width="10.60" height="4.24" rx="1.86" />
<rect x="814.48" y="286.39" width="65.76" height="4.62" rx="2.20" />
<rect x="-2.19" y="-31.93" transform="translate(743.85,321.79) rotate(-0.1)" width="4.38" height="63.86" rx="1.92" />
<rect x="-15.88" y="-4.12" transform="translate(508.88,302.39) rotate(7.3)" width="31.76" height="8.24" rx="4.00" />
<rect x="-15.98" y="-4.13" transform="translate(445.21,304.31) rotate(-11.0)" width="31.96" height="8.26" rx="3.95" />
<rect x="814.46" y="298.10" width="65.74" height="4.50" rx="2.01" />
<path d="   M 791.69 305.25   A 6.28 6.28 0.0 0 1 785.41 311.53   A 6.28 6.28 0.0 0 1 779.13 305.25   A 6.28 6.28 0.0 0 1 785.41 298.97   A 6.28 6.28 0.0 0 1 791.69 305.25   Z   M 787.1578 304.2443   A 1.99 1.79 -34.1 0 0 784.5065 303.8778   A 1.99 1.79 -34.1 0 0 783.8622 306.4757   A 1.99 1.79 -34.1 0 0 786.5135 306.8422   A 1.99 1.79 -34.1 0 0 787.1578 304.2443   Z" />
<rect x="814.34" y="310.35" width="65.78" height="4.52" rx="2.23" />
<ellipse cx="0.00" cy="0.00" transform="translate(505.55,322.62) rotate(91.2)" rx="10.27" ry="6.30" />
<ellipse cx="0.00" cy="0.00" transform="translate(448.64,322.74) rotate(90.3)" rx="10.20" ry="6.34" />
<path d="   M 791.57 327.61   A 6.24 6.24 0.0 0 1 785.33 333.85   A 6.24 6.24 0.0 0 1 779.09 327.61   A 6.24 6.24 0.0 0 1 785.33 321.37   A 6.24 6.24 0.0 0 1 791.57 327.61   Z   M 784.6671 329.5478   A 2.09 1.78 112.0 0 0 787.1004 328.2768   A 2.09 1.78 112.0 0 0 786.2329 325.6722   A 2.09 1.78 112.0 0 0 783.7996 326.9432   A 2.09 1.78 112.0 0 0 784.6671 329.5478   Z" />
<path d="   M 466.61 348.13   C 464.91 354.00 470.86 360.12 475.75 362.40   Q 477.36 363.15 478.50 364.39   Q 478.83 364.76 478.86 365.26   C 478.95 366.95 477.52 368.51 475.71 368.12   C 469.63 366.80 463.81 359.87 462.11 354.88   Q 459.88 348.33 463.96 341.64   Q 468.38 334.38 476.70 325.74   A 1.89 1.88 -52.1 0 1 479.05 325.44   Q 479.59 325.77 479.92 326.17   Q 481.51 328.07 479.83 329.89   Q 474.61 335.52 469.75 342.09   Q 467.47 345.18 466.61 348.13   Z" />
<path d="   M 584.48 362.62   C 588.67 355.59 595.95 348.47 603.92 345.10   Q 606.07 344.19 607.06 346.30   L 607.25 346.71   A 1.91 1.91 0.0 0 1 606.34 349.24   Q 594.97 354.66 588.61 365.17   Q 587.41 367.15 585.40 365.99   Q 585.03 365.77 584.74 365.44   Q 583.59 364.12 584.48 362.62   Z" />
<path d="   M 74.00 355.33   Q 73.66 355.33 73.66 355.67   Q 73.64 436.30 73.70 512.34   Q 73.70 514.32 72.58 515.60   A 1.78 1.77 54.5 0 1 69.60 515.10   Q 69.22 514.17 69.22 513.18   Q 69.20 436.76 69.18 353.32   Q 69.18 350.76 71.74 350.76   L 300.94 350.79   Q 303.18 350.79 303.78 352.95   Q 304.02 353.84 303.01 354.77   A 2.14 2.13 -66.0 0 1 301.58 355.32   L 74.00 355.33   Z" />
<rect x="345.48" y="362.54" width="4.50" height="153.66" rx="2.05" />
<path d="   M 306.43 379.33   L 317.10 367.74   A 0.68 0.68 0.0 0 1 318.03 367.67   L 333.39 380.15   A 0.68 0.68 0.0 0 1 333.50 381.11   L 311.17 408.88   A 0.68 0.68 0.0 0 1 310.51 409.12   L 288.65 404.75   A 0.68 0.68 0.0 0 1 288.11 404.00   L 291.43 377.98   A 0.68 0.68 0.0 0 1 292.21 377.39   L 305.82 379.54   A 0.68 0.68 0.0 0 0 306.43 379.33   Z" />
<rect x="-13.88" y="-13.80" transform="translate(244.75,383.18) rotate(-0.1)" width="27.76" height="27.60" rx="0.57" />
<rect x="-13.85" y="-13.79" transform="translate(115.06,383.36) rotate(-0.1)" width="27.70" height="27.58" rx="0.71" />
<rect x="-13.97" y="-13.67" transform="translate(177.91,383.88) rotate(-0.1)" width="27.94" height="27.34" rx="0.60" />
<path d="   M 474.61 384.42   C 469.91 382.94 466.09 384.79 463.21 388.40   A 2.52 2.49 18.8 0 1 461.27 389.34   C 459.52 389.34 458.18 387.63 459.06 385.96   C 461.62 381.08 467.40 378.75 472.73 379.14   Q 479.88 379.66 484.00 385.78   A 2.02 2.01 -56.0 0 1 484.30 387.33   Q 484.04 388.47 483.19 388.99   Q 481.52 390.03 480.12 388.64   C 478.42 386.94 477.00 385.18 474.61 384.42   Z" />
<path d="   M 315.25 432.55   L 301.11 432.17   Q 299.11 432.12 298.71 430.16   Q 298.65 429.85 298.74 429.58   A 2.47 2.46 10.0 0 1 301.08 427.95   Q 309.87 427.99 318.23 428.06   A 2.27 2.27 0.0 0 1 320.48 430.32   L 320.54 457.00   Q 320.55 459.14 318.41 459.13   L 317.80 459.13   Q 316.05 459.12 316.04 457.36   L 315.94 433.25   Q 315.94 432.57 315.25 432.55   Z" />
<path d="   M 124.64 433.43   L 105.78 433.14   A 1.88 1.86 62.7 0 1 104.74 432.80   Q 103.06 431.61 103.33 430.51   Q 103.75 428.84 105.47 428.84   L 127.02 428.84   A 2.51 2.51 0.0 0 1 129.53 431.32   L 129.78 457.43   A 2.58 2.57 1.2 0 1 127.07 460.02   L 104.52 458.81   A 1.94 1.94 0.0 0 1 102.68 456.77   L 102.71 456.15   Q 102.80 454.53 104.41 454.55   Q 114.81 454.69 124.89 455.61   Q 125.31 455.64 125.30 455.23   L 125.09 433.88   A 0.46 0.45 89.3 0 0 124.64 433.43   Z" />
<rect x="-13.95" y="-13.97" transform="translate(244.67,443.67) rotate(-0.1)" width="27.90" height="27.94" rx="0.57" />
<path d="   M 187.34 434.62   L 169.10 434.49   Q 167.00 434.47 166.85 432.38   Q 166.80 431.61 167.25 430.90   A 1.66 1.64 -73.5 0 1 168.64 430.13   L 190.06 430.10   A 2.48 2.48 0.0 0 1 192.54 432.56   L 192.71 457.94   Q 192.73 460.63 190.03 460.62   L 168.73 460.48   A 1.28 1.17 -30.9 0 1 168.24 460.38   Q 164.11 458.70 167.75 456.44   A 2.43 2.39 -60.6 0 1 169.03 456.07   L 187.84 456.15   A 0.34 0.34 0.0 0 0 188.18 455.81   L 188.06 435.34   Q 188.05 434.63 187.34 434.62   Z" />
<rect x="-6.29" y="-2.25" transform="translate(304.80,455.20) rotate(0.9)" width="12.58" height="4.50" rx="1.84" />
<path d="   M 527.90 498.20   C 550.71 507.41 575.80 498.24 586.73 475.97   C 587.23 474.95 588.52 474.82 589.43 475.40   A 1.48 1.47 -66.9 0 1 590.07 477.01   Q 589.47 479.42 588.10 481.60   Q 575.29 501.99 551.83 505.15   C 534.24 507.52 516.86 500.04 506.07 485.88   Q 502.78 481.56 501.20 477.32   Q 500.77 476.14 501.75 475.36   Q 501.97 475.18 502.23 475.09   Q 503.81 474.58 504.57 476.06   Q 512.73 492.08 527.90 498.20   Z" />
<rect x="-13.89" y="-13.88" transform="translate(115.07,495.85) rotate(-0.2)" width="27.78" height="27.76" rx="0.65" />
<rect x="78.41" y="518.38" width="195.60" height="4.62" rx="2.29" />
<rect x="-5.36" y="-2.35" transform="translate(327.90,520.80) rotate(0.5)" width="10.72" height="4.70" rx="2.17" />
</g>
</g></svg>