<svg xmlns="http://www.w3.org/2000/svg" version="1.1" viewBox="0.00 0.00 1024.00 1024.00">
<g id="Parent-Group"><g fill="rgba(0,0,0,0)" id="Group-rgba(0,0,0,0)">
<path d="   M 1024.00 0.00   L 1024.00 1024.00   L 0.00 1024.00   L 0.00 0.00   L 1024.00 0.00   Z   M 448.21 928.32   C 448.32 919.68 449.66 911.02 450.56 902.30   Q 450.63 901.65 449.98 901.56   Q 442.77 900.59 435.31 901.38   Q 434.42 901.48 434.60 900.61   Q 434.63 900.46 434.71 900.32   Q 435.16 899.55 434.26 899.47   C 429.14 899.04 425.34 899.78 420.71 900.70   Q 420.13 900.82 419.62 900.52   Q 406.23 892.66 396.47 881.88   C 381.57 865.40 372.83 847.10 368.03 825.85   Q 361.90 798.65 358.41 770.57   Q 351.31 713.47 348.47 653.90   Q 348.44 653.28 349.05 653.14   L 349.30 653.08   Q 349.79 652.97 349.81 653.47   Q 351.66 689.61 355.91 735.36   Q 359.57 774.85 366.15 809.92   Q 368.94 824.78 373.34 839.01   C 378.23 854.83 387.42 869.39 398.55 881.48   Q 406.95 890.60 420.32 898.80   Q 420.91 899.17 421.57 898.91   C 425.61 897.36 432.44 896.24 436.27 898.64   Q 436.77 898.95 437.35 898.99   L 450.22 899.88   A 0.70 0.70 0.0 0 0 450.94 899.38   Q 451.03 899.06 450.96 898.76   Q 450.75 897.86 449.85 897.66   Q 442.47 896.08 434.79 895.03   Q 428.94 894.23 423.50 895.33   C 421.26 895.79 419.45 894.44 417.67 893.31   C 400.02 882.00 386.97 864.66 379.09 845.56   A 0.26 0.26 0.0 0 1 379.35 845.21   Q 415.85 847.42 453.97 849.87   Q 455.98 850.00 457.90 849.77   A 0.23 0.23 0.0 0 1 458.16 850.02   L 449.64 927.02   Q 449.54 927.96 450.48 927.96   Q 452.69 927.96 455.14 928.28   Q 518.01 936.48 589.01 944.47   Q 621.49 948.13 647.92 950.69   C 659.77 951.83 672.56 950.61 683.70 946.30   C 719.85 932.34 717.16 889.58 710.86 858.93   C 705.67 833.72 698.37 809.25 689.73 784.99   Q 671.44 733.57 645.37 689.34   Q 638.64 677.92 628.73 664.04   Q 618.87 650.24 608.00 639.93   C 603.20 635.37 597.93 632.08 591.90 629.09   Q 580.94 623.66 570.95 620.59   Q 563.48 618.29 558.33 615.32   C 551.24 611.25 545.41 605.22 539.49 599.51   Q 538.09 598.15 538.17 600.10   Q 538.20 600.69 538.54 601.27   Q 538.71 601.55 538.52 601.82   Q 538.40 601.99 538.05 601.86   Q 537.80 601.77 537.64 601.55   C 529.48 590.78 521.31 583.85 507.44 581.55   A 1.11 1.10 1.4 0 1 506.53 580.60   L 504.79 566.87   A 0.76 0.74 -18.6 0 1 505.17 566.13   L 512.54 562.06   A 0.42 0.41 47.4 0 1 512.97 562.08   Q 527.19 571.53 542.40 564.61   C 544.04 563.86 545.44 562.61 546.99 561.78   Q 547.40 561.56 547.86 561.63   Q 576.44 566.15 602.16 555.74   C 621.35 547.97 638.45 537.85 649.99 521.14   C 668.42 494.45 667.62 461.03 647.54 435.45   C 636.04 420.80 624.09 407.83 625.18 387.64   Q 625.27 386.05 625.55 384.54   Q 625.63 384.10 625.96 383.79   C 633.66 376.66 640.12 366.16 640.62 355.47   C 640.97 348.03 639.28 340.90 633.75 335.74   A 0.47 0.46 -52.0 0 1 633.68 335.13   Q 638.83 327.48 638.68 317.28   C 638.51 305.83 630.67 297.42 619.50 295.12   Q 618.83 294.98 618.82 294.30   C 617.85 248.62 574.27 215.58 530.88 217.97   Q 530.37 217.99 530.05 217.60   Q 511.42 194.62 483.33 192.79   C 454.26 190.90 432.19 209.17 426.60 237.43   Q 426.48 238.03 425.90 237.85   Q 410.55 233.20 394.38 238.30   C 367.46 246.81 348.99 271.41 339.36 296.85   Q 331.26 318.24 327.54 347.45   Q 325.97 359.71 324.48 372.07   Q 322.23 390.78 308.87 402.60   Q 302.69 408.06 297.02 413.16   C 287.62 421.61 284.18 436.18 290.03 447.79   A 0.60 0.59 72.2 0 1 289.59 448.65   Q 287.38 448.97 285.65 450.38   C 278.69 456.04 274.89 466.79 273.82 475.54   C 271.41 495.33 279.32 514.63 293.85 527.83   C 296.42 530.16 299.49 532.38 302.46 534.32   Q 303.99 535.31 304.88 537.09   Q 317.50 562.11 345.71 567.66   Q 369.29 572.30 390.74 560.83   Q 391.21 560.58 391.63 560.90   Q 405.36 571.32 422.26 565.62   Q 425.69 564.46 428.67 562.02   A 1.31 1.30 -52.8 0 1 430.02 561.83   L 435.20 564.12   A 0.84 0.83 13.1 0 1 435.70 564.91   L 435.25 579.50   Q 435.22 580.44 434.30 580.63   C 421.17 583.43 411.54 593.00 405.38 604.71   Q 404.96 605.51 404.65 604.66   Q 404.31 603.73 404.15 602.77   Q 403.72 600.18 402.03 602.18   Q 389.87 616.59 371.11 621.59   Q 362.24 623.95 353.35 626.29   C 343.31 628.92 334.46 633.86 327.01 641.29   C 312.70 655.54 303.09 673.68 296.05 693.09   C 288.97 712.65 284.53 732.90 281.47 753.59   Q 273.79 805.53 280.24 857.48   Q 284.48 891.60 296.67 919.76   Q 303.53 935.63 314.70 948.89   Q 327.83 964.48 346.63 968.90   Q 352.55 970.29 363.16 970.29   Q 470.59 970.22 575.72 970.28   A 0.51 0.51 0.0 0 0 576.23 969.72   L 575.14 957.46   Q 575.08 956.76 575.78 956.66   L 587.20 955.00   Q 587.82 954.91 587.97 954.30   L 589.71 947.43   Q 589.88 946.77 589.21 946.69   Q 539.48 940.92 488.74 934.24   Q 469.78 931.75 450.08 928.73   C 449.63 928.66 449.21 928.82 448.78 928.85   Q 448.21 928.89 448.21 928.32   Z   M 631.6427 256.6962   A 1.07 1.07 0.0 0 0 630.9581 255.3467   L 630.9201 255.3343   A 1.07 1.07 0.0 0 0 629.5706 256.0189   L 625.4573 268.6038   A 1.07 1.07 0.0 0 0 626.1419 269.9533   L 626.1799 269.9657   A 1.07 1.07 0.0 0 0 627.5294 269.2811   L 631.6427 256.6962   Z   M 648.21 270.48   Q 648.82 269.82 648.19 269.18   L 647.97 268.96   A 0.62 0.62 0.0 0 0 647.09 268.96   Q 638.82 277.46 629.86 284.70   Q 629.17 285.25 629.59 286.03   L 629.75 286.32   A 0.45 0.45 0.0 0 0 630.40 286.48   Q 638.31 281.17 648.21 270.48   Z   M 283.6347 532.5812   A 0.99 0.99 0.0 0 0 282.2349 532.5543   L 272.8245 541.6102   A 0.99 0.99 0.0 0 0 272.7976 543.0100   L 272.8253 543.0388   A 0.99 0.99 0.0 0 0 274.2251 543.0657   L 283.6355 534.0098   A 0.99 0.99 0.0 0 0 283.6624 532.6100   L 283.6347 532.5812   Z   M 666.7687 537.3170   A 0.93 0.93 0.0 0 0 666.0601 536.2090   L 656.9965 534.2163   A 0.93 0.93 0.0 0 0 655.8885 534.9249   L 655.8713 535.0030   A 0.93 0.93 0.0 0 0 656.5799 536.1110   L 665.6435 538.1037   A 0.93 0.93 0.0 0 0 666.7515 537.3951   L 666.7687 537.3170   Z   M 295.8099 543.3486   A 1.02 1.02 0.0 0 0 295.4341 541.9560   L 295.3994 541.9360   A 1.02 1.02 0.0 0 0 294.0067 542.3118   L 286.2901 555.7314   A 1.02 1.02 0.0 0 0 286.6659 557.1240   L 286.7006 557.1440   A 1.02 1.02 0.0 0 0 288.0933 556.7682   L 295.8099 543.3486   Z   M 650.0581 552.2255   A 3.59 1.06 37.5 0 0 647.8553 549.1990   A 3.59 1.06 37.5 0 0 644.3619 547.8545   A 3.59 1.06 37.5 0 0 646.5647 550.8810   A 3.59 1.06 37.5 0 0 650.0581 552.2255   Z   M 646.42 635.29   Q 637.36 644.84 630.38 657.32   A 1.65 1.58 -25.4 0 0 630.22 657.74   Q 629.78 659.64 630.59 660.11   Q 631.58 660.68 632.12 659.67   Q 641.00 643.00 653.61 631.94   C 660.35 626.04 670.77 623.23 679.26 621.56   Q 680.56 621.31 679.46 622.05   C 664.24 632.34 656.95 651.61 652.35 669.18   Q 652.19 669.80 651.55 669.80   L 638.86 669.84   Q 638.27 669.84 638.29 670.43   Q 638.30 670.80 638.53 671.05   Q 639.29 671.89 640.48 671.99   Q 646.12 672.47 651.07 672.34   A 0.49 0.48 6.4 0 1 651.55 672.94   C 650.65 676.83 648.26 684.59 649.94 688.13   Q 650.88 690.13 651.36 687.97   L 654.77 672.64   A 0.44 0.43 -84.2 0 1 655.19 672.29   L 684.02 672.16   Q 684.90 672.16 684.86 673.04   L 683.33 709.09   A 0.67 0.67 0.0 0 1 682.66 709.73   L 663.01 709.72   Q 661.96 709.72 662.21 710.74   Q 662.27 710.94 662.41 711.10   Q 663.09 711.84 664.09 711.86   Q 673.12 712.05 682.61 711.89   A 0.50 0.49 0.6 0 1 683.11 712.39   L 682.85 739.26   Q 682.85 739.87 682.24 739.88   L 676.87 739.94   Q 676.42 739.95 676.29 740.38   Q 676.01 741.33 677.14 741.95   A 1.43 1.36 59.7 0 0 677.80 742.14   L 682.19 742.29   Q 682.82 742.31 682.82 742.94   C 682.82 747.44 682.45 752.34 683.54 756.67   Q 684.52 760.61 686.07 764.17   Q 686.67 765.55 686.55 764.06   Q 685.70 753.46 686.04 742.55   Q 686.05 742.23 686.37 742.23   L 727.00 742.30   A 0.69 0.68 -89.6 0 1 727.68 743.00   L 727.05 780.55   A 0.83 0.83 0.0 0 1 726.22 781.37   L 694.28 781.40   Q 693.45 781.40 693.41 782.24   Q 693.39 782.56 693.51 782.87   Q 693.87 783.79 694.86 783.78   L 726.27 783.70   Q 726.85 783.70 726.82 784.27   L 725.69 809.49   A 1.19 1.18 -88.7 0 1 724.51 810.63   L 703.45 810.72   Q 702.60 810.72 702.76 811.56   L 702.88 812.17   Q 703.04 813.03 703.91 813.03   L 724.76 813.06   Q 725.24 813.06 725.22 813.54   Q 724.69 829.77 721.98 846.00   Q 720.93 852.27 718.41 857.91   C 717.74 859.42 716.46 860.18 715.74 861.71   A 1.06 1.05 -80.4 0 0 716.80 863.21   C 730.16 861.81 742.56 858.52 754.48 852.70   C 805.97 827.58 832.00 773.02 823.01 716.57   C 819.88 696.96 811.36 676.16 798.61 660.73   C 776.15 633.54 744.70 617.96 708.71 616.58   C 676.91 615.36 645.18 626.48 622.39 649.05   A 1.38 1.25 79.0 0 0 622.07 649.58   Q 621.61 651.07 622.48 651.35   Q 623.33 651.62 623.99 651.01   Q 634.54 641.30 645.78 634.50   Q 649.00 632.55 646.42 635.29   Z" />
<path d="   M 293.62 450.82   A 0.58 0.58 0.0 0 0 294.19 449.93   Q 284.39 434.78 294.50 419.77   C 298.18 414.31 305.03 409.58 310.12 404.92   Q 323.65 392.52 326.25 376.09   Q 327.60 367.61 330.58 342.88   Q 331.80 332.69 335.68 316.63   C 342.74 287.37 358.27 258.47 386.06 244.28   Q 406.04 234.07 427.36 240.58   A 0.65 0.64 -74.6 0 0 428.18 240.11   Q 429.13 235.91 430.27 231.74   Q 433.66 219.34 443.48 209.40   C 455.48 197.25 472.85 192.80 489.66 195.79   Q 509.16 199.25 524.00 213.89   Q 526.38 216.24 528.09 219.32   A 1.87 1.87 0.0 0 0 529.84 220.29   Q 559.63 218.69 584.89 236.44   Q 607.51 252.34 614.45 279.23   Q 616.73 288.07 616.31 296.60   A 0.66 0.66 0.0 0 0 616.92 297.29   Q 625.21 297.99 630.55 303.33   C 635.42 308.17 637.67 315.89 636.04 322.49   Q 634.96 326.89 633.24 330.87   Q 633.17 331.05 633.01 330.94   Q 632.82 330.82 632.86 330.59   C 634.14 324.50 634.61 318.76 632.17 313.20   Q 627.16 301.77 615.58 297.93   Q 615.01 297.74 614.94 297.14   C 614.59 293.88 614.35 290.52 613.70 287.34   C 605.59 247.65 563.74 224.04 525.41 227.48   Q 524.90 227.53 524.66 227.07   Q 523.26 224.28 520.75 222.18   Q 505.28 209.31 488.18 207.23   C 462.60 204.11 441.10 218.53 430.22 241.11   A 1.36 1.35 -77.1 0 1 429.00 241.88   C 424.41 241.88 419.75 241.77 415.31 242.72   Q 398.72 246.24 385.98 255.81   C 358.31 276.62 343.54 308.06 337.13 341.88   Q 334.62 355.15 332.09 369.09   C 329.82 381.64 325.24 395.61 315.36 404.10   C 308.01 410.43 301.47 415.88 297.17 425.08   Q 291.10 438.09 295.48 451.11   Q 295.69 451.72 295.08 451.91   Q 291.92 452.91 290.50 455.82   Q 282.69 471.91 283.13 488.67   C 283.51 503.12 288.24 514.65 299.19 524.29   Q 302.01 526.76 302.47 530.99   Q 302.54 531.68 301.98 531.27   Q 280.68 515.99 276.32 491.23   C 274.16 478.92 276.58 465.15 284.51 454.97   C 286.87 451.94 289.64 450.29 293.62 450.82   Z" />
<path d="   M 380.83 271.87   C 386.69 263.78 396.80 256.73 405.84 254.18   Q 406.50 253.99 407.17 254.13   Q 407.80 254.26 407.86 254.90   Q 407.88 255.17 407.63 255.26   Q 398.60 258.44 391.78 263.43   C 389.66 264.97 381.17 272.86 381.16 272.86   Q 380.32 272.58 380.83 271.87   Z" />
<path d="   M 383.81 281.13   Q 388.86 273.03 395.86 267.81   A 0.50 0.50 0.0 0 1 396.54 267.89   L 396.80 268.21   Q 397.22 268.72 396.71 269.13   Q 388.68 275.57 383.64 284.79   A 0.94 0.92 20.2 0 1 382.62 285.25   L 382.36 285.19   A 0.38 0.37 -73.8 0 1 382.09 284.69   Q 382.76 282.82 383.81 281.13   Z" />
<path d="   M 394.36 279.79   A 0.19 0.19 0.0 0 1 394.10 279.83   L 394.03 279.79   A 3.59 1.27 -54.0 0 1 395.12 276.13   L 395.32 275.86   A 3.59 1.27 -54.0 0 1 398.45 273.70   L 398.52 273.75   A 0.19 0.19 0.0 0 1 398.56 274.01   L 394.36 279.79   Z" />
<path d="   M 475.24 300.82   Q 475.14 301.12 475.24 301.43   Q 475.56 302.42 476.30 303.20   C 498.99 327.43 529.78 341.12 562.94 343.49   C 575.93 344.42 589.46 342.79 601.95 338.81   A 0.57 0.57 0.0 0 1 602.64 339.13   Q 606.93 349.66 609.54 361.71   C 617.38 397.91 615.75 434.10 609.84 472.68   C 604.16 509.80 575.18 532.56 539.96 539.99   C 504.30 547.51 465.64 541.12 434.23 522.55   Q 401.66 503.29 393.41 466.51   Q 393.27 465.91 392.66 465.90   C 379.89 465.79 369.17 462.94 362.55 451.79   C 354.93 438.95 352.78 417.96 371.08 413.55   C 380.29 411.34 394.32 415.30 392.40 427.77   A 1.05 1.04 80.7 0 0 393.91 428.86   C 398.61 426.42 400.50 420.39 400.11 415.48   A 0.80 0.79 -12.6 0 1 400.63 414.67   C 402.32 414.04 404.07 413.57 405.65 412.66   Q 415.95 406.73 419.77 394.30   C 420.47 392.03 420.11 389.90 421.69 387.88   Q 423.95 384.98 425.50 381.73   C 431.10 370.02 433.46 358.35 434.37 345.37   Q 434.42 344.69 435.05 344.45   Q 456.86 335.92 467.32 317.44   Q 474.13 305.39 475.75 292.04   A 0.37 0.37 0.0 0 1 476.39 291.84   C 499.02 317.54 527.88 334.40 561.52 339.61   Q 566.50 340.38 571.60 341.05   Q 571.80 341.08 571.78 341.28   L 571.78 341.29   Q 571.77 341.49 571.57 341.48   Q 531.05 340.84 497.70 318.71   Q 491.82 314.81 486.47 309.95   Q 481.44 305.38 476.01 300.60   A 0.49 0.48 -60.5 0 0 475.24 300.82   Z   M 467.98 391.28   C 475.32 388.70 480.15 388.62 486.80 391.18   Q 490.50 392.60 491.88 389.12   Q 492.39 387.84 491.01 385.77   A 3.20 3.18 84.6 0 0 489.64 384.63   Q 478.59 379.92 466.87 384.06   Q 463.81 385.13 463.46 387.93   C 463.13 390.51 466.21 391.90 467.98 391.28   Z   M 570.27 394.65   C 577.36 393.01 582.24 392.36 589.20 395.58   C 593.44 397.54 596.73 392.17 592.98 389.53   C 586.86 385.21 576.63 385.19 570.00 387.22   C 566.55 388.27 564.75 391.84 568.32 394.28   A 2.49 2.47 -34.0 0 0 570.27 394.65   Z   M 481.7331 438.9200   A 13.25 6.12 89.9 0 0 487.8300 425.6593   A 13.25 6.12 89.9 0 0 481.6869 412.4200   A 13.25 6.12 89.9 0 0 475.5900 425.6807   A 13.25 6.12 89.9 0 0 481.7331 438.9200   Z   M 546.57 451.37   C 544.71 456.28 540.90 459.25 536.00 461.34   Q 535.40 461.59 535.31 462.23   C 535.17 463.20 536.09 463.74 536.95 463.60   C 542.99 462.57 550.89 456.83 550.18 449.90   A 2.31 2.29 -78.6 0 0 549.00 448.11   Q 547.18 447.09 545.30 446.16   C 535.52 441.29 537.86 425.60 541.67 417.97   Q 542.18 416.93 541.15 416.41   L 540.82 416.24   Q 539.87 415.75 539.30 416.66   C 532.69 427.27 531.96 445.42 546.12 450.40   A 0.74 0.74 0.0 0 1 546.57 451.37   Z   M 579.1422 442.5598   A 12.95 5.94 90.3 0 0 585.1499 429.6411   A 12.95 5.94 90.3 0 0 579.2778 416.6602   A 12.95 5.94 90.3 0 0 573.2701 429.5789   A 12.95 5.94 90.3 0 0 579.1422 442.5598   Z   M 371.50 428.18   C 375.11 424.12 380.82 423.95 384.52 427.85   Q 390.27 433.92 387.21 441.09   A 0.80 0.79 32.6 0 0 387.41 441.99   Q 387.69 442.25 388.09 442.20   Q 388.84 442.11 389.29 441.59   C 397.84 431.79 379.72 413.07 369.20 426.59   A 1.12 1.11 39.3 0 0 369.36 428.13   L 369.56 428.31   A 1.39 1.38 41.0 0 0 371.50 428.18   Z   M 508.20 484.25   Q 510.60 483.40 512.63 481.78   A 1.10 1.09 -29.9 0 0 512.97 480.54   L 512.86 480.24   A 0.40 0.40 0.0 0 0 512.26 480.04   Q 507.01 483.44 500.65 483.30   Q 499.99 483.28 499.88 483.93   Q 499.83 484.19 499.88 484.45   Q 499.99 485.04 500.57 485.22   Q 502.21 485.71 503.87 485.50   Q 505.00 485.36 505.38 486.43   C 511.01 502.26 530.37 503.87 543.21 495.95   A 1.31 1.31 0.0 0 0 543.58 494.07   L 543.33 493.72   Q 542.90 493.13 542.26 493.50   C 529.69 500.71 514.73 498.94 507.75 485.41   A 0.83 0.82 66.3 0 1 508.20 484.25   Z" />
<path d="   M 636.32 364.84   Q 635.61 366.64 635.97 364.74   C 636.91 359.82 637.60 353.91 636.28 349.18   Q 634.89 344.23 631.21 339.14   A 0.71 0.71 0.0 0 1 631.59 338.04   Q 632.36 337.81 633.19 338.24   A 1.77 1.70 -3.1 0 1 633.84 338.80   Q 641.93 350.57 636.32 364.84   Z" />
<path d="   M 423.97 366.87   Q 424.05 366.76 424.17 366.84   L 424.18 366.84   Q 424.26 366.90 424.21 366.99   Q 421.68 371.56 418.73 376.36   Q 418.43 376.85 418.10 376.37   L 417.94 376.14   A 0.69 0.68 -46.0 0 1 417.93 375.39   Q 420.71 371.05 423.97 366.87   Z" />
<path d="   M 400.66 395.05   Q 400.12 395.44 400.04 394.78   L 400.00 394.45   Q 399.92 393.73 400.48 393.28   Q 407.16 387.98 413.02 381.51   A 0.26 0.25 54.6 0 1 413.44 381.59   L 413.54 381.83   Q 413.78 382.43 413.39 382.95   Q 408.89 388.96 400.66 395.05   Z" />
<path d="   M 628.32 539.35   Q 627.33 540.07 626.36 540.85   Q 626.28 540.91 626.24 540.82   Q 626.22 540.78 626.22 540.73   Q 626.22 540.68 626.26 540.65   C 633.59 533.89 639.63 527.73 644.68 518.64   C 660.29 490.54 656.93 458.72 639.22 432.33   C 632.61 422.49 626.34 413.42 622.28 402.30   Q 620.05 396.21 621.76 390.77   Q 622.73 387.66 622.72 390.92   C 622.67 407.40 632.04 419.50 641.95 431.79   Q 649.58 441.25 653.65 449.42   C 670.13 482.48 657.16 518.59 628.32 539.35   Z" />
<path d="   M 394.08 397.35   A 0.13 0.13 0.0 0 1 394.25 397.41   L 394.27 397.45   A 3.43 1.69 -27.6 0 1 392.01 400.53   L 385.85 403.76   A 3.43 1.69 -27.6 0 1 382.02 403.85   L 382.01 403.81   A 0.13 0.13 0.0 0 1 382.06 403.64   L 394.08 397.35   Z" />
<circle cx="382.06" cy="478.67" r="8.11" />
<path d="   M 504.19 611.77   C 504.42 612.84 504.75 614.42 505.61 615.15   Q 506.05 615.52 505.65 615.93   Q 501.61 620.04 497.19 624.12   C 495.32 625.84 493.06 627.29 490.39 626.88   Q 487.08 626.36 484.23 625.44   Q 462.06 618.26 440.54 608.36   Q 440.02 608.12 440.06 607.55   Q 442.92 569.25 440.35 531.09   Q 440.33 530.73 440.60 530.97   Q 461.38 549.11 485.74 560.74   Q 491.24 563.37 496.86 565.33   A 0.77 0.77 0.0 0 1 497.39 566.00   Q 499.34 589.55 504.19 611.77   Z" />
<path d="   M 526.43 660.82   A 0.41 0.41 0.0 0 1 525.87 660.87   L 493.20 634.11   A 0.78 0.77 43.9 0 1 493.17 632.93   Q 508.25 619.51 522.76 605.07   Q 527.69 600.16 526.11 593.23   Q 525.93 592.43 526.53 593.00   Q 532.54 598.70 537.21 605.96   Q 538.22 607.53 538.41 609.44   Q 540.11 626.60 542.78 642.25   A 2.44 2.42 -27.0 0 1 542.08 644.39   Q 534.21 651.99 526.43 660.82   Z" />
<path d="   M 487.26 633.36   Q 488.00 633.66 487.61 634.35   Q 487.20 635.06 486.68 635.67   Q 471.90 653.14 453.78 673.78   A 0.46 0.45 36.0 0 1 453.20 673.87   Q 436.15 663.35 418.50 653.62   A 2.35 2.33 7.4 0 1 417.36 652.15   L 406.17 609.09   A 1.22 1.17 -38.1 0 1 406.30 608.17   Q 411.14 599.96 416.50 593.46   Q 416.96 592.90 416.93 593.63   C 416.59 600.42 421.90 605.24 427.46 608.11   Q 436.45 612.73 451.23 618.74   Q 469.19 626.04 487.26 633.36   Z" />
<path d="   M 688.48 669.91   A 0.11 0.11 0.0 0 1 688.37 669.79   Q 689.11 651.23 692.76 634.23   Q 693.95 628.71 697.05 623.49   Q 699.51 619.33 704.19 619.05   C 712.13 618.58 715.50 623.23 717.99 629.85   Q 720.30 636.01 721.46 642.09   Q 723.99 655.38 725.13 669.31   A 0.50 0.49 -2.1 0 1 724.63 669.84   L 688.48 669.91   Z" />
<path d="   M 655.36 669.34   C 659.98 651.61 667.99 629.96 685.25 621.18   C 688.54 619.51 692.50 619.92 696.14 619.33   Q 696.93 619.20 696.39 619.79   Q 692.70 623.81 690.99 630.00   C 687.55 642.41 686.23 656.16 685.25 669.41   A 0.50 0.50 0.0 0 1 684.75 669.88   L 655.73 669.81   A 0.38 0.38 0.0 0 1 655.36 669.34   Z" />
<path d="   M 722.90 635.84   C 721.55 630.32 719.01 623.53 714.92 620.17   Q 714.22 619.59 715.13 619.65   C 720.59 620.04 724.68 620.29 729.57 623.53   Q 739.54 630.13 745.64 640.44   Q 753.43 653.58 757.97 669.62   A 0.24 0.23 -8.2 0 1 757.74 669.92   L 728.73 669.87   A 0.65 0.65 0.0 0 1 728.08 669.27   Q 726.59 650.92 722.90 635.84   Z" />
<path d="   M 733.09 622.24   Q 741.95 624.47 750.81 627.99   C 758.19 630.92 764.25 637.12 769.05 643.07   Q 778.11 654.28 784.91 669.68   A 0.19 0.19 0.0 0 1 784.74 669.94   L 762.18 669.95   A 1.12 1.11 81.4 0 1 761.10 669.15   C 755.66 651.22 747.70 634.02 732.81 622.83   Q 731.51 621.84 733.09 622.24   Z" />
<path d="   M 453.11 678.71   C 453.41 678.67 453.76 678.50 453.96 678.28   Q 472.69 657.13 489.98 636.72   A 0.86 0.86 0.0 0 1 491.48 637.10   Q 496.32 660.45 499.75 683.25   Q 511.30 760.22 519.11 845.22   Q 519.17 845.90 518.49 845.83   L 466.54 840.34   A 0.74 0.73 -4.5 0 1 465.90 839.80   L 418.69 657.98   Q 418.29 656.44 419.48 657.50   Q 420.72 658.61 422.17 659.49   Q 437.12 668.61 452.37 678.54   A 1.11 1.11 0.0 0 0 453.11 678.71   Z   M 484.9953 670.9837   A 6.36 4.54 94.1 0 0 489.9784 664.9646   A 6.36 4.54 94.1 0 0 485.9047 658.2963   A 6.36 4.54 94.1 0 0 480.9216 664.3154   A 6.36 4.54 94.1 0 0 484.9953 670.9837   Z   M 493.5622 725.8950   A 6.19 4.53 96.1 0 0 498.7244 720.2214   A 6.19 4.53 96.1 0 0 494.8778 713.5850   A 6.19 4.53 96.1 0 0 489.7156 719.2586   A 6.19 4.53 96.1 0 0 493.5622 725.8950   Z   M 500.5542 779.4057   A 6.14 4.55 95.1 0 0 505.6320 773.6945   A 6.14 4.55 95.1 0 0 501.6458 767.1743   A 6.14 4.55 95.1 0 0 496.5680 772.8855   A 6.14 4.55 95.1 0 0 500.5542 779.4057   Z   M 513.2191 817.6024   A 5.64 4.58 -18.8 0 0 506.4040 815.0843   A 5.64 4.58 -18.8 0 0 502.5409 821.2376   A 5.64 4.58 -18.8 0 0 509.3560 823.7557   A 5.64 4.58 -18.8 0 0 513.2191 817.6024   Z" />
<path d="   M 768.49 637.38   Q 788.32 649.94 802.16 669.51   Q 802.56 670.07 801.87 670.05   Q 795.70 669.86 788.62 670.12   Q 788.02 670.14 787.78 669.59   Q 780.12 651.76 767.97 638.00   Q 766.06 635.83 768.49 637.38   Z" />
<path d="   M 528.23 665.56   Q 536.17 657.54 543.09 649.11   Q 543.65 648.42 543.80 649.30   Q 554.53 715.75 561.62 771.11   C 565.07 798.04 567.66 823.70 568.83 849.66   A 0.42 0.42 0.0 0 1 568.38 850.10   L 523.11 846.27   Q 522.52 846.22 522.47 845.63   C 517.16 789.64 510.67 733.88 502.21 678.01   Q 499.47 659.87 495.29 640.86   Q 495.00 639.58 496.02 640.41   L 527.08 665.62   Q 527.68 666.11 528.23 665.56   Z" />
<path d="   M 603.18 649.82   Q 602.24 647.13 601.09 644.54   Q 600.70 643.66 601.45 644.27   Q 602.04 644.74 602.33 645.44   Q 622.39 694.36 629.96 746.31   Q 631.71 758.36 632.19 769.98   Q 632.19 770.11 632.07 770.13   L 631.82 770.19   A 0.34 0.34 0.0 0 1 631.42 769.91   C 625.17 729.08 616.89 689.20 603.18 649.82   Z" />
<path d="   M 688.80 672.36   L 724.68 672.29   A 0.86 0.86 0.0 0 1 725.54 673.11   L 727.32 708.82   A 0.86 0.86 0.0 0 1 726.46 709.72   L 687.16 709.80   A 0.86 0.86 0.0 0 1 686.30 708.90   L 687.94 673.18   A 0.86 0.86 0.0 0 1 688.80 672.36   Z" />
<path d="   M 759.22 673.26   C 762.65 685.13 764.98 696.91 766.40 708.99   A 0.63 0.62 86.7 0 1 765.78 709.69   L 730.52 709.79   A 0.38 0.38 0.0 0 1 730.14 709.42   Q 729.66 690.43 728.31 672.79   Q 728.27 672.27 728.79 672.27   L 758.03 672.36   A 1.25 1.24 81.9 0 1 759.22 673.26   Z" />
<path d="   M 769.33 708.99   C 768.02 696.90 765.91 684.12 762.08 672.93   A 0.47 0.47 0.0 0 1 762.53 672.31   L 785.00 672.46   A 1.27 1.27 0.0 0 1 786.13 673.18   Q 793.81 689.51 796.43 709.03   Q 796.54 709.79 795.77 709.79   L 770.17 709.74   A 0.85 0.84 -3.0 0 1 769.33 708.99   Z" />
<path d="   M 799.31 709.03   C 797.47 696.77 794.33 683.97 788.90 672.89   A 0.35 0.35 0.0 0 1 789.21 672.39   Q 795.55 672.41 802.81 672.60   Q 803.90 672.63 804.44 673.52   Q 814.78 690.37 818.79 709.63   A 0.16 0.16 0.0 0 1 818.63 709.82   L 800.20 709.81   A 0.91 0.90 85.9 0 1 799.31 709.03   Z" />
<path d="   M 767.49 739.92   L 731.50 740.03   A 0.78 0.78 0.0 0 1 730.72 739.26   L 730.30 712.69   A 0.78 0.78 0.0 0 1 731.08 711.90   L 766.08 711.98   A 0.78 0.78 0.0 0 1 766.86 712.72   L 768.27 739.10   A 0.78 0.78 0.0 0 1 767.49 739.92   Z" />
<rect x="686.12" y="711.94" width="41.36" height="28.04" rx="0.72" />
<path d="   M 796.82 712.73   C 797.97 721.34 798.48 730.43 798.23 739.29   A 0.81 0.80 -88.9 0 1 797.42 740.08   L 771.77 739.97   A 0.58 0.57 88.4 0 1 771.20 739.42   L 769.82 712.19   A 0.23 0.23 0.0 0 1 770.05 711.95   L 796.06 712.06   Q 796.73 712.06 796.82 712.73   Z" />
<path d="   M 818.80 712.09   A 0.60 0.60 0.0 0 1 819.37 712.56   Q 822.13 725.72 822.18 739.19   A 0.91 0.91 0.0 0 1 821.27 740.11   L 801.75 740.08   A 0.60 0.60 0.0 0 1 801.15 739.47   Q 801.35 726.06 799.69 712.54   A 0.51 0.51 0.0 0 1 800.20 711.97   L 818.80 712.09   Z" />
<path d="   M 730.05 781.08   L 730.76 742.62   A 0.38 0.37 -89.2 0 1 731.13 742.25   L 767.42 742.32   A 0.56 0.56 0.0 0 1 767.98 742.89   Q 767.51 761.93 764.89 780.60   A 0.87 0.87 0.0 0 1 764.03 781.34   L 730.32 781.36   A 0.28 0.27 -90.0 0 1 730.05 781.08   Z" />
<path d="   M 771.31 742.36   L 797.71 742.41   A 0.37 0.36 -89.2 0 1 798.07 742.79   Q 797.11 762.23 792.69 780.55   A 0.94 0.94 0.0 0 1 791.77 781.28   L 768.24 781.33   Q 767.70 781.34 767.78 780.80   Q 770.64 761.91 770.90 742.75   A 0.40 0.40 0.0 0 1 771.31 742.36   Z" />
<path d="   M 821.60 742.42   A 0.50 0.49 -89.4 0 1 822.09 742.93   Q 821.57 761.62 815.44 780.39   A 1.27 1.26 8.6 0 1 814.25 781.26   L 795.76 781.32   A 0.50 0.50 0.0 0 1 795.29 780.66   Q 796.28 777.82 796.84 774.91   Q 799.93 759.01 800.95 742.65   A 0.31 0.30 1.0 0 1 801.26 742.36   L 821.60 742.42   Z" />
<path d="   M 647.17 856.82   L 651.33 859.85   Q 651.64 860.07 651.69 860.46   L 651.75 860.91   A 0.37 0.37 0.0 0 1 651.19 861.28   C 649.43 860.20 648.05 858.76 646.26 857.67   C 630.57 848.11 615.20 848.07 597.20 849.80   Q 588.27 850.66 578.45 850.29   Q 577.83 850.27 578.07 849.70   Q 584.12 834.95 593.83 820.48   Q 601.24 809.42 606.65 802.90   C 614.99 792.86 622.87 783.01 631.10 773.24   C 632.86 771.16 635.19 769.46 637.86 768.90   Q 639.24 768.60 638.03 769.32   Q 634.91 771.15 633.03 773.42   Q 618.70 790.77 602.84 810.21   A 1.05 1.04 38.9 0 0 603.00 811.69   Q 603.23 811.88 603.52 811.98   Q 604.79 812.43 605.65 811.39   Q 620.49 793.57 635.89 774.89   C 638.31 771.96 642.00 768.94 646.12 770.19   C 652.86 772.24 652.08 779.43 648.18 783.93   C 636.49 797.42 624.53 810.83 613.25 824.80   A 1.26 1.25 51.5 0 0 613.10 826.14   Q 613.45 826.86 614.20 826.97   A 0.87 0.85 23.5 0 0 615.01 826.66   Q 631.88 805.93 652.69 784.67   C 656.71 780.57 664.20 779.16 667.04 785.58   C 668.83 789.63 666.83 792.94 664.07 795.76   Q 644.04 816.17 626.63 834.39   Q 625.81 835.26 626.63 836.12   L 626.86 836.37   A 0.95 0.94 -44.0 0 0 628.21 836.39   C 639.20 825.36 650.04 814.93 662.84 805.29   C 667.08 802.10 673.67 801.03 676.45 806.37   C 678.62 810.55 676.85 814.12 673.38 816.83   Q 655.83 830.52 637.54 844.39   Q 636.86 844.90 637.16 845.70   Q 637.45 846.49 639.32 845.66   Q 640.17 845.28 640.92 844.74   Q 654.86 834.59 671.02 824.04   Q 673.69 822.30 676.59 821.67   C 684.72 819.92 688.93 830.53 681.89 834.87   Q 665.07 845.24 647.20 855.98   A 0.51 0.50 47.4 0 0 647.17 856.82   Z" />
<path d="   M 758.48 810.64   L 729.06 810.66   A 0.33 0.33 0.0 0 1 728.73 810.32   L 729.90 784.02   A 0.33 0.33 0.0 0 1 730.22 783.71   L 764.09 783.64   A 0.33 0.33 0.0 0 1 764.41 784.04   L 758.81 810.38   A 0.33 0.33 0.0 0 1 758.48 810.64   Z" />
<path d="   M 762.04 810.63   A 0.39 0.39 0.0 0 1 761.67 810.13   Q 765.33 797.02 767.21 784.40   A 0.83 0.83 0.0 0 1 768.03 783.70   L 791.45 783.60   A 0.36 0.35 -82.4 0 1 791.79 784.05   Q 788.58 796.05 783.91 809.24   A 2.17 2.16 9.8 0 1 781.85 810.69   L 762.04 810.63   Z" />
<path d="   M 795.26 783.72   L 813.56 783.59   A 0.43 0.42 -79.7 0 1 813.96 784.17   Q 809.63 795.15 803.38 805.33   Q 801.73 808.03 799.80 810.41   A 1.27 1.25 -70.0 0 1 798.83 810.87   L 787.37 810.88   Q 786.14 810.88 786.57 809.72   Q 791.22 797.34 794.65 784.19   A 0.63 0.62 7.1 0 1 795.26 783.72   Z" />
<path d="   M 720.14 859.39   C 721.66 857.87 722.47 855.67 723.01 853.66   C 726.40 841.23 727.49 827.39 728.23 814.22   A 1.21 1.20 1.3 0 1 729.43 813.08   L 757.22 813.06   A 0.32 0.32 0.0 0 1 757.53 813.47   Q 752.52 830.94 744.57 844.25   C 741.52 849.36 736.57 855.54 731.04 857.94   Q 727.58 859.45 720.42 860.01   Q 719.44 860.09 720.14 859.39   Z" />
<path d="   M 738.96 856.03   Q 737.93 856.34 738.72 855.61   Q 742.73 851.96 745.79 847.26   C 752.55 836.85 756.99 825.42 760.72 813.72   A 0.82 0.81 -81.3 0 1 761.50 813.14   L 781.32 813.07   Q 782.31 813.06 781.92 813.98   Q 776.19 827.55 768.26 838.54   C 765.84 841.90 763.21 845.17 759.50 847.24   Q 749.03 853.05 738.96 856.03   Z" />
<path d="   M 785.68 813.12   C 789.20 813.25 792.94 813.25 796.74 813.06   Q 798.15 812.98 797.30 814.11   Q 786.06 829.09 771.28 839.71   Q 770.22 840.47 771.00 839.42   Q 779.57 827.69 784.98 813.59   A 0.72 0.72 0.0 0 1 785.68 813.12   Z" />
<path d="   M 575.34 848.98   Q 575.72 848.79 575.76 849.21   Q 575.80 849.63 575.21 849.93   Q 574.29 850.40 574.61 849.43   Q 574.64 849.35 575.34 848.98   Z" />
</g>
<g fill="#000000" id="Group-000000">
<path d="   M 448.78 928.85   C 449.21 928.82 449.63 928.66 450.08 928.73   Q 469.78 931.75 488.74 934.24   Q 539.48 940.92 589.21 946.69   Q 589.88 946.77 589.71 947.43   L 587.97 954.30   Q 587.82 954.91 587.20 955.00   L 575.78 956.66   Q 575.08 956.76 575.14 957.46   L 576.23 969.72   A 0.51 0.51 0.0 0 1 575.72 970.28   Q 470.59 970.22 363.16 970.29   Q 352.55 970.29 346.63 968.90   Q 327.83 964.48 314.70 948.89   Q 303.53 935.63 296.67 919.76   Q 284.48 891.60 280.24 857.48   Q 273.79 805.53 281.47 753.59   C 284.53 732.90 288.97 712.65 296.05 693.09   C 303.09 673.68 312.70 655.54 327.01 641.29   C 334.46 633.86 343.31 628.92 353.35 626.29   Q 362.24 623.95 371.11 621.59   Q 389.87 616.59 402.03 602.18   Q 403.72 600.18 404.15 602.77   Q 404.31 603.73 404.65 604.66   Q 404.96 605.51 405.38 604.71   C 411.54 593.00 421.17 583.43 434.30 580.63   Q 435.22 580.44 435.25 579.50   L 435.70 564.91   A 0.84 0.83 13.1 0 0 435.20 564.12   L 430.02 561.83   A 1.31 1.30 -52.8 0 0 428.67 562.02   Q 425.69 564.46 422.26 565.62   Q 405.36 571.32 391.63 560.90   Q 391.21 560.58 390.74 560.83   Q 369.29 572.30 345.71 567.66   Q 317.50 562.11 304.88 537.09   Q 303.99 535.31 302.46 534.32   C 299.49 532.38 296.42 530.16 293.85 527.83   C 279.32 514.63 271.41 495.33 273.82 475.54   C 274.89 466.79 278.69 456.04 285.65 450.38   Q 287.38 448.97 289.59 448.65   A 0.60 0.59 72.2 0 0 290.03 447.79   C 284.18 436.18 287.62 421.61 297.02 413.16   Q 302.69 408.06 308.87 402.60   Q 322.23 390.78 324.48 372.07   Q 325.97 359.71 327.54 347.45   Q 331.26 318.24 339.36 296.85   C 348.99 271.41 367.46 246.81 394.38 238.30   Q 410.55 233.20 425.90 237.85   Q 426.48 238.03 426.60 237.43   C 432.19 209.17 454.26 190.90 483.33 192.79   Q 511.42 194.62 530.05 217.60   Q 530.37 217.99 530.88 217.97   C 574.27 215.58 617.85 248.62 618.82 294.30   Q 618.83 294.98 619.50 295.12   C 630.67 297.42 638.51 305.83 638.68 317.28   Q 638.83 327.48 633.68 335.13   A 0.47 0.46 -52.0 0 0 633.75 335.74   C 639.28 340.90 640.97 348.03 640.62 355.47   C 640.12 366.16 633.66 376.66 625.96 383.79   Q 625.63 384.10 625.55 384.54   Q 625.27 386.05 625.18 387.64   C 624.09 407.83 636.04 420.80 647.54 435.45   C 667.62 461.03 668.42 494.45 649.99 521.14   C 638.45 537.85 621.35 547.97 602.16 555.74   Q 576.44 566.15 547.86 561.63   Q 547.40 561.56 546.99 561.78   C 545.44 562.61 544.04 563.86 542.40 564.61   Q 527.19 571.53 512.97 562.08   A 0.42 0.41 47.4 0 0 512.54 562.06   L 505.17 566.13   A 0.76 0.74 -18.6 0 0 504.79 566.87   L 506.53 580.60   A 1.11 1.10 1.4 0 0 507.44 581.55   C 521.31 583.85 529.48 590.78 537.64 601.55   Q 537.80 601.77 538.05 601.86   Q 538.40 601.99 538.52 601.82   Q 538.71 601.55 538.54 601.27   Q 538.20 600.69 538.17 600.10   Q 538.09 598.15 539.49 599.51   C 545.41 605.22 551.24 611.25 558.33 615.32   Q 563.48 618.29 570.95 620.59   Q 580.94 623.66 591.90 629.09   C 597.93 632.08 603.20 635.37 608.00 639.93   Q 618.87 650.24 628.73 664.04   Q 638.64 677.92 645.37 689.34   Q 671.44 733.57 689.73 784.99   C 698.37 809.25 705.67 833.72 710.86 858.93   C 717.16 889.58 719.85 932.34 683.70 946.30   C 672.56 950.61 659.77 951.83 647.92 950.69   Q 621.49 948.13 589.01 944.47   Q 518.01 936.48 455.14 928.28   Q 452.69 927.96 450.48 927.96   Q 449.54 927.96 449.64 927.02   L 458.16 850.02   A 0.23 0.23 0.0 0 0 457.90 849.77   Q 455.98 850.00 453.97 849.87   Q 415.85 847.42 379.35 845.21   A 0.26 0.26 0.0 0 0 379.09 845.56   C 386.97 864.66 400.02 882.00 417.67 893.31   C 419.45 894.44 421.26 895.79 423.50 895.33   Q 428.94 894.23 434.79 895.03   Q 442.47 896.08 449.85 897.66   Q 450.75 897.86 450.96 898.76   Q 451.03 899.06 450.94 899.38   A 0.70 0.70 0.0 0 1 450.22 899.88   L 437.35 898.99   Q 436.77 898.95 436.27 898.64   C 432.44 896.24 425.61 897.36 421.57 898.91   Q 420.91 899.17 420.32 898.80   Q 406.95 890.60 398.55 881.48   C 387.42 869.39 378.23 854.83 373.34 839.01   Q 368.94 824.78 366.15 809.92   Q 359.57 774.85 355.91 735.36   Q 351.66 689.61 349.81 653.47   Q 349.79 652.97 349.30 653.08   L 349.05 653.14   Q 348.44 653.28 348.47 653.90   Q 351.31 713.47 358.41 770.57   Q 361.90 798.65 368.03 825.85   C 372.83 847.10 381.57 865.40 396.47 881.88   Q 406.23 892.66 419.62 900.52   Q 420.13 900.82 420.71 900.70   C 425.34 899.78 429.14 899.04 434.26 899.47   Q 435.16 899.55 434.71 900.32   Q 434.63 900.46 434.60 900.61   Q 434.42 901.48 435.31 901.38   Q 442.77 900.59 449.98 901.56   Q 450.63 901.65 450.56 902.30   C 449.66 911.02 448.32 919.68 448.21 928.32   Q 448.21 928.89 448.78 928.85   Z   M 293.62 450.82   C 289.64 450.29 286.87 451.94 284.51 454.97   C 276.58 465.15 274.16 478.92 276.32 491.23   Q 280.68 515.99 301.98 531.27   Q 302.54 531.68 302.47 530.99   Q 302.01 526.76 299.19 524.29   C 288.24 514.65 283.51 503.12 283.13 488.67   Q 282.69 471.91 290.50 455.82   Q 291.92 452.91 295.08 451.91   Q 295.69 451.72 295.48 451.11   Q 291.10 438.09 297.17 425.08   C 301.47 415.88 308.01 410.43 315.36 404.10   C 325.24 395.61 329.82 381.64 332.09 369.09   Q 334.62 355.15 337.13 341.88   C 343.54 308.06 358.31 276.62 385.98 255.81   Q 398.72 246.24 415.31 242.72   C 419.75 241.77 424.41 241.88 429.00 241.88   A 1.36 1.35 -77.1 0 0 430.22 241.11   C 441.10 218.53 462.60 204.11 488.18 207.23   Q 505.28 209.31 520.75 222.18   Q 523.26 224.28 524.66 227.07   Q 524.90 227.53 525.41 227.48   C 563.74 224.04 605.59 247.65 613.70 287.34   C 614.35 290.52 614.59 293.88 614.94 297.14   Q 615.01 297.74 615.58 297.93   Q 627.16 301.77 632.17 313.20   C 634.61 318.76 634.14 324.50 632.86 330.59   Q 632.82 330.82 633.01 330.94   Q 633.17 331.05 633.24 330.87   Q 634.96 326.89 636.04 322.49   C 637.67 315.89 635.42 308.17 630.55 303.33   Q 625.21 297.99 616.92 297.29   A 0.66 0.66 0.0 0 1 616.31 296.60   Q 616.73 288.07 614.45 279.23   Q 607.51 252.34 584.89 236.44   Q 559.63 218.69 529.84 220.29   A 1.87 1.87 0.0 0 1 528.09 219.32   Q 526.38 216.24 524.00 213.89   Q 509.16 199.25 489.66 195.79   C 472.85 192.80 455.48 197.25 443.48 209.40   Q 433.66 219.34 430.27 231.74   Q 429.13 235.91 428.18 240.11   A 0.65 0.64 -74.6 0 1 427.36 240.58   Q 406.04 234.07 386.06 244.28   C 358.27 258.47 342.74 287.37 335.68 316.63   Q 331.80 332.69 330.58 342.88   Q 327.60 367.61 326.25 376.09   Q 323.65 392.52 310.12 404.92   C 305.03 409.58 298.18 414.31 294.50 419.77   Q 284.39 434.78 294.19 449.93   A 0.58 0.58 0.0 0 1 293.62 450.82   Z   M 381.16 272.86   C 381.17 272.86 389.66 264.97 391.78 263.43   Q 398.60 258.44 407.63 255.26   Q 407.88 255.17 407.86 254.90   Q 407.80 254.26 407.17 254.13   Q 406.50 253.99 405.84 254.18   C 396.80 256.73 386.69 263.78 380.83 271.87   Q 380.32 272.58 381.16 272.86   Z   M 383.81 281.13   Q 382.76 282.82 382.09 284.69   A 0.38 0.37 -73.8 0 0 382.36 285.19   L 382.62 285.25   A 0.94 0.92 20.2 0 0 383.64 284.79   Q 388.68 275.57 396.71 269.13   Q 397.22 268.72 396.80 268.21   L 396.54 267.89   A 0.50 0.50 0.0 0 0 395.86 267.81   Q 388.86 273.03 383.81 281.13   Z   M 394.36 279.79   L 398.56 274.01   A 0.19 0.19 0.0 0 0 398.52 273.75   L 398.45 273.70   A 3.59 1.27 -54.0 0 0 395.32 275.86   L 395.12 276.13   A 3.59 1.27 -54.0 0 0 394.03 279.79   L 394.10 279.83   A 0.19 0.19 0.0 0 0 394.36 279.79   Z   M 475.24 300.82   A 0.49 0.48 -60.5 0 1 476.01 300.60   Q 481.44 305.38 486.47 309.95   Q 491.82 314.81 497.70 318.71   Q 531.05 340.84 571.57 341.48   Q 571.77 341.49 571.78 341.29   L 571.78 341.28   Q 571.80 341.08 571.60 341.05   Q 566.50 340.38 561.52 339.61   C 527.88 334.40 499.02 317.54 476.39 291.84   A 0.37 0.37 0.0 0 0 475.75 292.04   Q 474.13 305.39 467.32 317.44   Q 456.86 335.92 435.05 344.45   Q 434.42 344.69 434.37 345.37   C 433.46 358.35 431.10 370.02 425.50 381.73   Q 423.95 384.98 421.69 387.88   C 420.11 389.90 420.47 392.03 419.77 394.30   Q 415.95 406.73 405.65 412.66   C 404.07 413.57 402.32 414.04 400.63 414.67   A 0.80 0.79 -12.6 0 0 400.11 415.48   C 400.50 420.39 398.61 426.42 393.91 428.86   A 1.05 1.04 80.7 0 1 392.40 427.77   C 394.32 415.30 380.29 411.34 371.08 413.55   C 352.78 417.96 354.93 438.95 362.55 451.79   C 369.17 462.94 379.89 465.79 392.66 465.90   Q 393.27 465.91 393.41 466.51   Q 401.66 503.29 434.23 522.55   C 465.64 541.12 504.30 547.51 539.96 539.99   C 575.18 532.56 604.16 509.80 609.84 472.68   C 615.75 434.10 617.38 397.91 609.54 361.71   Q 606.93 349.66 602.64 339.13   A 0.57 0.57 0.0 0 0 601.95 338.81   C 589.46 342.79 575.93 344.42 562.94 343.49   C 529.78 341.12 498.99 327.43 476.30 303.20   Q 475.56 302.42 475.24 301.43   Q 475.14 301.12 475.24 300.82   Z   M 636.32 364.84   Q 641.93 350.57 633.84 338.80   A 1.77 1.70 -3.1 0 0 633.19 338.24   Q 632.36 337.81 631.59 338.04   A 0.71 0.71 0.0 0 0 631.21 339.14   Q 634.89 344.23 636.28 349.18   C 637.60 353.91 636.91 359.82 635.97 364.74   Q 635.61 366.64 636.32 364.84   Z   M 423.97 366.87   Q 420.71 371.05 417.93 375.39   A 0.69 0.68 -46.0 0 0 417.94 376.14   L 418.10 376.37   Q 418.43 376.85 418.73 376.36   Q 421.68 371.56 424.21 366.99   Q 424.26 366.90 424.18 366.84   L 424.17 366.84   Q 424.05 366.76 423.97 366.87   Z   M 400.66 395.05   Q 408.89 388.96 413.39 382.95   Q 413.78 382.43 413.54 381.83   L 413.44 381.59   A 0.26 0.25 54.6 0 0 413.02 381.51   Q 407.16 387.98 400.48 393.28   Q 399.92 393.73 400.00 394.45   L 400.04 394.78   Q 400.12 395.44 400.66 395.05   Z   M 628.32 539.35   C 657.16 518.59 670.13 482.48 653.65 449.42   Q 649.58 441.25 641.95 431.79   C 632.04 419.50 622.67 407.40 622.72 390.92   Q 622.73 387.66 621.76 390.77   Q 620.05 396.21 622.28 402.30   C 626.34 413.42 632.61 422.49 639.22 432.33   C 656.93 458.72 660.29 490.54 644.68 518.64   C 639.63 527.73 633.59 533.89 626.26 540.65   Q 626.22 540.68 626.22 540.73   Q 626.22 540.78 626.24 540.82   Q 626.28 540.91 626.36 540.85   Q 627.33 540.07 628.32 539.35   Z   M 394.08 397.35   L 382.06 403.64   A 0.13 0.13 0.0 0 0 382.01 403.81   L 382.02 403.85   A 3.43 1.69 -27.6 0 0 385.85 403.76   L 392.01 400.53   A 3.43 1.69 -27.6 0 0 394.27 397.45   L 394.25 397.41   A 0.13 0.13 0.0 0 0 394.08 397.35   Z   M 390.17 478.67   A 8.11 8.11 0.0 0 0 382.06 470.56   A 8.11 8.11 0.0 0 0 373.95 478.67   A 8.11 8.11 0.0 0 0 382.06 486.78   A 8.11 8.11 0.0 0 0 390.17 478.67   Z   M 505.61 615.15   C 504.75 614.42 504.42 612.84 504.19 611.77   Q 499.34 589.55 497.39 566.00   A 0.77 0.77 0.0 0 0 496.86 565.33   Q 491.24 563.37 485.74 560.74   Q 461.38 549.11 440.60 530.97   Q 440.33 530.73 440.35 531.09   Q 442.92 569.25 440.06 607.55   Q 440.02 608.12 440.54 608.36   Q 462.06 618.26 484.23 625.44   Q 487.08 626.36 490.39 626.88   C 493.06 627.29 495.32 625.84 497.19 624.12   Q 501.61 620.04 505.65 615.93   Q 506.05 615.52 505.61 615.15   Z   M 526.43 660.82   Q 534.21 651.99 542.08 644.39   A 2.44 2.42 -27.0 0 0 542.78 642.25   Q 540.11 626.60 538.41 609.44   Q 538.22 607.53 537.21 605.96   Q 532.54 598.70 526.53 593.00   Q 525.93 592.43 526.11 593.23   Q 527.69 600.16 522.76 605.07   Q 508.25 619.51 493.17 632.93   A 0.78 0.77 43.9 0 0 493.20 634.11   L 525.87 660.87   A 0.41 0.41 0.0 0 0 526.43 660.82   Z   M 487.26 633.36   Q 469.19 626.04 451.23 618.74   Q 436.45 612.73 427.46 608.11   C 421.90 605.24 416.59 600.42 416.93 593.63   Q 416.96 592.90 416.50 593.46   Q 411.14 599.96 406.30 608.17   A 1.22 1.17 -38.1 0 0 406.17 609.09   L 417.36 652.15   A 2.35 2.33 7.4 0 0 418.50 653.62   Q 436.15 663.35 453.20 673.87   A 0.46 0.45 36.0 0 0 453.78 673.78   Q 471.90 653.14 486.68 635.67   Q 487.20 635.06 487.61 634.35   Q 488.00 633.66 487.26 633.36   Z   M 453.11 678.71   A 1.11 1.11 0.0 0 1 452.37 678.54   Q 437.12 668.61 422.17 659.49   Q 420.72 658.61 419.48 657.50   Q 418.29 656.44 418.69 657.98   L 465.90 839.80   A 0.74 0.73 -4.5 0 0 466.54 840.34   L 518.49 845.83   Q 519.17 845.90 519.11 845.22   Q 511.30 760.22 499.75 683.25   Q 496.32 660.45 491.48 637.10   A 0.86 0.86 0.0 0 0 489.98 636.72   Q 472.69 657.13 453.96 678.28   C 453.76 678.50 453.41 678.67 453.11 678.71   Z   M 528.23 665.56   Q 527.68 666.11 527.08 665.62   L 496.02 640.41   Q 495.00 639.58 495.29 640.86   Q 499.47 659.87 502.21 678.01   C 510.67 733.88 517.16 789.64 522.47 845.63   Q 522.52 846.22 523.11 846.27   L 568.38 850.10   A 0.42 0.42 0.0 0 0 568.83 849.66   C 567.66 823.70 565.07 798.04 561.62 771.11   Q 554.53 715.75 543.80 649.30   Q 543.65 648.42 543.09 649.11   Q 536.17 657.54 528.23 665.56   Z   M 603.18 649.82   C 616.89 689.20 625.17 729.08 631.42 769.91   A 0.34 0.34 0.0 0 0 631.82 770.19   L 632.07 770.13   Q 632.19 770.11 632.19 769.98   Q 631.71 758.36 629.96 746.31   Q 622.39 694.36 602.33 645.44   Q 602.04 644.74 601.45 644.27   Q 600.70 643.66 601.09 644.54   Q 602.24 647.13 603.18 649.82   Z   M 647.17 856.82   A 0.51 0.50 47.4 0 1 647.20 855.98   Q 665.07 845.24 681.89 834.87   C 688.93 830.53 684.72 819.92 676.59 821.67   Q 673.69 822.30 671.02 824.04   Q 654.86 834.59 640.92 844.74   Q 640.17 845.28 639.32 845.66   Q 637.45 846.49 637.16 845.70   Q 636.86 844.90 637.54 844.39   Q 655.83 830.52 673.38 816.83   C 676.85 814.12 678.62 810.55 676.45 806.37   C 673.67 801.03 667.08 802.10 662.84 805.29   C 650.04 814.93 639.20 825.36 628.21 836.39   A 0.95 0.94 -44.0 0 1 626.86 836.37   L 626.63 836.12   Q 625.81 835.26 626.63 834.39   Q 644.04 816.17 664.07 795.76   C 666.83 792.94 668.83 789.63 667.04 785.58   C 664.20 779.16 656.71 780.57 652.69 784.67   Q 631.88 805.93 615.01 826.66   A 0.87 0.85 23.5 0 1 614.20 826.97   Q 613.45 826.86 613.10 826.14   A 1.26 1.25 51.5 0 1 613.25 824.80   C 624.53 810.83 636.49 797.42 648.18 783.93   C 652.08 779.43 652.86 772.24 646.12 770.19   C 642.00 768.94 638.31 771.96 635.89 774.89   Q 620.49 793.57 605.65 811.39   Q 604.79 812.43 603.52 811.98   Q 603.23 811.88 603.00 811.69   A 1.05 1.04 38.9 0 1 602.84 810.21   Q 618.70 790.77 633.03 773.42   Q 634.91 771.15 638.03 769.32   Q 639.24 768.60 637.86 768.90   C 635.19 769.46 632.86 771.16 631.10 773.24   C 622.87 783.01 614.99 792.86 606.65 802.90   Q 601.24 809.42 593.83 820.48   Q 584.12 834.95 578.07 849.70   Q 577.83 850.27 578.45 850.29   Q 588.27 850.66 597.20 849.80   C 615.20 848.07 630.57 848.11 646.26 857.67   C 648.05 858.76 649.43 860.20 651.19 861.28   A 0.37 0.37 0.0 0 0 651.75 860.91   L 651.69 860.46   Q 651.64 860.07 651.33 859.85   L 647.17 856.82   Z   M 575.34 848.98   Q 574.64 849.35 574.61 849.43   Q 574.29 850.40 575.21 849.93   Q 575.80 849.63 575.76 849.21   Q 575.72 848.79 575.34 848.98   Z" />
<rect x="-1.09" y="-7.69" transform="translate(628.55,262.65) rotate(18.1)" width="2.18" height="15.38" rx="1.07" />
<path d="   M 648.21 270.48   Q 638.31 281.17 630.40 286.48   A 0.45 0.45 0.0 0 1 629.75 286.32   L 629.59 286.03   Q 629.17 285.25 629.86 284.70   Q 638.82 277.46 647.09 268.96   A 0.62 0.62 0.0 0 1 647.97 268.96   L 648.19 269.18   Q 648.82 269.82 648.21 270.48   Z" />
<path d="   M 486.80 391.18   C 480.15 388.62 475.32 388.70 467.98 391.28   C 466.21 391.90 463.13 390.51 463.46 387.93   Q 463.81 385.13 466.87 384.06   Q 478.59 379.92 489.64 384.63   A 3.20 3.18 84.6 0 1 491.01 385.77   Q 492.39 387.84 491.88 389.12   Q 490.50 392.60 486.80 391.18   Z" />
<path d="   M 589.20 395.58   C 582.24 392.36 577.36 393.01 570.27 394.65   A 2.49 2.47 -34.0 0 1 568.32 394.28   C 564.75 391.84 566.55 388.27 570.00 387.22   C 576.63 385.19 586.86 385.21 592.98 389.53   C 596.73 392.17 593.44 397.54 589.20 395.58   Z" />
<ellipse cx="0.00" cy="0.00" transform="translate(481.71,425.67) rotate(89.9)" rx="13.25" ry="6.12" />
<path d="   M 546.57 451.37   A 0.74 0.74 0.0 0 0 546.12 450.40   C 531.96 445.42 532.69 427.27 539.30 416.66   Q 539.87 415.75 540.82 416.24   L 541.15 416.41   Q 542.18 416.93 541.67 417.97   C 537.86 425.60 535.52 441.29 545.30 446.16   Q 547.18 447.09 549.00 448.11   A 2.31 2.29 -78.6 0 1 550.18 449.90   C 550.89 456.83 542.99 462.57 536.95 463.60   C 536.09 463.74 535.17 463.20 535.31 462.23   Q 535.40 461.59 536.00 461.34   C 540.90 459.25 544.71 456.28 546.57 451.37   Z" />
<ellipse cx="0.00" cy="0.00" transform="translate(579.21,429.61) rotate(90.3)" rx="12.95" ry="5.94" />
<path d="   M 384.52 427.85   C 380.82 423.95 375.11 424.12 371.50 428.18   A 1.39 1.38 41.0 0 1 369.56 428.31   L 369.36 428.13   A 1.12 1.11 39.3 0 1 369.20 426.59   C 379.72 413.07 397.84 431.79 389.29 441.59   Q 388.84 442.11 388.09 442.20   Q 387.69 442.25 387.41 441.99   A 0.80 0.79 32.6 0 1 387.21 441.09   Q 390.27 433.92 384.52 427.85   Z" />
<path d="   M 508.20 484.25   A 0.83 0.82 66.3 0 0 507.75 485.41   C 514.73 498.94 529.69 500.71 542.26 493.50   Q 542.90 493.13 543.33 493.72   L 543.58 494.07   A 1.31 1.31 0.0 0 1 543.21 495.95   C 530.37 503.87 511.01 502.26 505.38 486.43   Q 505.00 485.36 503.87 485.50   Q 502.21 485.71 500.57 485.22   Q 499.99 485.04 499.88 484.45   Q 499.83 484.19 499.88 483.93   Q 499.99 483.28 500.65 483.30   Q 507.01 483.44 512.26 480.04   A 0.40 0.40 0.0 0 1 512.86 480.24   L 512.97 480.54   A 1.10 1.09 -29.9 0 1 512.63 481.78   Q 510.60 483.40 508.20 484.25   Z" />
<rect x="-7.52" y="-1.01" transform="translate(278.23,537.81) rotate(-43.9)" width="15.04" height="2.02" rx="0.99" />
<rect x="-5.57" y="-0.97" transform="translate(661.32,536.16) rotate(12.4)" width="11.14" height="1.94" rx="0.93" />
<rect x="-1.04" y="-8.76" transform="translate(291.05,549.54) rotate(29.9)" width="2.08" height="17.52" rx="1.02" />
<ellipse cx="0.00" cy="0.00" transform="translate(647.21,550.04) rotate(37.5)" rx="3.59" ry="1.06" />
<path d="   M 646.42 635.29   Q 649.00 632.55 645.78 634.50   Q 634.54 641.30 623.99 651.01   Q 623.33 651.62 622.48 651.35   Q 621.61 651.07 622.07 649.58   A 1.38 1.25 79.0 0 1 622.39 649.05   C 645.18 626.48 676.91 615.36 708.71 616.58   C 744.70 617.96 776.15 633.54 798.61 660.73   C 811.36 676.16 819.88 696.96 823.01 716.57   C 832.00 773.02 805.97 827.58 754.48 852.70   C 742.56 858.52 730.16 861.81 716.80 863.21   A 1.06 1.05 -80.4 0 1 715.74 861.71   C 716.46 860.18 717.74 859.42 718.41 857.91   Q 720.93 852.27 721.98 846.00   Q 724.69 829.77 725.22 813.54   Q 725.24 813.06 724.76 813.06   L 703.91 813.03   Q 703.04 813.03 702.88 812.17   L 702.76 811.56   Q 702.60 810.72 703.45 810.72   L 724.51 810.63   A 1.19 1.18 -88.7 0 0 725.69 809.49   L 726.82 784.27   Q 726.85 783.70 726.27 783.70   L 694.86 783.78   Q 693.87 783.79 693.51 782.87   Q 693.39 782.56 693.41 782.24   Q 693.45 781.40 694.28 781.40   L 726.22 781.37   A 0.83 0.83 0.0 0 0 727.05 780.55   L 727.68 743.00   A 0.69 0.68 -89.6 0 0 727.00 742.30   L 686.37 742.23   Q 686.05 742.23 686.04 742.55   Q 685.70 753.46 686.55 764.06   Q 686.67 765.55 686.07 764.17   Q 684.52 760.61 683.54 756.67   C 682.45 752.34 682.82 747.44 682.82 742.94   Q 682.82 742.31 682.19 742.29   L 677.80 742.14   A 1.43 1.36 59.7 0 1 677.14 741.95   Q 676.01 741.33 676.29 740.38   Q 676.42 739.95 676.87 739.94   L 682.24 739.88   Q 682.85 739.87 682.85 739.26   L 683.11 712.39   A 0.50 0.49 0.6 0 0 682.61 711.89   Q 673.12 712.05 664.09 711.86   Q 663.09 711.84 662.41 711.10   Q 662.27 710.94 662.21 710.74   Q 661.96 709.72 663.01 709.72   L 682.66 709.73   A 0.67 0.67 0.0 0 0 683.33 709.09   L 684.86 673.04   Q 684.90 672.16 684.02 672.16   L 655.19 672.29   A 0.44 0.43 -84.2 0 0 654.77 672.64   L 651.36 687.97   Q 650.88 690.13 649.94 688.13   C 648.26 684.59 650.65 676.83 651.55 672.94   A 0.49 0.48 6.4 0 0 651.07 672.34   Q 646.12 672.47 640.48 671.99   Q 639.29 671.89 638.53 671.05   Q 638.30 670.80 638.29 670.43   Q 638.27 669.84 638.86 669.84   L 651.55 669.80   Q 652.19 669.80 652.35 669.18   C 656.95 651.61 664.24 632.34 679.46 622.05   Q 680.56 621.31 679.26 621.56   C 670.77 623.23 660.35 626.04 653.61 631.94   Q 641.00 643.00 632.12 659.67   Q 631.58 660.68 630.59 660.11   Q 629.78 659.64 630.22 657.74   A 1.65 1.58 -25.4 0 1 630.38 657.32   Q 637.36 644.84 646.42 635.29   Z   M 688.48 669.91   L 724.63 669.84   A 0.50 0.49 -2.1 0 0 725.13 669.31   Q 723.99 655.38 721.46 642.09   Q 720.30 636.01 717.99 629.85   C 715.50 623.23 712.13 618.58 704.19 619.05   Q 699.51 619.33 697.05 623.49   Q 693.95 628.71 692.76 634.23   Q 689.11 651.23 688.37 669.79   A 0.11 0.11 0.0 0 0 688.48 669.91   Z   M 655.36 669.34   A 0.38 0.38 0.0 0 0 655.73 669.81   L 684.75 669.88   A 0.50 0.50 0.0 0 0 685.25 669.41   C 686.23 656.16 687.55 642.41 690.99 630.00   Q 692.70 623.81 696.39 619.79   Q 696.93 619.20 696.14 619.33   C 692.50 619.92 688.54 619.51 685.25 621.18   C 667.99 629.96 659.98 651.61 655.36 669.34   Z   M 714.92 620.17   C 719.01 623.53 721.55 630.32 722.90 635.84   Q 726.59 650.92 728.08 669.27   A 0.65 0.65 0.0 0 0 728.73 669.87   L 757.74 669.92   A 0.24 0.23 -8.2 0 0 757.97 669.62   Q 753.43 653.58 745.64 640.44   Q 739.54 630.13 729.57 623.53   C 724.68 620.29 720.59 620.04 715.13 619.65   Q 714.22 619.59 714.92 620.17   Z   M 733.09 622.24   Q 731.51 621.84 732.81 622.83   C 747.70 634.02 755.66 651.22 761.10 669.15   A 1.12 1.11 81.4 0 0 762.18 669.95   L 784.74 669.94   A 0.19 0.19 0.0 0 0 784.91 669.68   Q 778.11 654.28 769.05 643.07   C 764.25 637.12 758.19 630.92 750.81 627.99   Q 741.95 624.47 733.09 622.24   Z   M 768.49 637.38   Q 766.06 635.83 767.97 638.00   Q 780.12 651.76 787.78 669.59   Q 788.02 670.14 788.62 670.12   Q 795.70 669.86 801.87 670.05   Q 802.56 670.07 802.16 669.51   Q 788.32 649.94 768.49 637.38   Z   M 688.80 672.36   A 0.86 0.86 0.0 0 0 687.94 673.18   L 686.30 708.90   A 0.86 0.86 0.0 0 0 687.16 709.80   L 726.46 709.72   A 0.86 0.86 0.0 0 0 727.32 708.82   L 725.54 673.11   A 0.86 0.86 0.0 0 0 724.68 672.29   L 688.80 672.36   Z   M 766.40 708.99   C 764.98 696.91 762.65 685.13 759.22 673.26   A 1.25 1.24 81.9 0 0 758.03 672.36   L 728.79 672.27   Q 728.27 672.27 728.31 672.79   Q 729.66 690.43 730.14 709.42   A 0.38 0.38 0.0 0 0 730.52 709.79   L 765.78 709.69   A 0.63 0.62 86.7 0 0 766.40 708.99   Z   M 762.08 672.93   C 765.91 684.12 768.02 696.90 769.33 708.99   A 0.85 0.84 -3.0 0 0 770.17 709.74   L 795.77 709.79   Q 796.54 709.79 796.43 709.03   Q 793.81 689.51 786.13 673.18   A 1.27 1.27 0.0 0 0 785.00 672.46   L 762.53 672.31   A 0.47 0.47 0.0 0 0 762.08 672.93   Z   M 799.31 709.03   A 0.91 0.90 85.9 0 0 800.20 709.81   L 818.63 709.82   A 0.16 0.16 0.0 0 0 818.79 709.63   Q 814.78 690.37 804.44 673.52   Q 803.90 672.63 802.81 672.60   Q 795.55 672.41 789.21 672.39   A 0.35 0.35 0.0 0 0 788.90 672.89   C 794.33 683.97 797.47 696.77 799.31 709.03   Z   M 767.49 739.92   A 0.78 0.78 0.0 0 0 768.27 739.10   L 766.86 712.72   A 0.78 0.78 0.0 0 0 766.08 711.98   L 731.08 711.90   A 0.78 0.78 0.0 0 0 730.30 712.69   L 730.72 739.26   A 0.78 0.78 0.0 0 0 731.50 740.03   L 767.49 739.92   Z   M 727.48 712.66   A 0.72 0.72 0.0 0 0 726.76 711.94   L 686.84 711.94   A 0.72 0.72 0.0 0 0 686.12 712.66   L 686.12 739.26   A 0.72 0.72 0.0 0 0 686.84 739.98   L 726.76 739.98   A 0.72 0.72 0.0 0 0 727.48 739.26   L 727.48 712.66   Z   M 798.23 739.29   C 798.48 730.43 797.97 721.34 796.82 712.73   Q 796.73 712.06 796.06 712.06   L 770.05 711.95   A 0.23 0.23 0.0 0 0 769.82 712.19   L 771.20 739.42   A 0.58 0.57 88.4 0 0 771.77 739.97   L 797.42 740.08   A 0.81 0.80 -88.9 0 0 798.23 739.29   Z   M 818.80 712.09   L 800.20 711.97   A 0.51 0.51 0.0 0 0 799.69 712.54   Q 801.35 726.06 801.15 739.47   A 0.60 0.60 0.0 0 0 801.75 740.08   L 821.27 740.11   A 0.91 0.91 0.0 0 0 822.18 739.19   Q 822.13 725.72 819.37 712.56   A 0.60 0.60 0.0 0 0 818.80 712.09   Z   M 730.05 781.08   A 0.28 0.27 90.0 0 0 730.32 781.36   L 764.03 781.34   A 0.87 0.87 0.0 0 0 764.89 780.60   Q 767.51 761.93 767.98 742.89   A 0.56 0.56 0.0 0 0 767.42 742.32   L 731.13 742.25   A 0.38 0.37 -89.2 0 0 730.76 742.62   L 730.05 781.08   Z   M 771.31 742.36   A 0.40 0.40 0.0 0 0 770.90 742.75   Q 770.64 761.91 767.78 780.80   Q 767.70 781.34 768.24 781.33   L 791.77 781.28   A 0.94 0.94 0.0 0 0 792.69 780.55   Q 797.11 762.23 798.07 742.79   A 0.37 0.36 -89.2 0 0 797.71 742.41   L 771.31 742.36   Z   M 821.60 742.42   L 801.26 742.36   A 0.31 0.30 1.0 0 0 800.95 742.65   Q 799.93 759.01 796.84 774.91   Q 796.28 777.82 795.29 780.66   A 0.50 0.50 0.0 0 0 795.76 781.32   L 814.25 781.26   A 1.27 1.26 8.6 0 0 815.44 780.39   Q 821.57 761.62 822.09 742.93   A 0.50 0.49 -89.4 0 0 821.60 742.42   Z   M 758.48 810.64   A 0.33 0.33 0.0 0 0 758.81 810.38   L 764.41 784.04   A 0.33 0.33 0.0 0 0 764.09 783.64   L 730.22 783.71   A 0.33 0.33 0.0 0 0 729.90 784.02   L 728.73 810.32   A 0.33 0.33 0.0 0 0 729.06 810.66   L 758.48 810.64   Z   M 762.04 810.63   L 781.85 810.69   A 2.17 2.16 9.8 0 0 783.91 809.24   Q 788.58 796.05 791.79 784.05   A 0.36 0.35 -82.4 0 0 791.45 783.60   L 768.03 783.70   A 0.83 0.83 0.0 0 0 767.21 784.40   Q 765.33 797.02 761.67 810.13   A 0.39 0.39 0.0 0 0 762.04 810.63   Z   M 795.26 783.72   A 0.63 0.62 7.1 0 0 794.65 784.19   Q 791.22 797.34 786.57 809.72   Q 786.14 810.88 787.37 810.88   L 798.83 810.87   A 1.27 1.25 -70.0 0 0 799.80 810.41   Q 801.73 808.03 803.38 805.33   Q 809.63 795.15 813.96 784.17   A 0.43 0.42 -79.7 0 0 813.56 783.59   L 795.26 783.72   Z   M 723.01 853.66   C 722.47 855.67 721.66 857.87 720.14 859.39   Q 719.44 860.09 720.42 860.01   Q 727.58 859.45 731.04 857.94   C 736.57 855.54 741.52 849.36 744.57 844.25   Q 752.52 830.94 757.53 813.47   A 0.32 0.32 0.0 0 0 757.22 813.06   L 729.43 813.08   A 1.21 1.20 1.3 0 0 728.23 814.22   C 727.49 827.39 726.40 841.23 723.01 853.66   Z   M 738.96 856.03   Q 749.03 853.05 759.50 847.24   C 763.21 845.17 765.84 841.90 768.26 838.54   Q 776.19 827.55 781.92 813.98   Q 782.31 813.06 781.32 813.07   L 761.50 813.14   A 0.82 0.81 -81.3 0 0 760.72 813.72   C 756.99 825.42 752.55 836.85 745.79 847.26   Q 742.73 851.96 738.72 855.61   Q 737.93 856.34 738.96 856.03   Z   M 796.74 813.06   C 792.94 813.25 789.20 813.25 785.68 813.12   A 0.72 0.72 0.0 0 0 784.98 813.59   Q 779.57 827.69 771.00 839.42   Q 770.22 840.47 771.28 839.71   Q 786.06 829.09 797.30 814.11   Q 798.15 812.98 796.74 813.06   Z" />
<ellipse cx="0.00" cy="0.00" transform="translate(485.45,664.64) rotate(94.1)" rx="6.36" ry="4.54" />
<ellipse cx="0.00" cy="0.00" transform="translate(494.22,719.74) rotate(96.1)" rx="6.19" ry="4.53" />
<ellipse cx="0.00" cy="0.00" transform="translate(501.10,773.29) rotate(95.1)" rx="6.14" ry="4.55" />
<ellipse cx="0.00" cy="0.00" transform="translate(507.88,819.42) rotate(-18.8)" rx="5.64" ry="4.58" />
</g>
</g></svg>