<svg xmlns="http://www.w3.org/2000/svg" viewBox="0 0 1024 1024" version="1.1">
<g id="Parent-Group"><g id="Group-rgba(0,0,0,0)" fill="rgba(0,0,0,0)">
<path fill="rgba(0,0,0,0)" opacity="1.00" d=" M 0.00 0.00 L 1024.00 0.00 L 1024.00 986.33 C 1017.28 978.93 1009.83 972.25 1002.84 965.11 C 995.12 957.35 988.71 948.44 982.36 939.57 C 980.89 937.31 978.66 935.02 979.49 932.11 C 983.60 897.18 973.85 860.67 952.00 833.00 C 930.67 805.29 897.92 786.48 863.10 782.65 C 859.89 782.24 856.66 782.18 853.46 782.50 C 853.21 784.36 853.34 786.89 855.92 786.62 C 890.51 788.41 923.58 805.92 945.65 832.43 C 968.01 858.72 978.66 894.31 975.33 928.57 C 972.69 924.14 970.38 919.53 967.97 914.98 C 965.50 910.05 960.05 908.10 955.58 905.50 C 935.24 894.13 913.91 884.47 894.47 871.54 C 888.50 867.66 883.23 862.82 878.37 857.64 C 871.27 850.10 863.78 842.89 857.13 834.94 C 853.38 830.52 850.48 825.49 847.39 820.62 C 842.07 812.17 834.74 805.30 827.83 798.19 C 816.94 787.30 806.60 775.79 797.74 763.18 C 777.32 733.54 754.50 705.68 733.75 676.30 C 725.62 664.78 716.62 653.87 709.11 641.92 C 704.93 635.38 701.60 628.32 696.90 622.13 C 690.29 613.39 683.54 604.76 676.95 596.00 C 675.62 594.45 673.62 591.55 671.39 593.48 C 669.91 594.20 670.15 595.80 671.02 596.91 C 679.99 610.47 691.57 622.24 699.45 636.55 C 704.86 646.45 711.49 655.62 718.29 664.60 C 728.66 678.31 738.34 692.54 748.76 706.21 C 764.04 726.33 779.35 746.44 793.77 767.20 C 805.27 783.75 819.69 797.92 833.69 812.31 C 841.38 819.95 845.69 830.10 852.64 838.33 C 857.58 844.35 863.14 849.83 868.49 855.49 C 874.73 861.85 880.58 868.71 887.91 873.88 C 908.66 888.42 932.00 898.58 954.02 910.98 C 957.27 912.92 961.34 914.29 963.13 917.93 C 967.46 925.52 971.29 933.43 976.41 940.55 C 982.48 949.34 988.70 958.07 995.86 966.02 C 1005.01 975.79 1015.27 984.50 1024.00 994.68 L 1024.00 1024.00 L 783.08 1024.00 C 781.90 1012.32 780.62 1000.28 775.13 989.70 C 771.47 981.78 765.61 975.23 760.81 968.06 C 759.97 958.13 760.16 948.12 759.61 938.17 C 770.56 938.94 781.56 939.10 792.53 938.73 C 805.40 937.78 819.09 935.65 829.55 927.49 C 838.36 920.71 842.01 909.48 843.51 898.88 C 844.96 888.04 846.00 877.06 845.29 866.13 C 844.69 855.31 840.35 844.26 831.59 837.49 C 820.97 829.12 807.10 827.16 794.12 825.29 C 790.50 825.15 789.84 820.85 789.24 818.05 C 787.44 804.69 787.34 790.89 782.55 778.11 C 778.87 767.62 771.10 758.47 760.88 753.92 C 747.53 747.77 732.33 747.76 717.98 749.17 C 710.75 749.68 703.12 751.52 697.95 756.95 C 687.84 767.34 682.08 781.18 678.68 795.08 C 674.98 810.82 674.58 827.50 678.78 843.18 C 675.91 845.00 673.15 846.99 670.47 849.08 C 659.41 824.01 650.01 798.17 636.96 774.01 C 627.45 755.66 617.01 737.82 606.94 719.77 C 603.65 713.81 599.09 708.22 592.65 705.55 C 575.66 698.27 556.60 697.39 538.47 699.68 C 534.88 700.24 530.86 699.92 527.92 702.43 C 526.39 701.97 524.88 701.50 523.38 701.01 C 522.21 693.41 520.29 685.45 515.13 679.50 C 514.84 664.86 514.53 650.23 513.99 635.60 C 517.06 635.65 520.65 636.41 523.23 634.27 C 525.06 632.74 524.86 630.13 524.81 627.99 C 521.88 589.32 518.98 550.65 516.14 511.98 C 515.68 508.49 518.63 505.95 520.89 503.78 C 523.14 501.79 526.60 499.55 529.52 501.57 C 531.71 503.36 532.05 506.41 532.19 509.06 C 532.57 515.20 532.09 521.45 529.96 527.27 C 531.16 528.18 532.65 530.84 534.31 529.36 C 537.24 526.60 539.01 522.35 543.05 520.95 C 544.87 520.21 547.54 520.85 548.03 522.99 C 548.54 527.22 544.38 530.05 543.79 534.01 C 544.69 535.61 546.93 537.03 548.56 535.52 C 552.26 532.17 555.21 527.04 553.92 521.91 C 553.23 518.05 549.97 514.75 546.03 514.33 C 543.24 514.03 540.70 515.41 538.26 516.54 C 538.62 510.55 538.64 504.01 535.13 498.86 C 533.20 495.89 529.58 494.26 526.08 494.68 C 522.16 495.08 519.03 497.67 515.96 499.90 C 515.56 493.16 515.20 486.41 514.75 479.68 C 519.61 478.71 524.25 476.94 528.72 474.81 C 534.06 472.21 540.31 473.27 545.68 475.22 C 552.60 477.77 557.92 483.06 563.85 487.22 C 572.57 493.64 582.14 499.56 588.10 508.87 C 595.65 520.39 605.21 530.41 615.25 539.78 C 627.27 550.80 636.51 564.41 648.27 575.67 C 652.91 580.06 657.37 584.64 662.00 589.04 C 663.67 591.07 667.34 588.80 666.62 586.40 C 665.40 583.23 662.57 581.10 660.24 578.77 C 650.05 569.61 641.01 559.30 632.16 548.88 C 624.14 539.20 614.27 531.32 605.84 522.04 C 600.61 516.50 596.16 510.31 591.81 504.08 C 585.41 494.87 575.79 488.76 566.92 482.20 C 560.53 477.44 554.41 471.85 546.65 469.42 C 540.38 467.42 533.30 466.35 527.11 469.20 C 522.99 471.11 518.86 473.00 514.47 474.18 C 513.03 452.17 512.74 429.12 521.60 408.47 C 526.31 396.64 533.09 385.78 540.77 375.67 C 543.29 373.27 540.35 370.76 538.90 368.76 C 558.00 341.67 577.72 315.01 597.11 288.13 C 601.84 281.77 608.00 276.51 612.27 269.82 C 612.19 269.18 612.02 267.90 611.94 267.26 C 606.79 271.81 603.30 277.99 597.77 282.15 C 600.13 278.51 603.13 275.34 605.84 271.96 C 607.62 269.67 610.18 267.69 610.40 264.58 C 607.87 265.70 606.01 267.80 604.03 269.64 C 605.42 267.81 606.93 266.06 608.46 264.33 C 606.45 262.03 604.45 259.71 602.24 257.61 C 596.47 263.38 591.05 269.50 585.75 275.71 C 563.91 299.08 542.24 322.63 520.74 346.32 C 518.78 345.00 516.77 345.64 515.34 347.28 C 502.52 359.89 491.73 374.95 476.30 384.64 C 476.30 381.98 476.31 379.33 476.32 376.68 C 482.89 374.05 488.86 369.77 492.97 363.97 C 502.67 350.62 502.19 330.94 492.09 317.94 C 487.48 310.19 482.94 301.97 475.31 296.74 C 469.06 292.30 460.66 293.32 453.87 295.87 C 448.76 297.65 444.65 301.38 441.54 305.71 C 440.48 303.29 440.57 299.88 437.98 298.48 C 434.52 300.84 437.99 305.22 440.07 307.43 C 430.13 308.44 421.14 314.48 415.28 322.41 C 411.23 327.84 410.22 335.36 413.27 341.51 C 415.76 346.53 419.51 352.02 425.47 352.97 C 430.26 365.38 441.68 374.59 454.57 377.48 C 454.61 381.32 454.61 385.16 454.63 389.00 C 447.07 387.90 439.71 385.62 432.97 381.99 C 425.08 377.85 416.70 374.62 408.01 372.61 C 406.37 373.22 405.26 374.67 403.95 375.77 C 397.25 369.21 390.52 362.69 383.69 356.28 C 377.89 351.02 373.38 344.57 368.54 338.46 C 358.22 325.13 347.78 311.88 337.67 298.38 C 331.93 290.72 327.65 281.92 320.99 274.99 C 320.40 275.12 319.21 275.38 318.62 275.51 C 322.67 280.26 326.37 285.31 329.89 290.47 C 325.73 285.91 321.75 281.16 318.37 275.99 C 317.35 276.97 316.33 277.97 315.33 278.97 C 318.65 283.20 321.80 287.59 325.57 291.44 C 327.97 293.71 330.61 295.74 332.60 298.41 C 345.37 315.59 358.49 332.50 371.65 349.38 C 376.64 355.99 383.04 361.31 388.90 367.11 C 392.87 371.09 396.92 374.99 401.08 378.78 C 397.89 381.90 394.96 385.30 391.63 388.28 C 385.97 382.62 379.69 377.64 373.75 372.29 C 369.40 368.32 364.35 364.86 361.38 359.64 C 349.04 339.63 336.43 319.78 324.01 299.83 C 325.18 298.44 326.36 297.06 327.53 295.68 C 323.09 290.49 318.77 285.20 314.72 279.69 C 313.56 280.79 312.40 281.91 311.27 283.04 C 315.60 288.15 319.16 293.85 322.94 299.37 C 318.99 295.48 315.97 290.80 312.79 286.29 C 312.01 285.05 310.88 284.13 309.68 283.34 C 309.78 288.56 313.93 292.28 316.49 296.46 C 329.77 316.10 341.73 336.59 354.42 356.60 C 357.16 360.78 359.25 365.51 363.10 368.84 C 371.61 376.24 380.09 383.68 388.72 390.94 C 388.07 392.23 387.32 393.48 386.94 394.89 C 388.11 396.72 389.86 398.07 391.56 399.39 C 396.87 403.40 401.97 407.68 407.20 411.80 C 410.98 414.93 415.14 417.79 417.82 422.01 C 418.94 423.67 420.35 426.17 422.79 424.98 C 424.55 420.97 421.00 417.26 418.29 414.72 C 410.29 407.71 401.82 401.25 393.51 394.60 C 398.67 389.33 404.06 384.30 409.08 378.89 C 417.61 380.67 425.40 384.71 433.14 388.55 C 445.41 394.49 460.12 396.93 473.17 392.15 C 485.12 387.47 494.11 377.89 502.90 368.91 C 507.91 363.46 513.23 358.30 517.90 352.55 C 523.85 359.39 529.53 366.47 535.35 373.43 C 523.44 389.22 513.95 407.27 510.28 426.84 C 505.39 453.85 510.22 481.22 510.89 508.36 C 480.89 512.13 450.77 515.07 420.55 516.16 C 420.11 492.58 424.59 469.33 426.40 445.92 C 424.86 445.77 423.31 445.64 421.78 445.52 C 420.37 451.20 420.05 457.06 419.31 462.84 C 417.90 474.08 416.69 485.34 415.83 496.64 C 399.93 506.39 385.04 517.71 370.46 529.32 C 358.39 538.86 347.09 549.31 335.88 559.82 C 320.66 573.96 305.10 587.72 290.20 602.20 C 278.60 613.57 267.69 625.63 255.87 636.79 C 247.42 644.90 238.59 652.62 230.01 660.59 C 228.46 658.02 226.73 655.40 224.01 653.94 C 221.01 652.00 217.31 652.17 213.90 651.98 C 209.46 639.98 200.05 629.94 188.38 624.72 C 180.87 621.32 172.15 619.50 164.11 622.04 C 159.58 623.46 155.11 625.36 151.29 628.21 C 147.79 630.81 146.20 635.09 143.09 638.04 C 140.82 638.93 138.30 638.84 135.94 639.35 C 128.66 640.44 122.36 645.38 118.75 651.67 C 116.01 656.47 115.16 662.01 113.98 667.33 C 104.41 667.64 95.37 674.44 92.77 683.70 C 90.85 689.62 91.68 695.91 92.20 701.98 C 88.75 704.68 85.22 707.72 83.91 712.06 C 81.44 718.33 82.46 725.36 85.39 731.28 C 78.86 731.55 72.69 734.47 68.18 739.18 C 64.17 743.48 58.70 746.93 57.03 752.92 C 43.87 750.85 30.98 756.81 21.10 765.11 C 13.00 772.13 6.27 781.30 4.10 791.96 C 2.54 798.81 2.77 806.31 6.32 812.54 C 4.21 814.98 2.02 817.35 0.00 819.88 L 0.00 0.00 M 426.39 418.20 C 424.33 423.57 423.44 429.29 422.32 434.91 C 422.19 436.71 421.51 438.84 422.55 440.48 C 423.96 441.04 425.51 440.82 427.00 440.87 C 428.83 433.49 429.52 425.85 431.62 418.50 C 429.91 417.86 428.14 417.70 426.39 418.20 M 666.50 649.00 C 664.11 654.39 666.30 661.56 671.91 663.93 C 672.98 663.01 674.04 662.09 675.06 661.12 C 673.58 658.50 671.13 656.10 671.13 652.91 C 671.95 647.86 679.08 643.83 683.25 647.65 C 686.86 651.40 687.07 656.86 688.51 661.59 C 689.91 663.79 693.50 662.52 693.46 659.98 C 693.04 654.17 691.28 648.07 687.25 643.72 C 681.06 637.64 669.47 641.21 666.50 649.00 M 952.84 943.94 C 949.37 948.59 950.73 954.84 952.33 959.96 C 953.52 959.92 954.72 959.88 955.94 959.84 C 955.88 955.69 953.95 951.43 955.52 947.38 C 956.37 944.87 960.80 944.32 961.83 946.98 C 963.36 950.62 962.63 954.70 963.60 958.47 C 965.31 959.91 967.66 958.01 967.34 955.99 C 967.41 951.52 967.29 946.34 963.98 942.93 C 960.95 939.80 955.29 940.37 952.84 943.94 M 864.73 974.01 C 861.78 979.58 862.77 986.20 864.22 992.06 C 864.37 994.50 869.26 993.37 868.02 990.99 C 867.40 986.34 866.36 981.46 867.89 976.90 C 868.27 974.87 871.53 974.92 872.36 976.62 C 875.46 981.38 875.37 987.29 876.39 992.69 C 880.93 995.01 881.72 986.97 886.09 987.30 C 887.63 989.12 886.95 991.94 887.85 994.13 C 889.45 994.55 891.72 994.11 891.25 991.97 C 891.25 988.76 890.63 984.40 887.02 983.37 C 884.17 982.30 881.81 984.68 880.00 986.51 C 878.58 981.34 878.35 974.96 873.47 971.68 C 870.59 969.53 866.34 971.01 864.73 974.01 Z" />
<path fill="rgba(0,0,0,0)" opacity="1.00" d=" M 602.02 263.02 C 602.81 262.50 603.57 260.97 604.65 261.37 C 600.72 266.23 595.73 270.25 592.06 275.37 C 592.62 278.09 594.53 280.40 595.64 282.95 C 575.55 310.21 555.58 337.59 536.03 365.26 C 531.58 360.16 526.92 355.21 523.02 349.67 C 532.32 340.44 540.85 330.45 549.89 320.95 C 563.50 306.16 577.13 291.36 590.74 276.58 C 593.59 271.36 597.95 267.27 602.02 263.02 Z" />
<path fill="rgba(0,0,0,0)" opacity="1.00" d=" M 447.62 316.32 C 456.61 322.98 468.15 324.60 479.06 324.72 C 482.72 324.77 486.26 323.72 489.78 322.84 C 493.54 329.53 495.76 337.32 494.89 345.03 C 493.90 355.70 487.30 365.93 477.45 370.45 C 460.22 379.02 436.61 369.34 430.35 351.15 C 440.53 342.52 446.09 329.38 447.62 316.32 M 481.47 328.45 C 479.12 328.93 477.55 331.68 478.73 333.88 C 479.39 337.58 485.55 337.37 486.33 333.86 C 487.44 330.88 484.67 327.32 481.47 328.45 M 455.31 329.30 C 453.18 330.83 453.11 334.22 455.30 335.74 C 457.32 337.65 460.91 336.67 461.79 334.07 C 463.71 330.40 458.21 326.46 455.31 329.30 M 471.04 340.08 C 471.86 342.76 474.48 344.55 477.31 344.21 C 477.75 341.02 475.49 338.61 472.87 337.24 C 471.28 337.55 470.67 338.50 471.04 340.08 M 463.39 346.64 C 461.03 346.94 458.32 348.29 458.08 350.95 C 457.40 354.52 460.27 357.81 463.58 358.69 C 466.30 359.38 469.16 359.41 471.94 359.11 C 477.16 358.74 480.48 351.69 477.52 347.45 C 473.22 345.17 468.02 346.17 463.39 346.64 Z" />
<path fill="rgba(0,0,0,0)" opacity="1.00" d=" M 459.09 378.27 C 463.37 378.42 467.67 378.41 471.92 377.80 C 471.81 380.71 471.78 383.63 471.69 386.55 C 467.69 388.08 463.47 388.89 459.21 389.07 C 459.12 385.47 459.13 381.87 459.09 378.27 Z" />
<path fill="rgba(0,0,0,0)" opacity="1.00" d=" M 370.53 536.62 C 384.92 524.69 400.13 513.80 415.33 502.95 C 415.03 509.31 414.96 515.70 416.25 521.96 C 416.27 557.66 416.11 593.38 416.02 629.08 C 415.88 631.64 417.77 634.12 420.39 634.36 C 424.16 634.77 427.97 634.36 431.76 634.55 C 431.68 649.98 431.88 665.44 431.59 680.86 C 427.51 686.22 423.45 691.73 420.91 698.04 C 409.94 696.91 398.90 695.35 387.85 696.42 C 379.20 697.31 370.71 699.43 362.02 700.04 C 352.99 699.93 344.06 697.91 335.01 698.14 C 312.85 698.28 291.56 713.12 283.81 733.89 C 280.29 742.48 278.71 751.87 274.02 759.97 C 271.21 764.99 265.97 767.91 262.74 772.59 C 259.21 777.53 256.73 783.10 254.05 788.52 C 241.89 788.06 229.45 788.44 217.71 791.85 C 207.58 794.83 202.05 804.64 197.52 813.39 C 194.49 819.06 195.27 826.16 199.26 831.16 C 186.74 829.40 172.77 830.50 162.52 838.61 C 151.86 847.05 147.07 862.03 150.57 875.13 C 152.55 882.30 157.17 888.48 162.84 893.20 C 147.39 896.56 132.04 905.12 124.55 919.57 C 118.98 930.51 117.16 943.53 119.72 955.54 C 122.51 966.03 133.30 970.90 142.68 974.09 C 125.54 983.72 106.77 990.05 89.57 999.56 C 77.78 1005.80 67.53 1014.47 58.28 1024.00 L 0.00 1024.00 L 0.00 921.41 C 18.16 899.85 38.78 880.56 58.66 860.64 C 74.68 842.99 90.94 825.56 107.08 808.02 C 113.55 800.75 119.13 792.77 124.93 784.98 C 134.21 772.35 145.63 761.54 155.60 749.48 C 161.95 741.93 168.10 734.12 175.66 727.71 C 179.59 723.95 184.25 720.76 187.18 716.09 C 188.08 714.72 186.61 713.39 186.24 712.14 C 181.20 713.59 178.28 718.23 174.37 721.37 C 167.68 726.97 161.60 733.26 156.18 740.11 C 146.57 752.12 135.64 762.98 125.76 774.77 C 120.22 781.63 115.24 788.93 109.82 795.91 C 104.62 802.92 98.41 809.08 92.54 815.52 C 85.66 822.98 78.82 830.49 71.90 837.92 C 63.76 846.45 56.33 855.62 47.81 863.78 C 38.18 872.74 29.18 882.32 19.93 891.65 C 17.83 887.25 16.37 881.73 11.58 879.50 C 7.07 877.75 3.28 881.85 0.00 884.33 L 0.00 866.43 C 3.79 869.09 7.19 872.25 10.94 874.98 C 11.57 874.43 12.83 873.34 13.46 872.79 C 10.42 867.52 5.21 864.03 0.00 861.16 L 0.00 841.71 C 1.07 840.65 2.93 839.80 2.66 838.00 C 2.83 833.50 1.48 828.90 2.74 824.48 C 4.26 820.05 8.82 817.87 11.17 814.03 C 10.12 809.32 7.43 804.96 7.62 800.00 C 7.80 790.75 11.63 781.71 17.83 774.88 C 25.45 766.34 35.61 759.53 47.04 757.64 C 51.26 756.77 55.52 758.25 59.71 757.74 C 62.20 755.86 61.44 751.91 63.86 749.95 C 68.71 745.78 72.40 740.10 78.42 737.46 C 82.33 735.50 86.80 736.50 90.97 735.93 C 96.52 732.93 101.65 728.75 107.96 727.39 C 115.24 726.12 123.00 730.07 126.46 736.57 C 129.46 741.59 129.89 747.52 131.15 753.10 C 132.38 752.54 134.68 752.75 134.82 750.96 C 135.15 745.76 133.40 740.60 131.43 735.85 C 127.97 727.88 119.73 722.27 110.97 722.45 C 103.17 722.20 96.96 727.45 90.44 730.92 C 87.04 725.61 85.51 718.80 87.99 712.81 C 89.37 709.13 93.34 707.54 95.50 704.46 C 97.42 701.57 96.03 698.06 95.84 694.93 C 94.87 687.52 97.53 679.31 104.08 675.20 C 107.63 672.27 112.40 672.59 116.61 671.59 C 119.00 669.87 118.62 666.47 119.28 663.90 C 120.22 656.31 124.44 648.83 131.56 645.52 C 135.64 643.33 140.46 644.20 144.72 642.73 C 149.36 640.36 150.29 634.39 154.59 631.62 C 161.30 627.07 169.78 624.55 177.84 626.42 C 188.48 628.99 198.34 635.40 204.40 644.59 C 206.81 648.11 207.83 652.39 210.38 655.83 C 212.25 658.13 215.55 656.68 218.06 656.95 C 222.35 656.37 224.38 660.90 226.04 664.00 C 221.32 669.00 216.22 673.64 211.83 678.94 C 205.87 685.60 200.87 693.28 193.50 698.53 C 191.62 699.98 189.46 701.22 188.09 703.22 C 186.81 705.26 188.29 707.44 189.02 709.39 C 191.38 707.26 193.71 705.08 196.36 703.31 C 203.07 698.70 207.97 692.10 213.17 685.96 C 225.19 671.41 239.93 659.52 253.64 646.67 C 264.09 637.12 273.93 626.94 283.71 616.72 C 297.14 602.81 311.54 589.89 325.77 576.82 C 340.71 563.44 354.93 549.25 370.53 536.62 M 181.06 655.17 C 175.45 657.68 176.00 665.12 177.42 670.06 C 177.93 671.77 179.95 671.31 181.26 671.03 C 182.64 667.29 179.72 662.84 182.31 659.41 C 185.31 658.44 186.77 661.83 188.88 663.20 C 190.28 663.39 192.52 662.97 192.25 661.06 C 191.41 656.30 185.46 653.28 181.06 655.17 M 199.34 658.18 C 194.95 660.66 194.45 666.55 196.12 670.84 C 196.97 672.56 199.44 673.16 200.95 671.89 C 202.17 669.48 199.55 667.35 200.05 664.91 C 200.10 663.66 200.87 662.38 202.05 661.93 C 204.64 662.32 204.76 665.74 207.01 666.63 C 208.47 667.03 210.95 665.76 210.03 663.96 C 208.61 659.86 203.77 655.35 199.34 658.18 M 281.17 667.13 C 280.00 671.37 279.20 675.77 279.08 680.18 C 279.14 682.69 283.40 683.79 284.16 681.09 C 285.77 675.68 285.22 669.45 288.96 664.81 C 292.60 669.10 293.23 674.86 294.57 680.11 C 295.21 682.95 299.88 681.83 299.81 679.19 C 299.59 674.04 298.05 668.94 295.64 664.39 C 294.22 661.62 291.39 658.94 288.04 659.57 C 284.20 659.99 282.21 663.85 281.17 667.13 M 150.25 665.13 C 146.07 667.83 145.97 673.42 146.80 677.82 C 147.26 678.18 148.18 678.90 148.64 679.27 C 141.63 677.44 137.64 689.05 144.07 691.88 C 148.12 691.13 146.05 686.24 145.79 683.58 C 148.37 683.07 152.01 684.28 153.70 681.73 C 154.96 679.91 152.88 678.39 152.14 676.88 C 150.51 674.69 150.10 670.60 152.88 669.19 C 154.87 669.58 155.82 671.62 157.30 672.81 C 158.68 674.78 161.92 672.20 160.65 670.33 C 158.89 666.70 154.41 662.72 150.25 665.13 M 165.88 682.89 C 161.93 684.87 160.77 691.61 165.03 693.87 C 166.58 695.05 167.74 692.86 168.65 691.99 C 167.98 691.02 167.31 690.05 166.64 689.10 C 167.41 688.20 168.16 687.32 168.92 686.44 C 169.90 688.96 174.83 689.25 174.95 686.05 C 173.77 682.70 168.94 681.06 165.88 682.89 M 115.70 697.85 C 112.17 696.55 108.92 699.67 108.29 702.98 C 107.98 707.08 110.66 710.92 113.84 713.27 C 115.20 714.54 118.05 713.27 117.68 711.36 C 115.83 708.48 112.63 706.04 112.95 702.25 C 115.22 702.54 118.01 703.76 119.91 701.86 C 120.85 699.29 119.93 696.40 120.09 693.72 C 123.11 693.10 126.57 699.03 128.76 694.88 C 128.41 690.87 123.61 688.54 119.97 688.98 C 116.34 690.16 114.98 694.39 115.70 697.85 M 143.11 705.01 C 140.09 706.33 137.83 709.54 138.64 712.94 C 138.63 715.62 141.21 718.23 143.93 716.77 C 145.17 714.38 142.06 711.44 144.33 709.37 C 146.27 709.19 149.04 711.00 150.36 708.96 C 151.31 705.26 145.83 703.51 143.11 705.01 M 105.40 739.60 C 101.85 741.12 99.80 745.35 100.31 749.11 C 101.34 753.57 104.54 757.82 108.99 759.28 C 111.05 760.16 113.40 758.04 112.15 755.99 C 109.62 753.59 106.00 751.79 105.16 748.12 C 104.71 745.46 107.35 742.99 109.99 743.94 C 113.41 745.47 114.92 749.14 117.33 751.77 C 119.02 752.43 121.61 751.08 120.82 749.03 C 118.38 743.21 112.23 737.09 105.40 739.60 M 99.51 776.60 C 101.00 779.22 103.74 782.70 107.17 781.14 C 108.61 778.12 104.86 776.67 103.62 774.43 C 102.40 772.88 102.11 768.80 104.95 769.13 C 108.52 768.91 110.03 772.61 111.86 774.96 C 113.00 774.24 114.14 773.52 115.27 772.80 C 113.10 768.22 108.51 763.70 103.08 764.42 C 97.78 765.51 96.95 772.64 99.51 776.60 M 45.57 776.64 C 43.12 776.74 40.40 776.60 38.39 778.26 C 34.08 781.30 34.82 788.25 38.25 791.68 C 39.71 793.24 41.55 791.44 42.47 790.25 C 41.12 787.98 38.87 785.05 40.57 782.41 C 43.11 780.36 46.75 781.52 49.67 780.50 C 51.44 779.54 50.89 777.20 51.25 775.58 C 53.92 774.54 56.53 777.47 59.06 775.88 C 61.15 772.57 56.76 770.72 54.13 770.32 C 50.00 769.57 47.43 773.63 45.57 776.64 M 81.48 775.70 C 73.18 778.57 72.23 791.28 79.13 796.11 C 80.79 797.46 83.79 796.08 83.33 793.82 C 81.57 791.51 79.16 789.21 79.59 786.01 C 79.34 783.13 81.57 779.23 84.91 780.22 C 88.95 782.48 90.37 787.31 93.75 790.24 C 94.28 790.13 95.33 789.91 95.86 789.80 L 96.51 788.98 C 95.91 784.45 92.77 780.64 89.59 777.54 C 87.53 775.40 84.27 774.63 81.48 775.70 M 146.94 788.33 C 148.18 786.79 149.31 785.07 151.18 784.24 C 153.64 787.00 154.76 790.55 156.35 793.82 C 157.10 793.93 158.61 794.14 159.36 794.25 C 159.61 790.79 157.83 787.67 156.26 784.74 C 155.02 782.42 152.80 780.46 150.06 780.40 C 146.75 781.03 143.13 785.93 146.94 788.33 M 168.61 787.67 C 164.06 788.35 170.29 798.45 172.03 792.95 C 171.37 791.19 170.84 787.62 168.61 787.67 M 51.45 804.74 C 47.07 807.21 45.14 813.44 48.09 817.71 C 49.37 819.94 52.44 821.66 54.80 819.92 C 55.95 818.25 53.99 817.07 53.04 816.03 C 50.65 814.00 51.23 808.66 55.02 808.74 C 59.16 809.60 60.53 814.08 62.96 816.96 C 64.32 817.01 65.79 816.64 66.36 815.27 C 65.92 812.12 63.74 809.58 61.75 807.25 C 59.25 804.53 54.90 802.38 51.45 804.74 M 25.91 818.99 C 22.02 825.83 21.69 834.30 23.12 841.89 C 24.49 841.72 25.86 841.57 27.22 841.39 C 27.36 834.61 26.20 827.13 30.17 821.14 C 31.27 819.23 33.95 817.41 35.95 819.23 C 40.08 823.28 42.11 828.90 44.82 833.92 C 46.58 833.30 49.21 832.45 48.21 830.02 C 46.18 825.27 43.81 820.49 40.35 816.62 C 36.25 812.31 28.61 813.88 25.91 818.99 M 19.96 849.93 C 15.59 856.24 17.61 865.17 22.37 870.68 C 23.91 872.74 25.74 870.42 26.70 869.11 C 23.44 864.55 20.81 858.66 23.24 853.12 C 24.51 849.93 28.96 849.50 31.30 851.77 C 34.37 854.91 35.46 859.31 37.71 862.99 C 38.71 862.08 40.96 861.68 40.75 859.95 C 40.06 856.06 37.96 852.51 35.47 849.49 C 31.75 844.83 23.20 844.64 19.96 849.93 M 54.49 922.43 C 51.25 926.62 52.26 932.91 55.02 937.10 C 56.54 937.43 57.31 936.27 58.04 935.20 C 56.64 931.92 55.59 928.14 57.23 924.74 C 61.75 927.38 61.92 933.31 64.83 937.22 C 65.54 936.98 66.96 936.51 67.67 936.27 C 66.46 931.39 64.56 926.54 61.32 922.65 C 59.66 920.66 56.13 920.15 54.49 922.43 Z" />
<path fill="rgba(0,0,0,0)" opacity="1.00" d=" M 464.08 545.21 C 466.40 545.59 468.72 545.90 471.06 546.18 C 472.56 573.83 473.85 601.49 475.40 629.13 C 475.58 631.46 476.41 634.44 479.04 635.01 C 482.70 635.59 486.41 635.14 490.10 635.22 C 491.45 655.68 493.02 676.13 494.23 696.61 C 480.36 696.34 466.56 697.93 452.75 699.02 C 453.35 677.55 453.89 656.07 454.64 634.60 C 457.44 634.54 460.38 635.07 463.10 634.14 C 465.71 632.82 466.44 629.66 466.23 626.97 C 465.27 599.73 464.94 572.46 464.08 545.21 Z" />
<path fill="rgba(0,0,0,0)" opacity="1.00" d=" M 436.49 634.59 C 440.96 634.55 445.45 634.59 449.93 634.75 C 449.39 648.67 449.00 662.60 448.77 676.54 C 444.51 675.56 440.17 676.28 436.18 677.93 C 436.30 663.49 436.60 649.04 436.49 634.59 Z" />
<path fill="rgba(0,0,0,0)" opacity="1.00" d=" M 494.69 635.36 C 499.54 635.47 504.40 635.46 509.25 635.54 C 509.81 649.08 510.12 662.63 510.42 676.19 C 506.18 675.29 501.51 675.05 497.61 677.25 C 496.74 663.28 495.68 649.32 494.69 635.36 Z" />
<path fill="rgba(0,0,0,0)" opacity="1.00" d=" M 363.04 707.46 C 371.47 707.15 379.68 704.96 388.04 704.04 C 404.40 702.37 420.59 706.37 436.93 706.64 C 453.67 707.71 470.25 704.40 486.96 704.24 C 494.31 704.06 501.64 704.58 508.98 704.76 C 517.25 704.92 524.41 709.67 532.42 711.11 C 532.56 710.31 532.84 708.72 532.98 707.93 C 551.70 704.96 571.48 704.79 589.38 711.75 C 594.20 713.50 597.78 717.41 600.27 721.78 C 612.30 742.54 624.31 763.33 635.20 784.72 C 646.63 807.26 655.19 831.07 665.64 854.05 C 654.37 866.99 651.95 885.51 655.57 901.85 C 657.70 912.87 662.77 924.19 672.66 930.30 C 685.81 938.72 702.11 938.55 717.15 938.83 C 720.10 941.13 722.16 944.43 725.08 946.82 C 729.33 950.98 734.76 953.51 739.86 956.45 C 739.32 966.07 739.02 975.70 738.68 985.33 C 726.40 980.79 713.84 976.94 701.04 974.17 C 692.80 972.18 684.19 974.15 675.98 972.04 C 670.25 970.67 665.07 967.79 659.59 965.72 C 649.33 961.83 639.27 957.37 628.75 954.21 C 622.29 952.25 615.51 951.63 609.10 949.52 C 603.46 947.75 597.57 946.39 591.63 947.04 C 595.35 943.23 598.20 938.71 601.51 934.56 C 603.46 931.92 605.61 929.25 606.42 926.00 C 607.27 922.61 603.18 919.41 600.10 921.11 C 597.83 922.40 596.23 924.54 594.60 926.52 C 590.80 931.38 587.05 936.27 583.21 941.10 C 580.65 944.21 578.67 947.91 575.21 950.17 C 579.49 937.17 588.09 926.00 591.72 912.75 C 594.34 901.76 590.51 890.52 586.49 880.37 C 584.00 874.77 581.38 869.16 577.83 864.16 C 576.01 861.49 572.68 859.29 569.38 860.55 C 564.18 862.26 561.34 867.45 559.21 872.13 C 555.19 881.67 552.19 891.65 550.26 901.83 C 548.51 911.20 550.69 920.62 551.85 929.92 C 552.68 936.59 554.28 943.13 555.71 949.69 C 552.40 944.31 548.94 938.98 544.60 934.36 C 543.14 932.85 541.19 931.35 538.95 931.73 C 535.89 932.45 533.83 935.91 534.77 938.95 C 536.00 943.53 539.02 947.33 541.81 951.07 C 537.53 951.96 533.12 952.92 529.45 955.44 C 526.31 957.62 523.72 960.75 519.95 961.90 C 514.89 963.50 509.52 963.37 504.29 963.46 C 504.25 952.64 502.16 941.81 498.27 931.72 C 496.08 926.47 493.43 920.60 487.89 918.18 C 483.34 916.06 478.18 917.72 473.94 919.79 C 466.23 923.54 461.47 931.12 457.46 938.37 C 453.53 945.99 450.00 954.11 449.50 962.78 C 445.47 963.99 441.85 966.13 438.17 968.10 C 432.71 970.78 426.72 968.00 421.14 967.27 C 413.49 965.62 405.75 967.90 398.70 970.77 C 393.55 972.96 388.25 975.21 384.08 979.05 C 380.90 981.93 378.92 985.81 376.08 988.99 C 373.71 991.65 370.60 993.48 367.87 995.74 C 362.05 1000.35 358.40 1007.03 352.86 1011.93 C 348.42 1015.93 343.70 1019.62 339.62 1024.00 L 241.70 1024.00 C 240.83 1008.28 240.12 992.55 239.12 976.85 C 252.38 975.06 265.74 974.33 279.04 972.89 C 292.90 971.32 307.09 969.76 319.94 963.95 C 329.09 959.82 337.24 952.74 341.24 943.39 C 346.53 931.27 345.81 916.12 337.63 905.44 C 330.87 896.54 320.42 891.32 309.84 888.46 C 316.26 882.10 320.61 873.10 319.55 863.91 C 318.84 856.22 314.29 849.32 308.21 844.72 C 298.59 837.44 286.64 833.83 274.79 832.38 C 276.93 828.23 278.07 823.62 278.09 818.95 C 278.35 810.98 277.31 802.25 271.86 796.02 C 269.03 792.61 264.80 790.95 260.70 789.66 C 262.86 785.79 264.78 781.78 267.19 778.06 C 270.39 773.08 275.73 769.97 278.93 764.99 C 286.05 754.19 286.97 740.68 293.53 729.60 C 301.78 715.47 317.62 705.94 334.04 705.71 C 343.75 705.35 353.32 707.90 363.04 707.46 M 350.14 730.79 C 346.15 732.98 350.49 738.97 353.75 735.88 C 356.98 733.86 353.05 728.24 350.14 730.79 M 584.18 737.04 C 586.31 739.76 589.67 742.05 589.72 745.86 C 590.30 748.76 588.69 753.90 593.05 754.23 C 595.77 753.56 595.89 750.27 595.87 748.01 C 595.80 742.78 593.95 736.56 588.84 734.21 C 586.58 733.25 585.12 735.35 584.18 737.04 M 304.19 738.99 C 304.17 742.18 307.87 742.13 310.10 741.64 C 310.02 742.48 309.85 744.16 309.76 745.00 C 309.84 747.27 313.25 747.99 314.55 746.30 C 316.31 744.90 315.93 742.46 315.05 740.67 C 316.06 738.59 315.74 735.64 313.05 735.16 C 309.86 735.21 304.69 734.60 304.19 738.99 M 569.60 736.60 C 567.01 739.42 566.39 743.40 565.81 747.04 C 565.58 749.26 565.02 751.68 566.07 753.80 C 567.00 755.53 569.85 755.66 570.80 753.87 C 571.75 749.51 571.47 744.90 573.27 740.73 C 577.89 743.21 577.23 749.39 579.63 753.42 C 581.09 755.64 585.01 753.67 584.31 751.12 C 583.75 745.91 581.97 740.53 578.23 736.74 C 575.99 734.39 571.87 734.23 569.60 736.60 M 328.42 737.32 C 324.87 738.51 326.26 743.93 329.91 743.39 C 334.26 742.92 332.24 735.80 328.42 737.32 M 470.06 804.20 C 466.42 806.23 468.19 811.91 471.43 813.52 C 475.21 815.88 479.29 813.36 483.17 812.78 C 485.52 813.95 486.53 818.93 489.81 817.21 C 493.62 815.00 490.22 810.21 487.60 808.50 C 483.92 805.28 479.05 807.91 474.94 808.54 C 474.02 806.55 473.06 802.71 470.06 804.20 M 369.52 870.67 C 365.26 871.91 363.48 876.55 362.64 880.49 C 361.81 885.20 361.22 890.28 363.03 894.85 C 363.56 895.11 364.60 895.65 365.13 895.92 C 366.13 895.07 368.02 894.63 367.90 893.02 C 368.17 887.27 366.96 880.67 370.99 875.89 C 377.15 879.23 376.66 887.32 378.78 893.12 C 379.54 895.53 383.59 894.44 383.79 892.16 C 383.79 886.67 382.12 881.22 379.71 876.32 C 377.89 872.71 373.78 869.28 369.52 870.67 M 392.07 872.08 C 391.07 872.82 389.37 874.19 390.20 875.59 C 391.97 877.92 394.11 879.98 395.47 882.61 C 396.29 883.74 397.09 886.17 398.98 885.17 C 402.52 884.16 401.08 879.73 399.43 877.61 C 397.57 875.25 395.51 871.70 392.07 872.08 Z" />
<path fill="rgba(0,0,0,0)" opacity="1.00" d=" M 561.69 880.82 C 563.96 875.53 565.71 868.92 571.00 865.92 C 574.50 867.27 575.73 871.42 577.59 874.40 C 583.01 885.43 588.36 897.53 586.86 910.11 C 583.60 922.37 576.00 932.84 571.58 944.65 C 570.81 946.60 570.01 948.55 569.05 950.42 C 570.83 939.01 572.60 927.59 573.79 916.10 C 576.84 916.14 579.90 916.11 582.97 916.05 C 582.98 914.36 583.00 912.68 583.02 911.02 C 580.19 910.76 577.37 910.60 574.54 910.57 C 574.89 906.38 575.42 902.21 575.80 898.03 C 575.82 895.19 572.04 894.82 570.44 896.55 C 569.60 900.93 569.67 905.44 568.97 909.86 C 567.54 909.91 566.12 909.97 564.71 910.05 C 564.23 911.63 564.09 913.27 564.07 914.93 C 565.43 915.27 566.78 915.58 568.15 915.93 C 567.48 927.93 565.16 939.77 563.35 951.63 C 563.01 951.88 562.33 952.37 562.00 952.62 C 558.78 940.67 556.82 928.41 555.36 916.12 C 553.67 903.98 558.03 892.18 561.69 880.82 Z" />
<path fill="rgba(0,0,0,0)" opacity="1.00" d=" M 1.76 890.94 C 2.90 887.39 6.07 884.99 9.22 883.27 C 12.13 886.89 14.08 891.14 16.44 895.12 C 10.95 901.13 5.08 906.81 0.00 913.19 L 0.00 900.59 C 0.79 900.33 2.37 899.82 3.15 899.57 C 3.36 896.60 2.15 893.83 1.76 890.94 Z" />
<path fill="rgba(0,0,0,0)" opacity="1.00" d=" M 474.89 926.87 C 476.66 924.32 480.06 928.13 478.14 929.86 C 470.69 937.05 465.61 946.53 462.73 956.42 C 461.34 956.03 458.25 956.33 459.21 953.98 C 461.87 943.81 467.31 934.18 474.89 926.87 Z" />
<path fill="rgba(0,0,0,0)" opacity="1.00" d=" M 539.19 936.71 C 540.63 937.15 541.77 938.17 542.63 939.41 C 545.75 943.71 549.23 947.80 551.59 952.61 C 550.06 952.23 548.31 952.04 547.52 950.50 C 544.42 946.12 540.93 941.84 539.19 936.71 Z" />
<path fill="rgba(0,0,0,0)" opacity="1.00" d=" M 724.77 938.57 C 730.01 938.61 735.27 938.50 740.52 938.20 C 740.27 942.16 740.11 946.12 740.04 950.09 C 734.22 947.33 728.96 943.46 724.77 938.57 Z" />
<path fill="rgba(0,0,0,0)" opacity="1.00" d=" M 571.48 957.35 C 581.24 953.39 592.16 950.99 602.60 953.54 C 608.03 954.94 613.35 956.81 618.91 957.73 C 628.40 959.25 637.24 963.18 646.17 966.57 C 654.12 969.58 661.94 972.92 669.80 976.17 C 680.04 980.33 691.31 977.70 701.86 980.26 C 714.25 983.12 726.48 986.73 738.37 991.24 C 738.06 1000.49 737.75 1009.74 737.21 1018.98 C 737.36 1020.60 736.61 1022.62 737.74 1024.00 L 503.83 1024.00 C 508.31 1020.80 512.65 1017.40 516.94 1013.95 C 516.01 1012.74 515.07 1011.56 514.11 1010.40 C 507.70 1013.97 502.02 1018.73 496.94 1024.00 L 347.35 1024.00 C 351.24 1021.05 354.99 1017.89 358.45 1014.44 C 362.64 1010.27 365.74 1005.12 370.15 1001.15 C 373.12 998.44 376.69 996.46 379.48 993.54 C 382.81 990.15 384.90 985.67 388.62 982.64 C 392.32 979.61 396.78 977.75 401.17 976.00 C 405.60 974.28 410.18 972.59 414.99 972.51 C 422.09 972.50 428.92 975.81 436.07 974.62 C 440.78 973.92 444.63 970.90 448.94 969.10 C 456.88 965.95 465.50 964.13 474.06 965.17 C 489.61 966.29 505.29 971.56 520.83 967.66 C 527.20 966.28 531.26 960.66 537.07 958.18 C 541.16 956.47 545.70 956.97 550.01 957.14 C 547.48 961.40 548.25 967.45 552.46 970.33 C 554.29 971.66 556.27 969.79 556.62 967.97 C 555.85 965.60 552.42 963.13 554.67 960.63 C 556.36 957.55 560.30 959.04 563.12 958.83 C 562.88 964.30 563.08 969.92 565.32 975.03 C 566.43 974.90 567.55 974.74 568.66 974.53 C 571.01 972.61 568.80 969.44 568.82 966.98 C 568.57 963.77 567.57 958.66 571.48 957.35 M 578.53 958.92 C 580.22 960.90 582.90 961.54 584.79 963.16 C 585.60 967.13 582.82 970.57 581.62 974.16 C 581.62 975.96 583.64 976.25 584.86 977.05 C 589.36 972.99 591.88 966.11 589.74 960.26 C 588.01 955.91 580.45 953.52 578.53 958.92 M 477.26 1020.25 C 478.34 1021.51 480.14 1022.93 481.89 1022.05 C 484.10 1018.55 485.78 1014.72 488.35 1011.44 C 490.71 1007.89 494.01 1005.17 496.90 1002.08 C 495.96 1000.91 495.00 999.80 494.01 998.71 C 486.19 1003.69 480.63 1011.73 477.26 1020.25 Z" />
<path fill="rgba(0,0,0,0)" opacity="1.00" d=" M 104.48 999.25 C 120.06 991.91 136.16 985.61 151.05 976.88 C 164.03 980.74 177.45 983.38 191.00 983.91 C 202.26 984.44 213.26 981.58 224.25 979.57 C 223.72 994.39 222.51 1009.18 222.04 1024.00 L 67.08 1024.00 C 77.80 1013.40 90.83 1005.49 104.48 999.25 Z" />
<path fill="rgba(0,0,0,0)" opacity="1.00" d=" M 760.68 977.11 C 764.88 983.54 769.61 989.75 772.47 996.94 C 768.67 996.47 764.79 996.33 761.12 995.18 C 761.12 989.15 761.07 983.12 760.68 977.11 Z" />
<path fill="rgba(0,0,0,0)" opacity="1.00" d=" M 761.61 1001.53 C 765.66 1002.02 769.75 1002.22 773.84 1002.25 C 775.94 1009.32 776.69 1016.69 777.43 1024.00 L 762.45 1024.00 C 762.23 1016.50 761.98 1009.01 761.61 1001.53 Z" />
</g>
<g id="Group-000000" fill="#000000">
<path fill="#000000" opacity="1.00" d=" M 585.75 275.71 C 591.05 269.50 596.47 263.38 602.24 257.61 C 604.45 259.71 606.45 262.03 608.46 264.33 C 606.93 266.06 605.42 267.81 604.03 269.64 C 606.01 267.80 607.87 265.70 610.40 264.58 C 610.18 267.69 607.62 269.67 605.84 271.96 C 603.13 275.34 600.13 278.51 597.77 282.15 C 603.30 277.99 606.79 271.81 611.94 267.26 C 612.02 267.90 612.19 269.18 612.27 269.82 C 608.00 276.51 601.84 281.77 597.11 288.13 C 577.72 315.01 558.00 341.67 538.90 368.76 C 540.35 370.76 543.29 373.27 540.77 375.67 C 533.09 385.78 526.31 396.64 521.60 408.47 C 512.74 429.12 513.03 452.17 514.47 474.18 C 518.86 473.00 522.99 471.11 527.11 469.20 C 533.30 466.35 540.38 467.42 546.65 469.42 C 554.41 471.85 560.53 477.44 566.92 482.20 C 575.79 488.76 585.41 494.87 591.81 504.08 C 596.16 510.31 600.61 516.50 605.84 522.04 C 614.27 531.32 624.14 539.20 632.16 548.88 C 641.01 559.30 650.05 569.61 660.24 578.77 C 662.57 581.10 665.40 583.23 666.62 586.40 C 667.34 588.80 663.67 591.07 662.00 589.04 C 657.37 584.64 652.91 580.06 648.27 575.67 C 636.51 564.41 627.27 550.80 615.25 539.78 C 605.21 530.41 595.65 520.39 588.10 508.87 C 582.14 499.56 572.57 493.64 563.85 487.22 C 557.92 483.06 552.60 477.77 545.68 475.22 C 540.31 473.27 534.06 472.21 528.72 474.81 C 524.25 476.94 519.61 478.71 514.75 479.68 C 515.20 486.41 515.56 493.16 515.96 499.90 C 519.03 497.67 522.16 495.08 526.08 494.68 C 529.58 494.26 533.20 495.89 535.13 498.86 C 538.64 504.01 538.62 510.55 538.26 516.54 C 540.70 515.41 543.24 514.03 546.03 514.33 C 549.97 514.75 553.23 518.05 553.92 521.91 C 555.21 527.04 552.26 532.17 548.56 535.52 C 546.93 537.03 544.69 535.61 543.79 534.01 C 544.38 530.05 548.54 527.22 548.03 522.99 C 547.54 520.85 544.87 520.21 543.05 520.95 C 539.01 522.35 537.24 526.60 534.31 529.36 C 532.65 530.84 531.16 528.18 529.96 527.27 C 532.09 521.45 532.57 515.20 532.19 509.06 C 532.05 506.41 531.71 503.36 529.52 501.57 C 526.60 499.55 523.14 501.79 520.89 503.78 C 518.63 505.95 515.68 508.49 516.14 511.98 C 518.98 550.65 521.88 589.32 524.81 627.99 C 524.86 630.13 525.06 632.74 523.23 634.27 C 520.65 636.41 517.06 635.65 513.99 635.60 C 514.53 650.23 514.84 664.86 515.13 679.50 C 520.29 685.45 522.21 693.41 523.38 701.01 C 524.88 701.50 526.39 701.97 527.92 702.43 C 530.86 699.92 534.88 700.24 538.47 699.68 C 556.60 697.39 575.66 698.27 592.65 705.55 C 599.09 708.22 603.65 713.81 606.94 719.77 C 617.01 737.82 627.45 755.66 636.96 774.01 C 650.01 798.17 659.41 824.01 670.47 849.08 C 673.15 846.99 675.91 845.00 678.78 843.18 C 674.58 827.50 674.98 810.82 678.68 795.08 C 682.08 781.18 687.84 767.34 697.95 756.95 C 703.12 751.52 710.75 749.68 717.98 749.17 C 732.33 747.76 747.53 747.77 760.88 753.92 C 771.10 758.47 778.87 767.62 782.55 778.11 C 787.34 790.89 787.44 804.69 789.24 818.05 C 789.84 820.85 790.50 825.15 794.12 825.29 C 807.10 827.16 820.97 829.12 831.59 837.49 C 840.35 844.26 844.69 855.31 845.29 866.13 C 846.00 877.06 844.96 888.04 843.51 898.88 C 842.01 909.48 838.36 920.71 829.55 927.49 C 819.09 935.65 805.40 937.78 792.53 938.73 C 781.56 939.10 770.56 938.94 759.61 938.17 C 760.16 948.12 759.97 958.13 760.81 968.06 C 765.61 975.23 771.47 981.78 775.13 989.70 C 780.62 1000.28 781.90 1012.32 783.08 1024.00 L 777.43 1024.00 C 776.69 1016.69 775.94 1009.32 773.84 1002.25 C 769.75 1002.22 765.66 1002.02 761.61 1001.53 C 761.98 1009.01 762.23 1016.50 762.45 1024.00 L 737.74 1024.00 C 736.61 1022.62 737.36 1020.60 737.21 1018.98 C 737.75 1009.74 738.06 1000.49 738.37 991.24 C 726.48 986.73 714.25 983.12 701.86 980.26 C 691.31 977.70 680.04 980.33 669.80 976.17 C 661.94 972.92 654.12 969.58 646.17 966.57 C 637.24 963.18 628.40 959.25 618.91 957.73 C 613.35 956.81 608.03 954.94 602.60 953.54 C 592.16 950.99 581.24 953.39 571.48 957.35 C 567.57 958.66 568.57 963.77 568.82 966.98 C 568.80 969.44 571.01 972.61 568.66 974.53 C 567.55 974.74 566.43 974.90 565.32 975.03 C 563.08 969.92 562.88 964.30 563.12 958.83 C 560.30 959.04 556.36 957.55 554.67 960.63 C 552.42 963.13 555.85 965.60 556.62 967.97 C 556.27 969.79 554.29 971.66 552.46 970.33 C 548.25 967.45 547.48 961.40 550.01 957.14 C 545.70 956.97 541.16 956.47 537.07 958.18 C 531.26 960.66 527.20 966.28 520.83 967.66 C 505.29 971.56 489.61 966.29 474.06 965.17 C 465.50 964.13 456.88 965.95 448.94 969.10 C 444.63 970.90 440.78 973.92 436.07 974.62 C 428.92 975.81 422.09 972.50 414.99 972.51 C 410.18 972.59 405.60 974.28 401.17 976.00 C 396.78 977.75 392.32 979.61 388.62 982.64 C 384.90 985.67 382.81 990.15 379.48 993.54 C 376.69 996.46 373.12 998.44 370.15 1001.15 C 365.74 1005.12 362.64 1010.27 358.45 1014.44 C 354.99 1017.89 351.24 1021.05 347.35 1024.00 L 339.62 1024.00 C 343.70 1019.62 348.42 1015.93 352.86 1011.93 C 358.40 1007.03 362.05 1000.35 367.87 995.74 C 370.60 993.48 373.71 991.65 376.08 988.99 C 378.92 985.81 380.90 981.93 384.08 979.05 C 388.25 975.21 393.55 972.96 398.70 970.77 C 405.75 967.90 413.49 965.62 421.14 967.27 C 426.72 968.00 432.71 970.78 438.17 968.10 C 441.85 966.13 445.47 963.99 449.50 962.78 C 450.00 954.11 453.53 945.99 457.46 938.37 C 461.47 931.12 466.23 923.54 473.94 919.79 C 478.18 917.72 483.34 916.06 487.89 918.18 C 493.43 920.60 496.08 926.47 498.27 931.72 C 502.16 941.81 504.25 952.64 504.29 963.46 C 509.52 963.37 514.89 963.50 519.95 961.90 C 523.72 960.75 526.31 957.62 529.45 955.44 C 533.12 952.92 537.53 951.96 541.81 951.07 C 539.02 947.33 536.00 943.53 534.77 938.95 C 533.83 935.91 535.89 932.45 538.95 931.73 C 541.19 931.35 543.14 932.85 544.60 934.36 C 548.94 938.98 552.40 944.31 555.71 949.69 C 554.28 943.13 552.68 936.59 551.85 929.92 C 550.69 920.62 548.51 911.20 550.26 901.83 C 552.19 891.65 555.19 881.67 559.21 872.13 C 561.34 867.45 564.18 862.26 569.38 860.55 C 572.68 859.29 576.01 861.49 577.83 864.16 C 581.38 869.16 584.00 874.77 586.49 880.37 C 590.51 890.52 594.34 901.76 591.72 912.75 C 588.09 926.00 579.49 937.17 575.21 950.17 C 578.67 947.91 580.65 944.21 583.21 941.10 C 587.05 936.27 590.80 931.38 594.60 926.52 C 596.23 924.54 597.83 922.40 600.10 921.11 C 603.18 919.41 607.27 922.61 606.42 926.00 C 605.61 929.25 603.46 931.92 601.51 934.56 C 598.20 938.71 595.35 943.23 591.63 947.04 C 597.57 946.39 603.46 947.75 609.10 949.52 C 615.51 951.63 622.29 952.25 628.75 954.21 C 639.27 957.37 649.33 961.83 659.59 965.72 C 665.07 967.79 670.25 970.67 675.98 972.04 C 684.19 974.15 692.80 972.18 701.04 974.17 C 713.84 976.94 726.40 980.79 738.68 985.33 C 739.02 975.70 739.32 966.07 739.86 956.45 C 734.76 953.51 729.33 950.98 725.08 946.82 C 722.16 944.43 720.10 941.13 717.15 938.83 C 702.11 938.55 685.81 938.72 672.66 930.30 C 662.77 924.19 657.70 912.87 655.57 901.85 C 651.95 885.51 654.37 866.99 665.64 854.05 C 655.19 831.07 646.63 807.26 635.20 784.72 C 624.31 763.33 612.30 742.54 600.27 721.78 C 597.78 717.41 594.20 713.50 589.38 711.75 C 571.48 704.79 551.70 704.96 532.98 707.93 C 532.84 708.72 532.56 710.31 532.42 711.11 C 524.41 709.67 517.25 704.92 508.98 704.76 C 501.64 704.58 494.31 704.06 486.96 704.24 C 470.25 704.40 453.67 707.71 436.93 706.64 C 420.59 706.37 404.40 702.37 388.04 704.04 C 379.68 704.96 371.47 707.15 363.04 707.46 C 353.32 707.90 343.75 705.35 334.04 705.71 C 317.62 705.94 301.78 715.47 293.53 729.60 C 286.97 740.68 286.05 754.19 278.93 764.99 C 275.73 769.97 270.39 773.08 267.19 778.06 C 264.78 781.78 262.86 785.79 260.70 789.66 C 264.80 790.95 269.03 792.61 271.86 796.02 C 277.31 802.25 278.35 810.98 278.09 818.95 C 278.07 823.62 276.93 828.23 274.79 832.38 C 286.64 833.83 298.59 837.44 308.21 844.72 C 314.29 849.32 318.84 856.22 319.55 863.91 C 320.61 873.10 316.26 882.10 309.84 888.46 C 320.42 891.32 330.87 896.54 337.63 905.44 C 345.81 916.12 346.53 931.27 341.24 943.39 C 337.24 952.74 329.09 959.82 319.94 963.95 C 307.09 969.76 292.90 971.32 279.04 972.89 C 265.74 974.33 252.38 975.06 239.12 976.85 C 240.12 992.55 240.83 1008.28 241.70 1024.00 L 222.04 1024.00 C 222.51 1009.18 223.72 994.39 224.25 979.57 C 213.26 981.58 202.26 984.44 191.00 983.91 C 177.45 983.38 164.03 980.74 151.05 976.88 C 136.16 985.61 120.06 991.91 104.48 999.25 C 90.83 1005.49 77.80 1013.40 67.08 1024.00 L 58.28 1024.00 C 67.53 1014.47 77.78 1005.80 89.57 999.56 C 106.77 990.05 125.54 983.72 142.68 974.09 C 133.30 970.90 122.51 966.03 119.72 955.54 C 117.16 943.53 118.98 930.51 124.55 919.57 C 132.04 905.12 147.39 896.56 162.84 893.20 C 157.17 888.48 152.55 882.30 150.57 875.13 C 147.07 862.03 151.86 847.05 162.52 838.61 C 172.77 830.50 186.74 829.40 199.26 831.16 C 195.27 826.16 194.49 819.06 197.52 813.39 C 202.05 804.64 207.58 794.83 217.71 791.85 C 229.45 788.44 241.89 788.06 254.05 788.52 C 256.73 783.10 259.21 777.53 262.74 772.59 C 265.97 767.91 271.21 764.99 274.02 759.97 C 278.71 751.87 280.29 742.48 283.81 733.89 C 291.56 713.12 312.85 698.28 335.01 698.14 C 344.06 697.91 352.99 699.93 362.02 700.04 C 370.71 699.43 379.20 697.31 387.85 696.42 C 398.90 695.35 409.94 696.91 420.91 698.04 C 423.45 691.73 427.51 686.22 431.59 680.86 C 431.88 665.44 431.68 649.98 431.76 634.55 C 427.97 634.36 424.16 634.77 420.39 634.36 C 417.77 634.12 415.88 631.64 416.02 629.08 C 416.11 593.38 416.27 557.66 416.25 521.96 C 414.96 515.70 415.03 509.31 415.33 502.95 C 400.13 513.80 384.92 524.69 370.53 536.62 C 354.93 549.25 340.71 563.44 325.77 576.82 C 311.54 589.89 297.14 602.81 283.71 616.72 C 273.93 626.94 264.09 637.12 253.64 646.67 C 239.93 659.52 225.19 671.41 213.17 685.96 C 207.97 692.10 203.07 698.70 196.36 703.31 C 193.71 705.08 191.38 707.26 189.02 709.39 C 188.29 707.44 186.81 705.26 188.09 703.22 C 189.46 701.22 191.62 699.98 193.50 698.53 C 200.87 693.28 205.87 685.60 211.83 678.94 C 216.22 673.64 221.32 669.00 226.04 664.00 C 224.38 660.90 222.35 656.37 218.06 656.95 C 215.55 656.68 212.25 658.13 210.38 655.83 C 207.83 652.39 206.81 648.11 204.40 644.59 C 198.34 635.40 188.48 628.99 177.84 626.42 C 169.78 624.55 161.30 627.07 154.59 631.62 C 150.29 634.39 149.36 640.36 144.72 642.73 C 140.46 644.20 135.64 643.33 131.56 645.52 C 124.44 648.83 120.22 656.31 119.28 663.90 C 118.62 666.47 119.00 669.87 116.61 671.59 C 112.40 672.59 107.63 672.27 104.08 675.20 C 97.53 679.31 94.87 687.52 95.84 694.93 C 96.03 698.06 97.42 701.57 95.50 704.46 C 93.34 707.54 89.37 709.13 87.99 712.81 C 85.51 718.80 87.04 725.61 90.44 730.92 C 96.96 727.45 103.17 722.20 110.97 722.45 C 119.73 722.27 127.97 727.88 131.43 735.85 C 133.40 740.60 135.15 745.76 134.82 750.96 C 134.68 752.75 132.38 752.54 131.15 753.10 C 129.89 747.52 129.46 741.59 126.46 736.57 C 123.00 730.07 115.24 726.12 107.96 727.39 C 101.65 728.75 96.52 732.93 90.97 735.93 C 86.80 736.50 82.33 735.50 78.42 737.46 C 72.40 740.10 68.71 745.78 63.86 749.95 C 61.44 751.91 62.20 755.86 59.71 757.74 C 55.52 758.25 51.26 756.77 47.04 757.64 C 35.61 759.53 25.45 766.34 17.83 774.88 C 11.63 781.71 7.80 790.75 7.62 800.00 C 7.43 804.96 10.12 809.32 11.17 814.03 C 8.82 817.87 4.26 820.05 2.74 824.48 C 1.48 828.90 2.83 833.50 2.66 838.00 C 2.93 839.80 1.07 840.65 0.00 841.71 L 0.00 819.88 C 2.02 817.35 4.21 814.98 6.32 812.54 C 2.77 806.31 2.54 798.81 4.10 791.96 C 6.27 781.30 13.00 772.13 21.10 765.11 C 30.98 756.81 43.87 750.85 57.03 752.92 C 58.70 746.93 64.17 743.48 68.18 739.18 C 72.69 734.47 78.86 731.55 85.39 731.28 C 82.46 725.36 81.44 718.33 83.91 712.06 C 85.22 707.72 88.75 704.68 92.20 701.98 C 91.68 695.91 90.85 689.62 92.77 683.70 C 95.37 674.44 104.41 667.64 113.98 667.33 C 115.16 662.01 116.01 656.47 118.75 651.67 C 122.36 645.38 128.66 640.44 135.94 639.35 C 138.30 638.84 140.82 638.93 143.09 638.04 C 146.20 635.09 147.79 630.81 151.29 628.21 C 155.11 625.36 159.58 623.46 164.11 622.04 C 172.15 619.50 180.87 621.32 188.38 624.72 C 200.05 629.94 209.46 639.98 213.90 651.98 C 217.31 652.17 221.01 652.00 224.01 653.94 C 226.73 655.40 228.46 658.02 230.01 660.59 C 238.59 652.62 247.42 644.90 255.87 636.79 C 267.69 625.63 278.60 613.57 290.20 602.20 C 305.10 587.72 320.66 573.96 335.88 559.82 C 347.09 549.31 358.39 538.86 370.46 529.32 C 385.04 517.71 399.93 506.39 415.83 496.64 C 416.69 485.34 417.90 474.08 419.31 462.84 C 420.05 457.06 420.37 451.20 421.78 445.52 C 423.31 445.64 424.86 445.77 426.40 445.92 C 424.59 469.33 420.11 492.58 420.55 516.16 C 450.77 515.07 480.89 512.13 510.89 508.36 C 510.22 481.22 505.39 453.85 510.28 426.84 C 513.95 407.27 523.44 389.22 535.35 373.43 C 529.53 366.47 523.85 359.39 517.90 352.55 C 513.23 358.30 507.91 363.46 502.90 368.91 C 494.11 377.89 485.12 387.47 473.17 392.15 C 460.12 396.93 445.41 394.49 433.14 388.55 C 425.40 384.71 417.61 380.67 409.08 378.89 C 404.06 384.30 398.67 389.33 393.51 394.60 C 401.82 401.25 410.29 407.71 418.29 414.72 C 421.00 417.26 424.55 420.97 422.79 424.98 C 420.35 426.17 418.94 423.67 417.82 422.01 C 415.14 417.79 410.98 414.93 407.20 411.80 C 401.97 407.68 396.87 403.40 391.56 399.39 C 389.86 398.07 388.11 396.72 386.94 394.89 C 387.32 393.48 388.07 392.23 388.72 390.94 C 380.09 383.68 371.61 376.24 363.10 368.84 C 359.25 365.51 357.16 360.78 354.42 356.60 C 341.73 336.59 329.77 316.10 316.49 296.46 C 313.93 292.28 309.78 288.56 309.68 283.34 C 310.88 284.13 312.01 285.05 312.79 286.29 C 315.97 290.80 318.99 295.48 322.94 299.37 C 319.16 293.85 315.60 288.15 311.27 283.04 C 312.40 281.91 313.56 280.79 314.72 279.69 C 318.77 285.20 323.09 290.49 327.53 295.68 C 326.36 297.06 325.18 298.44 324.01 299.83 C 336.43 319.78 349.04 339.63 361.38 359.64 C 364.35 364.86 369.40 368.32 373.75 372.29 C 379.69 377.64 385.97 382.62 391.63 388.28 C 394.96 385.30 397.89 381.90 401.08 378.78 C 396.92 374.99 392.87 371.09 388.90 367.11 C 383.04 361.31 376.64 355.99 371.65 349.38 C 358.49 332.50 345.37 315.59 332.60 298.41 C 330.61 295.74 327.97 293.71 325.57 291.44 C 321.80 287.59 318.65 283.20 315.33 278.97 C 316.33 277.97 317.35 276.97 318.37 275.99 C 321.75 281.16 325.73 285.91 329.89 290.47 C 326.37 285.31 322.67 280.26 318.62 275.51 C 319.21 275.38 320.40 275.12 320.99 274.99 C 327.65 281.92 331.93 290.72 337.67 298.38 C 347.78 311.88 358.22 325.13 368.54 338.46 C 373.38 344.57 377.89 351.02 383.69 356.28 C 390.52 362.69 397.25 369.21 403.95 375.77 C 405.26 374.67 406.37 373.22 408.01 372.61 C 416.70 374.62 425.08 377.85 432.97 381.99 C 439.71 385.62 447.07 387.90 454.63 389.00 C 454.61 385.16 454.61 381.32 454.57 377.48 C 441.68 374.59 430.26 365.38 425.47 352.97 C 419.51 352.02 415.76 346.53 413.27 341.51 C 410.22 335.36 411.23 327.84 415.28 322.41 C 421.14 314.48 430.13 308.44 440.07 307.43 C 437.99 305.22 434.52 300.84 437.98 298.48 C 440.57 299.88 440.48 303.29 441.54 305.71 C 444.65 301.38 448.76 297.65 453.87 295.87 C 460.66 293.32 469.06 292.30 475.31 296.74 C 482.94 301.97 487.48 310.19 492.09 317.94 C 502.19 330.94 502.67 350.62 492.97 363.97 C 488.86 369.77 482.89 374.05 476.32 376.68 C 476.31 379.33 476.30 381.98 476.30 384.64 C 491.73 374.95 502.52 359.89 515.34 347.28 C 516.77 345.64 518.78 345.00 520.74 346.32 C 542.24 322.63 563.91 299.08 585.75 275.71 M 602.02 263.02 C 597.95 267.27 593.59 271.36 590.74 276.58 C 577.13 291.36 563.50 306.16 549.89 320.95 C 540.85 330.45 532.32 340.44 523.02 349.67 C 526.92 355.21 531.58 360.16 536.03 365.26 C 555.58 337.59 575.55 310.21 595.64 282.95 C 594.53 280.40 592.62 278.09 592.06 275.37 C 595.73 270.25 600.72 266.23 604.65 261.37 C 603.57 260.97 602.81 262.50 602.02 263.02 M 447.62 316.32 C 446.09 329.38 440.53 342.52 430.35 351.15 C 436.61 369.34 460.22 379.02 477.45 370.45 C 487.30 365.93 493.90 355.70 494.89 345.03 C 495.76 337.32 493.54 329.53 489.78 322.84 C 486.26 323.72 482.72 324.77 479.06 324.72 C 468.15 324.60 456.61 322.98 447.62 316.32 M 459.09 378.27 C 459.13 381.87 459.12 385.47 459.21 389.07 C 463.47 388.89 467.69 388.08 471.69 386.55 C 471.78 383.63 471.81 380.71 471.92 377.80 C 467.67 378.41 463.37 378.42 459.09 378.27 M 464.08 545.21 C 464.94 572.46 465.27 599.73 466.23 626.97 C 466.44 629.66 465.71 632.82 463.10 634.14 C 460.38 635.07 457.44 634.54 454.64 634.60 C 453.89 656.07 453.35 677.55 452.75 699.02 C 466.56 697.93 480.36 696.34 494.23 696.61 C 493.02 676.13 491.45 655.68 490.10 635.22 C 486.41 635.14 482.70 635.59 479.04 635.01 C 476.41 634.44 475.58 631.46 475.40 629.13 C 473.85 601.49 472.56 573.83 471.06 546.18 C 468.72 545.90 466.40 545.59 464.08 545.21 M 436.49 634.59 C 436.60 649.04 436.30 663.49 436.18 677.93 C 440.17 676.28 444.51 675.56 448.77 676.54 C 449.00 662.60 449.39 648.67 449.93 634.75 C 445.45 634.59 440.96 634.55 436.49 634.59 M 494.69 635.36 C 495.68 649.32 496.74 663.28 497.61 677.25 C 501.51 675.05 506.18 675.29 510.42 676.19 C 510.12 662.63 509.81 649.08 509.25 635.54 C 504.40 635.46 499.54 635.47 494.69 635.36 M 561.69 880.82 C 558.03 892.18 553.67 903.98 555.36 916.12 C 556.82 928.41 558.78 940.67 562.00 952.62 C 562.33 952.37 563.01 951.88 563.35 951.63 C 565.16 939.77 567.48 927.93 568.15 915.93 C 566.78 915.58 565.43 915.27 564.07 914.93 C 564.09 913.27 564.23 911.63 564.71 910.05 C 566.12 909.97 567.54 909.91 568.97 909.86 C 569.67 905.44 569.60 900.93 570.44 896.55 C 572.04 894.82 575.82 895.19 575.80 898.03 C 575.42 902.21 574.89 906.38 574.54 910.57 C 577.37 910.60 580.19 910.76 583.02 911.02 C 583.00 912.68 582.98 914.36 582.97 916.05 C 579.90 916.11 576.84 916.14 573.79 916.10 C 572.60 927.59 570.83 939.01 569.05 950.42 C 570.01 948.55 570.81 946.60 571.58 944.65 C 576.00 932.84 583.60 922.37 586.86 910.11 C 588.36 897.53 583.01 885.43 577.59 874.40 C 575.73 871.42 574.50 867.27 571.00 865.92 C 565.71 868.92 563.96 875.53 561.69 880.82 M 474.89 926.87 C 467.31 934.18 461.87 943.81 459.21 953.98 C 458.25 956.33 461.34 956.03 462.73 956.42 C 465.61 946.53 470.69 937.05 478.14 929.86 C 480.06 928.13 476.66 924.32 474.89 926.87 M 539.19 936.71 C 540.93 941.84 544.42 946.12 547.52 950.50 C 548.31 952.04 550.06 952.23 551.59 952.61 C 549.23 947.80 545.75 943.71 542.63 939.41 C 541.77 938.17 540.63 937.15 539.19 936.71 M 724.77 938.57 C 728.96 943.46 734.22 947.33 740.04 950.09 C 740.11 946.12 740.27 942.16 740.52 938.20 C 735.27 938.50 730.01 938.61 724.77 938.57 M 760.68 977.11 C 761.07 983.12 761.12 989.15 761.12 995.18 C 764.79 996.33 768.67 996.47 772.47 996.94 C 769.61 989.75 764.88 983.54 760.68 977.11 Z" />
<path fill="#000000" opacity="1.00" d=" M 481.47 328.45 C 484.67 327.32 487.44 330.88 486.33 333.86 C 485.55 337.37 479.39 337.58 478.73 333.88 C 477.55 331.68 479.12 328.93 481.47 328.45 Z" />
<path fill="#000000" opacity="1.00" d=" M 455.31 329.30 C 458.21 326.46 463.71 330.40 461.79 334.07 C 460.91 336.67 457.32 337.65 455.30 335.74 C 453.11 334.22 453.18 330.83 455.31 329.30 Z" />
<path fill="#000000" opacity="1.00" d=" M 471.04 340.08 C 470.67 338.50 471.28 337.55 472.87 337.24 C 475.49 338.61 477.75 341.02 477.31 344.21 C 474.48 344.55 471.86 342.76 471.04 340.08 Z" />
<path fill="#000000" opacity="1.00" d=" M 463.39 346.64 C 468.02 346.17 473.22 345.17 477.52 347.45 C 480.48 351.69 477.16 358.74 471.94 359.11 C 469.16 359.41 466.30 359.38 463.58 358.69 C 460.27 357.81 457.40 354.52 458.08 350.95 C 458.32 348.29 461.03 346.94 463.39 346.64 Z" />
<path fill="#000000" opacity="1.00" d=" M 426.39 418.20 C 428.14 417.70 429.91 417.86 431.62 418.50 C 429.52 425.85 428.83 433.49 427.00 440.87 C 425.51 440.82 423.96 441.04 422.55 440.48 C 421.51 438.84 422.19 436.71 422.32 434.91 C 423.44 429.29 424.33 423.57 426.39 418.20 Z" />
<path fill="#000000" opacity="1.00" d=" M 671.39 593.48 C 673.62 591.55 675.62 594.45 676.95 596.00 C 683.54 604.76 690.29 613.39 696.90 622.13 C 701.60 628.32 704.93 635.38 709.11 641.92 C 716.62 653.87 725.62 664.78 733.75 676.30 C 754.50 705.68 777.32 733.54 797.74 763.18 C 806.60 775.79 816.94 787.30 827.83 798.19 C 834.74 805.30 842.07 812.17 847.39 820.62 C 850.48 825.49 853.38 830.52 857.13 834.94 C 863.78 842.89 871.27 850.10 878.37 857.64 C 883.23 862.82 888.50 867.66 894.47 871.54 C 913.91 884.47 935.24 894.13 955.58 905.50 C 960.05 908.10 965.50 910.05 967.97 914.98 C 970.38 919.53 972.69 924.14 975.33 928.57 C 978.66 894.31 968.01 858.72 945.65 832.43 C 923.58 805.92 890.51 788.41 855.92 786.62 C 853.34 786.89 853.21 784.36 853.46 782.50 C 856.66 782.18 859.89 782.24 863.10 782.65 C 897.92 786.48 930.67 805.29 952.00 833.00 C 973.85 860.67 983.60 897.18 979.49 932.11 C 978.66 935.02 980.89 937.31 982.36 939.57 C 988.71 948.44 995.12 957.35 1002.84 965.11 C 1009.83 972.25 1017.28 978.93 1024.00 986.33 L 1024.00 994.68 C 1015.27 984.50 1005.01 975.79 995.86 966.02 C 988.70 958.07 982.48 949.34 976.41 940.55 C 971.29 933.43 967.46 925.52 963.13 917.93 C 961.34 914.29 957.27 912.92 954.02 910.98 C 932.00 898.58 908.66 888.42 887.91 873.88 C 880.58 868.71 874.73 861.85 868.49 855.49 C 863.14 849.83 857.58 844.35 852.64 838.33 C 845.69 830.10 841.38 819.95 833.69 812.31 C 819.69 797.92 805.27 783.75 793.77 767.20 C 779.35 746.44 764.04 726.33 748.76 706.21 C 738.34 692.54 728.66 678.31 718.29 664.60 C 711.49 655.62 704.86 646.45 699.45 636.55 C 691.57 622.24 679.99 610.47 671.02 596.91 C 670.15 595.80 669.91 594.20 671.39 593.48 Z" />
<path fill="#000000" opacity="1.00" d=" M 666.50 649.00 C 669.47 641.21 681.06 637.64 687.25 643.72 C 691.28 648.07 693.04 654.17 693.46 659.98 C 693.50 662.52 689.91 663.79 688.51 661.59 C 687.07 656.86 686.86 651.40 683.25 647.65 C 679.08 643.83 671.95 647.86 671.13 652.91 C 671.13 656.10 673.58 658.50 675.06 661.12 C 674.04 662.09 672.98 663.01 671.91 663.93 C 666.30 661.56 664.11 654.39 666.50 649.00 Z" />
<path fill="#000000" opacity="1.00" d=" M 181.06 655.17 C 185.46 653.28 191.41 656.30 192.25 661.06 C 192.52 662.97 190.28 663.39 188.88 663.20 C 186.77 661.83 185.31 658.44 182.31 659.41 C 179.72 662.84 182.64 667.29 181.26 671.03 C 179.95 671.31 177.93 671.77 177.42 670.06 C 176.00 665.12 175.45 657.68 181.06 655.17 Z" />
<path fill="#000000" opacity="1.00" d=" M 199.34 658.18 C 203.77 655.35 208.61 659.86 210.03 663.96 C 210.95 665.76 208.47 667.03 207.01 666.63 C 204.76 665.74 204.64 662.32 202.05 661.93 C 200.87 662.38 200.10 663.66 200.05 664.91 C 199.55 667.35 202.17 669.48 200.95 671.89 C 199.44 673.16 196.97 672.56 196.12 670.84 C 194.45 666.55 194.95 660.66 199.34 658.18 Z" />
<path fill="#000000" opacity="1.00" d=" M 281.17 667.13 C 282.21 663.85 284.20 659.99 288.04 659.57 C 291.39 658.94 294.22 661.62 295.64 664.39 C 298.05 668.94 299.59 674.04 299.81 679.19 C 299.88 681.83 295.21 682.95 294.57 680.11 C 293.23 674.86 292.60 669.10 288.96 664.81 C 285.22 669.45 285.77 675.68 284.16 681.09 C 283.40 683.79 279.14 682.69 279.08 680.18 C 279.20 675.77 280.00 671.37 281.17 667.13 Z" />
<path fill="#000000" opacity="1.00" d=" M 150.25 665.13 C 154.41 662.72 158.89 666.70 160.65 670.33 C 161.92 672.20 158.68 674.78 157.30 672.81 C 155.82 671.62 154.87 669.58 152.88 669.19 C 150.10 670.60 150.51 674.69 152.14 676.88 C 152.88 678.39 154.96 679.91 153.70 681.73 C 152.01 684.28 148.37 683.07 145.79 683.58 C 146.05 686.24 148.12 691.13 144.07 691.88 C 137.64 689.05 141.63 677.44 148.64 679.27 C 148.18 678.90 147.26 678.18 146.80 677.82 C 145.97 673.42 146.07 667.83 150.25 665.13 Z" />
<path fill="#000000" opacity="1.00" d=" M 165.88 682.89 C 168.94 681.06 173.77 682.70 174.95 686.05 C 174.83 689.25 169.90 688.96 168.92 686.44 C 168.16 687.32 167.41 688.20 166.64 689.10 C 167.31 690.05 167.98 691.02 168.65 691.99 C 167.74 692.86 166.58 695.05 165.03 693.87 C 160.77 691.61 161.93 684.87 165.88 682.89 Z" />
<path fill="#000000" opacity="1.00" d=" M 115.70 697.85 C 114.98 694.39 116.34 690.16 119.97 688.98 C 123.61 688.54 128.41 690.87 128.76 694.88 C 126.57 699.03 123.11 693.10 120.09 693.72 C 119.93 696.40 120.85 699.29 119.91 701.86 C 118.01 703.76 115.22 702.54 112.95 702.25 C 112.63 706.04 115.83 708.48 117.68 711.36 C 118.05 713.27 115.20 714.54 113.84 713.27 C 110.66 710.92 107.98 707.08 108.29 702.98 C 108.92 699.67 112.17 696.55 115.70 697.85 Z" />
<path fill="#000000" opacity="1.00" d=" M 143.11 705.01 C 145.83 703.51 151.31 705.26 150.36 708.96 C 149.04 711.00 146.27 709.19 144.33 709.37 C 142.06 711.44 145.17 714.38 143.93 716.77 C 141.21 718.23 138.63 715.62 138.64 712.94 C 137.83 709.54 140.09 706.33 143.11 705.01 Z" />
<path fill="#000000" opacity="1.00" d=" M 174.37 721.37 C 178.28 718.23 181.20 713.59 186.24 712.14 C 186.61 713.39 188.08 714.72 187.18 716.09 C 184.25 720.76 179.59 723.95 175.66 727.71 C 168.10 734.12 161.95 741.93 155.60 749.48 C 145.63 761.54 134.21 772.35 124.93 784.98 C 119.13 792.77 113.55 800.75 107.08 808.02 C 90.94 825.56 74.68 842.99 58.66 860.64 C 38.78 880.56 18.16 899.85 0.00 921.41 L 0.00 913.19 C 5.08 906.81 10.95 901.13 16.44 895.12 C 14.08 891.14 12.13 886.89 9.22 883.27 C 6.07 884.99 2.90 887.39 1.76 890.94 C 2.15 893.83 3.36 896.60 3.15 899.57 C 2.37 899.82 0.79 900.33 0.00 900.59 L 0.00 884.33 C 3.28 881.85 7.07 877.75 11.58 879.50 C 16.37 881.73 17.83 887.25 19.93 891.65 C 29.18 882.32 38.18 872.74 47.81 863.78 C 56.33 855.62 63.76 846.45 71.90 837.92 C 78.82 830.49 85.66 822.98 92.54 815.52 C 98.41 809.08 104.62 802.92 109.82 795.91 C 115.24 788.93 120.22 781.63 125.76 774.77 C 135.64 762.98 146.57 752.12 156.18 740.11 C 161.60 733.26 167.68 726.97 174.37 721.37 Z" />
<path fill="#000000" opacity="1.00" d=" M 350.14 730.79 C 353.05 728.24 356.98 733.86 353.75 735.88 C 350.49 738.97 346.15 732.98 350.14 730.79 Z" />
<path fill="#000000" opacity="1.00" d=" M 584.18 737.04 C 585.12 735.35 586.58 733.25 588.84 734.21 C 593.95 736.56 595.80 742.78 595.87 748.01 C 595.89 750.27 595.77 753.56 593.05 754.23 C 588.69 753.90 590.30 748.76 589.72 745.86 C 589.67 742.05 586.31 739.76 584.18 737.04 Z" />
<path fill="#000000" opacity="1.00" d=" M 304.19 738.99 C 304.69 734.60 309.86 735.21 313.05 735.16 C 315.74 735.64 316.06 738.59 315.05 740.67 C 315.93 742.46 316.31 744.90 314.55 746.30 C 313.25 747.99 309.84 747.27 309.76 745.00 C 309.85 744.16 310.02 742.48 310.10 741.64 C 307.87 742.13 304.17 742.18 304.19 738.99 Z" />
<path fill="#000000" opacity="1.00" d=" M 569.60 736.60 C 571.87 734.23 575.99 734.39 578.23 736.74 C 581.97 740.53 583.75 745.91 584.31 751.12 C 585.01 753.67 581.09 755.64 579.63 753.42 C 577.23 749.39 577.89 743.21 573.27 740.73 C 571.47 744.90 571.75 749.51 570.80 753.87 C 569.85 755.66 567.00 755.53 566.07 753.80 C 565.02 751.68 565.58 749.26 565.81 747.04 C 566.39 743.40 567.01 739.42 569.60 736.60 Z" />
<path fill="#000000" opacity="1.00" d=" M 328.42 737.32 C 332.24 735.80 334.26 742.92 329.91 743.39 C 326.26 743.93 324.87 738.51 328.42 737.32 Z" />
<path fill="#000000" opacity="1.00" d=" M 105.40 739.60 C 112.23 737.09 118.38 743.21 120.82 749.03 C 121.61 751.08 119.02 752.43 117.33 751.77 C 114.92 749.14 113.41 745.47 109.99 743.94 C 107.35 742.99 104.71 745.46 105.16 748.12 C 106.00 751.79 109.62 753.59 112.15 755.99 C 113.40 758.04 111.05 760.16 108.99 759.28 C 104.54 757.82 101.34 753.57 100.31 749.11 C 99.80 745.35 101.85 741.12 105.40 739.60 Z" />
<path fill="#000000" opacity="1.00" d=" M 99.51 776.60 C 96.95 772.64 97.78 765.51 103.08 764.42 C 108.51 763.70 113.10 768.22 115.27 772.80 C 114.14 773.52 113.00 774.24 111.86 774.96 C 110.03 772.61 108.52 768.91 104.95 769.13 C 102.11 768.80 102.40 772.88 103.62 774.43 C 104.86 776.67 108.61 778.12 107.17 781.14 C 103.74 782.70 101.00 779.22 99.51 776.60 Z" />
<path fill="#000000" opacity="1.00" d=" M 45.57 776.64 C 47.43 773.63 50.00 769.57 54.13 770.32 C 56.76 770.72 61.15 772.57 59.06 775.88 C 56.53 777.47 53.92 774.54 51.25 775.58 C 50.89 777.20 51.44 779.54 49.67 780.50 C 46.75 781.52 43.11 780.36 40.57 782.41 C 38.87 785.05 41.12 787.98 42.47 790.25 C 41.55 791.44 39.71 793.24 38.25 791.68 C 34.82 788.25 34.08 781.30 38.39 778.26 C 40.40 776.60 43.12 776.74 45.57 776.64 Z" />
<path fill="#000000" opacity="1.00" d=" M 81.48 775.70 C 84.27 774.63 87.53 775.40 89.59 777.54 C 92.77 780.64 95.91 784.45 96.51 788.98 L 95.86 789.80 C 95.33 789.91 94.28 790.13 93.75 790.24 C 90.37 787.31 88.95 782.48 84.91 780.22 C 81.57 779.23 79.34 783.13 79.59 786.01 C 79.16 789.21 81.57 791.51 83.33 793.82 C 83.79 796.08 80.79 797.46 79.13 796.11 C 72.23 791.28 73.18 778.57 81.48 775.70 Z" />
<path fill="#000000" opacity="1.00" d=" M 146.94 788.33 C 143.13 785.93 146.75 781.03 150.06 780.40 C 152.80 780.46 155.02 782.42 156.26 784.74 C 157.83 787.67 159.61 790.79 159.36 794.25 C 158.61 794.14 157.10 793.93 156.35 793.82 C 154.76 790.55 153.64 787.00 151.18 784.24 C 149.31 785.07 148.18 786.79 146.94 788.33 Z" />
<path fill="#000000" opacity="1.00" d=" M 168.61 787.67 C 170.84 787.62 171.37 791.19 172.03 792.95 C 170.29 798.45 164.06 788.35 168.61 787.67 Z" />
<path fill="#000000" opacity="1.00" d=" M 51.45 804.74 C 54.90 802.38 59.25 804.53 61.75 807.25 C 63.74 809.58 65.92 812.12 66.36 815.27 C 65.79 816.64 64.32 817.01 62.96 816.96 C 60.53 814.08 59.16 809.60 55.02 808.74 C 51.23 808.66 50.65 814.00 53.04 816.03 C 53.99 817.07 55.95 818.25 54.80 819.92 C 52.44 821.66 49.37 819.94 48.09 817.71 C 45.14 813.44 47.07 807.21 51.45 804.74 Z" />
<path fill="#000000" opacity="1.00" d=" M 470.06 804.20 C 473.06 802.71 474.02 806.55 474.94 808.54 C 479.05 807.91 483.92 805.28 487.60 808.50 C 490.22 810.21 493.62 815.00 489.81 817.21 C 486.53 818.93 485.52 813.95 483.17 812.78 C 479.29 813.36 475.21 815.88 471.43 813.52 C 468.19 811.91 466.42 806.23 470.06 804.20 Z" />
<path fill="#000000" opacity="1.00" d=" M 25.91 818.99 C 28.61 813.88 36.25 812.31 40.35 816.62 C 43.81 820.49 46.18 825.27 48.21 830.02 C 49.21 832.45 46.58 833.30 44.82 833.92 C 42.11 828.90 40.08 823.28 35.95 819.23 C 33.95 817.41 31.27 819.23 30.17 821.14 C 26.20 827.13 27.36 834.61 27.22 841.39 C 25.86 841.57 24.49 841.72 23.12 841.89 C 21.69 834.30 22.02 825.83 25.91 818.99 Z" />
<path fill="#000000" opacity="1.00" d=" M 19.96 849.93 C 23.20 844.64 31.75 844.83 35.47 849.49 C 37.96 852.51 40.06 856.06 40.75 859.95 C 40.96 861.68 38.71 862.08 37.71 862.99 C 35.46 859.31 34.37 854.91 31.30 851.77 C 28.96 849.50 24.51 849.93 23.24 853.12 C 20.81 858.66 23.44 864.55 26.70 869.11 C 25.74 870.42 23.91 872.74 22.37 870.68 C 17.61 865.17 15.59 856.24 19.96 849.93 Z" />
<path fill="#000000" opacity="1.00" d=" M 0.00 861.16 C 5.21 864.03 10.42 867.52 13.46 872.79 C 12.83 873.34 11.57 874.43 10.94 874.98 C 7.19 872.25 3.79 869.09 0.00 866.43 L 0.00 861.16 Z" />
<path fill="#000000" opacity="1.00" d=" M 369.52 870.67 C 373.78 869.28 377.89 872.71 379.71 876.32 C 382.12 881.22 383.79 886.67 383.79 892.16 C 383.59 894.44 379.54 895.53 378.78 893.12 C 376.66 887.32 377.15 879.23 370.99 875.89 C 366.96 880.67 368.17 887.27 367.90 893.02 C 368.02 894.63 366.13 895.07 365.13 895.92 C 364.60 895.65 363.56 895.11 363.03 894.85 C 361.22 890.28 361.81 885.20 362.64 880.49 C 363.48 876.55 365.26 871.91 369.52 870.67 Z" />
<path fill="#000000" opacity="1.00" d=" M 392.07 872.08 C 395.51 871.70 397.57 875.25 399.43 877.61 C 401.08 879.73 402.52 884.16 398.98 885.17 C 397.09 886.17 396.29 883.74 395.47 882.61 C 394.11 879.98 391.97 877.92 390.20 875.59 C 389.37 874.19 391.07 872.82 392.07 872.08 Z" />
<path fill="#000000" opacity="1.00" d=" M 54.49 922.43 C 56.13 920.15 59.66 920.66 61.32 922.65 C 64.56 926.54 66.46 931.39 67.67 936.27 C 66.96 936.51 65.54 936.98 64.83 937.22 C 61.92 933.31 61.75 927.38 57.23 924.74 C 55.59 928.14 56.64 931.92 58.04 935.20 C 57.31 936.27 56.54 937.43 55.02 937.10 C 52.26 932.91 51.25 926.62 54.49 922.43 Z" />
<path fill="#000000" opacity="1.00" d=" M 952.84 943.94 C 955.29 940.37 960.95 939.80 963.98 942.93 C 967.29 946.34 967.41 951.52 967.34 955.99 C 967.66 958.01 965.31 959.91 963.60 958.47 C 962.63 954.70 963.36 950.62 961.83 946.98 C 960.80 944.32 956.37 944.87 955.52 947.38 C 953.95 951.43 955.88 955.69 955.94 959.84 C 954.72 959.88 953.52 959.92 952.33 959.96 C 950.73 954.84 949.37 948.59 952.84 943.94 Z" />
<path fill="#000000" opacity="1.00" d=" M 578.53 958.92 C 580.45 953.52 588.01 955.91 589.74 960.26 C 591.88 966.11 589.36 972.99 584.86 977.05 C 583.64 976.25 581.62 975.96 581.62 974.16 C 582.82 970.57 585.60 967.13 584.79 963.16 C 582.90 961.54 580.22 960.90 578.53 958.92 Z" />
<path fill="#000000" opacity="1.00" d=" M 864.73 974.01 C 866.34 971.01 870.59 969.53 873.47 971.68 C 878.35 974.96 878.58 981.34 880.00 986.51 C 881.81 984.68 884.17 982.30 887.02 983.37 C 890.63 984.40 891.25 988.76 891.25 991.97 C 891.72 994.11 889.45 994.55 887.85 994.13 C 886.95 991.94 887.63 989.12 886.09 987.30 C 881.72 986.97 880.93 995.01 876.39 992.69 C 875.37 987.29 875.46 981.38 872.36 976.62 C 871.53 974.92 868.27 974.87 867.89 976.90 C 866.36 981.46 867.40 986.34 868.02 990.99 C 869.26 993.37 864.37 994.50 864.22 992.06 C 862.77 986.20 861.78 979.58 864.73 974.01 Z" />
<path fill="#000000" opacity="1.00" d=" M 477.26 1020.25 C 480.63 1011.73 486.19 1003.69 494.01 998.71 C 495.00 999.80 495.96 1000.91 496.90 1002.08 C 494.01 1005.17 490.71 1007.89 488.35 1011.44 C 485.78 1014.72 484.10 1018.55 481.89 1022.05 C 480.14 1022.93 478.34 1021.51 477.26 1020.25 Z" />
<path fill="#000000" opacity="1.00" d=" M 496.94 1024.00 C 502.02 1018.73 507.70 1013.97 514.11 1010.40 C 515.07 1011.56 516.01 1012.74 516.94 1013.95 C 512.65 1017.40 508.31 1020.80 503.83 1024.00 L 496.94 1024.00 Z" />
</g>
</g></svg>